<svg width="600" height="400" viewBox="0 0 600 400" fill="none" xmlns="http://www.w3.org/2000/svg">
<rect width="600" height="400" fill="white"/>
<g clip-path="url(#clip0)">
<path opacity="0.1" d="M265.996 52.3001C247.46 45.23 227.872 39.3241 207.877 40.0666C178.476 41.155 150.254 57.7462 136.433 82.1078C124.706 102.749 123.259 126.942 118.208 149.848C111.991 178.065 100.063 204.89 87.3268 231.117C80.4877 245.206 73.2701 259.6 72.1471 275.043C70.5909 296.486 81.514 317.852 98.6453 332.115C115.777 346.378 138.527 353.903 161.362 355.544C173.513 356.418 186.211 355.608 197.004 350.301C208.423 344.686 216.747 334.541 228.213 329.006C238.837 323.876 251.266 323.159 263.195 323.826C278.769 324.696 294.144 327.763 308.864 332.938C325.537 338.81 341.041 347.318 357.654 353.275C374.268 359.231 392.876 362.555 409.877 357.586C425.86 352.916 438.478 341.577 449.856 330.094C468.459 311.352 485.511 291.123 500.841 269.606C511.108 255.174 520.665 239.95 525.203 223.131C533.884 190.974 521.939 154.695 495.445 132.734C473.494 114.539 444.034 106.642 415.198 101.85C388.901 97.4799 358.496 97.2099 334.29 85.82C311.207 74.9448 290.202 61.5386 265.996 52.3001Z" fill="#007BFF"/>
<path d="M338.067 301.123V316.449H342.412L341.571 299.997L338.067 301.123Z" fill="#AAABB0"/>
<path d="M272.801 298.031V313.356H277.15L276.309 296.904L272.801 298.031Z" fill="#AAABB0"/>
<path d="M348.721 275.534C348.721 273.98 347.466 272.72 345.917 272.72C344.369 272.72 343.114 273.98 343.114 275.534V297.187C343.114 298.741 344.369 300.001 345.917 300.001C347.466 300.001 348.721 298.741 348.721 297.187V275.534Z" fill="#AAABB0"/>
<path d="M276.797 269.484C276.797 267.93 275.542 266.67 273.994 266.67C272.446 266.67 271.191 267.93 271.191 269.484V297.183C271.191 298.737 272.446 299.996 273.994 299.996C275.542 299.996 276.797 298.737 276.797 297.183V269.484Z" fill="#AAABB0"/>
<path d="M355.875 109.466C355.875 109.466 361.482 107.074 362.323 109.466C363.164 111.858 363.585 132.528 363.585 132.528H358.256L355.875 109.466Z" fill="#AAABB0"/>
<path d="M294.467 109.466C294.467 109.466 288.856 107.074 288.015 109.466C287.174 111.858 286.753 132.528 286.753 132.528H292.082L294.467 109.466Z" fill="#AAABB0"/>
<path d="M295.304 88.9341L294.463 106.091H298.248V88.5122L295.304 88.9341Z" fill="#AAABB0"/>
<path d="M292.082 132.528L293.205 107.778C293.205 107.778 292.784 102.294 306.101 103.981C319.417 105.669 358.399 109.044 358.399 109.044V132.528H292.082Z" fill="#33323D"/>
<path d="M345.36 262.878L343.257 300.701C343.257 300.701 312.41 317.858 274.976 301.545L278.341 261.752L345.36 262.878Z" fill="#33323D"/>
<path d="M316.057 113.962L316.755 138.43H360.22L357.697 106.091L316.057 113.962Z" fill="#444053"/>
<path d="M320.473 246.705H279.531V298.731H320.473V246.705Z" fill="#4C4981"/>
<path d="M305.403 267.941C305.403 267.941 311.291 263.3 312.271 264.705C313.251 266.11 308.772 272.159 306.946 271.455C305.121 270.75 305.403 267.941 305.403 267.941Z" fill="#FFB9B9"/>
<path d="M468.833 131.119H200.079V266.11H468.833V131.119Z" fill="#504F60"/>
<path d="M292.221 87.9513C292.221 87.9513 290.118 68.2637 292.221 65.8761C294.324 63.4884 329.655 40.8437 362.323 67.42C362.323 67.42 365.406 67.5635 364.847 74.5914C364.517 79.0395 364.54 83.5068 364.914 87.9513C364.914 87.9513 294.606 93.0135 292.221 87.9513Z" fill="#33323D"/>
<path opacity="0.1" d="M292.221 87.9513C292.221 87.9513 290.118 68.2637 292.221 65.8761C294.324 63.4884 329.655 40.8437 362.323 67.42C362.323 67.42 365.406 67.5635 364.847 74.5914C364.517 79.0395 364.54 83.5068 364.914 87.9513C364.914 87.9513 294.606 93.0135 292.221 87.9513Z" fill="black"/>
<path d="M292.221 90.4825C292.221 90.4825 290.118 70.795 292.221 68.4073C294.324 66.0197 329.655 43.375 362.323 69.9513C362.323 69.9513 365.406 70.0947 364.847 77.1227C364.517 81.5707 364.54 86.038 364.914 90.4825C364.914 90.4825 294.606 95.5447 292.221 90.4825Z" fill="#33323D"/>
<path d="M366.109 81.4844C366.109 81.4844 368.351 89.9213 367.652 91.326C366.954 92.7308 367.08 96.6708 367.08 96.6708C367.08 96.6708 367.232 99.2019 366.109 99.4803C364.986 99.7588 364.006 99.9022 364.914 100.746C365.823 101.59 364.914 102.855 364.914 102.855C364.914 102.855 364.422 104.825 364.914 106.091C365.406 107.356 362.037 107.884 362.323 109.465C362.609 111.047 363.551 115.51 362.323 115.654C361.095 115.797 362.744 121.277 361.638 121.277C360.532 121.277 359.745 131.119 359.745 131.119C359.745 131.119 351.964 124.513 346.778 126.339C346.778 126.339 347.198 120.855 348.881 118.885C350.563 116.915 350.054 111.857 350.054 111.857L358.399 86.6857L366.109 81.4844Z" fill="#4C4981"/>
<path d="M324.469 197.821C322.647 199.842 320.683 189.051 320.683 189.051C320.683 189.051 315.497 196.222 312.132 191.443C309.802 188.131 311.64 178.749 312.973 173.303C313.571 170.882 314.075 169.237 314.075 169.237L321.646 167.971C321.646 167.971 321.672 169.625 321.84 171.633C322.067 174.345 322.559 177.712 323.606 178.517C325.453 179.914 326.294 195.784 324.469 197.821Z" fill="#AE6E79"/>
<path opacity="0.1" d="M320.545 71.4991C320.545 71.4991 307.363 71.3599 304.141 78.3878C300.919 85.4158 300.776 87.8119 299.514 88.934C298.252 90.0561 313.251 95.9662 313.251 95.9662L313.954 120.151C313.954 120.151 316.898 117.16 321.663 118.514C326.429 119.868 332.46 118.514 332.46 118.514C332.46 118.514 332.178 118.003 336.107 118.514C340.035 119.024 352.511 112.418 352.511 112.418C352.511 112.418 352.717 101.838 352.439 99.5856C352.161 97.333 361.339 80.7797 361.339 80.7797C361.339 80.7797 368.489 73.891 361.061 71.4991C361.061 71.4991 358.433 67.5253 351.669 67.5633C344.906 67.6012 320.545 71.4991 320.545 71.4991Z" fill="black"/>
<path d="M320.545 71.0775C320.545 71.0775 307.363 70.9382 304.141 77.9662C300.919 84.9942 300.776 87.3903 299.514 88.5124C298.252 89.6345 313.251 95.5445 313.251 95.5445L313.954 119.729C313.954 119.729 316.898 116.738 321.663 118.092C326.429 119.446 332.46 118.092 332.46 118.092C332.46 118.092 332.178 117.582 336.107 118.092C340.035 118.603 352.511 111.997 352.511 111.997C352.511 111.997 357.415 103.981 357.137 101.733C356.86 99.4846 366.95 82.4673 366.95 82.4673C366.95 82.4673 368.494 73.4693 361.061 71.0775C361.061 71.0775 358.433 67.1037 351.669 67.1416C344.906 67.1796 320.545 71.0775 320.545 71.0775Z" fill="#4C4981"/>
<path opacity="0.1" d="M321.874 171.62C318.984 170.717 314.45 172.708 313.007 173.307C313.604 170.886 314.109 169.241 314.109 169.241L321.68 167.975C321.68 167.975 321.693 169.629 321.874 171.62Z" fill="black"/>
<path d="M303.577 88.5125H299.514C299.514 88.5125 298.673 97.0928 299.514 99.6239C300.355 102.155 300.776 101.788 300.494 103.661C300.212 105.534 302.459 108.402 302.459 108.402C302.459 108.402 302.736 115.473 304.141 118.105C305.546 120.737 302.597 132.541 302.597 132.541C303.401 134.578 304.591 136.44 306.101 138.025C308.486 140.412 309.748 149.271 309.045 152.646C308.343 156.02 311.009 157.286 311.009 157.286C311.009 157.286 312.132 173.038 312.553 173.038C312.974 173.038 321.104 168.819 323.628 172.473L321.663 157.991L321.806 130.009C321.806 130.009 319.14 126.491 320.545 123.399C321.949 120.307 319.422 112.992 319.422 112.992L315.775 96.6836L303.577 88.5125Z" fill="#4C4981"/>
<path d="M278.341 310.825C278.341 310.825 272.452 309.56 272.314 310.825C272.175 312.091 265.302 325.029 273.857 328.825C282.412 332.622 305.26 340.776 342.416 330.23C342.416 330.23 344.797 331.074 344.237 325.872C343.678 320.671 343.678 314.904 343.678 314.904C343.678 314.904 338.067 313.356 333.861 313.921C329.655 314.487 293.062 321.937 278.341 310.825Z" fill="#33323D"/>
<path opacity="0.1" d="M278.341 310.825C278.341 310.825 272.452 309.56 272.314 310.825C272.175 312.091 265.302 325.029 273.857 328.825C282.412 332.622 305.26 340.776 342.416 330.23C342.416 330.23 344.797 331.074 344.237 325.872C343.678 320.671 343.678 314.904 343.678 314.904C343.678 314.904 338.067 313.356 333.861 313.921C329.655 314.487 293.062 321.937 278.341 310.825Z" fill="black"/>
<path d="M278.341 309.138C278.341 309.138 272.452 307.872 272.314 309.138C272.175 310.403 265.302 323.341 273.857 327.138C282.412 330.935 305.26 339.089 342.416 328.543C342.416 328.543 344.797 329.387 344.237 324.185C343.678 318.984 343.678 313.217 343.678 313.217C343.678 313.217 338.067 311.669 333.861 312.234C329.655 312.8 293.062 320.249 278.341 309.138Z" fill="#33323D"/>
<path d="M312.679 93.5661C312.318 95.6289 311.497 97.6116 311.371 99.6998C311.245 101.788 312.048 104.163 313.971 104.981C314.507 105.142 315.027 105.354 315.523 105.614C316.263 106.116 316.566 107.061 316.721 107.947C316.928 109.091 316.977 110.257 316.868 111.414C316.763 112.579 316.515 113.832 317.087 114.848C318.092 116.65 320.713 116.384 322.707 115.878L322.021 121.205C321.966 121.627 321.933 122.104 322.24 122.391C322.385 122.493 322.549 122.566 322.722 122.603C322.896 122.641 323.075 122.643 323.249 122.61C324.982 122.501 326.765 122.26 328.25 121.345C329.735 120.429 330.841 118.725 330.559 117.008C330.231 115.017 328.179 113.435 328.456 111.436C328.671 109.887 330.181 108.904 331.173 107.715C332.969 105.538 333.066 102.231 331.657 99.7672C330.248 97.3037 327.527 95.7766 324.725 95.4982C323.173 95.3421 321.558 95.5319 320.099 94.9919C319.591 94.8051 319.133 94.5031 318.761 94.1094C318.389 93.7157 318.113 93.241 317.954 92.7224" fill="#444053"/>
<path d="M263.763 281.157L265.231 277.951C265.231 277.951 273.155 270.547 274.976 270.028C276.797 269.509 284.229 267.248 285.352 267.248C286.475 267.248 306.946 266.122 306.946 266.122L309.327 271.75L283.636 277.406L274.976 283.734L263.763 281.157Z" fill="#767D9F"/>
<path d="M325.487 194.817L324.145 205.174L323.627 209.16L317.6 210.004C317.6 210.004 316.948 208.603 316.027 206.452C313.23 199.922 307.964 186.456 311.018 184.132C315.077 181.036 316.065 191.303 316.065 191.303L320.692 189.051L325.487 194.817Z" fill="#FFB9B9"/>
<path d="M324.482 214.083H294.042V260.204H324.482V214.083Z" fill="white"/>
<path opacity="0.1" d="M324.482 214.083H294.042V260.204H324.482V214.083Z" fill="black"/>
<path d="M338.162 216.581L308.05 212.115L301.325 257.74L331.437 262.205L338.162 216.581Z" fill="white"/>
<path d="M326.384 218.765L310.885 216.467L307.424 239.949L322.922 242.247L326.384 218.765Z" fill="#007BFF"/>
<path d="M324.54 249.416L305.762 246.631L305.01 251.731L323.788 254.515L324.54 249.416Z" fill="#007BFF"/>
<path opacity="0.1" d="M332.46 97.7214C342.177 97.7214 350.054 89.821 350.054 80.0755C350.054 70.33 342.177 62.4297 332.46 62.4297C322.743 62.4297 314.866 70.33 314.866 80.0755C314.866 89.821 322.743 97.7214 332.46 97.7214Z" fill="black"/>
<path d="M332.46 97.2997C342.177 97.2997 350.054 89.3994 350.054 79.6539C350.054 69.9084 342.177 62.0081 332.46 62.0081C322.743 62.0081 314.866 69.9084 314.866 79.6539C314.866 89.3994 322.743 97.2997 332.46 97.2997Z" fill="#AE6E79"/>
<path d="M317.953 92.7308C317.834 92.2763 317.877 91.7941 318.075 91.3683C318.744 89.9719 320.65 89.8496 322.193 89.9213C325.823 90.0901 329.806 90.1112 332.645 87.8121C333.823 86.8672 335.139 84.4922 336.851 84.9435C338.374 85.3443 339.009 87.4156 340.595 87.8754C341.743 88.2086 342.933 87.6771 344.103 87.4535C345.785 87.1203 347.509 87.3987 349.217 87.4113C350.925 87.424 352.78 87.0992 353.945 85.8463C355.518 84.1589 355.261 81.5224 355.122 79.2106C354.95 76.2245 355.152 73.2285 355.724 70.2928C356.296 67.3736 357.175 64.1085 355.568 61.607C354.037 59.2236 350.866 58.5697 348.7 56.7431C346.672 55.0557 345.6 52.3517 343.459 50.7866C340.763 48.8166 337.099 49.0992 333.785 49.4409L326.593 50.2087C324.738 50.407 322.807 50.6305 321.28 51.74C318.526 53.7396 318.147 57.8947 315.539 60.0841C314.378 61.0544 312.894 61.5353 311.569 62.2609C310.244 62.9864 308.965 64.1339 308.814 65.6356C308.688 66.9012 309.369 68.0697 309.701 69.2888C310.488 72.1996 309.26 75.1947 308.473 78.1265C307.687 81.0583 307.535 84.6187 309.819 86.5634C310.282 86.96 310.82 87.2637 311.27 87.6771C312.814 89.0903 313.024 91.4737 312.666 93.5323" fill="#444053"/>
<path d="M333.895 101.695C334.127 101.695 334.315 101.223 334.315 100.64C334.315 100.058 334.127 99.5857 333.895 99.5857C333.662 99.5857 333.474 100.058 333.474 100.64C333.474 101.223 333.662 101.695 333.895 101.695Z" fill="#444053"/>
<path d="M333.895 106.091C334.127 106.091 334.315 105.619 334.315 105.036C334.315 104.454 334.127 103.981 333.895 103.981C333.662 103.981 333.474 104.454 333.474 105.036C333.474 105.619 333.662 106.091 333.895 106.091Z" fill="#444053"/>
<path d="M324.566 197.792C325.016 197.273 325.314 195.94 325.487 194.181L320.473 187.912C320.473 187.912 322.597 200.066 324.566 197.792Z" fill="#AE6E79"/>
<path opacity="0.1" d="M330.218 301.405C330.218 301.405 321.991 314.162 296.288 312.795C272.074 311.53 260.255 299.579 260.818 295.36C261.382 291.142 259.275 280.874 264.461 277.921C267.468 276.213 271.426 277.225 274.219 278.381C275.184 278.774 276.24 278.885 277.265 278.7C278.29 278.516 279.242 278.044 280.011 277.339C282.564 275.032 287.325 272.433 294.841 274.479C295.808 274.738 296.829 274.719 297.786 274.424C300.915 273.467 308.364 271.804 313.769 275.496C314.623 276.086 315.627 276.421 316.664 276.46C317.7 276.5 318.727 276.243 319.623 275.719L319.699 275.673C322.223 274.125 334 288.75 334 288.75C334 288.75 334.563 300.001 330.218 301.405Z" fill="black"/>
<path d="M330.218 301.827C330.218 301.827 321.991 314.584 296.288 313.217C272.074 311.952 260.255 300.001 260.818 295.782C261.382 291.564 259.275 281.296 264.461 278.343C267.468 276.635 271.426 277.647 274.219 278.803C275.184 279.196 276.24 279.307 277.265 279.122C278.29 278.938 279.242 278.466 280.011 277.761C282.564 275.453 287.325 272.855 294.841 274.901C295.808 275.16 296.829 275.141 297.786 274.846C300.915 273.888 308.364 272.226 313.769 275.917C314.623 276.508 315.627 276.843 316.664 276.882C317.7 276.922 318.727 276.665 319.623 276.141L319.699 276.095C322.223 274.546 334 289.172 334 289.172C334 289.172 334.563 300.423 330.218 301.827Z" fill="#767D9F"/>
<path opacity="0.1" d="M296.288 306.822C305.543 306.822 313.045 299.297 313.045 290.016C313.045 280.734 305.543 273.209 296.288 273.209C287.034 273.209 279.531 280.734 279.531 290.016C279.531 299.297 287.034 306.822 296.288 306.822Z" fill="black"/>
<path d="M296.288 307.244C305.543 307.244 313.045 299.719 313.045 290.437C313.045 281.156 305.543 273.631 296.288 273.631C287.034 273.631 279.531 281.156 279.531 290.437C279.531 299.719 287.034 307.244 296.288 307.244Z" fill="#FFB9B9"/>
<path d="M291.485 275.909C289.727 276.386 287.994 277.297 287.136 278.794C286.618 279.697 286.438 280.781 285.689 281.532C284.629 282.599 282.841 282.621 281.407 283.22C279.973 283.819 279.026 285.928 280.431 286.594C278.968 286.67 277.882 288.024 277.702 289.37C277.521 290.716 278.03 292.057 278.522 293.34C280.128 297.491 281.857 301.823 285.399 304.776C291.169 309.593 299.868 309.37 307.619 308.859C308.253 308.88 308.881 308.735 309.441 308.438C310.282 307.881 310.387 306.813 310.526 305.877C311.11 301.878 313.272 298.246 314.685 294.428C316.099 290.61 316.679 286.126 314.299 282.747C310.795 277.736 297.382 274.306 291.485 275.909Z" fill="#B96B6B"/>
<path opacity="0.1" d="M324.145 205.174L323.628 209.16L317.6 210.004C317.6 210.004 316.948 208.603 316.027 206.452L324.048 204.942L324.145 205.174Z" fill="black"/>
<path d="M330.496 293.251L334.004 289.172L333.301 266.675C333.647 265.052 333.882 263.407 334.004 261.752C334.143 259.36 332.25 254.019 332.25 254.019C332.543 252.95 332.942 251.913 333.44 250.923C334.281 249.236 332.254 245.439 332.254 245.439C332.254 245.439 329.234 235.597 330.496 230.675C331.758 225.752 330.189 222.942 330.189 222.942C330.189 222.942 328.956 217.458 329.095 215.21C329.234 212.961 326.29 210.848 326.29 210.848L324.048 205.364L315.076 207.051V226.034C315.076 226.034 315.636 244.174 315.076 247.692C314.517 251.21 316.195 254.581 316.195 254.581C316.195 254.581 315.215 259.782 316.056 261.752C316.898 263.722 318.58 268.501 318.58 268.501C318.268 270.21 318.364 271.968 318.862 273.631C319.703 276.095 318.862 277.499 318.862 277.499L330.496 293.251Z" fill="#767D9F"/>
<g opacity="0.1">
<path opacity="0.1" d="M355.737 68.9052C355.262 71.3745 355.049 73.8872 355.101 76.4014C355.137 74.3108 355.356 72.2274 355.753 70.175C356.123 68.302 356.595 66.2855 356.494 64.4167C356.339 65.9278 356.086 67.4271 355.737 68.9052V68.9052Z" fill="black"/>
<path opacity="0.1" d="M311.283 86.319C310.833 85.8972 310.294 85.6019 309.832 85.2011C308.604 84.1507 308.086 82.6279 307.985 80.9827C307.863 83.0919 308.292 85.1336 309.832 86.4667C310.294 86.8674 310.833 87.1712 311.283 87.5846C312.224 88.5183 312.769 89.78 312.805 91.107C312.927 89.3352 312.57 87.4918 311.283 86.319Z" fill="black"/>
<path opacity="0.1" d="M309.941 70.5674C310.015 69.6765 309.938 68.7794 309.714 67.914C309.47 67.0113 309.033 66.1296 308.873 65.2227C308.873 65.3197 308.839 65.4209 308.826 65.5264C308.704 66.7919 309.386 67.9604 309.714 69.1796C309.835 69.6336 309.911 70.0985 309.941 70.5674V70.5674Z" fill="black"/>
<path opacity="0.1" d="M353.957 84.4586C352.792 85.7241 350.937 86.0363 349.23 86.0236C347.522 86.011 345.793 85.7326 344.115 86.07C342.946 86.3063 341.756 86.8336 340.607 86.4919C339.022 86.0321 338.387 83.9608 336.868 83.56C335.139 83.1045 333.823 85.4794 332.662 86.4244C329.823 88.7023 325.84 88.6813 322.21 88.5336C320.666 88.4619 318.761 88.5842 318.097 89.9848C317.894 90.4094 317.85 90.8932 317.975 91.3473L312.835 92.1573C312.815 92.5816 312.769 93.0043 312.696 93.4228L317.975 92.5791C317.85 92.125 317.894 91.6412 318.097 91.2165C318.761 89.816 320.666 89.6937 322.21 89.7654C325.84 89.9341 329.823 89.9552 332.662 87.6562C333.84 86.7112 335.156 84.3362 336.868 84.7918C338.387 85.1884 339.022 87.2639 340.607 87.7237C341.756 88.0527 342.946 87.5254 344.115 87.3018C345.798 86.9643 347.522 87.2428 349.23 87.2554C350.937 87.2681 352.792 86.9433 353.957 85.6904C355.122 84.4375 355.291 82.5687 355.219 80.7463C355.169 82.1595 354.879 83.4672 353.957 84.4586Z" fill="black"/>
</g>
<g opacity="0.1">
<path opacity="0.1" d="M315.022 104.72C314.527 104.458 314.007 104.246 313.47 104.087C312.557 103.671 311.832 102.928 311.438 102.003C311.754 103.459 312.553 104.783 313.89 105.353C314.427 105.512 314.947 105.724 315.443 105.985C315.759 106.21 316.015 106.51 316.187 106.859C316.019 106.032 315.712 105.188 315.022 104.72Z" fill="black"/>
<path opacity="0.1" d="M322.206 114.983C320.267 115.477 317.735 115.734 316.671 114.084C316.704 114.482 316.818 114.868 317.007 115.219C317.916 116.843 320.137 116.789 322.025 116.388L322.206 114.983Z" fill="black"/>
<path opacity="0.1" d="M330.063 116.139C330.332 117.852 329.222 119.56 327.749 120.459C326.277 121.357 324.481 121.606 322.749 121.724C322.473 121.76 322.193 121.728 321.933 121.631C321.854 121.81 321.828 122.007 321.859 122.2C321.89 122.393 321.977 122.572 322.108 122.716C322.239 122.86 322.41 122.963 322.598 123.011C322.786 123.06 322.985 123.052 323.169 122.99C324.902 122.88 326.685 122.64 328.17 121.724C329.655 120.809 330.765 119.105 330.479 117.388C330.398 116.954 330.258 116.534 330.063 116.139V116.139Z" fill="black"/>
<path opacity="0.1" d="M331.93 100.868C332.187 101.894 332.207 102.965 331.988 103.999C331.769 105.034 331.318 106.004 330.668 106.837C329.676 108.044 328.166 109.01 327.951 110.558C327.88 111.27 328.026 111.986 328.372 112.612C328.334 112.351 328.334 112.085 328.372 111.824C328.586 110.275 330.096 109.292 331.089 108.103C332.721 106.124 332.948 103.209 331.93 100.868Z" fill="black"/>
</g>
<g opacity="0.1">
<path opacity="0.1" d="M281.411 283.87C282.842 283.275 284.629 283.254 285.693 282.182C286.442 281.431 286.623 280.347 287.14 279.449C287.981 277.947 289.727 277.04 291.485 276.563C297.374 274.96 310.799 278.386 314.299 283.351C315.324 284.853 315.883 286.626 315.905 288.447C316.04 286.345 315.477 284.258 314.303 282.511C310.803 277.546 297.39 274.121 291.489 275.724C289.731 276.2 287.998 277.107 287.144 278.609C286.627 279.508 286.446 280.592 285.697 281.343C284.633 282.41 282.846 282.431 281.416 283.03C280.326 283.481 279.519 284.814 279.813 285.709C279.931 285.304 280.134 284.93 280.41 284.613C280.686 284.295 281.028 284.041 281.411 283.87V283.87Z" fill="black"/>
<path opacity="0.1" d="M277.71 289.999C277.887 288.649 278.972 287.299 280.44 287.223C280.286 287.159 280.148 287.061 280.037 286.936C279.925 286.811 279.843 286.663 279.796 286.502C279.238 286.71 278.747 287.067 278.376 287.535C278.006 288.002 277.769 288.563 277.693 289.155C277.653 289.499 277.653 289.846 277.693 290.189C277.71 290.126 277.71 290.062 277.71 289.999Z" fill="black"/>
</g>
<path d="M366.807 137.126H328.532V187.186H366.807V137.126Z" fill="white"/>
<path opacity="0.1" d="M366.807 137.126H328.532V187.186H366.807V137.126Z" fill="black"/>
<path d="M381.431 140.063L343.71 146.57L352.171 195.906L389.892 189.399L381.431 140.063Z" fill="white"/>
<path d="M361.714 178.674L352.852 180.203L354.84 191.793L363.702 190.265L361.714 178.674Z" fill="#007BFF"/>
<path d="M373.978 176.556L365.115 178.085L367.103 189.676L375.966 188.147L373.978 176.556Z" fill="#007BFF"/>
<path d="M382.644 159.574L351.564 164.927L353.557 176.57L384.638 171.218L382.644 159.574Z" fill="#007BFF"/>
<path d="M380.054 145.678L348.974 151.03L349.418 153.628L380.498 148.275L380.054 145.678Z" fill="#007BFF"/>
<path d="M381.073 150.456L349.993 155.809L350.437 158.407L381.518 153.054L381.073 150.456Z" fill="#007BFF"/>
<path d="M350.054 123.526C350.054 123.526 332.46 141.243 341.293 145.744C350.126 150.245 355.875 130.769 355.875 130.769L357.272 126.339L350.054 123.526Z" fill="#AE6E79"/>
<path opacity="0.1" d="M348.515 121.961L346.34 126.778C346.34 126.778 357.066 128.288 359.308 131.541L357.979 123.04L356.401 119.413L348.515 121.961Z" fill="black"/>
<path d="M348.935 121.539L346.761 126.356C346.761 126.356 357.486 127.866 359.728 131.119L358.399 122.619L356.822 118.991L348.935 121.539Z" fill="#4C4981"/>
<path d="M413.86 210.114L413.629 210.274L413.948 210.417L414.293 210.388L414.335 210.148L413.86 210.114Z" fill="#464A5F"/>
<path opacity="0.1" d="M413.86 210.114L413.629 210.274L413.948 210.417L414.293 210.388L414.335 210.148L413.86 210.114Z" fill="black"/>
<path d="M413.86 210.114L413.625 210.266L413.44 210.038L413.553 209.852L413.658 209.818L413.86 210.114Z" fill="#9C9CA1"/>
<path opacity="0.1" d="M413.86 210.114L413.625 210.266L413.44 210.038L413.553 209.852L413.658 209.818L413.86 210.114Z" fill="black"/>
<path d="M455.26 180.96L438.041 156.016C437.888 155.793 437.693 155.603 437.467 155.456C437.241 155.309 436.989 155.208 436.724 155.159C436.459 155.11 436.187 155.114 435.924 155.171C435.66 155.227 435.411 155.335 435.189 155.489L396.805 181.913C396.356 182.222 396.047 182.697 395.947 183.234C395.847 183.771 395.963 184.326 396.27 184.777L413.444 210.038L455.26 180.96Z" fill="#9C9CA1"/>
<path opacity="0.1" d="M455.26 180.96L438.041 156.016C437.888 155.793 437.693 155.603 437.467 155.456C437.241 155.309 436.989 155.208 436.724 155.159C436.459 155.11 436.187 155.114 435.924 155.171C435.66 155.227 435.411 155.335 435.189 155.489L396.805 181.913C396.356 182.222 396.047 182.697 395.947 183.234C395.847 183.771 395.963 184.326 396.27 184.777L413.444 210.038L455.26 180.96Z" fill="black"/>
<path d="M455.681 181.019L438.461 156.075C438.308 155.853 438.113 155.662 437.887 155.515C437.66 155.368 437.407 155.267 437.142 155.218C436.877 155.169 436.605 155.173 436.341 155.23C436.077 155.286 435.827 155.394 435.605 155.548L397.225 181.989C396.776 182.299 396.468 182.773 396.367 183.31C396.266 183.847 396.381 184.402 396.687 184.854L413.86 210.127L455.681 181.019Z" fill="#9C9CA1"/>
<path d="M470.074 185.95L455.773 181.344L413.948 210.422L428.476 215.188C428.801 215.294 429.147 215.323 429.485 215.272C429.823 215.22 430.144 215.091 430.424 214.893L470.192 186.731C470.266 186.689 470.326 186.625 470.364 186.548C470.401 186.471 470.415 186.384 470.402 186.3C470.389 186.215 470.351 186.136 470.292 186.074C470.234 186.011 470.158 185.968 470.074 185.95Z" fill="#464A5F"/>
<path opacity="0.1" d="M470.074 185.95L455.773 181.344L413.948 210.422L428.476 215.188C428.801 215.294 429.147 215.323 429.485 215.272C429.823 215.22 430.144 215.091 430.424 214.893L470.192 186.731C470.266 186.689 470.326 186.625 470.364 186.548C470.401 186.471 470.415 186.384 470.402 186.3C470.389 186.215 470.351 186.136 470.292 186.074C470.234 186.011 470.158 185.968 470.074 185.95Z" fill="black"/>
<path d="M469.986 185.659L455.685 181.048L413.86 210.126L428.388 214.885C428.713 214.992 429.058 215.022 429.396 214.972C429.735 214.921 430.056 214.792 430.335 214.594L470.104 186.431C470.175 186.388 470.233 186.325 470.268 186.249C470.304 186.173 470.316 186.088 470.303 186.005C470.291 185.923 470.254 185.845 470.197 185.784C470.141 185.722 470.067 185.679 469.986 185.659V185.659Z" fill="#464A5F"/>
<g opacity="0.1">
<path opacity="0.1" d="M448.926 179.906L447.87 178.387C447.807 178.299 447.712 178.239 447.605 178.219C447.499 178.199 447.389 178.222 447.298 178.282L445.729 179.332C445.641 179.394 445.581 179.488 445.559 179.594C445.538 179.7 445.559 179.81 445.616 179.901L446.588 181.399C446.648 181.489 446.741 181.551 446.847 181.574C446.953 181.597 447.063 181.578 447.155 181.521L448.808 180.479C448.898 180.418 448.961 180.323 448.983 180.216C449.005 180.109 448.984 179.998 448.926 179.906V179.906Z" fill="black"/>
<path opacity="0.1" d="M446.108 181.863L445.048 180.349C444.985 180.261 444.89 180.2 444.783 180.181C444.677 180.161 444.567 180.183 444.476 180.243L442.911 181.302C442.823 181.364 442.761 181.457 442.739 181.563C442.717 181.669 442.737 181.78 442.794 181.872L443.765 183.369C443.825 183.459 443.918 183.523 444.024 183.547C444.13 183.57 444.24 183.552 444.333 183.496L445.99 182.454C446.037 182.423 446.077 182.383 446.109 182.337C446.14 182.29 446.162 182.238 446.173 182.183C446.184 182.128 446.184 182.072 446.172 182.017C446.161 181.962 446.139 181.909 446.108 181.863Z" fill="black"/>
<path opacity="0.1" d="M443.147 183.918L442.087 182.403C442.024 182.315 441.929 182.255 441.822 182.235C441.716 182.216 441.606 182.238 441.515 182.298L439.946 183.356C439.857 183.419 439.795 183.513 439.774 183.62C439.753 183.727 439.774 183.838 439.833 183.93L440.804 185.428C440.865 185.517 440.958 185.58 441.064 185.603C441.169 185.626 441.28 185.607 441.372 185.55L443.025 184.508C443.072 184.478 443.113 184.438 443.145 184.392C443.176 184.346 443.198 184.294 443.21 184.239C443.221 184.184 443.222 184.127 443.211 184.072C443.2 184.017 443.178 183.964 443.147 183.918V183.918Z" fill="black"/>
<path opacity="0.1" d="M440.148 186.001L439.088 184.483C439.025 184.396 438.931 184.336 438.825 184.317C438.719 184.297 438.61 184.319 438.52 184.377L436.951 185.44C436.863 185.503 436.802 185.596 436.781 185.702C436.76 185.808 436.78 185.918 436.838 186.01L437.809 187.507C437.87 187.597 437.961 187.66 438.066 187.683C438.171 187.707 438.281 187.689 438.373 187.634L440.03 186.588C440.076 186.557 440.116 186.518 440.147 186.472C440.178 186.425 440.2 186.374 440.211 186.319C440.221 186.265 440.222 186.209 440.211 186.154C440.2 186.1 440.179 186.048 440.148 186.001Z" fill="black"/>
<path opacity="0.1" d="M437.153 188.081L436.093 186.567C436.03 186.479 435.935 186.418 435.828 186.399C435.722 186.379 435.612 186.402 435.521 186.461L433.957 187.52C433.868 187.582 433.806 187.675 433.784 187.781C433.762 187.887 433.782 187.998 433.839 188.09L434.81 189.587C434.871 189.678 434.963 189.741 435.069 189.765C435.175 189.788 435.286 189.77 435.378 189.714L437.035 188.667C437.082 188.637 437.121 188.597 437.152 188.551C437.183 188.505 437.205 188.453 437.216 188.399C437.227 188.344 437.227 188.288 437.216 188.234C437.205 188.179 437.184 188.127 437.153 188.081Z" fill="black"/>
<path opacity="0.1" d="M434.289 190.351L432.972 188.469C432.958 188.448 432.94 188.43 432.919 188.417C432.899 188.403 432.875 188.393 432.85 188.388C432.826 188.384 432.8 188.384 432.776 188.389C432.751 188.394 432.728 188.404 432.707 188.419L430.781 189.722C430.76 189.736 430.741 189.754 430.727 189.774C430.713 189.795 430.703 189.819 430.698 189.844C430.693 189.868 430.693 189.894 430.698 189.919C430.702 189.943 430.712 189.967 430.726 189.988L431.933 191.848C431.961 191.891 432.004 191.921 432.054 191.932C432.103 191.943 432.155 191.934 432.198 191.907L434.234 190.642C434.259 190.628 434.28 190.609 434.296 190.586C434.312 190.563 434.324 190.537 434.329 190.509C434.334 190.481 434.333 190.453 434.326 190.425C434.319 190.398 434.307 190.373 434.289 190.351V190.351Z" fill="black"/>
<path opacity="0.1" d="M431.294 192.43L429.969 190.549C429.955 190.528 429.936 190.51 429.915 190.496C429.894 190.482 429.87 190.472 429.845 190.468C429.82 190.463 429.794 190.463 429.769 190.469C429.745 190.474 429.721 190.484 429.7 190.498L427.774 191.802C427.732 191.831 427.704 191.875 427.695 191.924C427.685 191.974 427.695 192.025 427.723 192.068L428.93 193.928C428.943 193.95 428.96 193.969 428.981 193.984C429.002 193.999 429.025 194.01 429.05 194.016C429.075 194.021 429.101 194.021 429.126 194.016C429.151 194.012 429.174 194.002 429.195 193.987L431.227 192.721C431.253 192.709 431.276 192.691 431.294 192.669C431.312 192.647 431.325 192.62 431.331 192.592C431.338 192.564 431.338 192.535 431.331 192.507C431.325 192.479 431.312 192.453 431.294 192.43V192.43Z" fill="black"/>
<path opacity="0.1" d="M428.64 194.274L427.324 192.409C427.294 192.368 427.25 192.341 427.201 192.332C427.151 192.324 427.1 192.335 427.059 192.363L425.132 193.662C425.09 193.691 425.061 193.736 425.051 193.786C425.041 193.836 425.05 193.889 425.078 193.932L426.285 195.792C426.313 195.834 426.356 195.864 426.406 195.875C426.455 195.886 426.507 195.877 426.55 195.851L428.586 194.586C428.614 194.573 428.638 194.553 428.657 194.528C428.676 194.503 428.688 194.475 428.694 194.444C428.699 194.413 428.697 194.382 428.688 194.352C428.678 194.323 428.662 194.296 428.64 194.274V194.274Z" fill="black"/>
<path opacity="0.1" d="M425.671 196.332L424.354 194.451C424.325 194.41 424.281 194.382 424.231 194.374C424.182 194.365 424.131 194.376 424.089 194.404L422.163 195.704C422.141 195.718 422.123 195.736 422.109 195.757C422.095 195.778 422.085 195.802 422.079 195.827C422.074 195.852 422.074 195.878 422.079 195.903C422.084 195.928 422.094 195.952 422.108 195.974L423.315 197.834C423.344 197.876 423.387 197.905 423.436 197.916C423.485 197.927 423.537 197.919 423.58 197.893L425.616 196.627C425.641 196.613 425.662 196.594 425.678 196.57C425.694 196.547 425.706 196.52 425.711 196.492C425.716 196.464 425.715 196.435 425.708 196.408C425.701 196.38 425.688 196.354 425.671 196.332V196.332Z" fill="black"/>
<path opacity="0.1" d="M422.794 198.315L421.477 196.433C421.463 196.413 421.445 196.395 421.424 196.381C421.403 196.367 421.38 196.357 421.355 196.352C421.331 196.348 421.305 196.348 421.281 196.353C421.256 196.358 421.233 196.368 421.212 196.383L419.286 197.686C419.265 197.7 419.246 197.718 419.232 197.739C419.218 197.759 419.208 197.783 419.203 197.808C419.198 197.832 419.198 197.858 419.202 197.883C419.207 197.908 419.217 197.931 419.231 197.952L420.438 199.812C420.466 199.855 420.509 199.885 420.559 199.896C420.608 199.907 420.66 199.898 420.703 199.871L422.739 198.606C422.764 198.592 422.785 198.573 422.801 198.55C422.817 198.527 422.829 198.501 422.834 198.473C422.839 198.445 422.838 198.417 422.831 198.39C422.824 198.362 422.812 198.337 422.794 198.315V198.315Z" fill="black"/>
<path opacity="0.1" d="M419.917 200.331L418.613 198.446C418.583 198.405 418.539 198.378 418.49 198.369C418.44 198.36 418.389 198.371 418.348 198.399L416.421 199.699C416.4 199.713 416.382 199.731 416.367 199.752C416.353 199.773 416.343 199.797 416.338 199.822C416.333 199.847 416.333 199.873 416.338 199.898C416.343 199.923 416.353 199.947 416.367 199.969L417.574 201.829C417.602 201.871 417.645 201.9 417.695 201.911C417.744 201.922 417.796 201.914 417.839 201.888L419.875 200.623C419.898 200.608 419.918 200.588 419.933 200.564C419.948 200.541 419.958 200.514 419.962 200.487C419.966 200.459 419.964 200.431 419.956 200.404C419.949 200.377 419.935 200.353 419.917 200.331Z" fill="black"/>
<path opacity="0.1" d="M417.04 202.327L415.723 200.445C415.71 200.424 415.692 200.406 415.671 200.392C415.65 200.378 415.626 200.369 415.602 200.364C415.577 200.359 415.552 200.36 415.527 200.365C415.502 200.37 415.479 200.38 415.459 200.395L413.532 201.69C413.511 201.703 413.493 201.721 413.478 201.742C413.464 201.763 413.454 201.786 413.449 201.811C413.444 201.836 413.444 201.861 413.449 201.886C413.454 201.911 413.463 201.934 413.477 201.955L414.685 203.816C414.712 203.858 414.755 203.889 414.805 203.9C414.855 203.911 414.907 203.902 414.95 203.875L416.985 202.609C417.008 202.595 417.028 202.576 417.044 202.554C417.059 202.532 417.07 202.507 417.075 202.48C417.08 202.453 417.08 202.426 417.074 202.4C417.068 202.373 417.056 202.348 417.04 202.327V202.327Z" fill="black"/>
<path opacity="0.1" d="M447.033 177.16L445.973 175.641C445.91 175.553 445.815 175.493 445.709 175.473C445.602 175.453 445.492 175.476 445.401 175.535L443.849 176.598C443.761 176.66 443.699 176.754 443.677 176.86C443.655 176.966 443.675 177.076 443.732 177.168L444.703 178.666C444.764 178.755 444.857 178.818 444.963 178.841C445.068 178.864 445.179 178.845 445.271 178.788L446.928 177.746C447.02 177.682 447.082 177.584 447.102 177.475C447.121 177.365 447.097 177.251 447.033 177.16Z" fill="black"/>
<path opacity="0.1" d="M442.891 171.157L441.831 169.63C441.767 169.543 441.673 169.483 441.568 169.464C441.462 169.444 441.353 169.466 441.263 169.524L439.694 170.583C439.605 170.645 439.543 170.738 439.521 170.844C439.5 170.95 439.519 171.06 439.576 171.152L440.548 172.65C440.608 172.74 440.7 172.804 440.806 172.828C440.912 172.851 441.023 172.833 441.116 172.776L442.773 171.735C442.864 171.673 442.927 171.578 442.949 171.47C442.971 171.362 442.95 171.249 442.891 171.157V171.157Z" fill="black"/>
<path opacity="0.1" d="M444.211 179.117L443.151 177.602C443.088 177.515 442.994 177.456 442.888 177.436C442.782 177.417 442.673 177.439 442.583 177.497L441.014 178.556C440.926 178.618 440.865 178.712 440.844 178.818C440.823 178.924 440.843 179.034 440.901 179.125L441.868 180.623C441.928 180.713 442.021 180.777 442.127 180.8C442.233 180.824 442.343 180.806 442.436 180.749L444.093 179.707C444.14 179.677 444.18 179.637 444.212 179.591C444.243 179.544 444.265 179.492 444.276 179.437C444.287 179.382 444.287 179.325 444.275 179.27C444.264 179.215 444.242 179.163 444.211 179.117Z" fill="black"/>
<path opacity="0.1" d="M441.25 181.171L440.19 179.657C440.127 179.568 440.032 179.508 439.925 179.489C439.819 179.469 439.709 179.491 439.618 179.551L438.053 180.597C437.963 180.659 437.901 180.753 437.879 180.86C437.857 180.967 437.877 181.079 437.936 181.171L438.907 182.669C438.968 182.758 439.061 182.821 439.167 182.844C439.272 182.867 439.383 182.848 439.475 182.791L441.132 181.749C441.223 181.687 441.286 181.592 441.308 181.484C441.331 181.376 441.309 181.264 441.25 181.171V181.171Z" fill="black"/>
<path opacity="0.1" d="M438.251 183.255L437.195 181.737C437.132 181.649 437.037 181.588 436.93 181.569C436.824 181.549 436.714 181.571 436.623 181.631L435.054 182.707C434.966 182.769 434.905 182.863 434.884 182.969C434.863 183.075 434.883 183.185 434.941 183.276L435.912 184.774C435.973 184.864 436.066 184.926 436.172 184.949C436.278 184.972 436.388 184.953 436.48 184.896L438.133 183.854C438.181 183.824 438.222 183.783 438.255 183.736C438.287 183.689 438.309 183.636 438.32 183.58C438.331 183.524 438.33 183.466 438.319 183.411C438.307 183.355 438.284 183.302 438.251 183.255Z" fill="black"/>
<path opacity="0.1" d="M440.136 173.211L439.076 171.697C439.012 171.61 438.918 171.55 438.813 171.531C438.707 171.511 438.598 171.533 438.508 171.591L436.939 172.65C436.85 172.712 436.789 172.805 436.767 172.911C436.745 173.017 436.764 173.128 436.821 173.22L437.793 174.717C437.853 174.807 437.946 174.871 438.051 174.895C438.157 174.918 438.268 174.9 438.361 174.844L440.018 173.802C440.065 173.771 440.105 173.731 440.136 173.685C440.168 173.638 440.189 173.586 440.2 173.531C440.211 173.476 440.211 173.42 440.2 173.365C440.189 173.31 440.167 173.257 440.136 173.211Z" fill="black"/>
<path opacity="0.1" d="M437.174 175.269L436.114 173.751C436.051 173.663 435.956 173.603 435.849 173.583C435.743 173.563 435.633 173.586 435.542 173.645L433.978 174.691C433.889 174.753 433.827 174.847 433.805 174.953C433.783 175.059 433.803 175.169 433.86 175.261L434.831 176.759C434.892 176.848 434.985 176.911 435.091 176.934C435.197 176.957 435.307 176.938 435.399 176.881L437.057 175.839C437.145 175.777 437.207 175.684 437.229 175.578C437.251 175.472 437.231 175.361 437.174 175.269Z" fill="black"/>
<path opacity="0.1" d="M434.175 177.349L433.115 175.835C433.053 175.747 432.959 175.687 432.853 175.667C432.748 175.646 432.638 175.667 432.548 175.725L430.979 176.801C430.891 176.863 430.83 176.957 430.809 177.063C430.788 177.169 430.808 177.279 430.865 177.371L431.837 178.868C431.897 178.958 431.99 179.022 432.095 179.046C432.201 179.069 432.312 179.051 432.405 178.995L434.058 177.948C434.106 177.918 434.147 177.878 434.179 177.831C434.211 177.783 434.233 177.73 434.244 177.674C434.255 177.618 434.255 177.561 434.243 177.505C434.231 177.449 434.208 177.396 434.175 177.349Z" fill="black"/>
<path opacity="0.1" d="M435.256 185.335L434.196 183.82C434.134 183.733 434.04 183.673 433.934 183.652C433.829 183.632 433.719 183.653 433.629 183.711L432.073 184.774C431.984 184.836 431.924 184.93 431.902 185.036C431.881 185.142 431.902 185.252 431.959 185.343L432.914 186.841C432.974 186.93 433.066 186.993 433.17 187.016C433.275 187.04 433.385 187.022 433.477 186.967L435.134 185.921C435.181 185.891 435.221 185.852 435.252 185.806C435.284 185.76 435.306 185.708 435.317 185.653C435.329 185.599 435.329 185.543 435.319 185.488C435.308 185.433 435.287 185.381 435.256 185.335Z" fill="black"/>
<path opacity="0.1" d="M432.262 187.414L431.202 185.9C431.138 185.812 431.043 185.752 430.937 185.732C430.83 185.712 430.72 185.735 430.63 185.794L429.065 186.853C428.976 186.915 428.915 187.008 428.893 187.114C428.871 187.22 428.89 187.331 428.947 187.423L429.919 188.92C429.979 189.011 430.072 189.074 430.178 189.098C430.283 189.121 430.394 189.103 430.487 189.047L432.144 188.005C432.191 187.974 432.231 187.935 432.262 187.888C432.294 187.842 432.315 187.789 432.326 187.734C432.337 187.679 432.337 187.623 432.326 187.568C432.315 187.513 432.293 187.461 432.262 187.414Z" fill="black"/>
<path opacity="0.1" d="M429.397 189.684L428.081 187.803C428.067 187.782 428.049 187.764 428.028 187.75C428.007 187.736 427.983 187.727 427.959 187.722C427.934 187.717 427.909 187.717 427.884 187.723C427.86 187.728 427.836 187.738 427.816 187.752L425.889 189.056C425.868 189.069 425.85 189.087 425.836 189.108C425.821 189.129 425.811 189.152 425.806 189.177C425.801 189.202 425.801 189.227 425.806 189.252C425.811 189.277 425.821 189.3 425.835 189.321L427.042 191.182C427.055 191.203 427.073 191.222 427.093 191.237C427.114 191.252 427.137 191.262 427.162 191.267C427.187 191.273 427.212 191.273 427.237 191.269C427.262 191.264 427.286 191.255 427.307 191.241L429.343 189.975C429.367 189.961 429.388 189.942 429.404 189.919C429.421 189.896 429.432 189.87 429.437 189.842C429.442 189.815 429.442 189.786 429.435 189.759C429.428 189.732 429.415 189.706 429.397 189.684V189.684Z" fill="black"/>
<path opacity="0.1" d="M426.743 191.528L425.427 189.642C425.397 189.601 425.353 189.574 425.304 189.565C425.254 189.556 425.203 189.567 425.162 189.596L423.24 190.895C423.198 190.924 423.168 190.969 423.158 191.019C423.148 191.069 423.158 191.122 423.185 191.165L424.392 193.025C424.42 193.067 424.464 193.097 424.513 193.108C424.562 193.119 424.614 193.11 424.657 193.084L426.693 191.819C426.718 191.806 426.74 191.787 426.757 191.764C426.774 191.741 426.785 191.714 426.79 191.686C426.795 191.658 426.793 191.629 426.785 191.601C426.777 191.574 426.763 191.549 426.743 191.528V191.528Z" fill="black"/>
<path opacity="0.1" d="M423.774 193.586L422.457 191.705C422.428 191.664 422.384 191.636 422.334 191.628C422.285 191.619 422.234 191.63 422.192 191.658L420.266 192.957C420.245 192.971 420.226 192.989 420.212 193.01C420.198 193.031 420.188 193.054 420.183 193.079C420.178 193.104 420.178 193.129 420.183 193.154C420.187 193.179 420.197 193.202 420.211 193.223L421.418 195.088C421.447 195.13 421.49 195.159 421.539 195.17C421.588 195.181 421.64 195.173 421.683 195.147L423.719 193.881C423.744 193.867 423.765 193.847 423.781 193.824C423.798 193.801 423.809 193.774 423.814 193.746C423.819 193.718 423.818 193.689 423.811 193.662C423.804 193.634 423.792 193.608 423.774 193.586V193.586Z" fill="black"/>
<path opacity="0.1" d="M420.897 195.586L419.58 193.704C419.566 193.683 419.548 193.665 419.527 193.651C419.506 193.638 419.483 193.628 419.458 193.623C419.434 193.619 419.408 193.619 419.384 193.624C419.359 193.629 419.336 193.639 419.315 193.654L417.389 194.94C417.368 194.954 417.349 194.972 417.335 194.992C417.321 195.013 417.311 195.037 417.306 195.062C417.301 195.086 417.301 195.112 417.306 195.137C417.31 195.161 417.32 195.185 417.334 195.206L418.541 197.066C418.569 197.109 418.612 197.139 418.662 197.15C418.711 197.161 418.763 197.152 418.806 197.125L420.842 195.86C420.864 195.846 420.883 195.827 420.898 195.806C420.912 195.784 420.922 195.76 420.928 195.734C420.933 195.709 420.933 195.682 420.927 195.657C420.922 195.631 420.912 195.607 420.897 195.586V195.586Z" fill="black"/>
<path opacity="0.1" d="M439.277 178.315L438.217 176.801C438.154 176.714 438.06 176.655 437.954 176.635C437.849 176.615 437.74 176.637 437.65 176.695L436.081 177.758C435.993 177.821 435.932 177.915 435.911 178.02C435.89 178.126 435.91 178.237 435.967 178.328L436.939 179.826C436.999 179.914 437.092 179.976 437.196 179.999C437.301 180.022 437.411 180.003 437.502 179.948L439.16 178.906C439.206 178.875 439.247 178.836 439.278 178.789C439.309 178.743 439.331 178.69 439.342 178.635C439.353 178.58 439.353 178.524 439.342 178.469C439.331 178.414 439.309 178.362 439.277 178.315Z" fill="black"/>
<path opacity="0.1" d="M436.278 180.399L435.218 178.881C435.155 178.793 435.06 178.732 434.954 178.713C434.847 178.693 434.737 178.715 434.646 178.775L433.082 179.838C432.993 179.9 432.931 179.993 432.909 180.099C432.887 180.205 432.907 180.316 432.964 180.408L433.936 181.905C433.996 181.996 434.088 182.059 434.194 182.083C434.3 182.106 434.411 182.088 434.503 182.032L436.161 180.986C436.207 180.955 436.247 180.915 436.278 180.869C436.309 180.823 436.33 180.772 436.341 180.717C436.352 180.663 436.352 180.606 436.341 180.552C436.331 180.497 436.309 180.445 436.278 180.399Z" fill="black"/>
<path opacity="0.1" d="M433.288 182.479L432.228 180.965C432.164 180.877 432.07 180.816 431.963 180.797C431.856 180.777 431.746 180.799 431.656 180.859L430.087 181.918C429.999 181.98 429.938 182.074 429.917 182.18C429.896 182.286 429.916 182.396 429.973 182.488L430.945 183.985C431.005 184.075 431.098 184.139 431.204 184.163C431.309 184.186 431.42 184.168 431.513 184.112L433.166 183.065C433.212 183.035 433.253 182.996 433.284 182.95C433.315 182.904 433.337 182.852 433.349 182.798C433.36 182.743 433.36 182.687 433.35 182.632C433.34 182.578 433.318 182.526 433.288 182.479V182.479Z" fill="black"/>
<path opacity="0.1" d="M430.289 184.558L429.229 183.044C429.166 182.957 429.072 182.898 428.966 182.878C428.861 182.859 428.751 182.88 428.661 182.939L427.092 183.997C427.004 184.06 426.943 184.153 426.922 184.259C426.901 184.365 426.921 184.475 426.979 184.567L427.95 186.081C428.011 186.171 428.102 186.233 428.207 186.257C428.312 186.281 428.422 186.263 428.514 186.208L430.171 185.166C430.221 185.135 430.263 185.095 430.296 185.047C430.329 184.999 430.351 184.945 430.362 184.888C430.373 184.831 430.373 184.772 430.36 184.716C430.347 184.659 430.323 184.605 430.289 184.558Z" fill="black"/>
<path opacity="0.1" d="M427.446 186.829L426.129 184.947C426.115 184.926 426.097 184.908 426.076 184.894C426.055 184.88 426.032 184.871 426.007 184.866C425.983 184.861 425.957 184.862 425.933 184.867C425.908 184.872 425.885 184.882 425.864 184.896L423.938 186.2C423.896 186.228 423.867 186.272 423.857 186.322C423.846 186.371 423.856 186.423 423.883 186.466L425.09 188.33C425.104 188.352 425.122 188.37 425.142 188.384C425.163 188.398 425.187 188.408 425.211 188.414C425.236 188.419 425.261 188.419 425.286 188.414C425.311 188.409 425.334 188.399 425.355 188.385L427.391 187.12C427.415 187.106 427.437 187.087 427.453 187.064C427.469 187.041 427.48 187.014 427.486 186.987C427.491 186.959 427.49 186.931 427.483 186.903C427.476 186.876 427.463 186.85 427.446 186.829Z" fill="black"/>
<path opacity="0.1" d="M424.775 188.671L423.458 186.786C423.428 186.745 423.383 186.717 423.333 186.708C423.283 186.7 423.231 186.711 423.189 186.739L421.267 188.039C421.225 188.068 421.195 188.112 421.185 188.163C421.175 188.213 421.185 188.265 421.212 188.309L422.419 190.169C422.447 190.212 422.49 190.242 422.54 190.253C422.589 190.264 422.641 190.255 422.684 190.228L424.72 188.962C424.745 188.949 424.766 188.929 424.782 188.907C424.799 188.884 424.81 188.857 424.815 188.83C424.82 188.802 424.819 188.773 424.812 188.746C424.805 188.719 424.793 188.693 424.775 188.671Z" fill="black"/>
<path opacity="0.1" d="M421.805 190.722L420.489 188.836C420.458 188.795 420.414 188.767 420.363 188.759C420.313 188.75 420.262 188.761 420.22 188.79L418.293 190.089C418.252 190.119 418.223 190.163 418.213 190.213C418.203 190.263 418.212 190.315 418.239 190.359L419.45 192.219C419.477 192.262 419.521 192.292 419.57 192.303C419.62 192.314 419.672 192.305 419.715 192.278L421.746 191.013C421.772 191 421.794 190.981 421.811 190.958C421.828 190.936 421.84 190.909 421.846 190.881C421.851 190.853 421.851 190.825 421.844 190.797C421.837 190.769 421.824 190.744 421.805 190.722V190.722Z" fill="black"/>
<path opacity="0.1" d="M418.929 192.73L417.612 190.849C417.598 190.827 417.579 190.809 417.558 190.795C417.537 190.782 417.513 190.772 417.488 190.767C417.463 190.763 417.437 190.763 417.412 190.768C417.387 190.773 417.364 190.783 417.343 190.798L415.416 192.101C415.375 192.13 415.347 192.174 415.337 192.224C415.328 192.274 415.338 192.325 415.366 192.367L416.573 194.228C416.586 194.25 416.603 194.269 416.624 194.284C416.644 194.299 416.668 194.31 416.693 194.315C416.718 194.321 416.743 194.321 416.768 194.316C416.793 194.311 416.817 194.301 416.838 194.287L418.87 193.021C418.895 193.008 418.917 192.99 418.934 192.967C418.951 192.944 418.963 192.918 418.969 192.89C418.975 192.862 418.974 192.833 418.967 192.805C418.96 192.778 418.947 192.752 418.929 192.73V192.73Z" fill="black"/>
<path opacity="0.1" d="M418.02 197.581L416.703 195.7C416.674 195.659 416.63 195.631 416.58 195.623C416.531 195.614 416.48 195.625 416.438 195.653L414.512 196.953C414.491 196.966 414.473 196.984 414.458 197.005C414.444 197.026 414.434 197.049 414.429 197.074C414.424 197.099 414.424 197.124 414.429 197.149C414.433 197.174 414.443 197.197 414.457 197.218L415.664 199.083C415.693 199.125 415.736 199.154 415.785 199.165C415.835 199.176 415.886 199.168 415.929 199.142L417.965 197.876C417.99 197.862 418.011 197.843 418.027 197.819C418.044 197.796 418.055 197.769 418.06 197.741C418.065 197.713 418.064 197.684 418.057 197.657C418.05 197.629 418.038 197.603 418.02 197.581V197.581Z" fill="black"/>
<path opacity="0.1" d="M415.143 199.581L413.827 197.699C413.813 197.678 413.795 197.66 413.774 197.646C413.753 197.632 413.729 197.623 413.705 197.618C413.68 197.613 413.655 197.614 413.63 197.619C413.606 197.624 413.582 197.634 413.562 197.648L411.635 198.952C411.614 198.966 411.596 198.983 411.581 199.004C411.567 199.025 411.557 199.049 411.552 199.073C411.547 199.098 411.547 199.124 411.552 199.148C411.557 199.173 411.566 199.197 411.581 199.218L412.788 201.078C412.815 201.121 412.859 201.151 412.908 201.162C412.958 201.173 413.01 201.164 413.053 201.137L415.088 199.872C415.113 199.858 415.134 199.839 415.15 199.816C415.167 199.793 415.178 199.766 415.183 199.739C415.188 199.711 415.187 199.683 415.181 199.655C415.174 199.628 415.161 199.602 415.143 199.581Z" fill="black"/>
<path opacity="0.1" d="M419.66 187.626L418.398 185.854C418.359 185.799 418.299 185.761 418.232 185.75C418.166 185.738 418.097 185.752 418.041 185.791L416.224 187.018C416.196 187.037 416.171 187.061 416.152 187.089C416.133 187.117 416.12 187.149 416.114 187.182C416.107 187.216 416.107 187.25 416.114 187.284C416.12 187.317 416.133 187.349 416.152 187.377L417.288 189.127C417.306 189.156 417.329 189.181 417.356 189.201C417.384 189.221 417.415 189.235 417.448 189.242C417.481 189.25 417.515 189.251 417.548 189.245C417.581 189.239 417.613 189.226 417.641 189.208L419.564 187.997C419.595 187.98 419.623 187.956 419.645 187.928C419.667 187.9 419.684 187.867 419.693 187.832C419.702 187.798 419.704 187.761 419.698 187.726C419.692 187.69 419.68 187.656 419.66 187.626V187.626Z" fill="black"/>
<path opacity="0.1" d="M416.783 189.625L415.543 187.853C415.524 187.825 415.499 187.801 415.471 187.783C415.443 187.764 415.411 187.751 415.378 187.745C415.345 187.739 415.31 187.739 415.277 187.746C415.244 187.753 415.213 187.767 415.185 187.786L413.368 189.034C413.34 189.053 413.316 189.076 413.297 189.104C413.278 189.132 413.265 189.163 413.258 189.196C413.252 189.229 413.252 189.263 413.258 189.297C413.265 189.33 413.278 189.361 413.297 189.389L414.432 191.144C414.469 191.2 414.527 191.24 414.593 191.255C414.659 191.27 414.728 191.259 414.786 191.224L416.708 190.013C416.74 189.994 416.768 189.969 416.79 189.938C416.812 189.908 416.827 189.873 416.834 189.836C416.841 189.8 416.84 189.762 416.832 189.725C416.823 189.689 416.806 189.655 416.783 189.625V189.625Z" fill="black"/>
<path opacity="0.1" d="M413.906 191.624L412.666 189.848C412.626 189.793 412.566 189.756 412.5 189.744C412.433 189.732 412.364 189.747 412.308 189.785L410.491 191.013C410.463 191.032 410.439 191.056 410.42 191.084C410.401 191.112 410.387 191.144 410.381 191.177C410.374 191.21 410.374 191.245 410.381 191.278C410.388 191.311 410.401 191.343 410.42 191.371L411.555 193.122C411.573 193.151 411.596 193.176 411.624 193.196C411.651 193.216 411.682 193.23 411.715 193.237C411.748 193.245 411.782 193.245 411.815 193.239C411.849 193.233 411.88 193.221 411.909 193.202L413.831 191.991C413.861 191.973 413.886 191.949 413.906 191.92C413.927 191.891 413.941 191.859 413.948 191.824C413.955 191.79 413.955 191.755 413.948 191.72C413.941 191.686 413.927 191.653 413.906 191.624V191.624Z" fill="black"/>
<path opacity="0.1" d="M411.067 193.675L409.751 191.789C409.721 191.748 409.677 191.721 409.628 191.712C409.578 191.703 409.527 191.714 409.486 191.743L407.559 193.042C407.517 193.071 407.488 193.115 407.478 193.166C407.468 193.216 407.477 193.269 407.505 193.312L408.712 195.172C408.74 195.214 408.783 195.244 408.833 195.255C408.882 195.266 408.934 195.257 408.977 195.231L411.013 193.966C411.038 193.953 411.061 193.934 411.078 193.912C411.095 193.889 411.107 193.862 411.112 193.834C411.118 193.806 411.116 193.777 411.108 193.749C411.101 193.721 411.087 193.696 411.067 193.675V193.675Z" fill="black"/>
<path opacity="0.1" d="M445.111 174.206L443.971 172.582C443.907 172.495 443.812 172.435 443.705 172.417C443.599 172.398 443.489 172.421 443.399 172.481L438.949 175.607C438.863 175.67 438.804 175.763 438.783 175.868C438.763 175.973 438.783 176.081 438.84 176.172L439.912 177.834C439.943 177.88 439.983 177.92 440.029 177.95C440.075 177.981 440.127 178.002 440.181 178.013C440.235 178.023 440.291 178.023 440.346 178.012C440.4 178.001 440.451 177.979 440.497 177.948L445.014 174.78C445.101 174.715 445.159 174.619 445.177 174.513C445.195 174.406 445.171 174.296 445.111 174.206V174.206Z" fill="black"/>
<path opacity="0.1" d="M416.043 194.666L414.647 192.688C414.633 192.667 414.614 192.648 414.593 192.635C414.571 192.621 414.547 192.611 414.522 192.607C414.497 192.603 414.471 192.603 414.446 192.609C414.422 192.615 414.398 192.626 414.378 192.641L409.574 196.016C409.533 196.044 409.505 196.088 409.496 196.137C409.486 196.185 409.496 196.236 409.524 196.278L410.836 198.315C410.85 198.337 410.868 198.356 410.89 198.371C410.911 198.386 410.936 198.396 410.961 198.401C410.987 198.406 411.013 198.406 411.038 198.401C411.064 198.395 411.088 198.385 411.11 198.37L415.993 194.94C416.036 194.911 416.065 194.865 416.074 194.814C416.084 194.762 416.073 194.709 416.043 194.666V194.666Z" fill="black"/>
<path opacity="0.1" d="M431.324 179.535L430.037 177.645C430.008 177.603 429.964 177.575 429.914 177.565C429.865 177.556 429.814 177.566 429.772 177.594L419.105 184.816C419.063 184.844 419.034 184.888 419.024 184.938C419.013 184.987 419.023 185.039 419.05 185.082L420.367 187.107C420.381 187.129 420.399 187.148 420.421 187.162C420.442 187.177 420.466 187.187 420.492 187.192C420.517 187.198 420.544 187.198 420.569 187.192C420.595 187.187 420.619 187.176 420.64 187.162L431.273 179.805C431.294 179.79 431.312 179.772 431.326 179.75C431.34 179.729 431.35 179.705 431.354 179.68C431.359 179.655 431.359 179.629 431.353 179.604C431.348 179.579 431.338 179.556 431.324 179.535V179.535Z" fill="black"/>
</g>
<path d="M449.208 179.956L448.148 178.437C448.084 178.349 447.99 178.289 447.883 178.269C447.776 178.25 447.666 178.272 447.576 178.332L446.011 179.395C445.922 179.457 445.861 179.55 445.839 179.656C445.817 179.762 445.836 179.872 445.893 179.964L446.865 181.462C446.925 181.552 447.018 181.616 447.124 181.64C447.229 181.663 447.34 181.645 447.433 181.589L449.09 180.542C449.136 180.512 449.176 180.472 449.207 180.426C449.238 180.38 449.26 180.328 449.27 180.274C449.281 180.219 449.282 180.163 449.271 180.109C449.26 180.054 449.239 180.002 449.208 179.956Z" fill="#464A5F"/>
<path d="M446.373 181.913L445.313 180.399C445.25 180.312 445.156 180.253 445.05 180.233C444.944 180.214 444.835 180.235 444.745 180.294L443.176 181.352C443.088 181.414 443.026 181.508 443.004 181.614C442.982 181.72 443.002 181.83 443.059 181.922L444.03 183.419C444.09 183.51 444.183 183.573 444.289 183.597C444.395 183.621 444.505 183.602 444.598 183.546L446.255 182.504C446.302 182.473 446.342 182.434 446.374 182.387C446.405 182.341 446.427 182.289 446.438 182.234C446.449 182.179 446.449 182.122 446.437 182.067C446.426 182.012 446.404 181.96 446.373 181.913Z" fill="#464A5F"/>
<path d="M443.429 183.972L442.369 182.458C442.305 182.369 442.21 182.309 442.104 182.29C441.997 182.27 441.887 182.292 441.797 182.352L440.232 183.415C440.143 183.477 440.082 183.57 440.06 183.676C440.038 183.782 440.057 183.893 440.114 183.985L441.086 185.482C441.147 185.572 441.24 185.635 441.345 185.657C441.451 185.68 441.562 185.661 441.654 185.605L443.311 184.563C443.358 184.532 443.398 184.492 443.429 184.446C443.461 184.399 443.482 184.347 443.493 184.292C443.504 184.237 443.504 184.18 443.493 184.125C443.482 184.071 443.46 184.018 443.429 183.972Z" fill="#464A5F"/>
<path d="M440.426 186.051L439.366 184.533C439.302 184.446 439.208 184.387 439.103 184.367C438.997 184.347 438.888 184.369 438.798 184.427L437.229 185.49C437.183 185.522 437.143 185.562 437.113 185.609C437.082 185.655 437.061 185.708 437.051 185.763C437.041 185.818 437.042 185.874 437.054 185.929C437.065 185.983 437.088 186.035 437.12 186.081L438.091 187.579C438.151 187.669 438.244 187.733 438.35 187.756C438.456 187.78 438.566 187.761 438.659 187.705L440.312 186.659C440.361 186.628 440.403 186.587 440.435 186.539C440.468 186.491 440.49 186.437 440.501 186.38C440.511 186.323 440.51 186.264 440.497 186.208C440.484 186.151 440.46 186.098 440.426 186.051Z" fill="#464A5F"/>
<path d="M437.431 188.131L436.371 186.617C436.308 186.53 436.214 186.471 436.108 186.451C436.002 186.432 435.893 186.453 435.803 186.512L434.234 187.57C434.146 187.633 434.085 187.727 434.064 187.832C434.043 187.938 434.063 188.048 434.121 188.14L435.088 189.637C435.148 189.728 435.241 189.792 435.347 189.815C435.452 189.839 435.563 189.82 435.656 189.764L437.313 188.718C437.359 188.687 437.399 188.648 437.43 188.602C437.461 188.556 437.483 188.504 437.494 188.449C437.505 188.395 437.505 188.339 437.494 188.284C437.483 188.23 437.462 188.178 437.431 188.131Z" fill="#464A5F"/>
<path d="M434.567 190.401L433.25 188.519C433.236 188.498 433.218 188.481 433.197 188.467C433.176 188.453 433.153 188.443 433.128 188.438C433.103 188.434 433.078 188.434 433.054 188.439C433.029 188.444 433.006 188.454 432.985 188.469L431.059 189.772C431.037 189.786 431.019 189.804 431.005 189.825C430.991 189.845 430.981 189.869 430.976 189.894C430.97 189.918 430.97 189.944 430.975 189.969C430.98 189.993 430.99 190.017 431.004 190.038L432.211 191.898C432.239 191.941 432.282 191.971 432.332 191.982C432.381 191.993 432.433 191.984 432.476 191.957L434.512 190.692C434.536 190.678 434.557 190.659 434.574 190.636C434.59 190.613 434.601 190.587 434.607 190.559C434.612 190.531 434.611 190.503 434.604 190.476C434.597 190.448 434.584 190.423 434.567 190.401V190.401Z" fill="#464A5F"/>
<path d="M431.572 192.481L430.255 190.599C430.241 190.578 430.223 190.56 430.201 190.546C430.18 190.532 430.156 190.523 430.131 190.518C430.106 190.513 430.081 190.514 430.056 190.519C430.031 190.524 430.007 190.534 429.986 190.549L428.064 191.852C428.043 191.866 428.025 191.884 428.01 191.904C427.996 191.925 427.986 191.949 427.981 191.973C427.976 191.998 427.976 192.024 427.981 192.049C427.985 192.073 427.995 192.097 428.009 192.118L429.217 193.982C429.23 194.004 429.248 194.022 429.269 194.036C429.289 194.051 429.313 194.061 429.338 194.066C429.362 194.071 429.388 194.071 429.412 194.066C429.437 194.061 429.461 194.051 429.482 194.037L431.517 192.772C431.541 192.757 431.562 192.738 431.578 192.715C431.594 192.692 431.605 192.666 431.61 192.639C431.615 192.611 431.614 192.583 431.608 192.556C431.601 192.528 431.589 192.503 431.572 192.481V192.481Z" fill="#464A5F"/>
<path d="M428.918 194.324L427.601 192.439C427.572 192.398 427.528 192.37 427.478 192.362C427.429 192.353 427.378 192.364 427.336 192.392L425.41 193.675C425.368 193.704 425.338 193.748 425.328 193.799C425.318 193.849 425.328 193.901 425.355 193.945L426.562 195.805C426.591 195.847 426.634 195.876 426.683 195.887C426.732 195.898 426.784 195.89 426.827 195.864L428.863 194.599C428.885 194.584 428.904 194.566 428.919 194.545C428.933 194.523 428.943 194.499 428.949 194.473C428.954 194.448 428.954 194.421 428.948 194.396C428.943 194.37 428.933 194.346 428.918 194.324V194.324Z" fill="#464A5F"/>
<path d="M425.948 196.387L424.632 194.518C424.602 194.477 424.558 194.45 424.509 194.441C424.459 194.432 424.408 194.443 424.367 194.471L422.441 195.771C422.419 195.785 422.401 195.803 422.387 195.824C422.372 195.845 422.362 195.869 422.357 195.894C422.352 195.919 422.352 195.945 422.357 195.97C422.362 195.995 422.372 196.019 422.386 196.041L423.593 197.901C423.621 197.943 423.665 197.972 423.714 197.983C423.763 197.994 423.815 197.986 423.858 197.96L425.894 196.695C425.921 196.681 425.945 196.661 425.963 196.637C425.981 196.613 425.993 196.584 425.999 196.554C426.004 196.524 426.002 196.494 425.994 196.464C425.985 196.435 425.969 196.409 425.948 196.387V196.387Z" fill="#464A5F"/>
<path d="M423.071 198.382L421.755 196.501C421.741 196.48 421.723 196.462 421.702 196.448C421.681 196.434 421.658 196.425 421.633 196.42C421.608 196.415 421.583 196.416 421.558 196.421C421.534 196.426 421.51 196.436 421.49 196.45L419.563 197.754C419.542 197.768 419.524 197.785 419.51 197.806C419.495 197.827 419.485 197.851 419.48 197.875C419.475 197.9 419.475 197.926 419.48 197.95C419.485 197.975 419.495 197.999 419.509 198.02L420.716 199.88C420.729 199.902 420.747 199.92 420.767 199.935C420.788 199.95 420.811 199.96 420.836 199.966C420.861 199.971 420.886 199.972 420.911 199.967C420.936 199.963 420.96 199.953 420.981 199.939L423.017 198.674C423.041 198.66 423.062 198.641 423.079 198.618C423.095 198.595 423.106 198.568 423.111 198.541C423.116 198.513 423.116 198.485 423.109 198.457C423.102 198.43 423.089 198.404 423.071 198.382V198.382Z" fill="#464A5F"/>
<path d="M420.194 200.382L418.878 198.496C418.848 198.455 418.804 198.428 418.755 198.419C418.705 198.41 418.654 198.421 418.613 198.45L416.687 199.749C416.644 199.778 416.615 199.823 416.605 199.873C416.595 199.923 416.604 199.976 416.632 200.019L417.839 201.879C417.867 201.921 417.91 201.951 417.96 201.962C418.009 201.973 418.061 201.964 418.104 201.938L420.14 200.673C420.164 200.659 420.185 200.64 420.202 200.617C420.218 200.594 420.229 200.568 420.234 200.54C420.24 200.512 420.239 200.484 420.232 200.456C420.225 200.429 420.212 200.404 420.194 200.382V200.382Z" fill="#464A5F"/>
<path d="M417.317 202.377L416.001 200.495C415.987 200.475 415.969 200.457 415.948 200.443C415.927 200.429 415.904 200.419 415.879 200.414C415.854 200.41 415.829 200.41 415.804 200.415C415.78 200.42 415.757 200.431 415.736 200.445L413.81 201.748C413.788 201.762 413.77 201.78 413.756 201.801C413.742 201.821 413.732 201.845 413.727 201.87C413.721 201.894 413.721 201.92 413.726 201.945C413.731 201.97 413.741 201.993 413.755 202.014L414.962 203.874C414.975 203.896 414.993 203.915 415.013 203.93C415.034 203.944 415.057 203.955 415.082 203.96C415.107 203.966 415.132 203.966 415.157 203.962C415.182 203.957 415.206 203.947 415.227 203.934L417.263 202.668C417.287 202.654 417.308 202.635 417.325 202.612C417.341 202.589 417.352 202.563 417.357 202.535C417.363 202.507 417.362 202.479 417.355 202.452C417.348 202.424 417.335 202.399 417.317 202.377V202.377Z" fill="#464A5F"/>
<path d="M447.311 177.222L446.251 175.704C446.188 175.617 446.093 175.557 445.988 175.538C445.882 175.518 445.773 175.54 445.683 175.598L444.114 176.661C444.026 176.724 443.965 176.817 443.944 176.923C443.923 177.029 443.943 177.139 444.001 177.231L444.968 178.728C445.028 178.819 445.121 178.882 445.227 178.906C445.332 178.929 445.443 178.911 445.536 178.855L447.193 177.809C447.239 177.778 447.279 177.739 447.31 177.692C447.341 177.646 447.363 177.595 447.373 177.54C447.384 177.486 447.385 177.429 447.374 177.375C447.363 177.32 447.342 177.269 447.311 177.222Z" fill="#464A5F"/>
<path d="M443.168 171.207L442.108 169.692C442.045 169.606 441.951 169.546 441.845 169.527C441.739 169.507 441.63 169.529 441.54 169.587L439.971 170.646C439.883 170.708 439.822 170.802 439.801 170.908C439.78 171.014 439.8 171.124 439.858 171.215L440.829 172.713C440.889 172.802 440.981 172.865 441.086 172.889C441.191 172.912 441.301 172.894 441.393 172.839L443.05 171.797C443.097 171.767 443.137 171.727 443.169 171.681C443.2 171.634 443.222 171.582 443.233 171.527C443.244 171.472 443.244 171.415 443.233 171.36C443.221 171.305 443.199 171.253 443.168 171.207Z" fill="#464A5F"/>
<path d="M444.489 179.167L443.429 177.644C443.365 177.557 443.271 177.498 443.166 177.478C443.06 177.459 442.951 177.481 442.861 177.539L441.292 178.598C441.204 178.66 441.143 178.754 441.122 178.86C441.101 178.966 441.121 179.076 441.178 179.167L442.15 180.665C442.21 180.754 442.302 180.817 442.407 180.84C442.512 180.864 442.621 180.846 442.714 180.791L444.371 179.749C444.463 179.688 444.527 179.592 444.549 179.483C444.571 179.374 444.55 179.26 444.489 179.167Z" fill="#464A5F"/>
<path d="M441.528 181.222L440.484 179.707C440.421 179.62 440.327 179.561 440.221 179.541C440.116 179.522 440.007 179.543 439.917 179.602L438.348 180.661C438.259 180.723 438.197 180.817 438.176 180.924C438.155 181.031 438.176 181.142 438.234 181.234L439.202 182.732C439.262 182.822 439.355 182.884 439.461 182.907C439.567 182.93 439.677 182.911 439.769 182.854L441.427 181.812C441.472 181.78 441.511 181.74 441.54 181.692C441.57 181.645 441.59 181.593 441.6 181.538C441.609 181.483 441.608 181.427 441.595 181.373C441.583 181.318 441.56 181.267 441.528 181.222Z" fill="#464A5F"/>
<path d="M438.533 183.306L437.473 181.787C437.41 181.699 437.315 181.639 437.208 181.619C437.101 181.599 436.991 181.622 436.901 181.681L435.336 182.744C435.248 182.806 435.186 182.9 435.164 183.006C435.142 183.112 435.162 183.222 435.219 183.314L436.19 184.812C436.25 184.902 436.343 184.966 436.449 184.989C436.555 185.013 436.665 184.994 436.758 184.938L438.415 183.892C438.461 183.861 438.501 183.822 438.532 183.776C438.563 183.73 438.585 183.678 438.596 183.623C438.607 183.569 438.607 183.513 438.596 183.458C438.585 183.404 438.564 183.352 438.533 183.306Z" fill="#464A5F"/>
<path d="M440.413 173.261L439.353 171.739C439.29 171.652 439.196 171.592 439.09 171.573C438.985 171.553 438.876 171.575 438.785 171.633L437.217 172.692C437.128 172.754 437.068 172.848 437.046 172.954C437.025 173.06 437.046 173.17 437.103 173.261L438.075 174.759C438.135 174.848 438.227 174.911 438.331 174.935C438.436 174.958 438.546 174.941 438.638 174.886L440.295 173.844C440.388 173.782 440.452 173.686 440.474 173.577C440.496 173.468 440.474 173.354 440.413 173.261V173.261Z" fill="#464A5F"/>
<path d="M437.452 175.32L436.392 173.801C436.329 173.714 436.234 173.655 436.129 173.635C436.023 173.616 435.914 173.637 435.824 173.696L434.255 174.759C434.167 174.82 434.105 174.914 434.083 175.02C434.061 175.126 434.08 175.236 434.137 175.328L435.109 176.826C435.169 176.916 435.262 176.98 435.368 177.003C435.473 177.027 435.584 177.009 435.677 176.952L437.334 175.906C437.38 175.876 437.42 175.836 437.451 175.79C437.482 175.744 437.504 175.692 437.514 175.638C437.525 175.583 437.525 175.527 437.515 175.472C437.504 175.418 437.483 175.366 437.452 175.32Z" fill="#464A5F"/>
<path d="M434.457 177.399L433.397 175.885C433.334 175.797 433.239 175.737 433.133 175.717C433.026 175.698 432.916 175.72 432.825 175.78L431.261 176.838C431.172 176.9 431.11 176.994 431.088 177.1C431.066 177.206 431.086 177.316 431.143 177.408L432.115 178.91C432.175 179 432.267 179.064 432.373 179.087C432.479 179.111 432.59 179.093 432.682 179.036L434.335 177.99C434.383 177.96 434.423 177.92 434.455 177.874C434.487 177.828 434.509 177.776 434.52 177.721C434.532 177.665 434.532 177.609 434.521 177.554C434.51 177.499 434.489 177.446 434.457 177.399V177.399Z" fill="#464A5F"/>
<path d="M435.534 185.385L434.474 183.871C434.411 183.784 434.317 183.725 434.211 183.705C434.105 183.685 433.996 183.707 433.906 183.766L432.337 184.816C432.249 184.878 432.188 184.972 432.167 185.078C432.146 185.184 432.166 185.294 432.224 185.385L433.195 186.883C433.255 186.972 433.347 187.035 433.452 187.059C433.557 187.082 433.667 187.065 433.759 187.01L435.416 185.963C435.507 185.902 435.571 185.806 435.593 185.698C435.615 185.59 435.594 185.478 435.534 185.385V185.385Z" fill="#464A5F"/>
<path d="M432.539 187.465L431.479 185.95C431.416 185.863 431.322 185.804 431.216 185.784C431.111 185.765 431.002 185.786 430.911 185.845L429.343 186.925C429.254 186.986 429.192 187.08 429.17 187.186C429.148 187.292 429.168 187.402 429.225 187.494L430.196 188.992C430.257 189.082 430.349 189.146 430.455 189.169C430.561 189.193 430.672 189.175 430.764 189.118L432.421 188.076C432.471 188.046 432.514 188.005 432.548 187.957C432.581 187.909 432.604 187.854 432.615 187.797C432.626 187.739 432.625 187.68 432.612 187.623C432.599 187.566 432.574 187.512 432.539 187.465Z" fill="#464A5F"/>
<path d="M429.675 189.735L428.358 187.853C428.344 187.832 428.327 187.814 428.306 187.8C428.285 187.786 428.261 187.777 428.237 187.772C428.212 187.767 428.186 187.768 428.162 187.773C428.137 187.778 428.114 187.788 428.093 187.802L426.184 189.106C426.163 189.12 426.144 189.137 426.13 189.158C426.116 189.179 426.106 189.203 426.101 189.227C426.096 189.252 426.096 189.278 426.1 189.302C426.105 189.327 426.115 189.351 426.129 189.372L427.336 191.232C427.35 191.254 427.367 191.272 427.388 191.287C427.408 191.302 427.432 191.312 427.456 191.318C427.481 191.323 427.507 191.324 427.532 191.319C427.556 191.315 427.58 191.305 427.601 191.291L429.637 190.026C429.66 190.01 429.679 189.989 429.693 189.966C429.707 189.942 429.717 189.916 429.72 189.888C429.724 189.861 429.722 189.833 429.714 189.807C429.706 189.78 429.693 189.756 429.675 189.735V189.735Z" fill="#464A5F"/>
<path d="M427.025 191.565L425.709 189.68C425.678 189.639 425.634 189.611 425.583 189.602C425.533 189.594 425.482 189.605 425.439 189.633L423.513 190.932C423.472 190.962 423.443 191.007 423.433 191.057C423.423 191.107 423.432 191.159 423.458 191.202L424.67 193.063C424.697 193.105 424.741 193.136 424.79 193.147C424.84 193.158 424.892 193.149 424.935 193.122L426.966 191.856C426.992 191.843 427.014 191.825 427.031 191.802C427.048 191.779 427.06 191.753 427.066 191.725C427.071 191.697 427.071 191.668 427.064 191.64C427.057 191.613 427.043 191.587 427.025 191.565V191.565Z" fill="#464A5F"/>
<path d="M424.052 193.641L422.735 191.755C422.705 191.714 422.661 191.687 422.612 191.678C422.562 191.669 422.512 191.68 422.47 191.708L420.544 193.008C420.501 193.037 420.472 193.081 420.462 193.132C420.452 193.182 420.461 193.234 420.489 193.278L421.696 195.138C421.724 195.18 421.768 195.209 421.817 195.22C421.866 195.231 421.918 195.223 421.961 195.197L423.997 193.932C424.022 193.919 424.045 193.9 424.062 193.877C424.079 193.855 424.091 193.828 424.096 193.8C424.102 193.772 424.1 193.742 424.093 193.715C424.085 193.687 424.071 193.662 424.052 193.641V193.641Z" fill="#464A5F"/>
<path d="M421.179 195.636L419.875 193.754C419.861 193.733 419.843 193.715 419.822 193.701C419.801 193.688 419.778 193.678 419.753 193.673C419.728 193.669 419.703 193.669 419.679 193.674C419.654 193.679 419.631 193.689 419.61 193.704L417.684 195.007C417.642 195.035 417.612 195.079 417.602 195.129C417.592 195.178 417.602 195.23 417.629 195.273L418.836 197.133C418.864 197.176 418.907 197.206 418.957 197.217C419.006 197.228 419.058 197.219 419.101 197.192L421.137 195.927C421.161 195.912 421.181 195.893 421.197 195.869C421.213 195.846 421.223 195.819 421.227 195.791C421.231 195.763 421.229 195.735 421.22 195.708C421.212 195.681 421.198 195.656 421.179 195.636V195.636Z" fill="#464A5F"/>
<path d="M439.555 178.37L438.499 176.851C438.436 176.763 438.341 176.703 438.234 176.683C438.128 176.664 438.018 176.686 437.927 176.746L436.358 177.809C436.27 177.871 436.209 177.965 436.188 178.071C436.167 178.177 436.187 178.287 436.245 178.378L437.216 179.876C437.277 179.965 437.37 180.028 437.476 180.051C437.582 180.074 437.692 180.055 437.784 179.998L439.437 178.956C439.483 178.925 439.523 178.886 439.554 178.84C439.585 178.794 439.607 178.742 439.618 178.687C439.629 178.633 439.629 178.577 439.618 178.522C439.607 178.468 439.586 178.416 439.555 178.37V178.37Z" fill="#464A5F"/>
<path d="M436.56 180.45L435.5 178.935C435.438 178.847 435.344 178.787 435.238 178.767C435.133 178.746 435.023 178.767 434.933 178.825L433.364 179.888C433.276 179.951 433.215 180.045 433.194 180.151C433.172 180.256 433.193 180.367 433.25 180.458L434.222 181.956C434.282 182.045 434.374 182.108 434.478 182.131C434.583 182.155 434.693 182.137 434.785 182.082L436.442 181.036C436.489 181.005 436.528 180.966 436.559 180.92C436.59 180.874 436.612 180.822 436.623 180.767C436.634 180.713 436.634 180.657 436.623 180.602C436.612 180.548 436.591 180.496 436.56 180.45Z" fill="#464A5F"/>
<path d="M433.566 182.529L432.493 181.019C432.43 180.931 432.335 180.871 432.228 180.851C432.122 180.832 432.012 180.854 431.921 180.914L430.39 181.968C430.301 182.03 430.24 182.123 430.218 182.229C430.196 182.335 430.215 182.446 430.272 182.538L431.244 184.035C431.304 184.126 431.397 184.189 431.502 184.213C431.608 184.236 431.719 184.218 431.812 184.162L433.469 183.12C433.514 183.088 433.552 183.047 433.582 182.999C433.611 182.952 433.631 182.9 433.64 182.845C433.649 182.79 433.647 182.734 433.634 182.68C433.621 182.625 433.598 182.574 433.566 182.529V182.529Z" fill="#464A5F"/>
<path d="M430.567 184.609L429.507 183.094C429.443 183.007 429.349 182.948 429.244 182.928C429.138 182.909 429.029 182.93 428.939 182.989L427.37 184.048C427.282 184.11 427.221 184.204 427.2 184.31C427.179 184.416 427.199 184.526 427.257 184.617L428.228 186.115C428.288 186.204 428.38 186.267 428.485 186.29C428.59 186.314 428.699 186.296 428.792 186.241L430.449 185.199C430.496 185.169 430.536 185.129 430.567 185.083C430.599 185.036 430.62 184.984 430.631 184.929C430.642 184.874 430.642 184.817 430.631 184.762C430.62 184.707 430.598 184.655 430.567 184.609Z" fill="#464A5F"/>
<path d="M427.707 186.878L426.39 184.997C426.376 184.976 426.357 184.958 426.336 184.944C426.315 184.93 426.291 184.92 426.266 184.916C426.241 184.911 426.215 184.911 426.19 184.917C426.166 184.922 426.142 184.932 426.121 184.946L424.195 186.25C424.153 186.278 424.123 186.322 424.113 186.372C424.103 186.421 424.112 186.473 424.14 186.516L425.347 188.38C425.361 188.402 425.379 188.42 425.4 188.434C425.421 188.449 425.445 188.459 425.47 188.464C425.495 188.469 425.521 188.469 425.546 188.464C425.571 188.459 425.595 188.449 425.616 188.435L427.648 187.169C427.673 187.156 427.694 187.137 427.711 187.114C427.728 187.092 427.739 187.065 427.745 187.038C427.75 187.01 427.75 186.981 427.743 186.954C427.737 186.926 427.724 186.901 427.707 186.878Z" fill="#464A5F"/>
<path d="M425.052 188.722L423.736 186.84C423.722 186.819 423.704 186.802 423.683 186.788C423.662 186.774 423.639 186.764 423.614 186.759C423.589 186.755 423.564 186.755 423.539 186.76C423.515 186.765 423.492 186.775 423.471 186.79L421.557 188.089C421.515 188.118 421.486 188.163 421.476 188.213C421.465 188.263 421.475 188.316 421.503 188.359L422.71 190.219C422.738 190.261 422.781 190.291 422.83 190.302C422.88 190.313 422.931 190.304 422.975 190.278L425.01 189.013C425.034 188.998 425.054 188.978 425.069 188.955C425.084 188.931 425.094 188.905 425.098 188.877C425.102 188.849 425.1 188.821 425.092 188.794C425.084 188.768 425.071 188.743 425.052 188.722V188.722Z" fill="#464A5F"/>
<path d="M422.083 190.785L420.766 188.899C420.736 188.858 420.691 188.831 420.641 188.822C420.591 188.813 420.539 188.824 420.497 188.853L418.575 190.152C418.533 190.181 418.504 190.226 418.493 190.276C418.483 190.326 418.493 190.379 418.52 190.422L419.728 192.282C419.755 192.325 419.798 192.355 419.848 192.366C419.898 192.377 419.949 192.369 419.993 192.342L422.028 191.076C422.053 191.062 422.074 191.043 422.09 191.02C422.107 190.997 422.118 190.971 422.123 190.943C422.128 190.915 422.127 190.887 422.12 190.86C422.113 190.832 422.101 190.807 422.083 190.785V190.785Z" fill="#464A5F"/>
<path d="M419.206 192.78L417.89 190.899C417.875 190.878 417.857 190.86 417.836 190.846C417.814 190.832 417.79 190.822 417.765 190.818C417.74 190.813 417.715 190.813 417.69 190.818C417.665 190.824 417.641 190.834 417.62 190.848L415.698 192.152C415.677 192.165 415.659 192.183 415.644 192.204C415.63 192.225 415.62 192.248 415.615 192.273C415.61 192.298 415.61 192.323 415.615 192.348C415.62 192.373 415.629 192.397 415.644 192.417L416.851 194.282C416.864 194.303 416.882 194.322 416.903 194.336C416.924 194.35 416.947 194.36 416.972 194.365C416.996 194.37 417.022 194.371 417.047 194.366C417.071 194.361 417.095 194.351 417.116 194.337L419.151 193.071C419.175 193.057 419.196 193.038 419.212 193.015C419.228 192.992 419.239 192.966 419.244 192.938C419.249 192.911 419.248 192.882 419.242 192.855C419.235 192.828 419.223 192.802 419.206 192.78V192.78Z" fill="#464A5F"/>
<path d="M418.302 197.635L416.985 195.75C416.955 195.709 416.91 195.681 416.86 195.672C416.81 195.664 416.758 195.675 416.716 195.703L414.79 197.003C414.747 197.032 414.718 197.076 414.708 197.126C414.698 197.177 414.707 197.229 414.735 197.272L415.942 199.133C415.97 199.175 416.014 199.204 416.063 199.215C416.112 199.226 416.164 199.218 416.207 199.192L418.243 197.926C418.268 197.913 418.29 197.895 418.307 197.872C418.325 197.849 418.337 197.823 418.342 197.795C418.348 197.767 418.347 197.738 418.34 197.711C418.333 197.683 418.32 197.657 418.302 197.635V197.635Z" fill="#464A5F"/>
<path d="M415.425 199.631L414.108 197.749C414.094 197.728 414.076 197.71 414.054 197.696C414.033 197.682 414.009 197.673 413.984 197.668C413.959 197.663 413.934 197.664 413.909 197.669C413.884 197.674 413.86 197.684 413.839 197.699L411.913 199.002C411.871 199.031 411.842 199.074 411.831 199.124C411.821 199.174 411.831 199.225 411.858 199.268L413.065 201.128C413.079 201.15 413.097 201.169 413.118 201.184C413.139 201.199 413.162 201.209 413.188 201.214C413.213 201.22 413.238 201.22 413.264 201.216C413.289 201.211 413.313 201.202 413.334 201.188L415.366 199.922C415.391 199.909 415.413 199.89 415.431 199.868C415.448 199.845 415.46 199.819 415.465 199.791C415.471 199.763 415.47 199.734 415.463 199.706C415.456 199.678 415.443 199.653 415.425 199.631V199.631Z" fill="#464A5F"/>
<path d="M419.938 187.68L418.697 185.904C418.657 185.849 418.598 185.812 418.531 185.8C418.464 185.788 418.396 185.803 418.34 185.841L416.51 187.068C416.454 187.107 416.415 187.166 416.401 187.233C416.388 187.3 416.401 187.37 416.438 187.427L417.574 189.182C417.612 189.239 417.67 189.279 417.737 189.293C417.804 189.307 417.874 189.295 417.932 189.258L419.85 188.047C419.88 188.03 419.907 188.006 419.929 187.978C419.95 187.95 419.965 187.917 419.974 187.883C419.982 187.849 419.983 187.813 419.977 187.778C419.971 187.743 419.957 187.71 419.938 187.68V187.68Z" fill="#464A5F"/>
<path d="M417.061 189.675L415.82 187.904C415.801 187.875 415.777 187.851 415.749 187.833C415.72 187.814 415.689 187.801 415.655 187.795C415.622 187.789 415.588 187.789 415.555 187.796C415.522 187.803 415.49 187.817 415.463 187.836L413.646 189.068C413.59 189.106 413.551 189.164 413.537 189.23C413.524 189.297 413.537 189.366 413.574 189.422L414.71 191.177C414.748 191.234 414.806 191.274 414.872 191.289C414.939 191.304 415.009 191.293 415.067 191.257L416.989 190.046C417.019 190.027 417.044 190.002 417.063 189.973C417.082 189.943 417.096 189.91 417.102 189.876C417.109 189.841 417.109 189.806 417.102 189.771C417.095 189.737 417.081 189.704 417.061 189.675V189.675Z" fill="#464A5F"/>
<path d="M414.184 191.675L412.922 189.899C412.883 189.844 412.824 189.807 412.758 189.795C412.692 189.783 412.624 189.798 412.569 189.835L410.748 191.063C410.691 191.102 410.652 191.161 410.639 191.228C410.626 191.295 410.639 191.364 410.676 191.422L411.812 193.176C411.85 193.234 411.908 193.274 411.975 193.288C412.042 193.302 412.112 193.289 412.169 193.252L414.092 192.042C414.123 192.025 414.15 192.001 414.172 191.973C414.194 191.945 414.209 191.913 414.218 191.879C414.227 191.844 414.228 191.808 414.222 191.773C414.216 191.738 414.203 191.704 414.184 191.675V191.675Z" fill="#464A5F"/>
<path d="M411.349 193.73L410.033 191.844C410.002 191.803 409.957 191.775 409.907 191.767C409.857 191.758 409.806 191.769 409.763 191.797L407.837 193.097C407.796 193.127 407.767 193.171 407.758 193.222C407.748 193.272 407.759 193.324 407.787 193.367L408.994 195.227C409.021 195.27 409.065 195.3 409.114 195.311C409.164 195.322 409.216 195.313 409.259 195.286L411.294 194.021C411.319 194.007 411.34 193.988 411.356 193.965C411.373 193.942 411.384 193.915 411.389 193.888C411.394 193.86 411.393 193.832 411.386 193.804C411.38 193.777 411.367 193.751 411.349 193.73V193.73Z" fill="#464A5F"/>
<path d="M445.393 174.27L444.27 172.641C444.206 172.554 444.111 172.495 444.004 172.476C443.898 172.457 443.788 172.48 443.698 172.54L439.223 175.666C439.137 175.729 439.077 175.822 439.057 175.927C439.037 176.032 439.057 176.141 439.113 176.231L440.19 177.893C440.221 177.939 440.261 177.979 440.307 178.009C440.353 178.04 440.405 178.061 440.459 178.072C440.513 178.082 440.569 178.082 440.623 178.071C440.678 178.06 440.729 178.038 440.775 178.007L445.288 174.839C445.375 174.776 445.434 174.681 445.453 174.575C445.473 174.469 445.451 174.36 445.393 174.27Z" fill="#464A5F"/>
<path d="M416.321 194.716L414.925 192.738C414.91 192.717 414.892 192.699 414.87 192.685C414.849 192.671 414.825 192.661 414.8 192.657C414.775 192.653 414.749 192.654 414.724 192.659C414.699 192.665 414.676 192.676 414.655 192.691L409.852 196.066C409.811 196.095 409.782 196.139 409.773 196.189C409.764 196.238 409.774 196.29 409.801 196.332L411.118 198.365C411.132 198.387 411.15 198.406 411.172 198.421C411.193 198.436 411.218 198.446 411.243 198.451C411.269 198.456 411.295 198.456 411.32 198.451C411.346 198.445 411.37 198.435 411.391 198.42L416.275 194.99C416.317 194.96 416.345 194.914 416.354 194.863C416.362 194.812 416.351 194.759 416.321 194.716V194.716Z" fill="#464A5F"/>
<path d="M431.602 179.585L430.34 177.708C430.311 177.665 430.266 177.636 430.216 177.626C430.166 177.615 430.114 177.625 430.071 177.653L419.408 184.866C419.387 184.88 419.369 184.898 419.354 184.919C419.34 184.939 419.33 184.963 419.325 184.988C419.32 185.012 419.32 185.038 419.325 185.063C419.329 185.087 419.339 185.111 419.353 185.132L420.666 187.157C420.68 187.179 420.698 187.198 420.719 187.213C420.741 187.227 420.765 187.238 420.791 187.243C420.816 187.248 420.843 187.248 420.868 187.242C420.894 187.237 420.918 187.227 420.939 187.212L431.572 179.855C431.611 179.823 431.636 179.776 431.642 179.726C431.647 179.675 431.633 179.625 431.602 179.585V179.585Z" fill="#464A5F"/>
<path opacity="0.1" d="M431.652 173.139L425.982 164.875C425.825 164.645 425.584 164.487 425.312 164.435C425.039 164.383 424.757 164.441 424.527 164.596L408.91 175.113C408.795 175.191 408.696 175.291 408.62 175.407C408.543 175.524 408.491 175.654 408.464 175.791C408.438 175.927 408.439 176.068 408.467 176.204C408.495 176.341 408.55 176.47 408.628 176.585L414.407 185.086C414.485 185.201 414.585 185.3 414.701 185.376C414.817 185.453 414.947 185.506 415.083 185.532C415.22 185.558 415.36 185.556 415.496 185.527C415.632 185.498 415.761 185.443 415.875 185.364L431.383 174.603C431.496 174.524 431.594 174.424 431.669 174.308C431.744 174.193 431.795 174.063 431.82 173.927C431.845 173.791 431.843 173.651 431.815 173.516C431.786 173.381 431.73 173.253 431.652 173.139V173.139Z" fill="black"/>
<path d="M431.913 173.19L426.243 164.926C426.085 164.697 425.844 164.54 425.572 164.488C425.3 164.435 425.018 164.493 424.788 164.647L409.192 175.172C409.076 175.25 408.976 175.349 408.899 175.465C408.822 175.581 408.769 175.712 408.742 175.849C408.715 175.986 408.716 176.126 408.744 176.263C408.772 176.4 408.827 176.529 408.906 176.645L414.668 185.136C414.746 185.252 414.845 185.351 414.961 185.427C415.077 185.504 415.207 185.557 415.344 185.583C415.48 185.608 415.621 185.607 415.757 185.578C415.892 185.549 416.021 185.494 416.136 185.415L431.652 174.654C431.765 174.575 431.861 174.474 431.936 174.358C432.01 174.242 432.061 174.112 432.085 173.976C432.109 173.84 432.107 173.7 432.077 173.566C432.047 173.431 431.992 173.303 431.913 173.19Z" fill="#939498"/>
<path d="M467.071 186.545L455.042 182.521L416.46 209.401L428.401 213.303C428.723 213.408 429.065 213.437 429.4 213.387C429.735 213.338 430.054 213.211 430.331 213.016L467.181 187.317C467.252 187.275 467.31 187.212 467.346 187.137C467.382 187.061 467.395 186.977 467.383 186.894C467.372 186.812 467.336 186.735 467.28 186.672C467.225 186.61 467.152 186.566 467.071 186.545V186.545Z" fill="#007BFF"/>
</g>
<defs>
<clipPath id="clip0">
<rect width="456" height="320" fill="white" transform="translate(72 40)"/>
</clipPath>
</defs>
</svg>
