<svg width="600" height="400" viewBox="0 0 600 400" fill="none" xmlns="http://www.w3.org/2000/svg">
<rect width="600" height="400" fill="white"/>
<g clip-path="url(#clip0)">
<path opacity="0.1" d="M308.567 89.8656C275.284 95.486 242.048 93.0766 210.076 89.572C178.104 86.0674 146.211 81.4909 112.914 82.8704C91.4953 83.7559 67.6421 87.9968 52.6866 100.323C38.2907 112.179 36.0476 128.178 36.0196 142.621C35.9823 153.484 36.9243 164.725 44.6283 173.379C49.9818 179.382 58.222 183.683 64.429 189.225C86.0251 208.472 79.4591 238.778 65.2871 264.545C58.6371 276.634 50.5041 288.523 45.976 300.896C41.4478 313.269 40.8463 326.528 48.9512 336.618C56.9816 346.624 72.5153 352.263 88.7113 355.185C121.607 361.122 158.256 357.436 193.717 352.44C272.197 341.343 349.866 324.044 427.366 306.787C456.042 300.398 484.843 293.98 512.469 284.771C527.811 279.645 543.433 273.265 553.343 263.334C565.934 250.751 566.251 233.54 554.117 223.255C533.757 206.011 487.673 209.837 471.925 190.124C463.26 179.27 467.033 164.529 473.93 151.508C488.718 123.583 517.3 95.994 513.597 68.153C511.042 49.0455 491.544 33.2329 465.41 29.1131C438.018 24.7976 402.837 32.9812 387.065 52.2099C370.851 72.0211 337.955 84.8883 308.567 89.8656Z" fill="#007BFF"/>
<path d="M336.056 195.419H203.882V226.005H336.056V195.419Z" fill="#565661"/>
<path opacity="0.1" d="M336.056 195.419H203.882V226.005H336.056V195.419Z" fill="black"/>
<path d="M219.695 227.011L220.623 308.666L207.911 340.738L206.927 227.011H219.695Z" fill="#BCBEC9"/>
<path d="M205.276 201.291L333.962 202.064V224.844H205.276V201.291Z" fill="#565661"/>
<path d="M322.952 227.011L333.962 228.563V339.499L322.952 305.567V227.011Z" fill="#BCBEC9"/>
<path d="M400.164 196.645H338.146V328.346H400.164V196.645Z" fill="#EFEFF0"/>
<path d="M395.202 200.303H343.107V301.54H395.202V200.303Z" fill="#565661"/>
<path opacity="0.1" d="M395.202 200.303H343.107V301.54H395.202V200.303Z" fill="black"/>
<path d="M395.202 202.377H343.107V224.844H395.202V202.377Z" fill="#565661"/>
<path d="M395.202 227.011H343.107V274.734H395.202V227.011Z" fill="#565661"/>
<path d="M395.202 277.679H343.107V325.401H395.202V277.679Z" fill="#565661"/>
<path opacity="0.1" d="M395.202 277.679H343.107V325.401H395.202V277.679Z" fill="black"/>
<path d="M345.28 336.922C347.135 336.922 348.638 335.002 348.638 332.634C348.638 330.266 347.135 328.346 345.28 328.346C343.426 328.346 341.923 330.266 341.923 332.634C341.923 335.002 343.426 336.922 345.28 336.922Z" fill="#565661"/>
<path d="M391.844 337.127C393.699 337.127 395.202 335.207 395.202 332.839C395.202 330.471 393.699 328.552 391.844 328.552C389.99 328.552 388.487 330.471 388.487 332.839C388.487 335.207 389.99 337.127 391.844 337.127Z" fill="#565661"/>
<path d="M203.416 340.738H207.911L206.675 197.786H199.848L203.416 340.738Z" fill="#EFEFF0"/>
<path d="M333.962 196.645V339.499H338.146V197.786L333.962 196.645Z" fill="#EFEFF0"/>
<path d="M206.894 223.446V228.563H333.962V224.844L206.894 223.446Z" fill="#EFEFF0"/>
<path d="M215.508 187.04H376.6L400.01 194.785V199.278L199.074 197.73V193.159L215.508 187.04Z" fill="white"/>
<path d="M199.074 193.159L400.01 194.785V199.278L199.074 197.731V193.159Z" fill="#BCBEC9"/>
<path d="M217.275 246.436L216.343 246.296C216.343 246.254 216.343 246.217 216.343 246.18C216.315 245.961 216.282 245.746 216.249 245.527C216.632 245.83 216.995 246.133 217.331 246.436H217.275Z" fill="url(#paint0_linear)"/>
<path d="M197.008 318.397C197.614 318.257 198.23 318.14 198.846 318.056C203.073 317.455 207.385 318.089 211.259 319.883C210.868 322.763 210.481 325.741 211.311 328.523C211.889 330.481 213.05 332.252 213.297 334.293C213.92 334.4 214.501 334.678 214.974 335.096C215.448 335.514 215.796 336.056 215.979 336.66C216.158 337.195 216.247 337.756 216.245 338.32C216.239 339.017 216.152 339.712 215.983 340.389C215.927 340.93 215.661 341.427 215.243 341.775C214.825 342.123 214.288 342.295 213.745 342.253C210.136 342.663 206.596 341.242 203.238 339.848L196.71 337.136C195.945 336.819 195.175 336.497 194.443 336.106C193.055 335.356 191.822 334.348 190.81 333.137C190.597 332.921 190.447 332.65 190.377 332.354C190.256 331.534 191.216 331.045 191.827 330.49C192.006 330.321 192.163 330.13 192.293 329.922C193.016 328.831 193.086 327.326 193.52 326.04C194.546 322.987 197.717 321.02 198.836 318.042C198.897 317.879 198.953 317.716 198.999 317.548" fill="#A26565"/>
<path opacity="0.1" d="M216.245 338.32C216.239 339.017 216.152 339.712 215.983 340.389C215.927 340.93 215.661 341.427 215.243 341.775C214.825 342.123 214.288 342.295 213.745 342.253C210.136 342.663 206.596 341.242 203.238 339.848L196.71 337.136C195.945 336.819 195.175 336.497 194.443 336.106C193.055 335.356 191.822 334.349 190.81 333.137C190.597 332.921 190.447 332.65 190.377 332.354C190.256 331.534 191.216 331.045 191.827 330.49C192.006 330.321 192.163 330.13 192.293 329.922C194.094 330.308 196.327 331.441 197.703 331.879C199.081 332.254 200.404 332.807 201.639 333.524C203.355 334.624 204.591 336.32 206.046 337.718C207.501 339.117 209.38 340.389 211.409 340.216C212.481 340.055 213.515 339.698 214.459 339.163L216.245 338.32Z" fill="black"/>
<path d="M208.601 272.091C208.723 272.514 208.712 272.964 208.57 273.38C208.428 273.797 208.163 274.16 207.809 274.421C207.198 274.799 206.409 274.748 205.803 275.158C205.052 275.684 204.945 276.728 204.815 277.632C204.348 280.741 202.805 283.56 201.485 286.417C200.165 289.274 199.051 292.392 199.536 295.496C199.867 297.602 200.902 299.848 199.932 301.745C199.694 302.211 199.34 302.626 199.069 303.078C197.74 305.296 198.496 308.106 198.444 310.688C198.464 310.975 198.401 311.261 198.263 311.513C198.059 311.751 197.808 311.945 197.526 312.082C197.052 312.43 196.663 312.88 196.388 313.399C196.113 313.917 195.958 314.492 195.936 315.078C195.896 316.252 196.038 317.425 196.355 318.555C196.407 319.011 196.608 319.438 196.929 319.767C197.3 320.012 197.738 320.136 198.183 320.121C201.113 320.358 203.987 321.056 206.699 322.19C208.466 322.926 210.182 323.849 212.062 324.203C212.243 324.26 212.435 324.279 212.624 324.259C212.813 324.238 212.996 324.18 213.162 324.087C213.398 323.874 213.562 323.592 213.628 323.281C214.351 320.904 215.083 318.452 214.836 315.982C214.729 314.92 214.445 313.881 214.37 312.818C214.043 308.624 216.883 304.84 217.783 300.701C218.189 298.837 218.189 296.908 218.478 295.025C219.262 289.866 222.106 285.238 223.202 280.135C223.355 279.184 223.592 278.248 223.911 277.339C224.727 275.363 226.616 273.76 226.658 271.62C226.684 271.15 226.56 270.683 226.304 270.288C225.864 269.805 225.28 269.478 224.639 269.356C222.105 268.659 219.526 268.139 216.921 267.799C215.727 267.565 214.508 267.48 213.293 267.547C211.715 267.733 210.198 268.268 208.853 269.113C207.053 270.222 208.21 270.488 208.601 272.091Z" fill="#454B69"/>
<path opacity="0.05" d="M208.601 272.091C208.723 272.514 208.712 272.964 208.57 273.38C208.428 273.797 208.163 274.16 207.809 274.421C207.198 274.799 206.409 274.748 205.803 275.158C205.052 275.684 204.945 276.728 204.815 277.632C204.348 280.741 202.805 283.56 201.485 286.417C200.165 289.274 199.051 292.392 199.536 295.496C199.867 297.602 200.902 299.848 199.932 301.745C199.694 302.211 199.34 302.626 199.069 303.078C197.74 305.296 198.496 308.106 198.444 310.688C198.464 310.975 198.401 311.261 198.263 311.513C198.059 311.751 197.808 311.945 197.526 312.082C197.052 312.43 196.663 312.88 196.388 313.399C196.113 313.917 195.958 314.492 195.936 315.078C195.896 316.252 196.038 317.425 196.355 318.555C196.407 319.011 196.608 319.438 196.929 319.767C197.3 320.012 197.738 320.136 198.183 320.121C201.113 320.358 203.987 321.056 206.699 322.19C208.466 322.926 210.182 323.849 212.062 324.203C212.243 324.26 212.435 324.279 212.624 324.259C212.813 324.238 212.996 324.18 213.162 324.087C213.398 323.874 213.562 323.592 213.628 323.281C214.351 320.904 215.083 318.452 214.836 315.982C214.729 314.92 214.445 313.881 214.37 312.818C214.043 308.624 216.883 304.84 217.783 300.701C218.189 298.837 218.189 296.908 218.478 295.025C219.262 289.866 222.106 285.238 223.202 280.135C223.355 279.184 223.592 278.248 223.911 277.339C224.727 275.363 226.616 273.76 226.658 271.62C226.684 271.15 226.56 270.683 226.304 270.288C225.864 269.805 225.28 269.478 224.639 269.356C222.105 268.659 219.526 268.139 216.921 267.799C215.727 267.565 214.508 267.48 213.293 267.547C211.715 267.733 210.198 268.268 208.853 269.113C207.053 270.222 208.21 270.488 208.601 272.091Z" fill="black"/>
<path d="M199.475 342.327H195.497L192.895 288.901L192.713 285.862L196.094 284.674L196.323 287.904L199.475 342.327Z" fill="#565661"/>
<path opacity="0.1" d="M196.323 287.904L192.895 288.901L192.713 285.862L196.094 284.674L196.323 287.904Z" fill="black"/>
<path d="M249.387 353.629L242.826 354.421L212.598 285.863L204.446 285.266L190.13 289.442L187.346 371.068H180.784L183.368 286.459L167.657 286.86L139.62 356.607H133.656L163.143 275.092L164.28 271.951L208.223 270.446L219.178 276.584L219.318 276.938L249.387 353.629Z" fill="#565661"/>
<path opacity="0.1" d="M219.318 276.938C209.874 279.781 200.072 282.885 200.072 282.885C200.072 282.885 191.132 286.002 187.346 282.885C186.868 282.512 186.334 282.218 185.765 282.013C186.256 282.364 186.787 282.656 187.346 282.885L163.143 275.088L164.276 271.951L208.224 270.446L219.178 276.584L219.318 276.938Z" fill="black"/>
<path d="M174.619 263.409L192.513 259.434C192.513 259.434 235.267 267.384 238.447 270.563C238.447 270.563 204.246 277.516 200.468 279.883C196.691 282.251 174.218 284.87 174.619 263.409Z" fill="white"/>
<path d="M166.925 218.72C165.526 223.152 161.706 227.146 157.057 227.337C156.719 227.377 156.376 227.315 156.073 227.16C155.49 226.797 155.476 225.944 155.714 225.296C155.952 224.648 156.367 224.066 156.432 223.386C156.446 223.247 156.436 223.106 156.404 222.971C156.283 222.416 155.83 221.922 155.299 222.039C155.661 221.749 155.902 221.335 155.975 220.878C156.048 220.42 155.949 219.952 155.695 219.564C155.484 219.326 155.294 219.07 155.126 218.8C154.739 218.007 155.341 217.117 155.593 216.269C156.11 214.405 154.795 212.541 154.688 210.597C154.595 208.859 155.476 207.223 155.695 205.499C156.045 202.703 154.655 200.023 154.492 197.232C154.38 195.284 154.86 193.354 155.397 191.476C155.863 189.798 156.39 188.102 156.423 186.35C156.423 185.077 156.203 183.819 156.143 182.551C156.046 181.393 156.257 180.229 156.754 179.177C157.077 178.559 157.626 178.09 158.288 177.868C159.818 177.355 160.82 178.152 161.044 179.601C161.417 182.067 161.203 184.583 161.692 187.058C162.145 189.372 162.831 191.635 163.739 193.811C164.565 195.778 165.568 197.679 166.202 199.716C166.679 201.394 167.021 203.109 167.223 204.842C167.848 209.498 168.338 214.288 166.925 218.72Z" fill="#007BFF"/>
<path d="M273.138 331.52C272.548 332.351 271.789 333.048 270.91 333.565C270.032 334.083 269.054 334.408 268.041 334.521C266.017 334.773 263.914 334.265 261.95 334.82C261.646 334.87 261.36 334.994 261.115 335.182C260.871 335.37 260.677 335.615 260.551 335.896C260.503 336.275 260.473 336.656 260.463 337.038C260.234 338.282 258.597 338.562 257.324 338.553L252.073 338.52C250.982 338.52 249.774 338.459 248.991 337.704C248.618 337.292 248.408 336.759 248.4 336.203C248.391 335.648 248.585 335.108 248.944 334.684C249.107 334.492 249.307 334.333 249.532 334.218C249.204 334.11 248.913 333.913 248.69 333.649C248.468 333.384 248.323 333.064 248.273 332.722C248.177 332.037 248.21 331.34 248.371 330.667C248.371 328.719 248.837 325.457 250.208 323.933C251.891 322.036 254.811 319.585 257.352 319.077C258.211 318.912 259.095 318.951 259.936 319.19C260.777 319.429 261.549 319.861 262.193 320.452C263.396 321.57 264.273 323.322 265.924 323.518C266.824 323.63 267.691 323.206 268.582 323.052C269.594 322.922 270.622 323.108 271.524 323.584C272.427 324.061 273.16 324.804 273.623 325.713C273.849 326.174 274.006 326.666 274.089 327.172C274.336 328.689 273.996 330.244 273.138 331.52Z" fill="#A26565"/>
<path opacity="0.1" d="M273.138 331.52C272.548 332.351 271.789 333.048 270.91 333.565C270.032 334.082 269.054 334.408 268.041 334.521C266.017 334.773 263.914 334.265 261.95 334.819C261.646 334.87 261.36 334.994 261.115 335.182C260.871 335.37 260.677 335.615 260.551 335.896C260.503 336.275 260.473 336.656 260.463 337.038C260.234 338.282 258.597 338.562 257.324 338.552L252.073 338.52C250.982 338.52 249.774 338.459 248.991 337.704C248.618 337.292 248.408 336.759 248.4 336.203C248.391 335.648 248.585 335.108 248.944 334.684C251.975 334.559 254.955 334.684 257.977 334.06C259.204 333.813 260.411 333.487 261.652 333.314C264.338 332.932 267.197 333.258 269.664 332.121C271.72 331.189 273.194 329.292 274.066 327.177C274.318 328.69 273.986 330.242 273.138 331.52V331.52Z" fill="black"/>
<path d="M259.283 324.152C257.418 325.597 255.231 326.725 252.88 326.846C250.53 326.967 248.035 325.914 246.883 323.872C245.2 320.876 246.692 316.709 244.631 313.96C243.987 313.098 243.059 312.487 242.378 311.653C241.697 310.819 241.306 309.565 241.912 308.68C241.18 308.959 240.406 308.251 240.191 307.496C239.977 306.741 240.112 305.93 239.981 305.166C239.641 303.138 237.65 301.838 236.694 300.039C235.738 298.24 235.868 295.906 235.761 293.776C235.523 288.587 233.59 283.619 230.258 279.632C229.624 278.877 228.812 278.108 227.824 278.145C227.996 276.439 226.858 274.808 225.385 273.951C223.911 273.093 222.158 272.804 220.451 272.636C203.229 270.94 185.284 277.339 168.841 271.956C164.266 270.46 159.855 267.957 157.057 264.033C155.967 262.54 155.187 260.844 154.764 259.044C154.34 257.245 154.281 255.379 154.59 253.557V253.492C155.238 250.183 156.987 249.367 159.883 247.857C163.226 246.091 166.72 244.626 170.324 243.481C177.319 241.295 184.851 240.508 192.07 242.111C195.441 242.866 198.692 244.115 202.068 244.847C203.397 245.136 204.735 245.341 206.083 245.513C208.177 245.774 210.28 245.946 212.388 246.189C219.128 246.964 225.766 248.456 232.189 250.639C234.581 251.45 236.973 252.378 239.03 253.846C240.657 255.026 242.032 256.519 243.076 258.236C244.12 259.953 244.812 261.86 245.111 263.847C245.307 265.217 245.311 266.643 245.61 267.971C245.893 269.088 246.267 270.179 246.729 271.234C250.714 281.079 253.97 291.204 256.471 301.526C256.613 302.293 256.876 303.032 257.25 303.716C257.847 304.681 258.873 305.329 259.474 306.294C260.873 308.568 259.526 311.741 260.766 314.109C261.195 314.929 261.908 315.577 262.338 316.397C263.737 319.086 261.671 322.302 259.283 324.152Z" fill="#454B69"/>
<path opacity="0.1" d="M235.453 270.605C236.116 270.08 236.688 269.451 237.146 268.74C237.605 268.027 237.788 267.17 237.659 266.331C237.841 267.392 237.771 268.481 237.456 269.51C237.141 270.54 236.589 271.481 235.845 272.259C234.674 273.457 232.478 274.631 230.766 274.221C231.009 272.851 234.367 271.527 235.453 270.605Z" fill="black"/>
<path opacity="0.1" d="M206.316 247.377C206.175 247.877 205.912 248.333 205.551 248.706C205.19 249.079 204.741 249.355 204.246 249.512C203.251 249.815 202.21 249.937 201.173 249.87H200.24C188.003 249.6 175.636 246.888 163.684 249.474C162.243 249.771 160.83 250.187 159.459 250.719C157.711 251.407 156.076 252.349 154.604 253.515V253.45C155.252 250.141 157.001 249.325 159.897 247.815C163.237 246.064 166.727 244.614 170.324 243.481C177.319 241.295 184.851 240.508 192.07 242.111C195.441 242.866 198.692 244.115 202.068 244.847C203.397 245.136 204.735 245.341 206.083 245.513C206.344 246.097 206.426 246.746 206.316 247.377V247.377Z" fill="black"/>
<path d="M206.316 246.711C206.176 247.211 205.914 247.669 205.552 248.043C205.191 248.416 204.742 248.694 204.246 248.85C203.251 249.154 202.21 249.274 201.172 249.204H200.24C188.003 248.934 175.636 246.221 163.684 248.808C162.244 249.105 160.831 249.52 159.459 250.048C157.629 250.777 155.922 251.783 154.399 253.03C154.041 252.048 153.685 251.065 153.331 250.08C152.902 248.906 154.264 248.645 154.525 247.592C154.697 246.879 154.403 246.068 154.254 245.308C154.216 245.122 154.191 244.934 154.18 244.744C154.096 243.062 154.697 242.092 156.078 241.184C160.172 238.481 165.166 236.626 169.839 235.232C172.323 234.447 174.889 233.95 177.487 233.75C181.162 233.536 184.832 234.216 188.409 235.079C192.806 236.164 197.157 237.6 201.056 239.897C202.968 241.011 204.833 242.409 205.864 244.395C206.275 245.092 206.435 245.91 206.316 246.711Z" fill="#A26565"/>
<path opacity="0.1" d="M166.925 218.721C165.526 223.153 161.706 227.146 157.057 227.338C156.719 227.377 156.376 227.316 156.073 227.16C155.49 226.797 155.476 225.944 155.714 225.296C155.952 224.649 156.367 224.066 156.432 223.386C156.446 223.247 156.436 223.107 156.404 222.971C158.871 219.494 161.263 215.98 162.21 211.865C162.402 211.157 162.46 210.419 162.382 209.689C162.257 208.85 161.832 208.09 161.599 207.279C161.189 205.844 161.38 204.325 161.496 202.838C161.982 196.292 160.888 189.725 158.307 183.689C157.677 182.235 156.959 180.762 156.74 179.21C157.063 178.592 157.612 178.122 158.274 177.9C159.804 177.388 160.806 178.185 161.03 179.634C161.403 182.099 161.189 184.616 161.678 187.091C162.131 189.405 162.817 191.667 163.725 193.844C164.551 195.81 165.554 197.712 166.188 199.748C166.665 201.427 167.007 203.141 167.209 204.875C167.848 209.498 168.338 214.289 166.925 218.721Z" fill="black"/>
<path opacity="0.1" d="M206.316 246.711C206.176 247.211 205.914 247.669 205.552 248.043C205.191 248.416 204.742 248.694 204.246 248.85C203.251 249.154 202.21 249.274 201.173 249.204H200.24C196.256 246.56 191.468 245.405 186.716 245.942C185.196 246.124 183.675 246.478 182.155 246.338C179.082 246.058 176.592 243.849 173.854 242.437C170.739 240.9 167.236 240.328 163.793 240.795C160.351 241.262 157.127 242.746 154.534 245.056L154.268 245.289C154.23 245.103 154.205 244.915 154.194 244.726C154.11 243.043 154.711 242.074 156.092 241.165C160.186 238.462 165.18 236.607 169.853 235.214C172.337 234.429 174.903 233.932 177.501 233.732C181.176 233.517 184.846 234.198 188.423 235.06C192.82 236.146 197.171 237.581 201.07 239.879C202.968 241.011 204.833 242.409 205.864 244.395C206.275 245.092 206.435 245.91 206.316 246.711Z" fill="black"/>
<path d="M216.776 195.661L216.711 195.829C215.666 198.537 213.745 200.825 212.514 203.463C210.961 206.804 210.579 210.551 210.233 214.224C209.935 217.369 209.641 220.534 209.879 223.689C210.476 231.462 214.277 238.835 215.293 246.459C215.544 248.22 215.608 250.002 215.484 251.777C215.4 252.9 215.195 254.107 214.449 254.936C213.703 255.766 212.253 256.092 211.451 255.295C211.81 254.61 212.173 253.93 212.537 253.245C210.406 251.59 207.198 252.779 204.707 251.744C203.611 251.278 202.735 250.439 201.816 249.689C199.719 247.985 197.303 246.718 194.709 245.961C192.115 245.203 189.396 244.972 186.711 245.28C185.191 245.467 183.671 245.821 182.151 245.681C179.077 245.397 176.587 243.192 173.85 241.78C170.735 240.244 167.232 239.672 163.79 240.138C160.348 240.603 157.123 242.086 154.529 244.395C153.876 245.001 153 245.709 152.198 245.327C151.888 245.137 151.637 244.864 151.475 244.539C148.42 239.324 150.668 232.599 153.932 227.52C157.197 222.44 161.52 217.756 162.863 211.87C163.057 211.162 163.115 210.423 163.035 209.694C162.909 208.855 162.485 208.095 162.252 207.284C161.841 205.849 162.033 204.33 162.149 202.843C162.639 196.296 161.548 189.727 158.969 183.689C158.223 181.951 157.337 180.189 157.337 178.301C157.337 175.328 159.468 172.863 161.231 170.472C163.259 167.722 164.961 164.679 167.531 162.419C169.965 160.27 173.491 158.956 176.503 160.047C181.622 158.805 186.891 158.292 192.153 158.523C193.972 158.607 195.852 158.798 197.446 159.679C199.153 160.611 200.38 162.27 202.059 163.262C203.285 163.994 204.698 164.339 206.032 164.852C209.715 166.289 212.755 169.006 214.594 172.504C216.459 176.116 216.925 180.268 217.336 184.313C217.727 188.121 218.101 192.077 216.776 195.661Z" fill="#007BFF"/>
<path opacity="0.1" d="M209.879 223.689C210.476 231.462 214.277 238.835 215.293 246.459C213.26 244.739 210.429 243.01 210.052 241.011C209.632 238.849 208.289 236.015 208.065 233.829C207.841 231.644 209.375 228.973 207.767 227.473C206.983 226.741 209.068 226.946 208.303 226.196C206.582 224.523 206.158 221.946 206.05 219.555C205.869 215.323 206.405 211.045 205.626 206.883C205.16 204.315 204.185 201.869 203.406 199.375C202.502 196.472 201.849 193.499 201.196 190.521C200.553 187.873 200.086 185.186 199.797 182.477C199.596 180.147 199.69 177.677 200.729 175.552C201.769 173.427 203.873 171.702 206.232 171.735C214.123 171.837 212.761 182.528 214.496 187.468C215.191 189.435 216.128 191.336 216.506 193.387C216.644 194.191 216.718 195.004 216.73 195.82C215.685 198.527 213.764 200.815 212.533 203.453C210.98 206.795 210.597 210.542 210.252 214.214C209.935 217.369 209.641 220.533 209.879 223.689Z" fill="black"/>
<path d="M215.009 187.347C215.704 189.314 216.641 191.215 217.019 193.266C217.648 196.701 216.674 200.35 217.732 203.677C218.008 204.387 218.238 205.114 218.422 205.854C218.604 206.911 218.394 207.993 218.394 209.069C218.394 210.803 218.94 212.481 219.425 214.144C221.065 219.798 222.151 225.598 222.666 231.462C222.743 233.038 222.992 234.601 223.408 236.123C223.603 236.638 223.772 237.164 223.911 237.698C224.036 238.41 224.066 239.136 224 239.856C223.874 242.139 223.617 244.432 223.874 246.706C224.13 248.98 224.96 251.287 226.672 252.811C225.142 253.142 223.524 253.473 222.032 252.984C219.933 252.299 218.674 250.188 217.606 248.267C216.254 245.816 211.115 243.607 210.583 240.853C210.168 238.695 208.825 235.862 208.601 233.671C208.377 231.481 209.907 228.82 208.298 227.319C207.519 226.587 209.604 226.788 208.834 226.042C207.118 224.369 206.694 221.792 206.587 219.397C206.405 215.17 206.936 210.891 206.162 206.73C205.696 204.162 204.721 201.715 203.943 199.217C203.038 196.318 202.385 193.345 201.732 190.362C201.088 187.715 200.62 185.028 200.333 182.319C200.133 179.988 200.221 177.514 201.266 175.389C202.31 173.264 204.414 171.544 206.769 171.572C214.626 171.712 213.274 182.407 215.009 187.347Z" fill="#007BFF"/>
<path opacity="0.1" d="M192.522 189.169C193.259 190.032 194.205 190.978 195.32 190.81C195.235 190.944 195.102 191.039 194.947 191.076C194.793 191.113 194.63 191.087 194.495 191.006C194.227 190.828 194.013 190.582 193.874 190.293L192.279 187.603C192.07 187.254 190.624 185.217 190.27 186.392C190.13 186.89 192.163 188.75 192.522 189.169Z" fill="black"/>
<path opacity="0.1" d="M191.664 195.875C191.618 194.997 191.247 194.166 190.624 193.545C190.063 193.037 189.409 192.643 188.698 192.385C186.949 191.667 184.879 191.089 182.981 191.183C183.671 192.189 185.886 192.79 186.996 193.359C188.569 194.17 190.125 195.009 191.664 195.875Z" fill="black"/>
<path opacity="0.1" d="M196.63 214.964C196.309 217.351 194.355 219.159 192.377 220.557C190.4 221.955 188.18 223.157 186.889 225.18C185.993 226.578 185.592 228.2 184.832 229.659C183.993 231.266 182.738 232.618 181.736 234.128C180.733 235.638 179.949 237.441 180.257 239.231C180.262 239.313 180.283 239.394 180.32 239.468C180.357 239.541 180.408 239.607 180.472 239.66C180.568 239.7 180.673 239.716 180.776 239.704C180.88 239.693 180.979 239.655 181.064 239.594C183.097 238.532 183.899 236.104 184.753 234.002C185.649 231.881 186.657 229.808 187.775 227.794C188.278 226.862 188.833 225.846 189.771 225.329C190.412 225.062 191.069 224.833 191.738 224.644C192.687 224.209 193.52 223.556 194.168 222.738C196.714 219.703 198.043 215.832 197.899 211.875C197.871 211.04 197.824 207.023 196.57 208.263C195.315 209.503 196.845 213.343 196.63 214.964Z" fill="black"/>
<path d="M199.704 123.449C203.714 125.197 207.165 129.041 207.039 133.399C206.932 137.975 203.098 142.286 204.418 146.671C205.183 149.216 207.487 150.922 209.31 152.856C216.254 160.201 216.24 173.021 209.273 180.352C206.605 183.148 203.178 185.138 200.356 187.808C190.409 197.176 189.985 213.38 195.311 225.958C191.23 226.84 187.071 227.309 182.897 227.356C180.943 227.356 178.55 227.025 177.842 225.203C177.189 223.521 178.308 221.247 177.021 220.002C176.415 219.42 175.505 219.341 174.689 219.205C169.438 218.357 165.129 214.168 163.161 209.232C161.193 204.297 161.296 198.742 162.424 193.55C163.227 189.798 164.481 185.669 162.62 182.314C160.289 178.092 153.583 176.311 153.685 171.483C153.769 167.527 158.437 165.602 161.086 162.661C165.973 157.246 163.646 148.843 163.637 141.545C163.637 135.123 165.885 128.496 170.669 124.218C177.786 117.801 191.491 119.884 199.704 123.449Z" fill="#A26565"/>
<g opacity="0.1">
<path opacity="0.1" d="M163.385 177.528C161.338 173.837 155.961 172.01 154.711 168.38C154.086 169.227 153.734 170.245 153.704 171.297C153.601 176.125 160.298 177.905 162.639 182.132C163.408 183.629 163.731 185.314 163.572 186.988C164.308 183.745 164.957 180.361 163.385 177.528Z" fill="black"/>
<path opacity="0.1" d="M204.955 140.697C205.794 138.25 207.011 135.78 207.072 133.24C207.08 132.965 207.072 132.69 207.048 132.416C206.111 135.221 204.675 137.943 204.955 140.697Z" fill="black"/>
<path opacity="0.1" d="M164.187 153.732C165.791 148.666 164.406 142.384 164.402 136.764C164.402 136.083 164.43 135.398 164.481 134.718C163.928 136.89 163.65 139.122 163.651 141.363C163.66 145.376 164.364 149.729 164.187 153.732Z" fill="black"/>
<path opacity="0.1" d="M210.052 175.585C207.384 178.381 203.957 180.371 201.135 183.041C196.099 187.781 193.511 194.273 192.862 201.156C194.065 196.03 196.495 191.309 200.389 187.641C203.187 184.985 206.638 183.004 209.305 180.184C212.478 176.729 214.321 172.26 214.505 167.573C213.7 170.568 212.17 173.319 210.052 175.585V175.585Z" fill="black"/>
<path opacity="0.1" d="M183.675 222.575C181.721 222.575 179.329 222.239 178.62 220.417C177.967 218.739 179.087 216.465 177.8 215.216C177.193 214.634 176.279 214.554 175.468 214.419C170.222 213.576 165.913 209.381 163.945 204.451C162.494 200.806 162.182 196.831 162.546 192.907C162.508 193.061 162.476 193.215 162.443 193.373C161.333 198.565 161.217 204.124 163.18 209.06C165.143 213.995 169.457 218.185 174.703 219.028C175.533 219.163 176.447 219.247 177.035 219.825C178.336 221.074 177.203 223.348 177.856 225.026C178.564 226.848 180.957 227.207 182.911 227.184C187.085 227.136 191.244 226.667 195.325 225.786C194.749 224.426 194.246 223.037 193.818 221.624C190.469 222.219 187.077 222.537 183.675 222.575V222.575Z" fill="black"/>
</g>
<path opacity="0.1" d="M198.948 202.251C200.1 203.118 201.35 199.814 200.636 198.989C200.445 199.203 198.771 202.13 198.948 202.251Z" fill="black"/>
<path opacity="0.1" d="M203.859 262.062C205.216 261.596 206.657 261.13 207.543 260.011C208.275 259.112 208.876 255.542 207.328 257.253C206.013 258.721 205.393 260.655 203.859 262.062Z" fill="black"/>
<path opacity="0.1" d="M217.676 258.32C217.513 259.42 217.21 260.562 216.431 261.354C216.287 261.503 215.965 261.596 215.923 261.396C216.793 260.933 217.601 260.363 218.329 259.699C219.905 258.138 220.12 254.293 217.718 253.273C217.695 254.96 217.933 256.605 217.676 258.32Z" fill="black"/>
<path d="M234.264 251.39C234.264 251.39 221.029 246.194 216.245 246.729C211.46 247.265 221.663 254.801 221.663 254.801L227.763 258.912C227.763 258.912 231.494 257.514 231.741 257.406C231.988 257.299 234.264 251.39 234.264 251.39Z" fill="#454B69"/>
<path d="M143.202 195.643C143.202 195.643 153.144 189.882 166.267 197.041C179.39 204.199 181.577 246.324 181.577 246.324C181.577 246.324 176.209 289.241 196.905 279.692C196.905 279.692 234.679 267.971 238.461 270.553C238.461 270.553 242.042 270.553 234.884 272.142C227.726 273.732 200.072 282.488 200.072 282.488C200.072 282.488 191.132 285.611 187.346 282.488C183.559 279.366 172.828 282.889 171.434 261.424C170.511 247.897 168.852 234.43 166.463 221.084L162.774 210.155L143.202 195.643Z" fill="#565661"/>
<path d="M142.008 262.016C142.008 262.016 146.382 218.497 139.21 202.796C132.97 189.113 157.099 195.512 163.394 197.376C164.369 197.667 165.218 198.274 165.81 199.101C169.541 204.344 182.925 225.357 178.979 253.473C178.979 253.473 177.389 278.513 187.332 282.484L156.698 272.623C154.212 271.821 151.689 271.155 149.143 270.577C145.897 269.84 140.609 267.748 142.008 262.016Z" fill="white"/>
<path d="M359.886 343.26H363.864L366.471 289.833L366.648 286.795L363.267 285.606L363.043 288.836L359.886 343.26Z" fill="#565661"/>
<path opacity="0.1" d="M363.043 288.836L366.471 289.833L366.648 286.795L363.267 285.606L363.043 288.836Z" fill="black"/>
<path d="M326.674 322.628C326.576 323.36 326.388 324.077 326.114 324.762C325.831 325.658 325.224 326.416 324.412 326.888C323.866 327.113 323.281 327.228 322.691 327.228C320.495 327.358 318.172 327.326 316.283 326.207C315.479 325.689 314.741 325.074 314.087 324.376C309.843 320.162 305.985 315.576 302.559 310.674C301.986 309.849 301.393 308.875 301.65 307.878C306.087 306.648 310.301 304.721 314.134 302.169C314.663 301.764 315.255 301.449 315.887 301.237C316.969 301.006 318.083 300.965 319.179 301.116C320.238 301.288 320.285 301.321 320.69 302.514C321.362 304.532 321.25 306.708 322.005 308.726C322.485 309.841 323.069 310.909 323.75 311.914C325.699 315.171 327.196 319.016 326.674 322.628Z" fill="#A26565"/>
<path opacity="0.1" d="M326.674 322.628C326.576 323.36 326.388 324.077 326.114 324.763C325.831 325.658 325.224 326.416 324.412 326.888C323.866 327.113 323.281 327.228 322.691 327.228C320.495 327.358 318.172 327.326 316.284 326.207C315.479 325.689 314.741 325.074 314.087 324.376C309.843 320.162 305.985 315.576 302.559 310.674C301.986 309.849 301.393 308.875 301.65 307.878C303.097 307.477 304.523 307.001 305.921 306.452L305.991 306.503C307.423 307.524 308.463 308.987 309.475 310.423L312.739 315.013C313.321 315.915 314.009 316.744 314.787 317.483C315.751 318.257 316.816 318.896 317.953 319.384C319.487 320.125 321.022 320.866 322.616 321.463C323.647 321.878 325.391 322.041 326.674 322.628Z" fill="black"/>
<path d="M329.686 272.86C329.365 273.635 328.975 274.378 328.52 275.083C324.186 282.357 320.842 290.176 318.578 298.334C317.934 298.189 317.571 299.065 317.575 299.732C317.58 300.398 317.575 301.237 316.96 301.479C316.778 301.549 316.573 301.549 316.396 301.629C316.004 301.806 315.892 302.304 315.836 302.733L315.286 306.769C315.094 308.167 314.927 309.682 315.612 310.917C316.085 311.651 316.698 312.284 317.417 312.781L326.52 319.958C326.893 320.251 327.354 320.564 327.802 320.401C328.823 320.028 327.919 318.201 328.735 317.46C329.276 316.952 330.134 317.334 330.885 317.273C331.864 317.199 332.605 316.299 332.853 315.353C333.026 314.39 333.043 313.405 332.904 312.436C332.842 311.994 332.894 311.543 333.053 311.126C333.331 310.685 333.714 310.318 334.168 310.059C335.747 308.906 337.02 307.384 337.874 305.626C338.729 303.868 339.139 301.927 339.069 299.974C338.995 299.38 339.017 298.777 339.134 298.189C339.324 297.651 339.61 297.152 339.978 296.717C343.285 292.247 346.041 287.396 348.778 282.554C350.354 279.758 351.958 276.919 352.509 273.769C352.556 273.652 352.576 273.525 352.566 273.399C352.557 273.273 352.518 273.151 352.453 273.042C352.387 272.934 352.298 272.842 352.191 272.774C352.084 272.706 351.963 272.664 351.837 272.651C350.472 272.224 349.079 271.891 347.668 271.653C343.383 270.786 339.246 269.449 335.077 268.163C330.908 266.876 330.941 269.495 329.686 272.86Z" fill="#454B69"/>
<path d="M309.974 354.561L316.54 355.353L346.763 286.795L354.915 286.198L369.236 290.374L372.016 372H378.577L375.994 287.391L391.705 287.792L419.741 357.539H425.705L396.219 276.025L395.085 272.883L351.138 271.378L340.183 277.516L340.044 277.87L309.974 354.561Z" fill="#565661"/>
<path opacity="0.1" d="M340.043 277.87C349.487 280.713 359.289 283.817 359.289 283.817C359.289 283.817 368.229 286.934 372.016 283.817C372.493 283.444 373.027 283.15 373.597 282.945C373.105 283.296 372.575 283.588 372.016 283.817L396.219 276.02L395.099 272.883L351.152 271.378L340.197 277.516L340.043 277.87Z" fill="black"/>
<path d="M384.742 264.341L366.849 260.366C366.849 260.366 324.095 268.316 320.914 271.495C320.914 271.495 355.116 278.448 358.893 280.815C362.67 283.183 385.143 285.802 384.742 264.341Z" fill="white"/>
<path d="M318.345 328.225C317.268 330.276 314.614 330.854 312.282 330.886C309.045 330.926 305.83 330.352 302.806 329.194C301.081 328.533 299.425 327.68 297.644 327.195C294.991 326.468 292.048 326.529 289.716 325.07C288.48 324.246 287.458 323.139 286.736 321.84C286.601 321.612 286.471 321.374 286.349 321.132C285.235 318.965 284.717 316.444 285.337 314.104C285.958 311.765 288.21 309.187 290.821 309.225C293.923 309.271 297.621 310.739 300.615 311.499C304.345 312.431 308.076 313.508 311.373 315.479C314.134 317.138 316.573 319.52 317.874 322.428C318.124 322.989 318.33 323.568 318.489 324.161C318.895 325.503 318.988 326.999 318.345 328.225Z" fill="#A26565"/>
<path opacity="0.1" d="M318.345 328.225C317.268 330.276 314.614 330.854 312.282 330.886C309.045 330.926 305.83 330.352 302.806 329.195C301.081 328.533 299.425 327.68 297.644 327.195C294.991 326.468 292.048 326.529 289.716 325.07C288.48 324.246 287.458 323.139 286.736 321.84C286.601 321.612 286.47 321.374 286.349 321.132C286.816 321.169 287.245 321.216 287.478 321.239C290.341 321.514 293.074 322.558 295.807 323.346C299.6 324.441 303.518 325.052 307.465 325.163C310.263 325.243 313.182 325.037 315.626 323.672C316.356 323.212 317.113 322.796 317.892 322.428C318.143 322.989 318.348 323.568 318.508 324.161C318.895 325.504 318.988 327 318.345 328.225Z" fill="black"/>
<path d="M338.383 239.613C332.321 238.621 326.147 238.378 320 238.136L312.483 237.838C311.948 237.776 311.406 237.841 310.902 238.029C310.467 238.308 310.054 238.62 309.666 238.961C308.911 239.473 307.945 239.529 307.036 239.581C300.585 239.936 294.17 240.768 287.842 242.069C284.577 242.736 281.187 243.607 278.734 245.858C276.141 248.24 275.003 251.87 274.915 255.384C274.826 258.898 275.749 262.351 276.724 265.725C277.965 269.787 278.65 273.998 278.762 278.243C278.718 279.421 278.763 280.6 278.897 281.771C279.114 282.889 279.444 283.982 279.881 285.033L283.313 294.191C283.617 294.992 283.915 295.789 284.246 296.572C284.577 297.355 284.894 297.97 285.179 298.707C285.598 299.713 285.93 300.757 286.261 301.796L288.546 308.969L288.844 309.901C289.67 312.483 290.514 315.111 292.071 317.329C293.629 319.548 296.04 321.337 298.749 321.472C299.623 321.44 300.499 321.463 301.37 321.542C302.113 321.724 302.833 321.984 303.52 322.321C305.554 323.165 307.738 323.592 309.941 323.574C311.97 323.574 314.222 323.01 315.323 321.305C315.929 320.373 316.088 319.226 316.256 318.126C316.549 315.917 316.834 313.61 316.083 311.513C315.617 310.26 314.833 309.183 314.292 307.948C313.537 306.266 313.29 304.406 312.8 302.631C311.74 298.809 309.584 295.381 306.598 292.769C305.537 288.573 304.758 284.31 304.266 280.009C304.198 279.057 304.008 278.117 303.702 277.213C303.156 275.815 302.051 274.682 301.589 273.256C301.156 271.933 301.286 270.404 300.498 269.262C307.059 271.066 313.555 270.661 320.369 270.553C322.55 270.56 324.731 270.436 326.897 270.181C327.908 269.995 328.93 269.886 329.957 269.854C332.064 269.854 334.042 270.786 335.977 271.607C341.447 273.937 347.211 275.768 353.152 276.02C359.285 276.276 365.347 274.836 371.339 273.41C373.974 272.781 376.712 272.101 378.801 270.372C380.89 268.643 382.065 265.525 380.778 263.153C379.799 261.368 377.77 260.492 375.877 259.746C370.635 257.677 365.366 255.659 360.315 253.156C352.602 249.4 346.833 241.011 338.383 239.613Z" fill="#454B69"/>
<path d="M327.574 218.53C326.841 220.114 325.61 221.41 324.701 222.901C323.18 225.356 322.678 228.307 323.302 231.127C323.63 232.52 324.273 233.82 325.183 234.926C326.092 236.032 327.244 236.915 328.548 237.507C329.713 237.97 330.938 238.265 332.186 238.383C333.827 238.583 335.576 238.625 337.026 237.833C338.112 237.182 339.002 236.252 339.605 235.139C340.86 233.042 341.573 230.679 342.226 228.326C343.434 223.982 344.464 219.527 344.315 215.02C344.264 213.468 343.956 211.721 342.669 210.826C342.005 210.443 341.268 210.201 340.505 210.118L334.354 209.018C333.165 208.803 331.09 207.932 330.059 208.789C329.029 209.647 328.949 212.182 328.772 213.371C328.492 215.128 328.32 216.912 327.574 218.53Z" fill="#A1616A"/>
<path d="M402.342 200.503L400.733 213.981C400.4 216.385 400.208 218.806 400.159 221.233C400.159 222.584 400.201 224.085 399.306 225.096C398.868 225.556 398.314 225.89 397.702 226.061C395.748 226.667 393.616 226.126 391.751 225.292C390.66 224.826 389.545 224.15 389.051 223.064C388.764 222.311 388.644 221.505 388.701 220.701C388.701 212.662 389.461 204.278 393.663 197.427C394.022 196.755 394.527 196.172 395.141 195.722C396.307 194.976 397.832 195.186 399.152 195.591C399.963 195.838 402.155 196.113 402.673 196.836C403.19 197.558 402.454 199.576 402.342 200.503Z" fill="#A1616A"/>
<path d="M359.658 151.765C368.93 151.765 376.446 144.254 376.446 134.988C376.446 125.722 368.93 118.211 359.658 118.211C350.386 118.211 342.87 125.722 342.87 134.988C342.87 144.254 350.386 151.765 359.658 151.765Z" fill="#A1616A"/>
<path d="M355.167 159.991C355.106 161.296 354.751 162.571 354.127 163.719C362.698 162.414 371.248 160.96 379.776 159.357C376.946 157.903 374.807 155.39 373.825 152.366C373.361 150.745 373.107 149.071 373.07 147.384C372.934 144.711 372.986 142.031 373.223 139.364C370.239 139.676 367.413 140.795 364.568 141.755C361.708 142.721 358.799 143.534 355.852 144.192C354.43 144.509 352.998 144.779 351.562 145.031C349.883 145.329 349.076 145.325 350.242 146.797C353.371 150.731 355.605 154.729 355.167 159.991Z" fill="#A1616A"/>
<path d="M360.325 157.749C358.109 158.08 355.787 158.453 354.02 159.823C353.347 160.4 352.707 161.015 352.103 161.664C348.591 165.071 343.634 166.441 339.372 168.845C338.677 169.189 338.061 169.673 337.563 170.267C337.096 170.915 336.858 171.739 336.369 172.383C335.8 173.128 334.9 173.594 334.457 174.419C334.014 175.244 334.112 176.12 334.065 176.996C333.958 178.921 333.23 180.748 332.666 182.589C330.078 191.402 331.495 201.23 327.578 209.554C327.758 210.033 328.034 210.471 328.388 210.841C328.742 211.211 329.168 211.506 329.639 211.707C330.625 212.062 331.654 212.283 332.699 212.364L341.377 213.44C342.618 213.594 343.933 213.739 345.066 213.221C344.029 216.077 343.296 219.034 342.879 222.043C342.668 223.883 342.341 225.707 341.899 227.505C340.706 231.607 337.702 235.023 334.144 237.357C333.696 237.592 333.318 237.941 333.048 238.369C332.582 239.301 333.272 240.345 333.762 241.258C335.184 243.905 334.988 247.084 334.97 250.085C334.951 253.086 335.254 256.381 337.353 258.534C338.593 259.806 340.291 260.496 341.941 261.153L355.517 266.573C357.757 267.527 360.067 268.306 362.428 268.903C366.005 269.719 369.721 269.686 373.391 269.528C375.816 269.425 378.238 269.27 380.657 269.062C381.619 269.059 382.565 268.81 383.404 268.34C384.126 267.77 384.682 267.017 385.013 266.158C386.901 262.053 387.535 257.262 390.464 253.822C392.474 251.46 395.594 249.572 395.822 246.482C395.929 244.944 395.244 243.448 395.235 241.906C395.235 240.009 396.228 238.206 396.167 236.313C396.041 233.233 393.136 230.884 392.674 227.836C391.499 220.109 395.426 212.392 397.837 204.959C398.271 203.63 398.83 202.162 400.108 201.594C401.386 201.025 403.186 201.323 403.643 200.065C404.795 196.905 405.07 193.2 404.921 189.84C404.837 187.897 404.146 185.996 404.226 184.048C404.282 182.677 404.72 181.345 404.837 179.979C405.014 177.914 404.468 175.864 403.904 173.869C403.741 173.157 403.497 172.466 403.176 171.809C402.832 171.214 402.425 170.656 401.964 170.146L399.693 167.447C398.63 166.184 397.506 164.875 395.962 164.236C395.463 163.001 393.868 162.148 392.726 161.468C391.574 160.815 390.384 160.231 389.163 159.72L376.32 154.053C375.84 153.812 375.326 153.645 374.795 153.559C374.013 153.533 373.236 153.693 372.529 154.025C368.611 155.577 364.522 157.125 360.325 157.749Z" fill="#007BFF"/>
<path d="M346.721 137.905C346.227 136.167 344.963 134.666 344.772 132.868C344.6 131.269 345.304 129.722 345.705 128.165C346.106 126.609 346.092 124.707 344.856 123.673C344.651 123.496 344.39 123.337 344.315 123.076C344.166 122.61 344.637 122.186 344.781 121.715C345.047 120.783 343.895 119.753 344.315 118.858C344.553 118.369 345.15 118.197 345.672 118.043C347.668 117.451 349.692 116.137 350.126 114.1C351.688 114.753 353.353 113.527 354.551 112.339C355.75 111.15 357.223 109.794 358.874 110.153L358.506 110.903C361.051 109.98 363.835 109.948 366.401 110.815H365.617C367.868 110.853 370.05 111.591 371.862 112.926C371.661 112.926 371.643 113.224 371.722 113.392C372.375 114.916 374.054 115.722 375.672 116.1C376.646 116.333 377.705 116.5 378.418 117.199C379.132 117.898 379.146 119.357 378.204 119.693C380.125 120.44 381.944 121.427 383.618 122.629C384.085 122.969 384.611 123.43 384.551 124.027C384.484 124.326 384.387 124.618 384.262 124.898C384.169 125.396 384.202 125.909 384.36 126.39L384.877 128.524C385.446 130.896 385.894 133.753 384.164 135.473C384.811 136.682 385.052 138.068 384.849 139.424C384.647 140.781 384.012 142.036 383.04 143.004C383.177 143.42 383.225 143.861 383.179 144.297C383.133 144.733 382.996 145.154 382.776 145.533C382.555 145.912 382.257 146.241 381.901 146.496C381.545 146.752 381.138 146.929 380.708 147.016C381.282 147.911 380.755 149.188 379.85 149.747C378.945 150.307 377.808 150.311 376.754 150.213C375.7 150.116 374.632 149.878 373.578 150.036C372.044 150.274 370.542 151.318 369.064 150.852C368.513 150.616 367.984 150.333 367.483 150.004C366.448 149.449 365.244 149.323 364.097 149.072C362.142 148.652 360.285 147.861 358.627 146.741C357.528 146.081 356.653 145.107 356.113 143.945C355.088 141.354 356.813 137.957 354.999 135.846C353.936 134.615 351.828 134.597 350.639 135.65C350.046 136.176 349.967 137.286 349.352 137.682C348.493 137.899 347.604 137.974 346.721 137.905Z" fill="#464353"/>
<path opacity="0.1" d="M323.908 271.537C323.245 271.012 322.673 270.383 322.215 269.673C321.756 268.959 321.573 268.102 321.702 267.263C321.521 268.324 321.59 269.413 321.905 270.442C322.22 271.472 322.772 272.413 323.516 273.191C324.687 274.389 326.883 275.563 328.595 275.153C328.352 273.783 324.995 272.459 323.908 271.537Z" fill="black"/>
<path d="M416.159 196.575C416.159 196.575 406.217 190.815 393.094 197.973C379.971 205.131 377.784 247.256 377.784 247.256C377.784 247.256 383.152 290.173 362.456 280.624C362.456 280.624 324.682 268.904 320.9 271.485C320.9 271.485 317.319 271.485 324.477 273.075C331.635 274.664 359.289 283.421 359.289 283.421C359.289 283.421 368.229 286.543 372.016 283.421C375.802 280.298 386.533 283.821 387.927 262.356C388.85 248.829 390.509 235.362 392.898 222.016L396.587 211.087L416.159 196.575Z" fill="#565661"/>
<path d="M417.353 262.947C417.353 262.947 412.979 219.429 420.151 203.728C426.391 190.045 402.262 196.444 395.967 198.308C394.992 198.599 394.143 199.206 393.551 200.033C389.82 205.275 376.437 226.289 380.382 254.405C380.382 254.405 381.972 279.445 372.03 283.416L402.663 273.554C405.149 272.753 407.672 272.086 410.218 271.509C413.464 270.772 418.752 268.68 417.353 262.947Z" fill="white"/>
<path opacity="0.1" d="M497.661 347.57C522.757 347.57 543.101 344.305 543.101 340.277C543.101 336.249 522.757 332.983 497.661 332.983C472.565 332.983 452.221 336.249 452.221 340.277C452.221 344.305 472.565 347.57 497.661 347.57Z" fill="#007BFF"/>
<path d="M499.121 200.555H496.197V266.345H499.121V200.555Z" fill="#535461"/>
<path d="M517.499 266.145L517.317 269.109L517.056 273.303L516.949 275.046L516.693 279.24L516.581 280.983L516.32 285.177L513.372 332.746C513.237 334.787 512.331 336.702 510.836 338.1C509.341 339.498 507.371 340.277 505.323 340.277H489.995C487.944 340.276 485.97 339.494 484.476 338.089C482.983 336.685 482.081 334.764 481.955 332.718L478.998 285.145L478.742 280.951L478.635 279.208L478.369 275.013L478.262 273.27L478.005 269.076L477.819 266.112C477.786 265.544 477.87 264.975 478.065 264.44C478.259 263.906 478.561 263.416 478.951 263.001C479.341 262.587 479.811 262.256 480.333 262.029C480.855 261.801 481.418 261.683 481.988 261.68H513.335C513.907 261.683 514.472 261.803 514.996 262.033C515.52 262.262 515.991 262.596 516.381 263.014C516.771 263.432 517.072 263.926 517.264 264.464C517.456 265.002 517.536 265.574 517.499 266.145V266.145Z" fill="#565661"/>
<path d="M517.317 269.108L517.056 273.289H478.266L478.005 269.108H517.317Z" fill="#9D9CB5"/>
<path d="M516.949 275.037L516.693 279.222H478.635L478.374 275.037H516.949Z" fill="#9D9CB5"/>
<path d="M516.581 280.964L516.32 285.145H479.003L478.742 280.964H516.581Z" fill="#9D9CB5"/>
<path d="M473.538 225.213C490.568 237.525 497.661 256.782 497.661 256.782C497.661 256.782 477.142 256.078 460.107 243.766C443.072 231.453 435.988 212.201 435.988 212.201C435.988 212.201 456.512 212.905 473.538 225.213Z" fill="#007BFF"/>
<path d="M435.988 212.201C435.988 212.201 457.286 224.015 464.122 233.797C470.959 243.579 497.661 256.782 497.661 256.782" stroke="#535461" stroke-width="2" stroke-miterlimit="10"/>
<path d="M484.529 200.41C493.8 207.107 497.661 217.593 497.661 217.593C497.661 217.593 486.469 217.206 477.222 210.509C467.974 203.812 464.118 193.326 464.118 193.326C464.118 193.326 475.263 193.709 484.529 200.41Z" fill="#007BFF"/>
<path d="M464.118 193.326C464.118 193.326 475.711 199.758 479.427 205.08C483.144 210.402 497.685 217.593 497.685 217.593" stroke="#535461" stroke-width="2" stroke-miterlimit="10"/>
<path d="M511.129 217.057C500.483 228.75 498.23 244.031 498.23 244.031C498.23 244.031 513.242 240.349 523.879 228.652C534.516 216.954 536.778 201.678 536.778 201.678C536.778 201.678 521.776 205.364 511.129 217.057Z" fill="#007BFF"/>
<path d="M536.787 201.682C536.787 201.682 522.918 213.669 519.393 221.927C515.867 230.185 498.23 244.031 498.23 244.031" stroke="#535461" stroke-width="2" stroke-miterlimit="10"/>
<path d="M295.741 188.908V189.971H264.212V189.109C265.077 188.785 265.895 188.349 266.646 187.813C267.985 186.855 269.076 185.592 269.829 184.128C270.582 182.664 270.974 181.042 270.974 179.397C270.975 178.537 270.866 177.68 270.652 176.847C270.271 175.349 269.559 173.954 268.568 172.766C267.577 171.578 266.332 170.627 264.926 169.983H295.527C294.12 170.627 292.876 171.578 291.885 172.766C290.894 173.954 290.181 175.349 289.8 176.847C289.588 177.68 289.481 178.537 289.483 179.397C289.482 181.042 289.874 182.664 290.625 184.128C291.377 185.591 292.468 186.855 293.806 187.813C294.411 188.245 295.06 188.612 295.741 188.908V188.908Z" fill="#DFE6F5"/>
<path opacity="0.1" d="M295.527 169.983C294.12 170.627 292.876 171.578 291.885 172.766C290.894 173.954 290.181 175.349 289.8 176.847H270.652C270.271 175.349 269.559 173.954 268.568 172.766C267.577 171.578 266.332 170.627 264.926 169.983H295.527Z" fill="black"/>
<path d="M228.113 164.553V170.537C228.113 173.837 230.529 176.516 233.513 176.516H326.272C329.257 176.516 331.677 173.837 331.677 170.537V164.553H228.113Z" fill="#DFE6F5"/>
<path opacity="0.1" d="M295.741 188.908V189.971H264.212V189.109C265.077 188.785 265.895 188.349 266.646 187.813H293.806C294.411 188.245 295.06 188.612 295.741 188.908V188.908Z" fill="black"/>
<path d="M304.578 188.144H255.375C254.502 188.144 253.794 188.85 253.794 189.722C253.794 190.593 254.502 191.299 255.375 191.299H304.578C305.452 191.299 306.159 190.593 306.159 189.722C306.159 188.85 305.452 188.144 304.578 188.144Z" fill="#DFE6F5"/>
<path d="M331.677 99.0146C331.677 98.3055 331.538 97.6034 331.266 96.9483C330.994 96.2933 330.596 95.6981 330.094 95.1969C329.592 94.6957 328.996 94.2983 328.34 94.0274C327.685 93.7564 326.982 93.6173 326.272 93.6179H233.513C232.804 93.6173 232.101 93.7565 231.446 94.0275C230.79 94.2985 230.195 94.696 229.693 95.1972C229.192 95.6985 228.794 96.2936 228.523 96.9487C228.252 97.6037 228.112 98.3057 228.113 99.0146V165.718H331.677V99.0146Z" fill="#474157"/>
<path d="M328.851 101.424V158.746C328.852 159.096 328.784 159.442 328.65 159.764C328.517 160.087 328.321 160.381 328.074 160.628C327.828 160.875 327.534 161.071 327.211 161.205C326.889 161.339 326.543 161.408 326.193 161.408H233.597C233.248 161.408 232.902 161.339 232.579 161.205C232.256 161.071 231.963 160.875 231.716 160.628C231.469 160.381 231.273 160.087 231.14 159.764C231.007 159.442 230.938 159.096 230.939 158.746V101.424C230.937 100.958 231.059 100.499 231.293 100.096C231.527 99.6917 231.863 99.3562 232.267 99.123C232.671 98.8899 233.13 98.7673 233.597 98.7676H326.193C326.898 98.7676 327.574 99.0475 328.073 99.5456C328.571 100.044 328.851 100.719 328.851 101.424V101.424Z" fill="#4C4C78"/>
<path d="M279.895 97.4349C280.583 97.4349 281.14 96.8778 281.14 96.1906C281.14 95.5034 280.583 94.9463 279.895 94.9463C279.207 94.9463 278.65 95.5034 278.65 96.1906C278.65 96.8778 279.207 97.4349 279.895 97.4349Z" fill="white"/>
<path d="M279.895 173.855C281.592 173.855 282.968 172.48 282.968 170.784C282.968 169.088 281.592 167.713 279.895 167.713C278.198 167.713 276.822 169.088 276.822 170.784C276.822 172.48 278.198 173.855 279.895 173.855Z" fill="white"/>
<path d="M328.851 101.424H230.948C230.948 100.719 231.228 100.044 231.727 99.5456C232.225 99.0475 232.901 98.7676 233.606 98.7676H326.193C326.898 98.7676 327.574 99.0475 328.073 99.5456C328.571 100.044 328.851 100.719 328.851 101.424Z" fill="#C8CAD7"/>
<path d="M233.597 100.762C233.965 100.762 234.264 100.464 234.264 100.096C234.264 99.7278 233.965 99.4294 233.597 99.4294C233.229 99.4294 232.93 99.7278 232.93 100.096C232.93 100.464 233.229 100.762 233.597 100.762Z" fill="#EDEDF4"/>
<path d="M235.593 100.762C235.961 100.762 236.26 100.464 236.26 100.096C236.26 99.7278 235.961 99.4294 235.593 99.4294C235.225 99.4294 234.926 99.7278 234.926 100.096C234.926 100.464 235.225 100.762 235.593 100.762Z" fill="#EDEDF4"/>
<path d="M237.589 100.762C237.957 100.762 238.256 100.464 238.256 100.096C238.256 99.7278 237.957 99.4294 237.589 99.4294C237.221 99.4294 236.922 99.7278 236.922 100.096C236.922 100.464 237.221 100.762 237.589 100.762Z" fill="#EDEDF4"/>
</g>
<defs>
<linearGradient id="paint0_linear" x1="216.217" y1="245.984" x2="217.299" y2="245.984" gradientUnits="userSpaceOnUse">
<stop stop-color="#808080" stop-opacity="0.25"/>
<stop offset="0.54" stop-color="#808080" stop-opacity="0.12"/>
<stop offset="1" stop-color="#808080" stop-opacity="0.1"/>
</linearGradient>
<clipPath id="clip0">
<rect width="527" height="344" fill="white" transform="translate(36 28)"/>
</clipPath>
</defs>
</svg>
