<svg width="1440" height="900" viewBox="0 0 1440 900" fill="none" xmlns="http://www.w3.org/2000/svg">
<rect width="1440" height="900" fill="white"/>
<path d="M59.4307 261.377H48.3105L44.1621 285H33.6182L37.7666 261.377H24.6875V251.467H39.4951L42.376 235.104H29.0088V225.078H44.1621L48.3682 201.109H58.8545L54.6484 225.078H65.8262L70.0322 201.109H80.5762L76.3701 225.078H88.9883V235.104H74.584L71.7031 251.467H84.6094V261.377H69.9746L65.8262 285H55.2822L59.4307 261.377ZM50.0391 251.467H61.1592L64.04 235.104H52.8623L50.0391 251.467ZM126.151 250.718H116.184V285H98.8984V201.109H116.184V234.7H124.077L144.589 201.109H165.677L139.807 240.808L168.385 285H147.758L126.151 250.718ZM202.437 250.718H192.469V285H175.184V201.109H192.469V234.7H200.362L220.874 201.109H241.962L216.092 240.808L244.67 285H224.043L202.437 250.718ZM268.639 255.442V285H251.354V201.109H284.08C290.38 201.109 295.911 202.262 300.674 204.566C305.475 206.871 309.163 210.155 311.736 214.419C314.31 218.644 315.597 223.465 315.597 228.881C315.597 237.101 312.773 243.592 307.127 248.355C301.519 253.08 293.741 255.442 283.792 255.442H268.639ZM268.639 241.441H284.08C288.651 241.441 292.127 240.366 294.509 238.215C296.929 236.064 298.139 232.991 298.139 228.996C298.139 224.886 296.929 221.563 294.509 219.028C292.089 216.493 288.747 215.187 284.483 215.11H268.639V241.441ZM377.823 201.109H395.166V285H377.823V229.284L344.232 285H326.947V201.109H344.232V256.94L377.823 201.109ZM471.566 215.11H445.869V285H428.584V215.11H403.232V201.109H471.566V215.11ZM58.5088 368.033L74.2383 339.109H94.1162L69.6865 380.709L94.75 423H74.6416L58.5088 393.615L42.376 423H22.2676L47.3311 380.709L22.9014 339.109H42.7793L58.5088 368.033ZM138.539 423C137.771 421.502 137.214 419.639 136.868 417.411C132.835 421.905 127.592 424.152 121.139 424.152C115.031 424.152 109.961 422.385 105.928 418.852C101.933 415.318 99.9355 410.862 99.9355 405.484C99.9355 398.878 102.375 393.807 107.253 390.273C112.17 386.74 119.257 384.953 128.514 384.915H136.177V381.343C136.177 378.462 135.428 376.157 133.93 374.429C132.47 372.7 130.146 371.836 126.958 371.836C124.154 371.836 121.945 372.508 120.332 373.853C118.757 375.197 117.97 377.041 117.97 379.384H101.318C101.318 375.773 102.432 372.431 104.66 369.358C106.888 366.285 110.038 363.885 114.109 362.156C118.181 360.389 122.752 359.506 127.822 359.506C135.505 359.506 141.593 361.446 146.087 365.325C150.619 369.166 152.886 374.582 152.886 381.573V408.596C152.924 414.511 153.75 418.986 155.363 422.021V423H138.539ZM124.769 411.419C127.227 411.419 129.493 410.881 131.567 409.806C133.642 408.692 135.178 407.213 136.177 405.369V394.652H129.954C121.619 394.652 117.182 397.533 116.645 403.295L116.587 404.274C116.587 406.349 117.317 408.058 118.776 409.402C120.236 410.747 122.233 411.419 124.769 411.419ZM190.106 400.011H183.423V423H166.771V360.658H183.423V384.108H189.357L202.955 360.658H223.985L203.589 390.331L225.887 423H203.704L190.106 400.011ZM268.293 423C267.525 421.502 266.968 419.639 266.622 417.411C262.589 421.905 257.346 424.152 250.893 424.152C244.785 424.152 239.715 422.385 235.682 418.852C231.687 415.318 229.689 410.862 229.689 405.484C229.689 398.878 232.129 393.807 237.007 390.273C241.924 386.74 249.01 384.953 258.268 384.915H265.931V381.343C265.931 378.462 265.182 376.157 263.684 374.429C262.224 372.7 259.9 371.836 256.712 371.836C253.908 371.836 251.699 372.508 250.086 373.853C248.511 375.197 247.724 377.041 247.724 379.384H231.072C231.072 375.773 232.186 372.431 234.414 369.358C236.642 366.285 239.792 363.885 243.863 362.156C247.935 360.389 252.506 359.506 257.576 359.506C265.258 359.506 271.347 361.446 275.841 365.325C280.373 369.166 282.64 374.582 282.64 381.573V408.596C282.678 414.511 283.504 418.986 285.117 422.021V423H268.293ZM254.522 411.419C256.981 411.419 259.247 410.881 261.321 409.806C263.396 408.692 264.932 407.213 265.931 405.369V394.652H259.708C251.373 394.652 246.936 397.533 246.398 403.295L246.341 404.274C246.341 406.349 247.071 408.058 248.53 409.402C249.99 410.747 251.987 411.419 254.522 411.419ZM346.249 374.025H326.256V423H309.547V374.025H289.899V360.658H346.249V374.025ZM350.34 391.253C350.34 385.069 351.531 379.557 353.912 374.717C356.294 369.877 359.712 366.132 364.168 363.481C368.662 360.831 373.867 359.506 379.782 359.506C388.194 359.506 395.051 362.079 400.352 367.227C405.691 372.374 408.668 379.365 409.282 388.199L409.397 392.463C409.397 402.027 406.728 409.71 401.389 415.51C396.049 421.271 388.886 424.152 379.897 424.152C370.909 424.152 363.726 421.271 358.349 415.51C353.009 409.748 350.34 401.912 350.34 392.002V391.253ZM366.991 392.463C366.991 398.378 368.105 402.911 370.333 406.061C372.561 409.172 375.749 410.728 379.897 410.728C383.931 410.728 387.08 409.191 389.347 406.118C391.613 403.007 392.746 398.052 392.746 391.253C392.746 385.453 391.613 380.959 389.347 377.771C387.08 374.582 383.892 372.988 379.782 372.988C375.711 372.988 372.561 374.582 370.333 377.771C368.105 380.92 366.991 385.818 366.991 392.463ZM473.698 423H456.989V399.031H436.305V423H419.653V360.658H436.305V385.664H456.989V360.658H473.698V423ZM23.0625 480.844C23.0625 475.573 24.2396 471.375 26.5938 468.25C28.9688 465.125 32.2083 463.562 36.3125 463.562C39.6042 463.562 42.3229 464.792 44.4688 467.25V450H53.5312V498H45.375L44.9375 494.406C42.6875 497.219 39.7917 498.625 36.25 498.625C32.2708 498.625 29.0729 497.062 26.6562 493.938C24.2604 490.792 23.0625 486.427 23.0625 480.844ZM32.0938 481.5C32.0938 484.667 32.6458 487.094 33.75 488.781C34.8542 490.469 36.4583 491.312 38.5625 491.312C41.3542 491.312 43.3229 490.135 44.4688 487.781V474.438C43.3438 472.083 41.3958 470.906 38.625 470.906C34.2708 470.906 32.0938 474.438 32.0938 481.5ZM76.0938 498.625C71.1354 498.625 67.0938 497.104 63.9688 494.062C60.8646 491.021 59.3125 486.969 59.3125 481.906V481.031C59.3125 477.635 59.9688 474.604 61.2812 471.938C62.5938 469.25 64.4479 467.188 66.8438 465.75C69.2604 464.292 72.0104 463.562 75.0938 463.562C79.7188 463.562 83.3542 465.021 86 467.938C88.6667 470.854 90 474.99 90 480.344V484.031H68.4688C68.7604 486.24 69.6354 488.01 71.0938 489.344C72.5729 490.677 74.4375 491.344 76.6875 491.344C80.1667 491.344 82.8854 490.083 84.8438 487.562L89.2812 492.531C87.9271 494.448 86.0938 495.948 83.7812 497.031C81.4688 498.094 78.9062 498.625 76.0938 498.625ZM75.0625 470.875C73.2708 470.875 71.8125 471.479 70.6875 472.688C69.5833 473.896 68.875 475.625 68.5625 477.875H81.125V477.156C81.0833 475.156 80.5417 473.615 79.5 472.531C78.4583 471.427 76.9792 470.875 75.0625 470.875ZM113.469 488.656C113.469 487.552 112.917 486.688 111.812 486.062C110.729 485.417 108.979 484.844 106.562 484.344C98.5208 482.656 94.5 479.24 94.5 474.094C94.5 471.094 95.7396 468.594 98.2188 466.594C100.719 464.573 103.979 463.562 108 463.562C112.292 463.562 115.719 464.573 118.281 466.594C120.865 468.615 122.156 471.24 122.156 474.469H113.125C113.125 473.177 112.708 472.115 111.875 471.281C111.042 470.427 109.74 470 107.969 470C106.448 470 105.271 470.344 104.438 471.031C103.604 471.719 103.188 472.594 103.188 473.656C103.188 474.656 103.656 475.469 104.594 476.094C105.552 476.698 107.156 477.229 109.406 477.688C111.656 478.125 113.552 478.625 115.094 479.188C119.865 480.938 122.25 483.969 122.25 488.281C122.25 491.365 120.927 493.865 118.281 495.781C115.635 497.677 112.219 498.625 108.031 498.625C105.198 498.625 102.677 498.125 100.469 497.125C98.2812 496.104 96.5625 494.719 95.3125 492.969C94.0625 491.198 93.4375 489.292 93.4375 487.25H102C102.083 488.854 102.677 490.083 103.781 490.938C104.885 491.792 106.365 492.219 108.219 492.219C109.948 492.219 111.25 491.896 112.125 491.25C113.021 490.583 113.469 489.719 113.469 488.656ZM137.625 498H128.562V464.188H137.625V498ZM128.031 455.438C128.031 454.083 128.479 452.969 129.375 452.094C130.292 451.219 131.531 450.781 133.094 450.781C134.635 450.781 135.865 451.219 136.781 452.094C137.698 452.969 138.156 454.083 138.156 455.438C138.156 456.812 137.688 457.938 136.75 458.812C135.833 459.688 134.615 460.125 133.094 460.125C131.573 460.125 130.344 459.688 129.406 458.812C128.49 457.938 128.031 456.812 128.031 455.438ZM143.781 480.844C143.781 475.656 145.01 471.479 147.469 468.312C149.948 465.146 153.281 463.562 157.469 463.562C161.177 463.562 164.062 464.833 166.125 467.375L166.5 464.188H174.688V496.875C174.688 499.833 174.01 502.406 172.656 504.594C171.323 506.781 169.438 508.448 167 509.594C164.562 510.74 161.708 511.312 158.438 511.312C155.958 511.312 153.542 510.812 151.188 509.812C148.833 508.833 147.052 507.562 145.844 506L149.844 500.5C152.094 503.021 154.823 504.281 158.031 504.281C160.427 504.281 162.292 503.635 163.625 502.344C164.958 501.073 165.625 499.26 165.625 496.906V495.094C163.542 497.448 160.802 498.625 157.406 498.625C153.344 498.625 150.052 497.042 147.531 493.875C145.031 490.688 143.781 486.469 143.781 481.219V480.844ZM152.812 481.5C152.812 484.562 153.427 486.969 154.656 488.719C155.885 490.448 157.573 491.312 159.719 491.312C162.469 491.312 164.438 490.281 165.625 488.219V474C164.417 471.938 162.469 470.906 159.781 470.906C157.615 470.906 155.906 471.792 154.656 473.562C153.427 475.333 152.812 477.979 152.812 481.5ZM189.969 464.188L190.25 468.094C192.667 465.073 195.906 463.562 199.969 463.562C203.552 463.562 206.219 464.615 207.969 466.719C209.719 468.823 210.615 471.969 210.656 476.156V498H201.625V476.375C201.625 474.458 201.208 473.073 200.375 472.219C199.542 471.344 198.156 470.906 196.219 470.906C193.677 470.906 191.771 471.99 190.5 474.156V498H181.469V464.188H189.969Z" fill="black"/>
<g clip-path="url(#clip0)">
<path opacity="0.1" d="M937.928 211.585C875.783 222.085 813.726 217.584 754.029 211.036C694.331 204.489 634.781 195.938 572.611 198.516C532.618 200.17 488.08 208.093 460.156 231.123C433.276 253.274 429.088 283.165 429.035 310.148C428.966 330.444 430.725 351.445 445.109 367.614C455.105 378.829 470.491 386.865 482.081 397.218C522.404 433.178 510.144 489.799 483.683 537.94C471.266 560.526 456.081 582.738 447.626 605.855C439.171 628.972 438.048 653.743 453.181 672.594C468.14 691.183 497.144 701.753 527.429 707.213C588.85 718.305 657.281 711.418 723.492 702.084C870.019 681.423 1015.04 649.102 1159.75 616.86C1213.29 604.923 1267.07 592.934 1318.65 575.729C1347.3 566.151 1376.46 554.231 1394.97 535.676C1418.48 512.168 1419.07 480.013 1396.41 460.796C1358.4 428.58 1272.35 435.729 1242.95 398.898C1226.77 378.62 1233.81 351.08 1246.69 326.752C1274.3 274.58 1327.67 223.035 1320.76 171.019C1315.98 135.32 1279.58 105.778 1230.78 98.0806C1179.64 90.0179 1113.95 105.307 1084.5 141.232C1054.22 178.246 992.801 202.321 937.928 211.585Z" fill="#00B0FF"/>
<path d="M866.779 187.449H504.815V357.924H866.779V187.449Z" fill="#565661"/>
<path d="M859.709 199.988H513.156V345.386H859.709V199.988Z" fill="#DFE6F5"/>
<path d="M537.555 270.175C532.571 270.78 527.697 272.081 523.074 274.041L532.652 264.933C533.344 264.192 534.18 263.6 535.108 263.192C536.658 262.6 538.443 263.052 540.027 262.53C542.579 261.659 543.85 258.594 546.392 257.715C548.134 257.123 550.032 257.715 551.861 257.584C555.509 257.34 558.4 254.363 560.255 251.202C562.109 248.041 563.354 244.498 565.732 241.711C569.101 237.75 574.326 235.834 578.087 232.23C579.759 230.627 581.109 228.747 582.711 227.066C585.871 223.898 589.876 221.704 594.247 220.745C598.619 219.787 603.174 220.104 607.37 221.659C608.505 222.233 609.748 222.562 611.018 222.626C612.02 222.505 612.987 222.189 613.866 221.694L625.655 216.043C632.257 218.16 638.484 221.304 644.106 225.36C644.98 226.129 646.045 226.65 647.189 226.866C650.341 227.119 651.682 223.07 653.693 220.632C656.445 217.288 661.582 216.766 665.631 218.307C669.68 219.848 672.841 223.035 675.714 226.23C677.029 227.702 678.413 229.26 680.294 229.844C681.854 230.211 683.482 230.172 685.022 229.731C694.123 227.661 702.122 222.267 707.452 214.607C708.262 213.422 709.263 212.047 710.7 212.064C711.394 212.13 712.06 212.373 712.633 212.769C717.724 215.725 722.46 219.254 726.748 223.287C730.004 226.352 733.052 229.739 736.962 231.916C740.871 234.093 745.974 234.807 749.709 232.36C749.1 234.789 751.451 237.123 753.897 237.637C756.344 238.15 758.878 237.445 761.368 237.123C764.808 236.696 768.298 236.984 771.622 237.968C774.945 238.952 778.029 240.612 780.681 242.843C786.263 243.46 791.586 245.523 796.126 248.827C800.666 252.132 804.266 256.564 806.568 261.685C808.414 265.943 810.861 271.646 815.45 270.941C816.991 270.706 818.471 269.678 819.986 270.07C821.006 270.442 821.907 271.079 822.598 271.916C826.534 275.747 831.906 277.602 836.861 279.953C841.815 282.303 846.831 285.664 848.572 290.862C844.28 291.463 840.039 289.73 835.764 289.008C831.488 288.285 826.273 289.051 824.227 292.882C823.408 294.432 823.138 296.409 821.701 297.41C820.718 297.962 819.595 298.213 818.471 298.133C808.712 298.257 799.071 295.991 790.39 291.533C784.503 300.094 775.787 306.306 765.774 309.077C765.496 305.299 761.56 302.547 757.763 302.495C753.967 302.443 750.432 304.463 747.506 306.848C744.657 309.204 742.182 311.978 740.166 315.077C738.485 317.689 737.092 320.501 734.811 322.565C732.53 324.628 728.959 325.708 726.339 324.088C724.884 323.218 723.953 321.607 722.525 320.649C719.277 318.481 714.314 320.066 711.458 317.393C709.394 315.46 709.359 312.046 707.383 310.026C704.884 307.475 700.417 308.329 697.622 310.531C694.827 312.734 692.963 315.939 690.395 318.411C683.734 324.828 673.537 325.377 664.273 325.551C664.273 323.487 665.561 321.694 666.467 319.848C669.035 314.624 668.33 308.311 665.971 303.009C663.611 297.706 659.78 293.274 656.027 288.921C651.795 293.431 653.737 301.293 649.932 306.195C648.39 308.189 646.057 309.452 644.446 311.42C642.435 313.84 640.867 317.636 637.733 317.401C636.2 317.288 634.964 316.139 633.927 315.007C629.931 310.653 626.248 305.151 620.44 304.019C618.167 303.575 615.816 303.879 613.474 303.679C609.723 303.232 606.247 301.486 603.648 298.744C601.049 296.002 599.492 292.438 599.246 288.668C594.335 290 589.076 291.141 584.165 292.473C582.798 292.848 581.309 293.222 579.985 292.708C578.244 292.02 577.373 290.053 575.937 288.842C573.821 287.101 570.712 287.171 568.048 287.745C565.383 288.32 562.675 289.295 559.941 288.99C559.376 286.498 559.235 283.928 559.523 281.389L549.771 280.519C548.486 280.479 547.216 280.232 546.009 279.787C545.098 279.365 544.258 278.804 543.519 278.124C541.116 275.812 539.102 273.128 537.555 270.175V270.175Z" fill="#00B0FF"/>
<path d="M561.578 263.967C562.78 262.721 563.807 261.276 565.244 260.318C566.516 259.565 567.879 258.98 569.301 258.577C579.75 254.894 587.909 246.849 596.251 239.57C603.6 233.152 611.323 227.179 619.038 221.215L621.972 223.357L614.928 226.23C614.249 226.509 613.465 226.927 613.43 227.658C613.461 228.124 613.659 228.563 613.988 228.895C615.799 231.228 617.836 233.718 620.718 234.371C622.094 234.685 623.757 234.641 624.611 235.765C624.951 236.321 625.187 236.935 625.307 237.576C626.422 241.372 629.861 243.975 633.24 246.039C639.913 250.1 647.148 253.157 654.712 255.112C648.994 254.938 643.347 253.795 638.011 251.733C636.418 251.152 634.891 250.402 633.457 249.496C630.418 247.51 628.137 244.559 625.185 242.452C622.233 240.344 618.019 239.221 615.05 241.302C614.24 241.877 613.456 242.695 612.438 242.643C611.419 242.591 610.696 241.616 609.825 241.015C607.605 239.43 604.505 240.484 602.128 241.825C595.019 245.872 589.328 252.01 585.828 259.404C596.457 260.113 606.997 257.065 615.607 250.793C620.746 257.987 628.211 263.188 636.74 265.516C635.486 267.04 633.422 267.536 631.585 268.25C629.081 269.244 626.817 270.762 624.948 272.702C623.078 274.642 621.645 276.96 620.745 279.5C619.323 277.576 618.299 275.389 617.732 273.065C614.907 274.651 612.174 276.395 609.547 278.29C612.046 276.679 614.1 274.467 615.52 271.855C611.001 270.755 606.241 271.266 602.059 273.3C599.011 274.798 596.19 277.131 592.794 277.314C593.016 275.489 592.589 273.644 591.588 272.101C590.587 270.559 589.075 269.417 587.317 268.877C584.922 268.207 581.831 268.485 580.543 266.352C580.249 265.741 579.99 265.113 579.768 264.472C578.775 262.251 576.145 261.137 573.716 261.206C571.287 261.276 568.997 262.269 566.75 263.253C563.546 264.663 560.368 266.213 557.111 267.484C558.583 266.23 560.228 265.325 561.578 263.967Z" fill="white"/>
<path d="M617.558 294.502C621.882 295.007 626.263 294.311 630.218 292.491C632.378 291.489 634.441 290.148 636.783 289.748C639.126 289.347 641.956 290.279 642.731 292.534C645.543 290.514 646.057 286.5 648.312 283.871C651.63 279.996 658.064 280.24 662.244 283.174C666.423 286.108 668.757 291.01 670.498 295.764C671.813 299.387 672.989 303.261 675.723 305.952C678.457 308.642 683.481 309.513 686.032 306.622C684.335 304.356 683.307 301.659 683.064 298.839C682.821 296.018 683.372 293.185 684.656 290.662C685.249 289.539 686.006 288.407 685.963 287.179C685.867 284.445 682.48 283.366 680.303 281.694C675.592 278.089 676.21 270.566 672.397 266.021C670.376 263.61 666.954 261.485 667.538 258.394C679.136 260.696 690.132 265.374 699.833 272.134C701.402 273.345 703.102 274.376 704.901 275.207C707.304 276.174 709.96 276.287 712.407 277.123C720.548 279.892 725.259 290.079 733.827 290.784C738.093 291.132 742.09 288.938 746.078 287.362C763.031 280.666 782.161 284.889 799.689 289.896C793.594 286.544 784.983 287.04 781.116 281.259C779.793 279.282 779.21 276.74 777.372 275.225C773.767 272.247 768.5 275.111 763.841 275.555C761.622 275.739 759.393 275.337 757.376 274.392C755.36 273.446 753.626 271.989 752.347 270.166C751.094 268.329 750.301 266.135 748.656 264.654C746.244 262.495 742.682 262.408 739.443 262.443L724.249 262.582C721.698 262.582 718.824 262.486 717.117 260.588C716.558 259.765 715.942 258.982 715.272 258.246C714.27 257.375 712.877 257.262 711.58 257.079C707.342 256.489 703.248 255.135 699.494 253.083C698.754 252.77 698.141 252.218 697.752 251.516C696.777 249.208 700.312 247.928 702.289 246.387C705.511 243.862 704.797 238.89 703.769 234.937C706.441 234.364 708.899 233.055 710.866 231.159C707.209 227.789 703.194 223.192 704.77 218.481C705.119 217.445 705.31 215.765 704.222 215.791C702.758 218.97 700.318 221.6 697.256 223.296C696.279 223.696 695.416 224.333 694.748 225.151C693.642 226.892 694.792 229.548 693.416 231.098C692.919 231.591 692.305 231.95 691.631 232.142C687.042 233.788 681.391 234.128 678.631 238.15C677.7 239.787 676.999 241.545 676.55 243.374C674.963 247.933 672.258 252.021 668.681 255.263C665.105 258.504 660.771 260.797 656.079 261.929C654.494 262.295 652.761 262.582 651.647 263.766C650.776 264.637 650.48 265.882 649.757 266.857C648.312 268.816 645.691 269.347 643.418 270.218C636.914 272.7 632.917 278.377 629.286 283.993C627.754 286.361 626.631 287.075 624.114 288.181C622.579 288.762 621.17 289.631 619.961 290.74C619.726 291.002 617.357 294.476 617.558 294.502Z" fill="white"/>
<path d="M732.521 245.995C729.644 247.495 726.606 248.663 723.465 249.478C724.96 249.905 726.394 250.523 727.732 251.315C727.281 253.121 726.224 254.716 724.736 255.834C728.219 255.947 731.519 257.227 734.872 258.142C740.436 259.648 746.191 260.144 751.956 260.64L744.119 254.92C742.97 254.049 741.733 253.126 741.446 251.733C741.331 250.445 741.663 249.157 742.386 248.085C744.371 244.332 746.783 240.902 749.065 237.349C746.261 238.316 742.578 237.515 740.053 238.69C738.477 239.422 738.198 240.971 737.258 242.269C735.989 243.861 734.367 245.137 732.521 245.995Z" fill="white"/>
<path d="M779.941 254.755C779.122 256.768 777.941 258.616 776.458 260.205C777.854 261.48 779.596 262.313 781.465 262.6C782.421 262.679 783.372 262.815 784.312 263.009C785.403 263.38 786.424 263.93 787.334 264.637C793.429 268.86 799.985 273.727 801.683 280.945C802.785 280.328 804.076 280.141 805.307 280.419C806.539 280.697 807.624 281.421 808.353 282.451C809.102 283.592 809.485 285.142 810.73 285.699C811.975 286.256 813.342 285.525 814.326 284.68C815.31 283.836 816.285 282.8 817.565 282.504C818.364 282.373 819.18 282.4 819.969 282.582L831.558 284.454C829.952 282.832 828.003 281.59 825.855 280.817C823.707 280.044 821.413 279.761 819.141 279.987C816.338 280.292 813.412 281.354 810.809 280.292C808.205 279.23 806.864 276.426 804.809 274.528C802.197 272.108 798.427 271.185 795.823 268.738C793.655 266.683 792.506 263.775 790.538 261.529C788.405 259.082 785.366 257.497 783.494 254.85C782.736 253.779 782.135 252.517 781.021 251.838C779.062 250.654 775.039 250.758 772.81 250.549C773.341 253.17 777.433 255.233 779.941 254.755Z" fill="white"/>
<path d="M578.583 232.325C580.551 232.46 582.525 232.495 584.496 232.43C584.687 232.437 584.877 232.392 585.044 232.299C585.216 232.136 585.324 231.917 585.349 231.681L586.054 228.564C586.084 228.288 586.207 228.03 586.403 227.832C586.584 227.732 586.788 227.679 586.995 227.679C587.202 227.679 587.406 227.732 587.587 227.832C589.622 228.596 591.533 229.658 593.255 230.984C592.512 228.738 591.851 226.466 591.27 224.167L596.608 223.227C592.559 222.26 590.513 222.748 587.9 225.612C586.368 227.258 580.934 232.473 578.583 232.325Z" fill="white"/>
<path d="M685.797 173.048C688.476 173.048 690.647 170.877 690.647 168.198C690.647 165.52 688.476 163.349 685.797 163.349C683.119 163.349 680.947 165.52 680.947 168.198C680.947 170.877 683.119 173.048 685.797 173.048Z" fill="#565661"/>
<path d="M654.712 192.143L685.797 168.198L717.205 192.143" stroke="#565661" stroke-miterlimit="10"/>
<path d="M690.769 256.374L691.152 256.618L691.953 256.531L690.769 256.374Z" fill="url(#paint0_linear)"/>
<path d="M691.997 256.531L698.71 257.401C696.563 256.624 694.271 256.327 691.997 256.531V256.531Z" fill="url(#paint1_linear)"/>
<path d="M956.169 497.601H709.377V554.745H956.169V497.601Z" fill="#565661"/>
<path opacity="0.1" d="M956.169 497.601H709.377V554.745H956.169V497.601Z" fill="black"/>
<path d="M738.903 556.626L740.636 709.181L716.9 769.102L715.062 556.626H738.903Z" fill="#BCBEC9"/>
<path d="M711.98 508.572L952.259 510.017V552.577H711.98V508.572Z" fill="#565661"/>
<path d="M931.701 556.626L952.259 559.525V766.786L931.701 703.391V556.626Z" fill="#BCBEC9"/>
<path d="M1075.87 499.891H960.07V745.951H1075.87V499.891Z" fill="#EFEFF0"/>
<path d="M1066.6 506.726H969.334V695.868H1066.6V506.726Z" fill="#565661"/>
<path opacity="0.1" d="M1066.6 506.726H969.334V695.868H1066.6V506.726Z" fill="black"/>
<path d="M1066.6 510.601H969.334V552.577H1066.6V510.601Z" fill="#565661"/>
<path d="M1066.6 556.626H969.334V645.785H1066.6V556.626Z" fill="#565661"/>
<path d="M1066.6 651.288H969.334V740.448H1066.6V651.288Z" fill="#565661"/>
<path d="M973.392 761.971C976.855 761.971 979.661 758.385 979.661 753.961C979.661 749.537 976.855 745.951 973.392 745.951C969.93 745.951 967.123 749.537 967.123 753.961C967.123 758.385 969.93 761.971 973.392 761.971Z" fill="#565661"/>
<path d="M1060.33 762.354C1063.8 762.354 1066.6 758.768 1066.6 754.344C1066.6 749.92 1063.8 746.334 1060.33 746.334C1056.87 746.334 1054.07 749.92 1054.07 754.344C1054.07 758.768 1056.87 762.354 1060.33 762.354Z" fill="#565661"/>
<path d="M708.506 769.102H716.9L714.592 502.024H701.845L708.506 769.102Z" fill="#EFEFF0"/>
<path d="M952.259 499.891V766.786H960.07V502.024L952.259 499.891Z" fill="#EFEFF0"/>
<path d="M715.002 549.965V559.525H952.259V552.577L715.002 549.965Z" fill="#EFEFF0"/>
<path d="M731.084 481.946H1031.87L1075.58 496.417V504.81L700.399 501.92V493.378L731.084 481.946Z" fill="#EFEFF0"/>
<path d="M700.399 493.378L1075.58 496.417V504.81L700.399 501.92V493.378Z" fill="#BCBEC9"/>
<path d="M799.689 571.149L797.948 570.888C797.948 570.809 797.948 570.74 797.948 570.67C797.896 570.261 797.835 569.86 797.774 569.451C798.488 570.017 799.167 570.583 799.794 571.149H799.689Z" fill="url(#paint2_linear)"/>
<path d="M761.847 705.594C762.979 705.332 764.128 705.115 765.278 704.958C773.172 703.834 781.222 705.019 788.457 708.371C787.725 713.752 787.003 719.316 788.553 724.514C789.632 728.171 791.8 731.479 792.262 735.293C793.425 735.493 794.509 736.013 795.393 736.794C796.277 737.575 796.927 738.587 797.269 739.716C797.603 740.715 797.77 741.763 797.765 742.816C797.755 744.119 797.592 745.417 797.277 746.682C797.171 747.692 796.675 748.622 795.895 749.272C795.114 749.923 794.111 750.243 793.098 750.165C786.358 750.931 779.749 748.275 773.48 745.672L761.29 740.604C759.862 740.012 758.425 739.412 757.058 738.68C754.465 737.279 752.163 735.397 750.275 733.134C749.886 732.735 749.613 732.239 749.483 731.697C749.256 730.165 751.05 729.251 752.191 728.214C752.525 727.899 752.817 727.542 753.061 727.152C754.411 725.115 754.542 722.302 755.351 719.899C757.267 714.196 763.188 710.522 765.278 704.958C765.391 704.653 765.495 704.349 765.583 704.035" fill="#A26565"/>
<path opacity="0.1" d="M797.765 742.816C797.755 744.119 797.592 745.417 797.277 746.682C797.171 747.692 796.676 748.622 795.895 749.272C795.114 749.923 794.111 750.243 793.098 750.165C786.358 750.931 779.749 748.275 773.48 745.672L761.29 740.604C759.862 740.012 758.425 739.412 757.058 738.68C754.465 737.279 752.163 735.397 750.275 733.134C749.886 732.735 749.613 732.239 749.483 731.697C749.256 730.165 751.05 729.251 752.191 728.214C752.525 727.899 752.817 727.542 753.061 727.152C756.422 727.875 760.593 729.991 763.162 730.809C765.735 731.51 768.205 732.543 770.511 733.883C773.715 735.937 776.023 739.107 778.739 741.719C781.456 744.331 784.965 746.708 788.753 746.386C790.755 746.084 792.686 745.417 794.447 744.418L797.765 742.816Z" fill="black"/>
<path d="M783.494 619.081C783.72 619.871 783.7 620.711 783.435 621.489C783.171 622.268 782.674 622.946 782.013 623.435C780.873 624.14 779.401 624.044 778.269 624.81C776.867 625.794 776.667 627.744 776.423 629.434C775.553 635.241 772.67 640.509 770.206 645.846C767.742 651.184 765.661 657.009 766.567 662.807C767.185 666.743 769.118 670.94 767.307 674.484C766.863 675.354 766.201 676.129 765.696 676.974C763.214 681.118 764.625 686.369 764.529 691.192C764.565 691.728 764.447 692.263 764.189 692.733C763.809 693.178 763.34 693.54 762.814 693.796C761.93 694.446 761.204 695.286 760.69 696.256C760.175 697.225 759.887 698.298 759.844 699.394C759.771 701.587 760.035 703.778 760.628 705.89C760.724 706.742 761.101 707.539 761.699 708.153C762.392 708.612 763.211 708.843 764.041 708.815C769.512 709.258 774.878 710.563 779.941 712.681C783.241 714.057 786.445 715.781 789.954 716.443C790.294 716.548 790.651 716.583 791.004 716.546C791.358 716.508 791.7 716.399 792.009 716.225C792.451 715.827 792.755 715.3 792.88 714.719C794.23 710.278 795.597 705.698 795.135 701.083C794.935 699.098 794.404 697.157 794.265 695.171C793.655 687.335 798.958 680.265 800.638 672.533C801.396 669.05 801.396 665.446 801.936 661.928C803.399 652.289 808.71 643.643 810.756 634.109C811.041 632.332 811.484 630.584 812.08 628.885C813.604 625.193 817.13 622.198 817.208 618.202C817.257 617.322 817.025 616.451 816.547 615.711C815.726 614.81 814.635 614.2 813.438 613.97C808.684 612.671 803.846 611.705 798.958 611.079C796.728 610.641 794.452 610.483 792.184 610.609C789.237 610.956 786.405 611.955 783.894 613.535C780.603 615.59 782.762 616.086 783.494 619.081Z" fill="#454B69"/>
<path opacity="0.05" d="M783.494 619.081C783.72 619.871 783.7 620.711 783.435 621.489C783.171 622.268 782.674 622.946 782.013 623.435C780.873 624.14 779.401 624.044 778.269 624.81C776.867 625.794 776.667 627.744 776.423 629.434C775.553 635.241 772.67 640.509 770.206 645.846C767.742 651.184 765.661 657.009 766.567 662.807C767.185 666.743 769.118 670.94 767.307 674.484C766.863 675.354 766.201 676.129 765.696 676.974C763.214 681.118 764.625 686.369 764.529 691.192C764.565 691.728 764.447 692.263 764.189 692.733C763.809 693.178 763.34 693.54 762.814 693.796C761.93 694.446 761.204 695.286 760.69 696.256C760.175 697.225 759.887 698.298 759.844 699.394C759.771 701.587 760.035 703.778 760.628 705.89C760.724 706.742 761.101 707.539 761.699 708.153C762.392 708.612 763.211 708.843 764.041 708.815C769.512 709.258 774.878 710.563 779.941 712.681C783.241 714.057 786.445 715.781 789.954 716.443C790.294 716.548 790.651 716.583 791.004 716.546C791.358 716.508 791.7 716.399 792.009 716.225C792.451 715.827 792.755 715.3 792.88 714.719C794.23 710.278 795.597 705.698 795.135 701.083C794.935 699.098 794.404 697.157 794.265 695.171C793.655 687.335 798.958 680.265 800.638 672.533C801.396 669.05 801.396 665.446 801.936 661.928C803.399 652.289 808.71 643.643 810.756 634.109C811.041 632.332 811.484 630.584 812.08 628.885C813.604 625.193 817.13 622.198 817.208 618.202C817.257 617.322 817.025 616.451 816.547 615.711C815.726 614.81 814.635 614.2 813.438 613.97C808.684 612.671 803.846 611.705 798.958 611.079C796.728 610.641 794.452 610.483 792.184 610.609C789.237 610.956 786.405 611.955 783.894 613.535C780.603 615.59 782.762 616.086 783.494 619.081Z" fill="black"/>
<path d="M766.453 750.304H759.026L754.167 650.487L753.828 644.81L760.14 642.59L760.567 648.624L766.453 750.304Z" fill="#565661"/>
<path opacity="0.1" d="M760.567 648.624L754.167 650.487L753.828 644.81L760.14 642.59L760.567 648.624Z" fill="black"/>
<path d="M859.648 771.418L847.397 772.899L790.956 644.81L775.735 643.696L749.004 651.497L743.805 804H731.554L736.378 645.925L707.043 646.673L654.694 776.982H643.558L698.614 624.688L700.739 618.82L782.788 616.007L803.242 627.475L803.503 628.136L859.648 771.418Z" fill="#565661"/>
<path opacity="0.1" d="M803.503 628.136C785.871 633.448 767.568 639.246 767.568 639.246C767.568 639.246 750.876 645.071 743.806 639.246C742.914 638.551 741.918 638.001 740.854 637.618C741.771 638.273 742.762 638.82 743.806 639.246L698.614 624.68L700.73 618.82L782.788 616.007L803.242 627.475L803.503 628.136Z" fill="black"/>
<path d="M720.043 602.86L753.453 595.407C753.453 595.407 833.282 610.261 839.221 616.199C839.221 616.199 775.361 629.19 768.308 633.613C761.255 638.036 719.294 642.956 720.043 602.86Z" fill="white"/>
<path d="M705.676 519.369C703.064 527.649 695.932 535.111 687.251 535.468C686.62 535.542 685.98 535.427 685.414 535.137C684.326 534.458 684.299 532.864 684.744 531.654C685.188 530.444 685.963 529.355 686.084 528.084C686.11 527.825 686.093 527.563 686.032 527.309C685.806 526.273 684.961 525.35 683.969 525.568C684.644 525.027 685.095 524.254 685.232 523.399C685.368 522.544 685.182 521.669 684.709 520.945C684.315 520.5 683.959 520.022 683.646 519.517C682.924 518.036 684.047 516.373 684.517 514.789C685.484 511.306 683.028 507.823 682.828 504.192C682.654 500.945 684.299 497.888 684.709 494.667C685.362 489.443 682.767 484.436 682.462 479.221C682.253 475.581 683.15 471.976 684.151 468.468C685.022 465.333 686.006 462.164 686.067 458.89C686.067 456.513 685.658 454.162 685.545 451.794C685.364 449.629 685.757 447.454 686.685 445.49C687.288 444.335 688.315 443.458 689.55 443.043C692.406 442.085 694.278 443.574 694.696 446.282C695.393 450.888 694.992 455.59 695.906 460.213C696.752 464.537 698.032 468.764 699.729 472.83C701.27 476.504 703.142 480.057 704.326 483.861C705.218 486.998 705.856 490.201 706.233 493.439C707.4 502.137 708.314 511.088 705.676 519.369Z" fill="#00B0FF"/>
<path d="M903.995 730.112C902.893 731.665 901.476 732.967 899.836 733.934C898.195 734.9 896.369 735.509 894.477 735.72C890.698 736.19 886.771 735.241 883.106 736.277C882.538 736.37 882.002 736.603 881.547 736.954C881.091 737.305 880.729 737.763 880.493 738.288C880.403 738.996 880.348 739.708 880.328 740.422C879.901 742.746 876.845 743.269 874.468 743.251L864.663 743.19C862.626 743.19 860.371 743.077 858.908 741.667C858.212 740.896 857.82 739.9 857.804 738.862C857.788 737.824 858.149 736.816 858.821 736.025C859.306 735.858 859.705 735.506 859.93 735.046C860.156 734.585 860.189 734.054 860.022 733.569C859.856 733.084 859.504 732.685 859.044 732.46C858.583 732.234 858.052 732.201 857.567 732.368C857.389 731.087 857.451 729.785 857.75 728.528C857.75 724.888 858.621 718.793 861.181 715.946C864.324 712.402 869.775 707.823 874.52 706.874C876.125 706.57 877.778 706.646 879.348 707.097C880.917 707.547 882.359 708.36 883.558 709.468C885.805 711.558 887.442 714.832 890.524 715.197C892.205 715.406 893.824 714.614 895.488 714.327C897.378 714.083 899.297 714.431 900.982 715.321C902.667 716.211 904.036 717.6 904.9 719.298C905.322 720.159 905.616 721.078 905.771 722.024C906.222 724.847 905.587 727.737 903.995 730.112V730.112Z" fill="#A26565"/>
<path opacity="0.1" d="M903.994 730.113C902.893 731.665 901.476 732.967 899.835 733.934C898.195 734.9 896.369 735.509 894.477 735.72C890.698 736.19 886.771 735.241 883.106 736.277C882.538 736.37 882.002 736.603 881.546 736.954C881.091 737.305 880.729 737.763 880.493 738.288C880.403 738.996 880.347 739.708 880.328 740.422C879.901 742.746 876.845 743.269 874.468 743.251L864.663 743.19C862.626 743.19 860.371 743.077 858.908 741.667C858.212 740.896 857.82 739.9 857.804 738.862C857.788 737.824 858.149 736.816 858.821 736.025C864.481 735.789 870.045 736.025 875.687 734.858C877.977 734.396 880.232 733.787 882.548 733.465C887.564 732.751 892.901 733.36 897.508 731.236C901.347 729.494 904.099 725.951 905.727 721.998C906.198 724.824 905.579 727.724 903.994 730.113V730.113Z" fill="black"/>
<path d="M878.125 716.347C874.642 719.046 870.558 721.153 866.17 721.379C861.781 721.606 857.123 719.638 854.972 715.824C851.829 710.226 854.615 702.442 850.767 697.305C849.565 695.694 847.832 694.553 846.561 692.995C845.29 691.436 844.558 689.094 845.69 687.44C844.323 687.962 842.878 686.638 842.477 685.228C842.077 683.817 842.329 682.302 842.085 680.874C841.45 677.087 837.732 674.658 835.947 671.297C834.162 667.936 834.405 663.574 834.205 659.595C833.76 649.9 830.151 640.618 823.931 633.169C822.746 631.758 821.231 630.322 819.385 630.391C819.707 627.205 817.583 624.157 814.831 622.555C812.08 620.953 808.806 620.413 805.619 620.1C773.463 616.93 739.957 628.885 709.255 618.829C700.713 616.034 692.476 611.358 687.251 604.027C685.216 601.236 683.76 598.067 682.969 594.706C682.178 591.344 682.068 587.858 682.645 584.453V584.331C683.855 578.149 687.121 576.626 692.528 573.805C698.77 570.505 705.295 567.768 712.024 565.629C725.085 561.545 739.147 560.074 752.626 563.069C758.921 564.479 764.991 566.813 771.295 568.18C773.776 568.72 776.275 569.103 778.792 569.425C782.701 569.913 786.628 570.235 790.564 570.688C803.148 572.137 815.542 574.924 827.535 579.003C832.002 580.518 836.469 582.25 840.309 584.993C843.353 587.201 845.927 589.994 847.88 593.208C849.832 596.423 851.124 599.994 851.681 603.713C852.047 606.273 852.055 608.937 852.613 611.419C853.141 613.504 853.84 615.543 854.702 617.514C862.142 635.908 868.222 654.824 872.892 674.109C873.157 675.542 873.648 676.923 874.346 678.201C875.461 680.004 877.376 681.214 878.499 683.016C881.112 687.265 878.595 693.195 880.911 697.618C881.713 699.15 883.045 700.361 883.846 701.893C886.441 706.856 882.583 712.89 878.125 716.347Z" fill="#454B69"/>
<path opacity="0.1" d="M833.631 616.303C834.868 615.324 835.936 614.147 836.791 612.821C837.649 611.487 837.99 609.886 837.749 608.319C838.089 610.301 837.959 612.336 837.371 614.259C836.783 616.182 835.752 617.941 834.362 619.394C832.176 621.632 828.075 623.826 824.88 623.06C825.332 620.5 831.602 618.045 833.631 616.303Z" fill="black"/>
<path opacity="0.1" d="M779.227 572.908C778.964 573.841 778.473 574.694 777.798 575.391C777.123 576.087 776.286 576.604 775.361 576.896C773.504 577.463 771.56 577.69 769.623 577.566H767.881C745.033 577.061 721.941 571.994 699.624 576.826C696.935 577.38 694.296 578.158 691.735 579.151C688.473 580.436 685.419 582.197 682.671 584.375V584.253C683.881 578.071 687.147 576.547 692.554 573.726C698.791 570.455 705.306 567.745 712.024 565.629C725.085 561.545 739.147 560.074 752.626 563.069C758.921 564.479 764.99 566.813 771.295 568.18C773.776 568.72 776.275 569.103 778.792 569.425C779.28 570.517 779.431 571.729 779.227 572.908V572.908Z" fill="black"/>
<path d="M779.227 571.663C778.966 572.598 778.476 573.453 777.801 574.151C777.126 574.849 776.287 575.367 775.361 575.659C773.505 576.228 771.56 576.452 769.623 576.321H767.881C745.033 575.816 721.941 570.748 699.624 575.581C696.936 576.136 694.298 576.911 691.736 577.897C688.319 579.259 685.133 581.139 682.288 583.469C681.62 581.635 680.956 579.798 680.294 577.958C679.493 575.764 682.036 575.276 682.523 573.308C682.845 571.976 682.297 570.461 682.018 569.042C681.947 568.694 681.9 568.342 681.879 567.988C681.722 564.845 682.845 563.034 685.423 561.336C693.068 556.286 702.393 552.821 711.118 550.217C715.756 548.751 720.548 547.822 725.398 547.449C732.26 547.048 739.112 548.319 745.791 549.93C754.002 551.959 762.126 554.641 769.405 558.933C772.984 561.04 776.458 563.661 778.365 567.361C779.133 568.655 779.437 570.173 779.227 571.663Z" fill="#A26565"/>
<path opacity="0.1" d="M705.676 519.369C703.064 527.649 695.932 535.111 687.251 535.468C686.62 535.542 685.98 535.427 685.414 535.137C684.326 534.458 684.3 532.864 684.744 531.654C685.188 530.444 685.963 529.355 686.084 528.084C686.11 527.825 686.093 527.563 686.032 527.309C690.638 520.814 695.105 514.249 696.873 506.561C697.231 505.237 697.34 503.858 697.195 502.494C696.96 500.927 696.168 499.508 695.732 497.993C694.966 495.311 695.323 492.473 695.541 489.695C696.454 477.45 694.412 465.165 689.585 453.875C688.409 451.158 687.068 448.407 686.659 445.507C687.262 444.352 688.289 443.475 689.524 443.061C692.38 442.103 694.252 443.592 694.67 446.3C695.367 450.906 694.966 455.607 695.88 460.231C696.726 464.554 698.006 468.781 699.703 472.847C701.244 476.521 703.116 480.074 704.3 483.879C705.192 487.015 705.829 490.218 706.207 493.457C707.4 502.137 708.314 511.088 705.676 519.369Z" fill="black"/>
<path opacity="0.1" d="M779.227 571.663C778.966 572.598 778.476 573.453 777.801 574.151C777.126 574.849 776.287 575.367 775.361 575.659C773.505 576.228 771.56 576.452 769.623 576.321H767.881C760.444 571.381 751.502 569.223 742.63 570.226C739.791 570.566 736.953 571.227 734.114 570.966C728.376 570.444 723.726 566.317 718.615 563.678C712.799 560.807 706.257 559.738 699.83 560.61C693.402 561.482 687.382 564.254 682.541 568.572L682.044 569.007C681.973 568.66 681.926 568.308 681.905 567.954C681.748 564.81 682.872 562.999 685.449 561.301C693.094 556.251 702.419 552.786 711.144 550.183C715.783 548.716 720.574 547.787 725.424 547.414C732.286 547.013 739.138 548.284 745.817 549.895C754.028 551.924 762.152 554.606 769.431 558.898C773.01 561.005 776.484 563.626 778.391 567.327C779.158 568.634 779.453 570.164 779.227 571.663V571.663Z" fill="black"/>
<path d="M798.758 476.286L798.636 476.6C796.685 481.659 793.098 485.934 790.799 490.862C787.899 497.105 787.185 504.105 786.541 510.966C785.984 516.844 785.435 522.756 785.879 528.65C786.994 543.174 794.09 556.948 795.989 571.193C796.456 574.482 796.576 577.812 796.346 581.127C796.189 583.226 795.806 585.481 794.413 587.031C793.019 588.58 790.311 589.19 788.814 587.701C789.484 586.421 790.163 585.15 790.843 583.87C786.863 580.779 780.873 582.999 776.223 581.066C774.177 580.196 772.54 578.628 770.824 577.227C766.909 574.044 762.398 571.675 757.554 570.261C752.711 568.846 747.634 568.414 742.621 568.99C739.783 569.338 736.944 570 734.105 569.739C728.367 569.207 723.718 565.089 718.606 562.451C712.79 559.58 706.25 558.512 699.823 559.382C693.396 560.252 687.375 563.022 682.532 567.335C681.313 568.467 679.676 569.791 678.178 569.077C677.599 568.722 677.132 568.213 676.829 567.605C671.125 557.862 675.322 545.298 681.417 535.807C687.512 526.317 695.584 517.566 698.092 506.595C698.454 505.272 698.563 503.893 698.414 502.529C698.179 500.962 697.387 499.543 696.951 498.028C696.185 495.346 696.542 492.508 696.76 489.73C697.673 477.485 695.631 465.2 690.804 453.909C689.411 450.662 687.756 447.37 687.756 443.844C687.756 438.289 691.736 433.683 695.027 429.216C698.815 424.079 701.993 418.394 706.79 414.171C711.336 410.157 717.919 407.701 723.543 409.739C733.103 407.427 742.94 406.478 752.765 406.918C756.161 407.075 759.67 407.432 762.648 409.077C765.835 410.819 768.125 413.918 771.26 415.773C773.55 417.14 776.188 417.784 778.678 418.742C785.559 421.434 791.236 426.52 794.665 433.065C798.148 439.813 799.019 447.571 799.785 455.128C800.534 462.19 801.23 469.591 798.758 476.286Z" fill="#00B0FF"/>
<path opacity="0.1" d="M785.879 528.65C786.994 543.173 794.09 556.948 795.989 571.193C792.192 567.954 786.924 564.749 786.202 561.014C785.418 556.974 782.91 551.68 782.492 547.597C782.074 543.513 784.939 538.524 781.935 535.72C780.472 534.353 784.364 534.736 782.936 533.335C779.723 530.209 778.931 525.394 778.731 520.927C778.391 513.021 779.392 505.028 777.938 497.253C777.068 492.455 775.248 487.884 773.794 483.226C772.104 477.801 770.885 472.246 769.666 466.683C768.467 461.736 767.594 456.716 767.054 451.654C766.68 447.301 766.854 442.686 768.796 438.716C770.737 434.745 774.664 431.524 779.07 431.585C793.803 431.776 791.261 451.75 794.5 460.98C795.797 464.654 797.547 468.206 798.253 472.037C798.51 473.539 798.65 475.059 798.671 476.582C796.72 481.641 793.133 485.916 790.834 490.844C787.934 497.087 787.22 504.088 786.576 510.949C785.984 516.844 785.435 522.756 785.879 528.65Z" fill="black"/>
<path d="M795.457 460.753C796.755 464.427 798.505 467.98 799.21 471.811C800.386 478.228 798.566 485.046 800.543 491.262C801.057 492.589 801.487 493.947 801.831 495.329C802.171 497.305 801.779 499.325 801.779 501.336C801.779 504.575 802.798 507.71 803.703 510.818C806.765 521.379 808.792 532.212 809.755 543.165C809.899 546.109 810.363 549.028 811.139 551.872C811.505 552.835 811.819 553.818 812.08 554.815C812.314 556.145 812.369 557.501 812.245 558.846C812.01 563.112 811.531 567.396 812.01 571.645C812.489 575.894 814.039 580.204 817.235 583.051C814.379 583.67 811.357 584.288 808.571 583.374C804.652 582.094 802.301 578.149 800.307 574.562C797.782 569.982 788.187 565.855 787.194 560.709C786.419 556.678 783.911 551.384 783.494 547.292C783.076 543.2 785.932 538.228 782.928 535.424C781.473 534.057 785.366 534.432 783.929 533.039C780.725 529.913 779.932 525.098 779.732 520.622C779.392 512.725 780.385 504.732 778.94 496.957C778.069 492.159 776.249 487.588 774.795 482.921C773.106 477.505 771.887 471.95 770.668 466.378C769.464 461.432 768.592 456.411 768.055 451.35C767.681 446.996 767.846 442.373 769.797 438.402C771.747 434.432 775.674 431.219 780.072 431.271C794.743 431.541 792.218 451.524 795.457 460.753Z" fill="#00B0FF"/>
<path opacity="0.1" d="M753.471 464.158C754.846 465.768 756.614 467.536 758.695 467.222C758.537 467.473 758.287 467.651 757.999 467.72C757.711 467.788 757.408 467.741 757.154 467.588C756.654 467.257 756.254 466.797 755.996 466.256L753.018 461.232C752.626 460.579 749.927 456.774 749.265 458.968C749.004 459.9 752.8 463.374 753.471 464.158Z" fill="black"/>
<path opacity="0.1" d="M751.868 476.687C751.783 475.045 751.091 473.494 749.927 472.333C748.88 471.384 747.659 470.648 746.331 470.165C743.065 468.825 739.199 467.745 735.655 467.919C736.944 469.8 741.08 470.923 743.152 471.985C746.09 473.5 748.995 475.067 751.868 476.687Z" fill="black"/>
<path opacity="0.1" d="M761.142 512.351C760.541 516.809 756.893 520.187 753.201 522.799C749.509 525.411 745.364 527.658 742.952 531.437C741.28 534.049 740.531 537.079 739.112 539.804C737.545 542.808 735.203 545.333 733.331 548.154C731.458 550.975 729.996 554.345 730.57 557.688C730.579 557.842 730.618 557.992 730.687 558.13C730.756 558.268 730.853 558.39 730.971 558.489C731.15 558.565 731.346 558.593 731.54 558.572C731.733 558.551 731.918 558.48 732.077 558.367C735.873 556.382 737.371 551.846 738.964 547.919C740.637 543.955 742.52 540.084 744.607 536.321C745.547 534.58 746.583 532.682 748.333 531.715C749.532 531.216 750.759 530.788 752.008 530.435C753.78 529.623 755.334 528.402 756.544 526.874C761.298 521.204 763.78 513.972 763.51 506.578C763.458 505.019 763.371 497.514 761.029 499.83C758.686 502.146 761.542 509.321 761.142 512.351Z" fill="black"/>
<path d="M766.88 341.372C774.368 344.637 780.812 351.82 780.577 359.961C780.376 368.511 773.219 376.565 775.683 384.759C777.111 389.513 781.412 392.699 784.817 396.313C797.782 410.035 797.756 433.988 784.747 447.684C779.767 452.908 773.367 456.626 768.099 461.615C749.526 479.116 748.734 509.39 758.678 532.891C751.059 534.538 743.293 535.413 735.499 535.503C731.85 535.546 727.383 534.884 726.06 531.48C724.841 528.337 726.931 524.088 724.527 521.763C723.395 520.675 721.697 520.527 720.174 520.274C710.369 518.689 702.324 510.862 698.649 501.641C694.975 492.42 695.166 482.042 697.273 472.342C698.771 465.333 701.113 457.619 697.639 451.35C693.285 443.461 680.764 440.135 680.956 431.115C681.113 423.722 689.829 420.126 694.774 414.632C703.9 404.515 699.555 388.816 699.537 375.181C699.537 363.183 703.734 350.801 712.668 342.808C725.955 330.819 751.546 334.711 766.88 341.372Z" fill="#A26565"/>
<g opacity="0.1">
<path opacity="0.1" d="M699.067 442.408C695.245 435.512 685.205 432.098 682.871 425.316C681.704 426.899 681.048 428.8 680.991 430.766C680.799 439.787 693.303 443.113 697.674 451.01C699.109 453.806 699.714 456.954 699.415 460.083C700.791 454.023 702.002 447.701 699.067 442.408Z" fill="black"/>
<path opacity="0.1" d="M776.684 373.596C778.252 369.025 780.524 364.41 780.638 359.665C780.653 359.151 780.639 358.636 780.594 358.124C778.844 363.339 776.162 368.45 776.684 373.596Z" fill="black"/>
<path opacity="0.1" d="M700.565 397.95C703.56 388.485 700.974 376.748 700.965 366.247C700.965 364.976 701.018 363.696 701.113 362.425C700.082 366.483 699.561 370.654 699.563 374.841C699.581 382.338 700.896 390.47 700.565 397.95Z" fill="black"/>
<path opacity="0.1" d="M786.202 438.777C781.221 444.001 774.821 447.719 769.553 452.708C760.149 461.563 755.317 473.692 754.106 486.552C756.353 476.974 760.889 468.154 768.16 461.302C773.384 456.339 779.828 452.638 784.808 447.37C790.733 440.914 794.173 432.565 794.517 423.809C793.013 429.404 790.158 434.544 786.202 438.777Z" fill="black"/>
<path opacity="0.1" d="M736.953 526.569C733.304 526.569 728.838 525.942 727.514 522.538C726.295 519.403 728.385 515.154 725.982 512.821C724.85 511.733 723.143 511.585 721.628 511.332C711.832 509.756 703.787 501.92 700.112 492.708C697.404 485.899 696.821 478.472 697.5 471.141C697.43 471.428 697.369 471.715 697.308 472.011C695.236 481.711 695.018 492.098 698.684 501.319C702.35 510.54 710.404 518.367 720.2 519.943C721.75 520.196 723.456 520.352 724.554 521.432C726.983 523.766 724.867 528.015 726.086 531.149C727.41 534.554 731.876 535.224 735.525 535.18C743.319 535.091 751.085 534.216 758.704 532.568C757.629 530.028 756.69 527.433 755.891 524.793C749.638 525.904 743.304 526.499 736.953 526.569V526.569Z" fill="black"/>
</g>
<path opacity="0.1" d="M765.469 488.598C767.62 490.218 769.954 484.044 768.621 482.503C768.264 482.904 765.139 488.372 765.469 488.598Z" fill="black"/>
<path opacity="0.1" d="M774.638 600.344C777.172 599.473 779.863 598.602 781.517 596.512C782.884 594.832 784.007 588.162 781.116 591.358C778.661 594.083 777.503 597.714 774.638 600.344Z" fill="black"/>
<path opacity="0.1" d="M800.438 593.352C800.133 595.407 799.567 597.54 798.113 599.02C797.843 599.299 797.242 599.473 797.164 599.098C798.788 598.234 800.298 597.169 801.657 595.929C804.6 593.012 805.001 585.829 800.516 583.922C800.473 587.074 800.917 590.183 800.438 593.352Z" fill="black"/>
<path d="M831.41 580.405C831.41 580.405 806.699 570.696 797.765 571.698C788.831 572.699 807.883 586.778 807.883 586.778L819.272 594.458C819.272 594.458 826.238 591.846 826.699 591.645C827.161 591.445 831.41 580.405 831.41 580.405Z" fill="#454B69"/>
<path d="M661.382 476.252C661.382 476.252 679.946 465.49 704.448 478.864C728.951 492.238 733.035 570.94 733.035 570.94C733.035 570.94 723.012 651.131 761.656 633.3C761.656 633.3 832.185 611.401 839.247 616.225C839.247 616.225 845.934 616.225 832.568 619.194C819.202 622.163 767.594 638.498 767.594 638.498C767.594 638.498 750.902 644.331 743.832 638.498C736.761 632.664 716.726 639.246 714.122 599.142C712.399 573.869 709.301 548.71 704.84 523.774L697.953 503.356L661.382 476.252Z" fill="#565661"/>
<path d="M659.153 600.256C659.153 600.256 667.32 518.951 653.928 489.617C642.278 464.053 687.33 476.008 699.085 479.491C700.904 480.034 702.49 481.168 703.595 482.712C710.561 492.508 735.551 531.767 728.185 584.297C728.185 584.297 725.215 631.079 743.779 638.498L686.581 620.074C681.94 618.576 677.229 617.331 672.475 616.251C666.415 614.876 656.54 610.966 659.153 600.256Z" fill="white"/>
<path d="M1009.69 454.798C1009.69 454.798 1005.7 473.413 1023.49 475.616L1024.59 473.552C1024.59 473.552 1010.8 460.588 1009.69 454.798Z" fill="#00B0FF"/>
<path d="M1030.24 473.404L1026.11 474.275L1025.7 474.371C1025.7 474.371 1014.66 465.411 1014.8 445.411C1016.26 448.355 1018.01 451.148 1020.02 453.753C1024.44 459.578 1029.42 467.266 1030.24 473.404Z" fill="#00B0FF"/>
<path d="M1031.64 475.329C1031.32 475.539 1030.95 475.675 1030.56 475.724C1030.18 475.774 1029.78 475.737 1029.42 475.616C1018.79 473.134 1022.39 438.533 1022.39 438.533C1022.97 438.803 1023.62 443.2 1026.05 448.886C1030.35 458.872 1035.07 472.821 1031.64 475.329Z" fill="#00B0FF"/>
<path d="M1055.2 454.798C1055.2 454.798 1055.89 473.413 1038.1 475.616L1037 473.552C1037 473.552 1054.09 460.588 1055.2 454.798Z" fill="#00B0FF"/>
<path d="M1050.1 445.42C1050.23 465.42 1035.94 474.38 1035.94 474.38L1035.53 474.284L1031.39 473.413C1032.21 467.275 1037.19 459.552 1041.55 453.77C1044.02 450.618 1046.89 447.81 1050.1 445.42Z" fill="#00B0FF"/>
<path d="M1035.41 473.509C1034.77 474.286 1033.96 474.905 1033.05 475.32C1032.77 475.446 1032.47 475.542 1032.18 475.607C1029.56 476.217 1028.69 474.336 1028.8 471.132C1029.04 465.429 1032.63 455.546 1035.84 448.154C1038.16 442.825 1041.94 438.785 1042.51 438.524C1042.51 438.533 1042.35 465.472 1035.41 473.509Z" fill="#00B0FF"/>
<path d="M1032.45 426.395C1032.45 426.395 1020.59 468.45 1030.8 474.789C1041 481.127 1035.07 430.113 1032.45 426.395Z" fill="#00B0FF"/>
<path opacity="0.1" d="M1009.69 454.798C1009.69 454.798 1005.7 473.413 1023.49 475.616L1024.59 473.552C1024.59 473.552 1010.8 460.588 1009.69 454.798Z" fill="black"/>
<path opacity="0.1" d="M1030.24 473.404L1026.11 474.275L1025.7 474.371C1025.7 474.371 1014.66 465.411 1014.8 445.411C1016.26 448.355 1018.01 451.148 1020.02 453.753C1024.44 459.578 1029.42 467.266 1030.24 473.404Z" fill="black"/>
<path opacity="0.1" d="M1031.64 475.329C1031.32 475.539 1030.95 475.675 1030.56 475.724C1030.18 475.774 1029.78 475.737 1029.42 475.616C1018.79 473.134 1022.39 438.533 1022.39 438.533C1022.97 438.803 1023.62 443.2 1026.05 448.886C1030.35 458.872 1035.07 472.821 1031.64 475.329Z" fill="black"/>
<path opacity="0.1" d="M1055.2 454.798C1055.2 454.798 1055.89 473.413 1038.1 475.616L1037 473.552C1037 473.552 1054.09 460.588 1055.2 454.798Z" fill="black"/>
<path opacity="0.1" d="M1050.1 445.42C1050.23 465.42 1035.94 474.38 1035.94 474.38L1035.53 474.284L1031.39 473.413C1032.21 467.275 1037.19 459.552 1041.55 453.77C1044.02 450.618 1046.89 447.81 1050.1 445.42Z" fill="black"/>
<path opacity="0.1" d="M1035.41 473.509C1034.77 474.286 1033.96 474.905 1033.05 475.32C1032.77 475.446 1032.47 475.542 1032.18 475.607C1029.56 476.217 1028.69 474.336 1028.8 471.132C1029.04 465.429 1032.63 455.546 1035.84 448.154C1038.16 442.825 1041.94 438.785 1042.51 438.524C1042.51 438.533 1042.35 465.472 1035.41 473.509Z" fill="black"/>
<path opacity="0.1" d="M1032.45 426.395C1032.45 426.395 1020.59 468.45 1030.8 474.789C1041 481.127 1035.07 430.113 1032.45 426.395Z" fill="black"/>
<path d="M1009.69 454.798C1009.69 454.798 1007.35 473.413 1025.14 475.616L1026.25 473.552C1026.25 473.552 1010.8 460.588 1009.69 454.798Z" fill="#00B0FF"/>
<path d="M1031.9 473.404L1027.76 474.275L1027.35 474.371C1027.35 474.371 1014.66 465.411 1014.8 445.411C1014.8 445.411 1018.05 448.894 1021.72 453.753C1026.1 459.578 1031.07 467.266 1031.9 473.404Z" fill="#00B0FF"/>
<path opacity="0.1" d="M1031.9 473.404L1027.76 474.275C1023.84 470.836 1022.28 461.85 1021.72 453.753C1026.1 459.578 1031.07 467.266 1031.9 473.404Z" fill="black"/>
<path d="M1033.32 475.329C1033 475.539 1032.63 475.675 1032.24 475.724C1031.86 475.774 1031.47 475.737 1031.1 475.616C1020.47 473.134 1022.39 438.533 1022.39 438.533C1022.97 438.803 1025.27 443.2 1027.71 448.886C1032 458.872 1036.7 472.821 1033.32 475.329Z" fill="#00B0FF"/>
<path d="M1055.2 454.798C1055.2 454.798 1057.54 473.413 1039.75 475.616L1038.65 473.552C1038.65 473.552 1054.09 460.588 1055.2 454.798Z" fill="#00B0FF"/>
<path d="M1050.1 445.42C1050.23 465.446 1037.55 474.38 1037.55 474.38L1037.14 474.284L1033 473.413C1033.82 467.275 1038.8 459.552 1043.16 453.77C1046.85 448.903 1050.1 445.42 1050.1 445.42Z" fill="#00B0FF"/>
<path opacity="0.1" d="M1043.16 453.761C1042.63 461.31 1041.26 469.626 1037.94 473.518C1037.7 473.79 1037.45 474.046 1037.18 474.284L1033.05 473.413C1033.82 467.266 1038.8 459.578 1043.16 453.761Z" fill="black"/>
<path d="M1037.07 473.509C1036.43 474.286 1035.62 474.905 1034.7 475.32C1034.42 475.446 1034.13 475.542 1033.83 475.607C1031.22 476.217 1030.3 474.336 1030.45 471.132C1030.7 465.429 1034.28 455.546 1037.5 448.154C1039.81 442.825 1041.95 438.785 1042.51 438.524C1042.51 438.533 1044.01 465.472 1037.07 473.509Z" fill="#00B0FF"/>
<path opacity="0.1" d="M1033.32 475.329C1032.72 475.327 1032.14 475.138 1031.64 474.789C1026.65 471.68 1026.55 459.987 1027.73 448.886C1032 458.872 1036.7 472.821 1033.32 475.329Z" fill="black"/>
<path opacity="0.1" d="M1037.07 473.509C1036.49 474.745 1035.72 475.407 1034.7 475.32C1034.19 475.249 1033.71 475.064 1033.28 474.78C1031.98 473.888 1031 472.612 1030.46 471.132C1030.7 465.429 1034.29 455.546 1037.5 448.154C1038.64 458.428 1039.03 469.303 1037.07 473.509Z" fill="black"/>
<path d="M1032.45 426.395C1032.45 426.395 1022.25 468.45 1032.45 474.789C1042.66 481.127 1035.07 430.113 1032.45 426.395Z" fill="#00B0FF"/>
<path d="M1048.45 476.861L1047.74 480.579L1045.14 494.231H1020.45L1017.85 480.579L1017.14 476.861H1048.45Z" fill="#565661"/>
<path opacity="0.1" d="M1048.45 476.861L1047.74 480.579H1017.85L1017.14 476.861H1048.45Z" fill="black"/>
<path d="M1053.68 472.725H1011.22V479.76H1053.68V472.725Z" fill="#565661"/>
<path d="M910.316 486.23L887.041 488.102L853.875 485.942L854.45 485.89L885.169 482.93C892.205 480.318 887.329 465.124 887.329 465.124L910.839 466.326L912.711 466.421C921.078 485.942 910.316 486.23 910.316 486.23Z" fill="#D1D9EC"/>
<path opacity="0.1" d="M910.316 486.23L887.041 488.102L853.875 485.942L854.45 485.89L887.973 487.092L910.438 484.654C916.812 482.973 913.163 471.907 910.865 466.326L912.737 466.421C921.078 485.942 910.316 486.23 910.316 486.23Z" fill="black"/>
<path d="M951.04 347.963L943.926 450L942.995 463.4C942.891 464.875 942.229 466.255 941.143 467.26C940.058 468.264 938.631 468.817 937.152 468.807H934.993L827.892 468.154C827.475 468.151 827.062 468.061 826.681 467.89C826.3 467.719 825.959 467.47 825.679 467.159C825.4 466.849 825.188 466.483 825.058 466.086C824.928 465.69 824.882 465.27 824.923 464.854L825.846 455.808L833.378 381.746C833.498 380.574 833.949 379.461 834.678 378.536C835.408 377.611 836.385 376.912 837.496 376.522L939.573 341.18C943.056 339.978 946.539 340.405 948.794 342.242C949.61 342.937 950.242 343.823 950.634 344.821C951.026 345.819 951.166 346.898 951.04 347.963Z" fill="#4C4C56"/>
<path d="M943.926 450L942.995 463.4C942.891 464.875 942.229 466.255 941.143 467.26C940.058 468.264 938.631 468.817 937.152 468.807H934.993L827.892 468.154C827.475 468.151 827.062 468.061 826.681 467.89C826.3 467.719 825.959 467.47 825.679 467.159C825.4 466.849 825.188 466.483 825.058 466.086C824.928 465.69 824.882 465.27 824.923 464.854L825.846 455.808L943.926 450Z" fill="#DFE6F5"/>
<path d="M872.126 463.983C872.919 463.983 873.562 462.697 873.562 461.11C873.562 459.523 872.919 458.237 872.126 458.237C871.332 458.237 870.689 459.523 870.689 461.11C870.689 462.697 871.332 463.983 872.126 463.983Z" fill="white"/>
<path d="M924.553 489.591C924.553 489.591 953.844 478.533 961.742 486.578C961.742 486.578 963.03 489.016 957.719 489.591L936.255 491.332C936.255 491.332 927.426 492.177 924.553 489.591Z" fill="#D1D9EC"/>
<path d="M925.354 486.717C931.109 484.366 948.428 478.28 959.513 484.976C959.513 484.976 947.244 483.618 940.513 487.51C933.782 491.402 924.57 489.556 924.57 489.556L924.439 489.312C924.316 489.084 924.241 488.833 924.221 488.574C924.201 488.316 924.234 488.056 924.321 487.812C924.407 487.567 924.543 487.344 924.721 487.155C924.899 486.967 925.115 486.817 925.354 486.717V486.717Z" fill="#DFE6F5"/>
<path d="M951.04 347.963L942.995 463.417C942.891 464.893 942.229 466.273 941.143 467.277C940.058 468.281 938.631 468.835 937.152 468.824H934.993C936.476 467.408 937.739 465.776 938.737 463.983C938.737 463.983 946.634 347.989 947.209 345.116C947.465 344.04 948.017 343.056 948.803 342.277C949.612 342.97 950.239 343.85 950.63 344.841C951.02 345.833 951.161 346.904 951.04 347.963V347.963Z" fill="#DFE6F5"/>
<path opacity="0.1" d="M951.04 347.963L942.995 463.417C942.891 464.893 942.229 466.273 941.143 467.277C940.058 468.281 938.631 468.835 937.152 468.824H934.993C936.476 467.408 937.739 465.776 938.737 463.983C938.737 463.983 946.634 347.989 947.209 345.116C947.465 344.04 948.017 343.056 948.803 342.277C949.612 342.97 950.239 343.85 950.63 344.841C951.02 345.833 951.161 346.904 951.04 347.963V347.963Z" fill="black"/>
<path opacity="0.1" d="M558.713 745.297C605.572 745.297 643.558 739.197 643.558 731.671C643.558 724.145 605.572 718.045 558.713 718.045C511.855 718.045 473.869 724.145 473.869 731.671C473.869 739.197 511.855 745.297 558.713 745.297Z" fill="#00B0FF"/>
<path d="M561.439 470.627H555.979V593.543H561.439V470.627Z" fill="#535461"/>
<path d="M595.754 593.169L595.415 598.707L594.927 606.543L594.727 609.799L594.248 617.636L594.039 620.892L593.551 628.728L588.048 717.601C587.809 721.424 586.122 725.013 583.33 727.637C580.538 730.261 576.851 731.722 573.02 731.723H544.398C540.569 731.722 536.884 730.26 534.095 727.636C531.306 725.012 529.622 721.423 529.387 717.601L523.867 628.667L523.388 620.831L523.187 617.575L522.691 609.738L522.491 606.482L522.012 598.646L521.664 593.108C521.603 592.047 521.76 590.984 522.123 589.985C522.487 588.986 523.05 588.071 523.778 587.297C524.506 586.522 525.384 585.904 526.359 585.479C527.334 585.055 528.385 584.833 529.448 584.828H587.979C589.047 584.834 590.102 585.058 591.08 585.487C592.058 585.915 592.938 586.539 593.667 587.321C594.395 588.102 594.955 589.023 595.315 590.029C595.674 591.035 595.823 592.103 595.754 593.169Z" fill="#565661"/>
<path d="M595.415 598.707L594.927 606.517H522.5L522.012 598.707H595.415Z" fill="#9D9CB5"/>
<path d="M594.727 609.782L594.248 617.601H523.187L522.7 609.782H594.727Z" fill="#9D9CB5"/>
<path d="M594.039 620.857L593.552 628.667H523.867L523.388 620.857H594.039Z" fill="#9D9CB5"/>
<path d="M513.67 516.695C545.47 539.699 558.713 575.677 558.713 575.677C558.713 575.677 520.401 574.362 488.593 551.358C456.785 528.354 443.559 492.386 443.559 492.386C443.559 492.386 481.88 493.7 513.67 516.695Z" fill="#00B0FF"/>
<path d="M443.559 492.386C443.559 492.386 483.325 514.432 496.081 532.716C508.838 551.001 558.705 575.659 558.705 575.659" stroke="#535461" stroke-width="2" stroke-miterlimit="10"/>
<path d="M534.193 470.357C551.504 482.869 558.713 502.46 558.713 502.46C558.713 502.46 537.816 501.737 520.549 489.225C503.282 476.713 496.081 457.122 496.081 457.122C496.081 457.122 516.892 457.836 534.193 470.357Z" fill="#00B0FF"/>
<path d="M496.081 457.122C496.081 457.122 517.728 469.138 524.668 479.081C531.607 489.025 558.757 502.46 558.757 502.46" stroke="#535461" stroke-width="2" stroke-miterlimit="10"/>
<path d="M583.86 501.458C563.999 523.304 559.776 551.872 559.776 551.872C559.776 551.872 587.805 544.993 607.666 523.139C627.528 501.284 631.751 472.743 631.751 472.743C631.751 472.743 603.739 479.604 583.86 501.458Z" fill="#00B0FF"/>
<path d="M631.768 472.734C631.768 472.734 605.872 495.128 599.29 510.557C592.707 525.986 559.776 551.872 559.776 551.872" stroke="#535461" stroke-width="2" stroke-miterlimit="10"/>
<g opacity="0.87">
<path opacity="0.87" d="M1142.04 232.726C1138.7 229.321 1135.17 225.534 1134.5 220.606C1133.99 216.792 1135.37 212.935 1137.26 209.678C1139.14 206.422 1141.61 203.584 1143.69 200.449C1146.3 196.418 1148.29 191.881 1151.25 188.12C1155.82 182.312 1162.48 178.812 1169.32 177.027C1176.17 175.242 1183.26 175.025 1190.31 174.816C1195.95 174.65 1201.69 174.502 1207.14 176.078C1211.13 177.227 1214.85 179.274 1218.51 181.302C1223.66 184.167 1228.87 187.127 1233.02 191.498C1237.11 195.86 1239.96 201.238 1241.27 207.075C1242.75 213.492 1242.33 220.588 1239.28 226.317C1237.92 228.692 1236.34 230.931 1234.55 233.004L1229.19 239.63C1228.07 241.151 1226.74 242.503 1225.23 243.644C1223.32 244.792 1221.19 245.555 1218.98 245.891C1203.96 249.079 1188.65 250.708 1173.29 250.749C1167.74 250.749 1163.26 247.702 1158.14 245.525C1151.91 242.774 1146.88 237.637 1142.04 232.726Z" fill="#454B69"/>
<path opacity="0.1" d="M1147.21 232.726C1144.04 229.321 1140.69 225.534 1140.05 220.606C1139.57 216.792 1140.85 212.935 1142.66 209.678C1144.47 206.422 1146.82 203.584 1148.76 200.449C1151.26 196.418 1153.11 191.881 1155.92 188.12C1160.28 182.312 1166.58 178.812 1173.08 177.027C1179.57 175.242 1186.3 175.025 1192.97 174.816C1198.33 174.65 1203.76 174.502 1208.93 176.078C1212.72 177.227 1216.24 179.274 1219.72 181.302C1224.6 184.167 1229.54 187.127 1233.48 191.498C1237.39 195.909 1240.09 201.258 1241.32 207.023C1242.72 213.44 1242.31 220.536 1239.43 226.265C1238.14 228.628 1236.64 230.867 1234.94 232.952L1229.85 239.578C1228.8 241.093 1227.54 242.448 1226.11 243.601C1224.3 244.742 1222.28 245.506 1220.18 245.847C1205.95 249.034 1191.42 250.663 1176.84 250.706C1171.61 250.706 1167.33 247.658 1162.48 245.482C1156.57 242.774 1151.79 237.637 1147.21 232.726Z" fill="black"/>
<path opacity="0.87" d="M1147.5 178.803C1151.39 174.675 1155.5 170.76 1159.82 167.075C1166.2 161.607 1173.87 156.296 1182.97 155.939C1188.45 155.876 1193.86 157.257 1198.64 159.944C1203.34 162.46 1207.35 165.743 1211.36 168.999L1227.18 181.938C1228.5 183.018 1229.88 184.193 1230.23 185.708C1230.31 186.11 1230.3 186.525 1230.2 186.923C1230.1 187.321 1229.92 187.692 1229.65 188.008C1229.39 188.325 1229.07 188.58 1228.69 188.754C1228.32 188.928 1227.92 189.018 1227.51 189.017C1226.69 188.907 1225.91 188.609 1225.23 188.146C1214.73 182.488 1203.05 179.369 1191.12 179.039C1179.19 178.71 1167.35 181.178 1156.55 186.248C1153.88 187.519 1148.71 192.116 1145.99 190.253C1142.1 187.563 1145.14 181.311 1147.5 178.803Z" fill="#454B69"/>
<path opacity="0.1" d="M1211.63 229.374C1201.19 226.875 1189.94 226.953 1178.93 227.058C1171.47 227.127 1163.69 227.249 1157.05 229.617C1152.49 231.246 1148.42 234.493 1149.28 238.002C1150.14 241.511 1155.11 243.505 1159.59 245.09C1169.17 248.485 1179.46 251.968 1190.07 250.984C1201.05 249.974 1236.99 235.46 1211.63 229.374Z" fill="black"/>
<path opacity="0.87" d="M1155.58 231.812C1151.28 231.812 1150.17 237.802 1150.88 242.025C1151.6 246.248 1152.01 251.89 1148.05 253.527C1146.69 253.939 1145.27 254.086 1143.86 253.962C1134.28 254.006 1125.74 259.709 1117.87 265.185C1116.52 266.135 1115.1 267.153 1114.46 268.668C1113.99 269.774 1113.95 271.08 1113.17 271.986C1112.35 272.736 1111.32 273.229 1110.22 273.405C1105.67 274.827 1101.7 277.664 1098.88 281.504C1096.06 285.343 1094.54 289.982 1094.55 294.746C1084.62 298.098 1077.83 308.964 1079.18 319.352C1075.64 320.506 1072.59 322.825 1070.53 325.932C1068.48 329.039 1067.54 332.75 1067.86 336.461C1059.37 340.335 1055.5 351.951 1060.02 360.135C1061.6 363.008 1063.91 366.866 1061.45 369.034C1064.47 373.126 1067.76 377.427 1072.54 379.16C1077.32 380.893 1083.86 378.585 1084.65 373.561C1086.93 374.799 1089.51 375.389 1092.1 375.266C1094.7 375.144 1097.21 374.314 1099.37 372.867C1101.53 371.42 1103.25 369.41 1104.34 367.055C1105.44 364.701 1105.87 362.091 1105.6 359.508C1112.88 358.368 1117.79 349.565 1115.02 342.747L1122.29 339.526C1120.35 341.918 1119.18 344.845 1118.94 347.917C1118.71 350.99 1119.41 354.061 1120.96 356.722C1121.71 357.692 1122.25 358.807 1122.55 359.996C1122.83 362.094 1121.17 363.888 1119.94 365.647C1118.4 368.011 1117.55 370.763 1117.51 373.585C1117.46 376.407 1118.21 379.184 1119.68 381.598C1120.55 383.026 1121.75 384.402 1121.83 386.082C1121.91 388.085 1120.42 389.756 1119.45 391.506C1115.1 399.299 1121.11 408.598 1126.79 415.451C1119.63 422.547 1122.66 435.686 1130.6 441.894C1138.54 448.102 1149.4 448.92 1159.46 448.224C1169.52 447.527 1179.63 445.612 1189.59 447.188C1194.81 448.058 1199.81 449.852 1205.03 450.54C1214 451.724 1223.09 449.53 1231.61 446.482C1236.22 444.828 1241.19 442.521 1243.13 438.028C1245.32 432.978 1242.94 427.214 1242.83 421.711C1242.68 413.457 1247.7 405.96 1248.75 397.767C1249.4 392.752 1248.54 387.693 1247.88 382.686C1246.04 368.513 1245.89 354.17 1247.44 339.961L1250.05 343.931C1250.35 343.975 1250.65 343.952 1250.94 343.865C1251.23 343.778 1251.5 343.629 1251.73 343.429C1251.95 343.228 1252.13 342.98 1252.25 342.703C1252.37 342.426 1252.43 342.126 1252.42 341.824C1252.93 347.24 1249.06 354.371 1253.73 357.175C1255.1 358.046 1256.8 358.045 1258.36 358.402C1261.31 359.265 1263.84 361.187 1265.46 363.801C1267.9 367.44 1268.95 371.933 1271.78 375.311C1274.62 378.69 1280.41 380.327 1283.16 376.905C1291.65 377.035 1299.87 373.978 1306.2 368.337C1305.48 367.471 1304.95 366.466 1304.64 365.383C1304.33 364.301 1304.25 363.166 1304.4 362.051C1309.7 362.12 1311.93 354.737 1309.97 349.8C1308.02 344.863 1303.75 341.093 1301.82 336.165C1300.08 331.698 1300.28 326.369 1297.28 322.625C1295.86 320.841 1293.8 319.613 1292.48 317.767C1290.84 315.512 1290.41 312.63 1289.63 309.931C1287.47 302.662 1282.57 296.518 1275.96 292.804C1277.89 283.827 1271.61 274.798 1262.68 272.552C1261.65 272.369 1260.65 272.077 1259.69 271.681C1256.44 270.061 1255.83 265.778 1253.88 262.713C1250.77 257.819 1244.43 256.348 1238.72 255.303L1221.5 252.116C1220.49 252.025 1219.53 251.654 1218.72 251.045C1218.04 250.31 1217.63 249.364 1217.55 248.364C1216.84 243.374 1219.3 238.385 1218.91 233.361C1218.78 231.855 1218.11 230.079 1216.62 229.826C1215.82 229.78 1215.01 229.971 1214.32 230.375C1208.29 232.942 1202.05 234.981 1195.66 236.47C1190.99 237.779 1186.19 238.619 1181.35 238.977C1172.07 239.43 1163.06 237.323 1155.58 231.812Z" fill="#454B69"/>
<path opacity="0.87" d="M1222.89 186.23C1225.39 184.489 1227.96 182.608 1229.69 179.735C1231.43 176.862 1232.1 172.665 1230.56 169.661C1232.63 173.214 1234.47 177.288 1234.39 181.694C1234.32 186.1 1231.63 190.654 1228.12 190.584C1230.73 190.366 1233.55 190.044 1235.53 187.885C1237.5 185.726 1237.86 181.041 1235.53 179.5C1236.61 180.72 1237.4 182.161 1237.87 183.723C1238.33 185.284 1238.44 186.928 1238.2 188.538C1237.72 191.855 1235.74 194.763 1233.19 195.852C1235.42 190.035 1241.9 187.598 1246.34 190.932C1242.19 192.789 1238.83 196.035 1236.82 200.109C1239.51 198.098 1243.25 196.226 1245.44 199.021C1241.2 199.892 1237.29 203.061 1235 207.615C1239.38 207.049 1243.8 206.936 1248.2 207.275C1243.32 208.482 1239.03 211.39 1236.1 215.477C1239.32 216.392 1242.47 217.523 1245.54 218.864C1243.04 220.167 1240.23 220.768 1237.41 220.606C1242.63 224.385 1246.36 231.211 1247.28 238.673C1245.48 236.89 1243.45 235.345 1241.26 234.075C1239.51 233.091 1237.48 232.334 1235.83 233.483C1234.19 234.633 1234.05 238.481 1235.9 238.943L1228.34 238.394C1229.63 239.302 1230.7 240.468 1231.51 241.818C1232.31 243.168 1232.82 244.671 1233.01 246.23C1231.55 246.116 1230.14 245.66 1228.88 244.898C1232.14 247.848 1234.61 251.557 1236.08 255.695C1232.98 253.274 1229.64 250.767 1225.99 250.862C1223.32 250.932 1220.77 252.404 1218.16 252.856C1213.45 253.666 1208.47 250.941 1205.74 246.065C1208.93 245.58 1212.19 245.74 1215.32 246.535C1214.79 243.065 1213.88 239.665 1212.59 236.4C1214.38 237.575 1215.94 239.075 1217.17 240.823C1217.68 236.242 1217.59 231.614 1216.89 227.058L1220.86 231.176C1220.48 228.113 1219.78 225.099 1218.77 222.182C1220.72 225.887 1223.34 229.206 1226.48 231.977L1220.62 221.842L1230.29 228.842C1231.3 228.033 1230.54 226.074 1229.69 225.02C1227.1 221.767 1224.07 218.885 1220.7 216.452C1223.36 216.86 1225.95 217.63 1228.4 218.742C1227.34 213.292 1222.76 209.295 1218.32 209.957C1221.59 208.002 1225.24 206.762 1229.02 206.318C1225.23 203.366 1220.32 200.423 1216.61 203.618C1220.15 202.78 1223.57 201.498 1226.79 199.805C1225.86 198.655 1224.57 197.849 1223.12 197.517C1221.68 197.184 1220.16 197.343 1218.82 197.968C1216.21 199.282 1214.22 202.582 1213.99 206.143C1213.86 201.024 1216.93 196.052 1220.96 194.911C1219.4 194.119 1217.78 193.309 1216.1 193.44C1215.17 193.54 1214.31 193.951 1213.64 194.608C1212.98 195.264 1212.55 196.126 1212.44 197.053C1212.91 193.856 1213.99 190.778 1215.6 187.981C1213.39 186.823 1210.72 188.503 1209.51 191.089C1208.3 193.675 1208.26 196.879 1208.64 199.848C1209.02 193.45 1208.73 187.03 1207.77 180.693C1206.75 185.687 1206.44 190.797 1206.83 195.878" fill="#00B0FF"/>
<path opacity="0.2" d="M1187.24 238.977H1181.34V446.874H1187.24V238.977Z" fill="white"/>
<path opacity="0.1" d="M1236.89 770.826C1313.37 770.826 1375.37 757.225 1375.37 740.448C1375.37 723.67 1313.37 710.069 1236.89 710.069C1160.4 710.069 1098.4 723.67 1098.4 740.448C1098.4 757.225 1160.4 770.826 1236.89 770.826Z" fill="#00B0FF"/>
<path opacity="0.87" d="M1261.14 175.652H1250.94V764.932H1261.14V175.652Z" fill="#565661"/>
<path opacity="0.87" d="M1256.04 218.734C1281.37 218.734 1301.9 215.416 1301.9 211.324C1301.9 207.232 1281.37 203.914 1256.04 203.914C1230.71 203.914 1210.18 207.232 1210.18 211.324C1210.18 215.416 1230.71 218.734 1256.04 218.734Z" stroke="#565661" stroke-width="9" stroke-miterlimit="10"/>
<path opacity="0.87" d="M1195.58 172.508C1192.34 173.312 1189.37 174.955 1186.97 177.273C1184.58 179.59 1182.83 182.5 1181.92 185.708C1181 188.916 1180.95 192.308 1181.77 195.541C1182.59 198.775 1184.25 201.735 1186.57 204.123C1191.91 209.6 1199.9 211.324 1207.34 213.065C1221.63 216.409 1236.95 221.651 1244.68 234.11C1247.13 238.118 1248.64 242.624 1249.11 247.296C1249.58 251.968 1249 256.686 1247.4 261.102C1246.68 263.297 1245.47 265.304 1243.88 266.979C1241.86 268.734 1239.48 270.016 1236.91 270.732C1225.34 274.566 1212.89 274.899 1201.12 271.69" stroke="#565661" stroke-width="9" stroke-miterlimit="10"/>
<path opacity="0.87" d="M1314.88 172.508C1318.11 173.314 1321.08 174.959 1323.48 177.277C1325.87 179.595 1327.61 182.504 1328.53 185.71C1329.44 188.917 1329.49 192.308 1328.68 195.541C1327.86 198.774 1326.21 201.734 1323.88 204.123C1318.54 209.6 1310.56 211.324 1303.11 213.065C1288.82 216.409 1273.51 221.651 1265.78 234.11C1263.33 238.118 1261.81 242.624 1261.34 247.296C1260.87 251.968 1261.45 256.686 1263.05 261.102C1263.77 263.293 1264.95 265.3 1266.53 266.979C1268.55 268.734 1270.93 270.016 1273.5 270.732C1285.07 274.566 1297.52 274.899 1309.29 271.69" stroke="#565661" stroke-width="9" stroke-miterlimit="10"/>
<path opacity="0.87" d="M1256.04 567.109C1279.58 567.109 1298.66 561.718 1298.66 555.067C1298.66 548.417 1279.58 543.025 1256.04 543.025C1232.5 543.025 1213.42 548.417 1213.42 555.067C1213.42 561.718 1232.5 567.109 1256.04 567.109Z" stroke="#565661" stroke-width="9" stroke-miterlimit="10"/>
<path opacity="0.87" d="M1256.04 718.436C1279.58 718.436 1298.66 713.045 1298.66 706.395C1298.66 699.744 1279.58 694.353 1256.04 694.353C1232.5 694.353 1213.42 699.744 1213.42 706.395C1213.42 713.045 1232.5 718.436 1256.04 718.436Z" stroke="#565661" stroke-width="9" stroke-miterlimit="10"/>
<path opacity="0.87" d="M1214.72 558.733C1231.38 574.513 1242.93 594.919 1247.89 617.322C1248.85 621.423 1249.43 625.602 1249.63 629.808C1249.96 639.386 1247.53 648.894 1244.41 657.975C1238.51 675.163 1229.75 691.863 1216.01 703.739C1203.68 714.396 1188.15 720.517 1172.69 725.689" stroke="#565661" stroke-width="9" stroke-miterlimit="10"/>
<path opacity="0.87" d="M1297.36 558.733C1280.7 574.513 1269.14 594.919 1264.18 617.322C1263.23 621.424 1262.65 625.602 1262.44 629.808C1262.11 639.386 1264.54 648.894 1267.67 657.975C1273.55 675.163 1282.31 691.863 1296.06 703.739C1308.38 714.396 1323.92 720.517 1339.37 725.689" stroke="#565661" stroke-width="9" stroke-miterlimit="10"/>
<path opacity="0.87" d="M1183.66 167.815H1161.07V177.053H1183.66V167.815Z" fill="#454B69"/>
<path opacity="0.87" d="M1210.3 195.921L1205.73 183.166C1205.32 181.672 1204.57 180.293 1203.54 179.134C1202.46 178.133 1200.71 177.898 1199.76 179.073C1201.33 181.199 1202.58 183.546 1203.47 186.039C1204.26 188.651 1204.26 191.681 1202.89 193.875C1202.16 186.564 1199.02 179.703 1193.98 174.363C1195.8 178.096 1197.29 181.98 1198.45 185.969L1192.23 178.647C1190.89 184.193 1190.92 189.981 1192.31 195.512C1188.89 191.278 1186.99 186.021 1186.91 180.58C1186.86 182.889 1186.39 185.17 1185.52 187.31C1183.8 185.307 1182.87 182.742 1182.91 180.101C1181.31 182.548 1180.25 185.314 1179.82 188.207C1179.39 191.101 1179.59 194.053 1180.41 196.862C1177.42 191.991 1175.81 186.405 1175.72 180.693C1173.84 186.43 1173.32 192.525 1174.2 198.499C1170.64 194.549 1168.45 189.551 1167.98 184.254C1168.1 189.687 1168.98 195.077 1170.59 200.266C1167.71 199.456 1166.09 196.043 1164.56 193.109C1163.03 190.175 1160.61 187.093 1157.67 187.624C1160.4 190.611 1162.04 194.424 1162.35 198.455C1160.93 198.264 1159.86 196.801 1158.47 196.461C1156.5 195.991 1154.51 198.342 1154.83 200.623C1155.14 202.904 1157.48 204.437 1159.39 203.732C1158.05 203.179 1156.57 203.037 1155.14 203.324C1153.72 203.611 1152.41 204.313 1151.39 205.342C1150.28 206.506 1149.46 207.91 1148.99 209.446C1148.52 210.981 1148.41 212.605 1148.68 214.189C1149.81 210.897 1153.23 208.904 1156.2 209.835C1151.65 210.497 1147.81 215.242 1147.5 220.519C1148.61 219.744 1149.14 218.237 1150.06 217.175C1150.97 216.113 1152.81 215.73 1153.36 217.088C1153.54 217.757 1153.52 218.467 1153.3 219.126L1150.98 229.278L1162.8 224.115C1162.05 228.918 1160.56 233.576 1158.39 237.924L1165.08 235.73C1162.26 238.663 1160.37 242.356 1159.63 246.352C1160.32 242.782 1164.93 239.883 1167.8 240.048C1168.36 245.612 1165.51 249.678 1160.84 250.009C1154.16 250.488 1148.16 249.33 1141.54 251.672C1142.85 249.809 1144.64 248.338 1146.72 247.417C1148.8 246.496 1151.09 246.161 1153.35 246.448C1149.98 241.738 1143.94 239.839 1138.96 241.938C1139.89 240.582 1141.14 239.479 1142.6 238.731C1144.06 237.982 1145.68 237.612 1147.32 237.654C1145.04 233.858 1140.19 232.508 1136.65 234.685C1138.05 232.047 1140.3 229.968 1143.05 228.799C1140.52 226.57 1136.95 226.396 1133.94 227.441C1130.93 228.486 1128.22 230.593 1125.61 232.665C1125.16 231.372 1125.05 229.985 1125.29 228.638C1125.54 227.291 1126.12 226.03 1127 224.977C1127.81 224.047 1128.92 223.416 1130.13 223.186C1131.35 222.955 1132.6 223.138 1133.7 223.705C1132.62 220.484 1129.53 218.333 1126.56 218.725C1127.45 217.452 1128.73 216.505 1130.2 216.033C1131.68 215.561 1133.27 215.589 1134.73 216.113C1134.79 214.09 1134.39 212.08 1133.57 210.231C1132.74 208.382 1131.52 206.741 1129.98 205.429C1132.22 206.073 1134.19 207.427 1135.59 209.287C1135.92 207.8 1135.95 206.261 1135.67 204.764C1135.38 203.267 1134.8 201.843 1133.95 200.58C1132.28 198.246 1130.26 196.189 1127.96 194.485C1132.54 193.097 1137.43 193.121 1142 194.554L1138 180.31L1146.07 190.462C1145.15 185.291 1144.89 180.027 1145.27 174.79C1146.31 178.512 1147.91 182.057 1150 185.308C1149.4 180.532 1149.06 175.728 1148.98 170.915C1148.98 169.687 1149.06 168.216 1149.99 167.615C1150.93 167.014 1151.96 167.615 1152.61 168.486C1153.14 169.445 1153.53 170.482 1153.75 171.559C1154.69 174.943 1156.55 178 1159.13 180.388C1159.17 177.899 1159.74 175.447 1160.79 173.189C1161.84 170.932 1163.35 168.92 1165.22 167.284C1165.28 171.161 1165.8 175.017 1166.78 178.769C1164.17 178.603 1162.72 174.833 1163.49 171.977C1164.27 169.121 1166.49 167.145 1168.72 165.595C1170.94 164.045 1173.33 162.635 1174.9 160.258C1174.37 165.831 1174.74 171.453 1176.01 176.905C1176.83 173.144 1176.78 169.165 1177.83 165.482C1178.89 161.799 1181.57 158.272 1184.92 158.386C1183.53 160.346 1182.45 162.507 1181.71 164.794C1181.05 167.154 1181.16 169.94 1182.51 171.873C1182.99 168.39 1183.48 164.811 1184.83 161.625C1186.18 158.438 1188.52 155.617 1191.51 154.816C1189.8 160.745 1190.25 167.086 1192.77 172.717C1192.77 167.65 1194.18 161.938 1198.11 159.657C1197.21 161.139 1196.64 162.8 1196.46 164.525C1196.27 166.249 1196.46 167.994 1197.02 169.635C1196.91 164.939 1198.12 160.306 1200.51 156.261C1200.5 162.138 1201.48 167.974 1203.41 173.527C1205.68 168.641 1208.83 164.214 1212.7 160.467C1211.82 166.055 1212.38 171.776 1214.32 177.088C1214.09 174.648 1214.19 172.188 1214.62 169.774C1215.17 167.406 1216.51 165.142 1218.5 164.298L1218.88 180.754C1223.08 178.368 1224.5 171.176 1221.62 166.936C1225.02 168.956 1228.59 171.194 1230.46 175.042C1232.33 178.891 1231.44 184.82 1227.85 186.222" fill="#00B0FF"/>
<path opacity="0.87" d="M1180.91 169.661H1175.7C1170.88 169.661 1166.98 173.563 1166.98 178.377C1166.98 183.19 1170.88 187.092 1175.7 187.092H1180.91C1185.72 187.092 1189.62 183.19 1189.62 178.377C1189.62 173.563 1185.72 169.661 1180.91 169.661Z" fill="#00B0FF"/>
</g>
</g>
<defs>
<linearGradient id="paint0_linear" x1="690.769" y1="256.496" x2="691.953" y2="256.496" gradientUnits="userSpaceOnUse">
<stop stop-color="#808080" stop-opacity="0.25"/>
<stop offset="0.54" stop-color="#808080" stop-opacity="0.12"/>
<stop offset="1" stop-color="#808080" stop-opacity="0.1"/>
</linearGradient>
<linearGradient id="paint1_linear" x1="2954.06" y1="469.522" x2="3005.82" y2="469.522" gradientUnits="userSpaceOnUse">
<stop stop-color="#808080" stop-opacity="0.25"/>
<stop offset="0.54" stop-color="#808080" stop-opacity="0.12"/>
<stop offset="1" stop-color="#808080" stop-opacity="0.1"/>
</linearGradient>
<linearGradient id="paint2_linear" x1="1723.8" y1="1568.09" x2="1728.49" y2="1568.09" gradientUnits="userSpaceOnUse">
<stop stop-color="#808080" stop-opacity="0.25"/>
<stop offset="0.54" stop-color="#808080" stop-opacity="0.12"/>
<stop offset="1" stop-color="#808080" stop-opacity="0.1"/>
</linearGradient>
<clipPath id="clip0">
<rect width="984" height="708" fill="white" transform="translate(429 96)"/>
</clipPath>
</defs>
</svg>
