<svg width="1440" height="900" viewBox="0 0 1440 900" fill="none" xmlns="http://www.w3.org/2000/svg">
<rect width="1440" height="900" fill="white"/>
<path opacity="0.1" d="M739.87 385.246H640.416C636.894 385.246 634.039 388.1 634.039 391.62V412.776C634.039 416.296 636.894 419.15 640.416 419.15H739.87C743.392 419.15 746.247 416.296 746.247 412.776V391.62C746.247 388.1 743.392 385.246 739.87 385.246Z" fill="#00B0FF"/>
<path opacity="0.1" d="M857.296 419.159H757.843C754.321 419.159 751.466 422.013 751.466 425.533V446.689C751.466 450.209 754.321 453.063 757.843 453.063H857.296C860.819 453.063 863.674 450.209 863.674 446.689V425.533C863.674 422.013 860.819 419.159 857.296 419.159Z" fill="#00B0FF"/>
<path opacity="0.1" d="M974.731 453.063H875.278C871.756 453.063 868.901 455.916 868.901 459.437V480.593C868.901 484.113 871.756 486.967 875.278 486.967H974.731C978.254 486.967 981.109 484.113 981.109 480.593V459.437C981.109 455.916 978.254 453.063 974.731 453.063Z" fill="#00B0FF"/>
<path opacity="0.1" d="M739.87 334.39H640.416C636.894 334.39 634.039 337.244 634.039 340.764V361.92C634.039 365.44 636.894 368.294 640.416 368.294H739.87C743.392 368.294 746.247 365.44 746.247 361.92V340.764C746.247 337.244 743.392 334.39 739.87 334.39Z" fill="#00B0FF"/>
<path opacity="0.1" d="M857.296 368.294H757.843C754.321 368.294 751.466 371.148 751.466 374.668V395.824C751.466 399.344 754.321 402.198 757.843 402.198H857.296C860.819 402.198 863.674 399.344 863.674 395.824V374.668C863.674 371.148 860.819 368.294 857.296 368.294Z" fill="#00B0FF"/>
<path opacity="0.1" d="M974.731 402.207H875.278C871.756 402.207 868.901 405.06 868.901 408.581V429.737C868.901 433.257 871.756 436.111 875.278 436.111H974.731C978.254 436.111 981.109 433.257 981.109 429.737V408.581C981.109 405.06 978.254 402.207 974.731 402.207Z" fill="#00B0FF"/>
<path opacity="0.1" d="M1105.2 385.246H1005.75C1002.23 385.246 999.374 388.1 999.374 391.62V412.776C999.374 416.296 1002.23 419.15 1005.75 419.15H1105.2C1108.73 419.15 1111.58 416.296 1111.58 412.776V391.62C1111.58 388.1 1108.73 385.246 1105.2 385.246Z" fill="#00B0FF"/>
<path opacity="0.1" d="M1222.63 419.159H1123.18C1119.66 419.159 1116.8 422.013 1116.8 425.533V446.689C1116.8 450.209 1119.66 453.063 1123.18 453.063H1222.63C1226.15 453.063 1229.01 450.209 1229.01 446.689V425.533C1229.01 422.013 1226.15 419.159 1222.63 419.159Z" fill="#00B0FF"/>
<path opacity="0.1" d="M1340.07 453.063H1240.61C1237.09 453.063 1234.24 455.916 1234.24 459.437V480.593C1234.24 484.113 1237.09 486.967 1240.61 486.967H1340.07C1343.59 486.967 1346.44 484.113 1346.44 480.593V459.437C1346.44 455.916 1343.59 453.063 1340.07 453.063Z" fill="#00B0FF"/>
<path opacity="0.1" d="M1105.2 334.39H1005.75C1002.23 334.39 999.374 337.244 999.374 340.764V361.92C999.374 365.44 1002.23 368.294 1005.75 368.294H1105.2C1108.73 368.294 1111.58 365.44 1111.58 361.92V340.764C1111.58 337.244 1108.73 334.39 1105.2 334.39Z" fill="#00B0FF"/>
<path opacity="0.1" d="M1222.63 368.294H1123.18C1119.66 368.294 1116.8 371.148 1116.8 374.668V395.824C1116.8 399.344 1119.66 402.198 1123.18 402.198H1222.63C1226.15 402.198 1229.01 399.344 1229.01 395.824V374.668C1229.01 371.148 1226.15 368.294 1222.63 368.294Z" fill="#00B0FF"/>
<path opacity="0.1" d="M1340.07 402.207H1240.61C1237.09 402.207 1234.24 405.06 1234.24 408.581V429.737C1234.24 433.257 1237.09 436.111 1240.61 436.111H1340.07C1343.59 436.111 1346.44 433.257 1346.44 429.737V408.581C1346.44 405.06 1343.59 402.207 1340.07 402.207Z" fill="#00B0FF"/>
<path opacity="0.1" d="M739.87 266.574H640.416C636.894 266.574 634.039 269.427 634.039 272.948V294.103C634.039 297.624 636.894 300.478 640.416 300.478H739.87C743.392 300.478 746.247 297.624 746.247 294.103V272.948C746.247 269.427 743.392 266.574 739.87 266.574Z" fill="#00B0FF"/>
<path opacity="0.1" d="M857.296 300.478H757.843C754.321 300.478 751.466 303.331 751.466 306.852V328.007C751.466 331.528 754.321 334.382 757.843 334.382H857.296C860.819 334.382 863.674 331.528 863.674 328.007V306.852C863.674 303.331 860.819 300.478 857.296 300.478Z" fill="#00B0FF"/>
<path opacity="0.1" d="M974.731 334.39H875.278C871.756 334.39 868.901 337.244 868.901 340.764V361.92C868.901 365.44 871.756 368.294 875.278 368.294H974.731C978.254 368.294 981.109 365.44 981.109 361.92V340.764C981.109 337.244 978.254 334.39 974.731 334.39Z" fill="#00B0FF"/>
<path opacity="0.1" d="M739.87 215.709H640.416C636.894 215.709 634.039 218.563 634.039 222.083V243.239C634.039 246.759 636.894 249.613 640.416 249.613H739.87C743.392 249.613 746.247 246.759 746.247 243.239V222.083C746.247 218.563 743.392 215.709 739.87 215.709Z" fill="#00B0FF"/>
<path opacity="0.1" d="M857.296 249.622H757.843C754.321 249.622 751.466 252.475 751.466 255.996V277.151C751.466 280.672 754.321 283.526 757.843 283.526H857.296C860.819 283.526 863.674 280.672 863.674 277.151V255.996C863.674 252.475 860.819 249.622 857.296 249.622Z" fill="#00B0FF"/>
<path opacity="0.1" d="M974.731 283.526H875.278C871.756 283.526 868.901 286.379 868.901 289.9V311.055C868.901 314.576 871.756 317.43 875.278 317.43H974.731C978.254 317.43 981.109 314.576 981.109 311.055V289.9C981.109 286.379 978.254 283.526 974.731 283.526Z" fill="#00B0FF"/>
<path opacity="0.1" d="M1105.2 266.574H1005.75C1002.23 266.574 999.374 269.427 999.374 272.948V294.103C999.374 297.624 1002.23 300.478 1005.75 300.478H1105.2C1108.73 300.478 1111.58 297.624 1111.58 294.103V272.948C1111.58 269.427 1108.73 266.574 1105.2 266.574Z" fill="#00B0FF"/>
<path opacity="0.1" d="M1222.63 300.478H1123.18C1119.66 300.478 1116.8 303.331 1116.8 306.852V328.007C1116.8 331.528 1119.66 334.382 1123.18 334.382H1222.63C1226.15 334.382 1229.01 331.528 1229.01 328.007V306.852C1229.01 303.331 1226.15 300.478 1222.63 300.478Z" fill="#00B0FF"/>
<path opacity="0.1" d="M1340.07 334.39H1240.61C1237.09 334.39 1234.24 337.244 1234.24 340.764V361.92C1234.24 365.44 1237.09 368.294 1240.61 368.294H1340.07C1343.59 368.294 1346.44 365.44 1346.44 361.92V340.764C1346.44 337.244 1343.59 334.39 1340.07 334.39Z" fill="#00B0FF"/>
<path opacity="0.1" d="M1105.2 215.709H1005.75C1002.23 215.709 999.374 218.563 999.374 222.083V243.239C999.374 246.759 1002.23 249.613 1005.75 249.613H1105.2C1108.73 249.613 1111.58 246.759 1111.58 243.239V222.083C1111.58 218.563 1108.73 215.709 1105.2 215.709Z" fill="#00B0FF"/>
<path opacity="0.1" d="M1222.63 249.622H1123.18C1119.66 249.622 1116.8 252.475 1116.8 255.996V277.151C1116.8 280.672 1119.66 283.526 1123.18 283.526H1222.63C1226.15 283.526 1229.01 280.672 1229.01 277.151V255.996C1229.01 252.475 1226.15 249.622 1222.63 249.622Z" fill="#00B0FF"/>
<path opacity="0.1" d="M1340.07 283.526H1240.61C1237.09 283.526 1234.24 286.379 1234.24 289.9V311.055C1234.24 314.576 1237.09 317.43 1240.61 317.43H1340.07C1343.59 317.43 1346.44 314.576 1346.44 311.055V289.9C1346.44 286.379 1343.59 283.526 1340.07 283.526Z" fill="#00B0FF"/>
<path opacity="0.1" d="M970.5 776C1229.8 776 1440 737.783 1440 690.639C1440 643.496 1229.8 605.279 970.5 605.279C711.202 605.279 501 643.496 501 690.639C501 737.783 711.202 776 970.5 776Z" fill="#00B0FF"/>
<path d="M706.996 399.384L667.514 641.31L846.044 622.437L838.319 601.847L698.842 613.429L731.458 398.955L706.996 399.384Z" fill="#3F3D56"/>
<path d="M660.647 124.858L900.976 124L970.5 649.889L729.312 682.49L660.647 124.858Z" fill="#3F3D56"/>
<path d="M686.826 145.018H880.806L948.613 634.018L748.625 661.471L686.826 145.018Z" fill="white"/>
<path d="M869.768 612.022C870.986 614.355 871.896 616.878 873.484 618.98C878.119 625.174 886.917 626.143 893.517 630.184C893.847 630.351 894.12 630.614 894.298 630.939C894.599 631.651 893.929 632.397 893.285 632.843C888.281 636.352 881.715 636.429 875.596 636.386C873.539 636.459 871.481 636.263 869.476 635.803C866.24 634.945 863.467 632.689 860.275 631.771C858.619 631.357 856.925 631.119 855.219 631.059L848.516 630.604C846.731 630.578 844.964 630.25 843.288 629.635C842.454 629.315 841.714 628.79 841.137 628.107C840.561 627.425 840.167 626.607 839.993 625.731C839.804 624.307 840.413 622.926 840.774 621.536C841.632 618.242 841.366 614.261 843.932 612.013C844.99 611.204 846.202 610.62 847.494 610.298C852.159 608.726 856.921 607.46 861.751 606.506C865.725 605.725 868.008 608.642 869.768 612.022Z" fill="#3F3D56"/>
<path d="M793.944 630.578C794.116 632.406 794.167 634.499 792.845 635.777C792.022 636.46 791.028 636.905 789.97 637.064C783.627 638.54 776.554 638.643 771.035 635.194C770.461 634.866 769.954 634.432 769.542 633.916C769.082 633.212 768.821 632.396 768.787 631.556C768.589 629.128 769.336 626.735 770.014 624.393C771.619 618.836 772.837 613.174 773.662 607.449C773.731 606.978 789.858 610.023 790.931 611.619C792.279 613.592 792.287 618.328 792.648 620.678C793.191 623.961 793.623 627.261 793.944 630.578Z" fill="#3F3D56"/>
<path d="M853.975 407.337L858.266 447.22C859.125 455.37 860.026 463.563 859.434 471.739C858.747 481.176 856.103 490.613 857.219 499.964C857.657 503.601 858.653 507.17 858.799 510.833C858.826 513.269 858.703 515.705 858.43 518.125C856.49 542.327 862.627 566.339 866.06 590.369C866.612 593.333 866.734 596.361 866.42 599.359C865.974 602.405 865.082 606.403 867.794 607.844L842.319 617.075C839.066 613 841.22 606.66 840.602 601.487C840.036 596.829 837.478 592.676 836.113 588.19C834.877 584.158 834.62 579.911 834.216 575.724C831.993 552.93 825.17 530.728 823.573 507.882C823.522 505.676 823.234 503.481 822.715 501.336C821.857 498.497 820.14 496.017 818.887 493.349C816.964 489.343 816.02 484.951 815.093 480.61L809.643 455.087C804.132 463.289 804.356 473.961 803.265 483.792C801.738 497.519 798.322 511.013 795.541 524.568C794.895 527.485 794.41 530.435 794.09 533.405C793.369 541.357 794.802 549.387 794.039 557.331C793.18 566.536 789.309 575.519 790.245 584.724C790.76 589.82 792.717 594.641 794.039 599.583C795.36 604.524 796.013 609.946 793.996 614.656C786.946 612.069 779.373 611.233 771.928 612.219C763.749 603.855 762.298 592.188 761.74 580.477C761.182 568.767 762.53 557.04 761.071 545.441C760.641 542.009 759.972 538.663 759.86 535.24C759.5 524.268 764.779 513.999 767.405 503.335C769.769 493.736 769.994 483.734 768.066 474.038C766.778 467.63 764.564 461.41 763.774 454.916C762.701 445.813 764.521 436.643 766.349 427.652C767.577 421.587 768.795 415.521 770.186 409.49C771.679 403.013 773.456 396.399 777.447 391.097C783.833 382.612 795.172 378.846 805.772 379.67C816.372 380.493 826.268 385.315 835.023 391.32C841.923 395.929 848.281 401.302 853.975 407.337Z" fill="#192534"/>
<path d="M825.496 254.614C825.014 255.387 824.68 256.242 824.509 257.137C824.294 258.895 825.367 260.508 826.225 262.044C827.325 264.017 828.17 266.121 828.74 268.306C829.149 269.659 829.274 271.081 829.109 272.484C828.9 273.538 828.523 274.552 827.993 275.487C826.337 278.678 823.882 281.63 820.543 282.959C817.958 283.911 815.138 284.025 812.484 283.285C809.847 282.539 807.355 281.356 805.111 279.785C803.219 278.587 801.518 277.112 800.064 275.41C798.675 273.548 797.506 271.533 796.579 269.405C794.794 265.673 792.983 261.684 793.309 257.591C793.326 257.22 793.395 256.854 793.515 256.502C793.794 255.866 794.183 255.285 794.665 254.786C798.327 250.449 800.205 244.883 799.918 239.215L812.424 242.055C815.179 242.681 817.934 243.307 820.655 244.088C822.887 244.732 826.32 245.624 827.77 247.614C829.221 249.604 826.483 252.796 825.496 254.614Z" fill="#FBBEBE"/>
<path d="M818.801 252.487C831.353 252.487 841.529 242.316 841.529 229.77C841.529 217.224 831.353 207.053 818.801 207.053C806.249 207.053 796.073 217.224 796.073 229.77C796.073 242.316 806.249 252.487 818.801 252.487Z" fill="#FBBEBE"/>
<path d="M815.144 275.599C816.106 273.497 818.183 272.167 820.08 270.846C821.977 269.525 823.899 267.835 824.268 265.544C824.291 265.026 824.419 264.518 824.646 264.051C825.375 262.953 827.109 263.502 828.148 264.309C830.671 266.273 832.388 269.061 834.062 271.781C836.227 275.088 838.08 278.589 839.598 282.239C842.01 288.596 842.301 295.536 842.568 302.322C842.808 308.499 843.04 314.77 841.538 320.758C840.593 324.55 838.963 328.23 838.868 332.134C838.585 346.315 833.658 359.87 833.315 374.051C833.289 378.151 833.495 382.25 833.933 386.327L834.74 395.532C822.26 394.817 809.814 393.722 797.403 392.247C797.042 388.009 795.832 383.899 794.725 379.798C790.191 363.033 787.285 345.87 786.047 328.548C785.386 319.351 784.708 310.189 783.687 301.027C782.769 292.696 780.966 284.315 782.048 276.002C782.614 272.223 783.803 268.565 785.567 265.175C786.124 263.825 787.083 262.678 788.313 261.889C788.928 261.592 789.581 261.382 790.253 261.263C792.199 260.869 794.174 260.637 796.158 260.568C796.643 260.527 797.132 260.574 797.6 260.706C798.437 261.122 799.123 261.788 799.566 262.61C803.39 268.357 808.802 272.869 815.144 275.599V275.599Z" fill="#F2F2F2"/>
<path d="M804.604 273.78C806.201 276.062 809.583 276.602 811.059 278.927C811.556 279.899 811.934 280.927 812.183 281.99C813.085 284.864 814.904 287.36 816.012 290.166C817.608 294.198 817.651 298.659 817.668 302.991C817.825 306.442 817.56 309.899 816.878 313.286C816.363 315.405 815.522 317.421 814.904 319.514C813.855 323.074 813.465 326.795 813.754 330.495C813.754 331.295 813.968 332.079 814.372 332.769C814.954 333.458 815.714 333.974 816.569 334.261C819.084 335.368 821.719 336.501 824.466 336.243C825.029 336.225 825.575 336.044 826.037 335.72C826.355 335.43 826.617 335.084 826.809 334.699L828.526 331.799C830.079 329.148 831.702 326.18 831.101 323.152C830.664 321.589 830.008 320.095 829.152 318.716C828.055 316.478 827.12 314.165 826.354 311.793C823.616 303.926 820.844 295.948 820.226 287.643C819.862 284.483 820.214 281.281 821.256 278.275C822.062 276.425 823.076 274.672 824.277 273.051C824.005 272.686 823.629 272.413 823.198 272.267C822.767 272.122 822.303 272.111 821.865 272.236C821.002 272.502 820.166 272.85 819.368 273.274C816.844 274.337 814.046 273.951 811.497 273.222C810.501 272.931 808.922 271.935 807.892 272.004C807.54 272.047 804.665 273.883 804.604 273.78Z" fill="#00B0FF"/>
<path d="M824.698 273.685C824.183 273.274 823.384 272.896 822.929 273.377C822.777 273.585 822.666 273.821 822.603 274.072C822.157 275.273 820.844 275.865 819.651 276.328C818.458 276.791 817.17 277.048 816.449 276.165C816.222 275.821 816.11 275.413 816.13 275.001C816.15 274.589 816.301 274.195 816.561 273.874C817.089 273.238 817.725 272.701 818.44 272.287C822.388 269.502 825.078 265.272 825.925 260.517C827.032 261.396 827.765 262.662 827.976 264.06C828.26 265.424 828.294 266.831 828.577 268.195C828.998 270.151 829.933 271.978 830.148 273.96C830.259 275.015 830.148 276.079 830.148 277.134C830.186 278.166 830.307 279.193 830.508 280.205C828.5 278.078 827.084 275.581 824.698 273.685Z" fill="#F2F2F2"/>
<path d="M807.325 267.86C806.467 267.045 805.609 266.273 804.75 265.441C800.984 261.767 798.14 257.254 796.45 252.272C795.352 253.13 794.141 254.263 794.116 255.704C794.214 256.724 794.607 257.693 795.249 258.492C798.494 263.601 800.637 269.331 801.54 275.315C802.004 274.591 802.646 273.999 803.405 273.595C804.164 273.191 805.015 272.988 805.875 273.008C807.231 273.008 813.316 276.611 813.754 275.702C814.398 274.277 808.355 268.83 807.325 267.86Z" fill="#F2F2F2"/>
<path d="M826.491 261.032C834.565 269.065 844.449 275.046 855.313 278.473C856.394 278.708 857.395 279.216 858.223 279.948C858.842 280.72 859.258 281.634 859.433 282.608C861.528 290.792 862.232 299.259 862.927 307.675C863.109 309.067 863.08 310.479 862.841 311.862C862.335 314.109 860.738 315.928 859.167 317.618C854.241 322.894 848.619 328.411 847.786 335.583C847.723 336.965 847.559 338.341 847.297 339.7C846.868 341.296 845.915 342.703 845.331 344.256C842.464 351.9 848.945 361.156 844.996 368.277C847.134 372.381 848.6 376.801 849.34 381.368C849.472 383.1 849.869 384.801 850.515 386.413C851.691 388.866 854.112 390.428 856.017 392.418C861.828 398.372 862.541 407.483 862.884 415.796C863.098 420.48 863.03 425.859 859.451 428.93C857.382 430.723 854.558 431.306 851.854 431.753C848.258 432.353 844.344 432.782 841.16 431.006C838.877 429.737 837.323 427.515 835.838 425.37C833.023 421.278 830.199 417.194 827.53 412.999C823.307 406.385 819.324 398.827 820.543 391.071C820.2 399.007 818.526 407.002 814.629 413.917C810.732 420.832 804.458 426.605 796.845 428.887C789.232 431.169 780.331 429.556 774.657 423.997C772.805 422.091 771.215 419.948 769.928 417.623C766.698 412.095 764.342 406.102 762.941 399.856C762.572 398.235 762.298 396.424 763.113 394.975C763.499 394.288 764.091 393.748 764.495 393.07C765.851 390.762 764.546 387.854 763.233 385.503C761.233 385.692 759.8 383.342 759.98 381.334C760.16 379.327 761.362 377.585 762.212 375.758C764.701 370.37 764.152 364.099 762.95 358.291C761.748 352.483 759.954 346.709 760.092 340.781C760.238 334.51 755.723 328.865 752.281 323.624C750.358 320.672 748.118 317.927 746.444 314.83C742.955 308.313 742.148 300.692 744.196 293.589C745.398 289.941 746.974 286.428 748.899 283.105L751.732 277.795C752.259 276.526 753.078 275.399 754.121 274.505C755.165 273.611 756.405 272.974 757.74 272.647L777.335 264.926C779.841 264.071 782.22 262.882 784.408 261.392C786.803 259.59 788.588 257.102 790.871 255.181C791.204 254.831 791.603 254.552 792.045 254.359C792.487 254.166 792.963 254.063 793.446 254.057C795.283 254.22 795.935 256.536 796.124 258.346C796.553 262.396 799.557 265.827 800.579 269.765C806.106 291.513 817.805 311.57 821.015 333.772C824.62 325.116 828.225 316.443 832.843 308.293C833.571 307.123 834.183 305.885 834.671 304.595C835.225 302.736 835.432 300.79 835.28 298.856C835.049 293.271 833.564 287.815 832.096 282.419C830.19 275.075 828.474 268.306 826.491 261.032Z" fill="#3F3D56"/>
<path d="M863.837 327.484C864.214 331.139 864.584 334.802 865.262 338.414C866.051 342.592 867.253 346.675 868.446 350.759C869.029 353.054 869.863 355.278 870.935 357.39C871.324 358.003 871.632 358.664 871.853 359.355C872.274 361.071 871.313 362.786 870.901 364.502C869.665 369.65 873.373 375.372 871.038 380.116C870.334 381.557 869.107 382.75 868.643 384.294C868.103 386.07 868.643 387.966 868.927 389.802C869.656 394.949 867.897 400.182 866.163 405.132L863.21 413.488C860.515 408.478 857.794 403.416 854.069 399.118C852.739 397.574 851.288 396.141 850.061 394.511C848.231 391.95 846.785 389.135 845.769 386.155C843.149 379.076 841.652 371.632 841.332 364.09C841.119 361.946 841.367 359.782 842.061 357.742C842.629 356.562 843.266 355.416 843.967 354.31C846.267 350.167 846.739 345.26 846.696 340.524C846.653 335.788 846.147 331.036 846.696 326.326C847.144 322.393 848.308 318.576 850.129 315.062C851.204 312.786 852.801 310.796 854.79 309.254C856.275 308.143 858.086 307.555 859.94 307.581C862.747 307.744 862.103 310.155 862.343 312.479L863.837 327.484Z" fill="#3F3D56"/>
<path d="M737.587 315.808C735.836 320.955 734.257 326.149 732.849 331.387C731.476 336.535 730.248 341.711 729.167 346.915C728.611 349.204 728.3 351.545 728.24 353.899C728.35 356.639 728.82 359.354 729.639 361.971C735.166 381.883 745.243 400.251 756.59 417.52C759.832 413.478 763.684 409.965 768.006 407.105C768.359 406.896 768.654 406.601 768.864 406.247C768.973 405.914 769.004 405.56 768.957 405.212C768.909 404.864 768.784 404.532 768.589 404.24C765.456 397.823 760.495 392.169 758.933 385.195C758.281 382.295 758.255 379.275 757.517 376.393C756.564 372.661 754.436 369.246 753.946 365.42C753.423 361.251 754.805 356.704 752.848 353.006C756.839 351.454 759.148 347.344 760.839 343.407C762.645 339.378 763.937 335.138 764.684 330.787C765.859 322.445 764.226 313.949 760.04 306.637C757.996 302.99 755.373 299.698 752.273 296.892C751.251 295.974 748.839 293.34 747.354 293.366C745.372 293.408 744.737 296.617 744.17 298.058C741.878 303.943 739.612 309.837 737.587 315.808Z" fill="#3F3D56"/>
<path d="M773.138 411.832C773.396 412.021 773.687 412.278 773.619 412.587C773.55 412.896 773.301 412.973 773.078 413.102C771.918 413.925 771.051 415.097 770.606 416.448C769.18 419.661 767.936 422.952 766.881 426.305C764.96 423.429 762.701 420.793 760.152 418.455C758.195 416.654 756.006 414.946 754.959 412.51C754.959 412.441 759.457 409.121 759.869 408.761C761.13 407.637 762.718 404.523 764.023 403.837C765.499 403.065 766.907 406.093 768.031 407.311C769.578 408.985 771.289 410.5 773.138 411.832V411.832Z" fill="#FBBEBE"/>
<path d="M842.937 226.218C842.877 225.094 842.731 223.85 841.872 223.121C841.119 222.6 840.212 222.349 839.297 222.409C834.293 222.246 829.118 223.087 824.397 221.405C821.29 220.299 818.638 218.171 815.608 216.85C812.578 215.529 808.698 215.177 806.252 217.399C804.398 219.115 803.892 221.749 803.248 224.176C801.831 229.535 799.308 234.538 795.841 238.864C793.515 238.143 791.85 236.067 790.777 233.888C787.129 226.458 788.923 217.588 791.515 209.712C792.373 207.07 793.326 204.453 794.279 201.845L796.373 196.08C799.122 195.81 801.675 194.54 803.549 192.511L804.45 194.699C806.777 194.615 809.024 193.822 810.887 192.426C811.608 193.781 813.462 194.141 814.964 193.704C816.466 193.266 817.762 192.426 819.256 191.988C823.247 190.701 827.504 192.683 831.693 192.906C833.465 192.863 835.239 192.915 837.006 193.061C841.95 193.858 845.443 198.508 846.954 203.278C847.958 206.452 848.79 210.356 851.923 211.48C851.992 212.681 849.863 212.912 849.683 214.053C849.662 214.434 849.751 214.812 849.941 215.143L852.816 221.311C851.441 221.656 849.995 221.584 848.662 221.105C847.366 224.151 843.065 228.543 842.937 226.218Z" fill="#192534"/>
<path d="M988.645 239.644C990.102 244.348 991.249 249.143 992.078 253.997C992.696 257.634 993.057 261.675 990.971 264.712C998.919 252.761 1007.22 240.451 1019.3 232.738C1016.84 230.073 1014.97 226.921 1013.8 223.486C1012.64 220.051 1012.22 216.41 1012.56 212.801C1012.63 212.08 1002.64 215.846 1001.88 216.275C998.378 218.223 995.168 220.642 991.752 222.727C989.984 223.799 982.619 226.338 982.551 227.874C982.551 228.86 985.478 231.88 986.027 232.918C987.105 235.075 987.981 237.327 988.645 239.644Z" fill="#FBBEBE"/>
<path d="M1025.58 690.365C1023.62 688.983 1021.32 688.158 1018.92 687.977C1016.53 687.796 1014.13 688.265 1011.98 689.336C1008.09 691.343 1005.48 695.143 1001.94 697.717C995.863 702.127 987.838 702.478 980.723 704.863C978.834 705.498 976.826 706.442 976.028 708.295C975.76 709.074 975.653 709.899 975.714 710.72C975.774 711.542 976.001 712.342 976.379 713.073C977.569 715.723 979.653 717.871 982.268 719.139C985.46 720.666 989.134 720.734 992.67 720.777L1023.4 721.138C1032.84 721.249 1042.34 721.361 1051.72 722.536C1053.91 722.811 1056.28 723.111 1058.21 722.038C1061.35 720.323 1061.71 715.982 1061.47 712.404C1060.84 703.34 1058.81 694.428 1055.46 685.981C1055.1 685.046 1054.61 683.982 1053.57 683.811C1052.83 683.777 1052.11 684.009 1051.53 684.463C1042.86 689.61 1031.88 692.518 1022.66 688.4" fill="white"/>
<path d="M1040.96 494.422C1037.53 514.351 1039.77 534.829 1043.63 554.672C1044.34 558.623 1045.28 562.53 1046.44 566.373C1047.82 570.749 1049.68 574.952 1050.98 579.353C1054.27 590.506 1053.81 602.431 1053.32 614.072L1051.07 667.047C1050.88 671.491 1050.71 676.038 1052.05 680.276C1052.59 681.992 1053.25 684.137 1051.89 685.295C1051.35 685.678 1050.73 685.917 1050.07 685.99C1043.93 687.121 1037.59 686.17 1032.05 683.287L1031.44 629.772C1031.25 613.275 1031.05 596.709 1028.51 580.417C1026.5 567.463 1022.99 554.68 1022.76 541.572C1022.52 527.845 1025.89 514.299 1029.32 500.993C1030.06 498.145 1032.75 496.06 1034.97 494.13C1035.74 493.368 1036.68 492.798 1037.71 492.466C1038.74 492.183 1040.32 493.555 1040.96 494.422Z" fill="#3F3D56"/>
<path opacity="0.1" d="M1040.96 494.422C1037.53 514.351 1039.77 534.829 1043.63 554.672C1044.34 558.623 1045.28 562.53 1046.44 566.373C1047.82 570.749 1049.68 574.952 1050.98 579.353C1054.27 590.506 1053.81 602.431 1053.32 614.072L1051.07 667.047C1050.88 671.491 1050.71 676.038 1052.05 680.276C1052.59 681.992 1053.25 684.137 1051.89 685.295C1051.35 685.678 1050.73 685.917 1050.07 685.99C1043.93 687.121 1037.59 686.17 1032.05 683.287L1031.44 629.772C1031.25 613.275 1031.05 596.709 1028.51 580.417C1026.5 567.463 1022.99 554.68 1022.76 541.572C1022.52 527.845 1025.89 514.299 1029.32 500.993C1030.06 498.145 1032.75 496.06 1034.97 494.13C1035.74 493.368 1036.68 492.798 1037.71 492.466C1038.74 492.183 1040.32 493.555 1040.96 494.422Z" fill="black"/>
<path d="M976.508 432.139C975.238 437.363 977.933 442.777 977.633 448.147C977.461 451.398 976.182 454.641 976.775 457.833C977.367 461.024 979.65 463.426 980.869 466.351C981.758 468.795 982.228 471.37 982.259 473.97C982.611 480.387 982.328 486.838 982.088 493.229C981.684 503.953 981.384 514.737 982.8 525.366C984.033 534.575 986.538 543.568 990.242 552.089C991.364 554.408 992.292 556.815 993.014 559.287C993.488 561.591 993.804 563.924 993.958 566.271C994.774 573.902 996.823 581.351 1000.03 588.327C1002.22 593.105 1006.03 596.906 1007.24 601.976C1008.39 606.832 1007.62 611.953 1008.46 616.869C1009.06 620.515 1010.55 623.964 1011.37 627.567C1012.45 632.225 1012.42 637.055 1012.96 641.808C1014.51 655.534 1020.75 669.261 1017.02 682.575C1016.27 685.252 1015.12 687.971 1015.64 690.7C1015.9 692.038 1016.55 693.359 1016.26 694.689C1016.02 695.821 1015.14 696.696 1014.7 697.769C1013.84 699.776 1014.75 702.161 1016.27 703.714C1017.9 705.161 1019.8 706.28 1021.85 707.008C1028.18 709.71 1034.73 712.456 1041.59 712.396C1042.43 712.44 1043.26 712.287 1044.02 711.95C1045.26 711.306 1045.87 709.908 1046.39 708.621L1049.91 699.922C1050.34 698.867 1050.77 697.631 1050.18 696.653C1049.77 696.117 1049.27 695.653 1048.7 695.281C1045.86 692.887 1046.5 688.418 1047.26 684.823C1049.19 675.591 1050.26 666.199 1050.45 656.77C1050.83 637.965 1047.73 619.271 1044.64 600.715C1043.57 594.272 1042.49 587.786 1040.35 581.61C1038.21 575.433 1035.06 569.488 1035.58 563.071C1036.13 556.139 1034.32 548.872 1035.58 542.035C1036.83 535.198 1038.81 528.506 1040.09 521.677C1041.75 512.815 1042.16 503.781 1042.67 494.791C1042.88 491.119 1043.16 487.327 1044.87 484.067C1045.88 482.162 1047.34 480.532 1048.46 478.688C1051.36 473.892 1051.83 467.947 1054.6 463.074C1055.91 460.767 1057.72 458.733 1058.68 456.263C1059.36 454.314 1059.71 452.268 1059.73 450.206C1060 445.028 1059.72 439.837 1058.87 434.721C1044.26 427.29 1028.06 423.532 1011.67 423.774C1005.39 423.877 999.048 424.512 993.16 426.682C987.546 428.767 982.431 431.693 976.508 432.139Z" fill="#3F3D56"/>
<path d="M1011.7 703.937C1009.18 707.077 1009.35 711.564 1007.73 715.261C1005.78 719.748 1001.42 722.622 997.279 725.238L971.53 741.538C970.122 742.396 968.612 743.451 968.097 745.047C967.852 746.066 967.896 747.132 968.225 748.127C968.84 750.28 969.986 752.244 971.557 753.838C973.129 755.433 975.076 756.608 977.22 757.255C979.499 757.798 981.84 758.037 984.181 757.967L995.76 758.121C999.287 758.259 1002.82 758.122 1006.33 757.71C1009.54 757.246 1012.66 756.329 1015.85 755.745C1021.66 754.69 1027.64 754.784 1033.46 753.763C1037.02 753.063 1040.54 752.155 1044 751.044C1048.2 749.783 1052.49 748.47 1056.09 745.974C1057.08 745.37 1057.89 744.503 1058.42 743.469C1059.03 742.053 1058.69 740.432 1058.35 738.93L1052.82 714.652C1052.51 712.63 1051.77 710.697 1050.66 708.981C1049.43 707.351 1047.22 706.27 1045.31 706.965C1044.52 707.325 1043.78 707.774 1043.09 708.304C1040.26 710.165 1036.62 710.474 1033.28 709.891C1031.11 709.505 1028.26 708.913 1026.51 707.48C1025.19 706.39 1024.8 704.7 1023.67 703.465C1022.88 702.656 1021.93 702.021 1020.89 701.603C1019.84 701.184 1018.71 700.991 1017.58 701.035C1016.45 701.08 1015.34 701.361 1014.33 701.861C1013.32 702.361 1012.42 703.068 1011.7 703.937V703.937Z" fill="white"/>
<path d="M995.005 236.298C1012.13 236.298 1026.02 222.421 1026.02 205.303C1026.02 188.184 1012.13 174.307 995.005 174.307C977.878 174.307 963.994 188.184 963.994 205.303C963.994 222.421 977.878 236.298 995.005 236.298Z" fill="#FBBEBE"/>
<path d="M971.084 207.121C974.053 205.457 974.053 200.661 977.092 199.066C980.13 197.47 983.581 200.241 985.529 203.038C988.369 207.134 990.341 211.767 991.323 216.653C991.597 218.042 991.855 219.561 992.902 220.53C993.949 221.5 995.323 221.62 996.661 221.757C1000.58 222.146 1004.51 222.501 1008.44 222.821C1012.82 223.173 1017.43 223.456 1021.41 221.577C1022.98 220.876 1024.32 219.761 1025.3 218.351C1026.09 216.998 1026.65 215.526 1026.97 213.993C1029.02 206.195 1031.09 198.302 1031.26 190.238C1031.33 186.909 1031.04 183.461 1029.43 180.544C1028.5 178.828 1027.12 177.335 1026.74 175.448C1026.35 173.561 1027.6 171.158 1029.55 171.364C1027.78 171.437 1026.02 171.102 1024.4 170.386C1022.85 169.528 1021.7 167.684 1022.25 166.003C1017.89 166.56 1014.71 162.254 1011.31 159.465C1010.76 158.918 1010.01 158.61 1009.24 158.607C1008.64 158.756 1008.06 158.978 1007.52 159.268C1005.8 159.869 1004.01 158.728 1002.25 158.23C997.528 156.909 991.529 160.1 988.027 156.669C988.362 158.856 985.675 160.323 983.461 160.28C981.246 160.237 978.963 159.422 976.869 160.16C977.172 160.715 977.349 161.329 977.387 161.96C977.425 162.591 977.323 163.223 977.089 163.809C976.854 164.396 976.493 164.924 976.03 165.355C975.568 165.786 975.016 166.11 974.414 166.303L975.452 168.568C974.382 168.781 973.393 169.29 972.597 170.036C971.801 170.782 971.229 171.735 970.946 172.788C969.805 177.292 970.088 183.692 970.363 188.325C970.5 190.358 972.483 206.358 971.084 207.121Z" fill="#192534"/>
<path d="M997.546 245.255C981.967 262.764 978.002 287.412 974.68 310.618L969.788 344.882C968.517 353.77 967.213 362.658 966.106 371.571C965.333 377.671 964.612 383.865 965.453 389.956C966.114 394.76 967.719 399.393 969.058 404.017C972.542 416.145 974.276 428.708 974.208 441.327C975.247 438.273 978.843 437.037 982.002 436.351C1008.5 430.603 1036.16 433.555 1060.85 444.767C1065.18 432.628 1064.37 419.347 1065.58 406.513C1067.29 388.214 1073.21 370.482 1074.96 352.217C1075.6 345.414 1075.68 338.577 1075.75 331.739C1075.8 326.721 1075.85 321.65 1074.8 316.735C1073.64 311.296 1071.17 306.225 1068.62 301.293C1061.58 287.58 1053.75 274.284 1045.17 261.469C1040.86 255.018 1036.36 248.695 1031.67 242.501C1029.3 239.361 1026.87 236.256 1024.4 233.184C1022.01 230.207 1020.97 227.625 1017.17 229.41C1009.98 232.772 1002.77 239.378 997.546 245.255Z" fill="#00B0FF"/>
<path d="M1006.47 390.994C1002.67 391.131 998.866 391.011 995.082 390.634C992.275 390.359 989.409 389.947 986.671 390.634C985.48 390.933 984.366 391.48 983.4 392.238C983.043 392.556 982.785 392.972 982.66 393.434C982.535 393.896 982.548 394.385 982.696 394.84C982.845 395.295 983.123 395.697 983.496 395.997C983.87 396.297 984.323 396.481 984.799 396.527L987.735 396.785C989.597 396.948 991.537 397.137 992.988 398.501C993.583 399.037 993.962 399.772 994.052 400.568C994.232 402.567 992.499 403.657 990.945 404.489C988.736 405.525 986.694 406.884 984.885 408.521C983.469 409.889 982.579 411.711 982.37 413.668C982.364 413.843 982.403 414.016 982.485 414.17C982.566 414.325 982.687 414.455 982.835 414.548C982.983 414.641 983.153 414.693 983.327 414.7C983.502 414.707 983.675 414.668 983.829 414.586C987.263 412.87 989.503 407.783 993.271 408.632C989.844 409.717 986.908 411.974 984.98 415.006C984.504 415.731 984.287 416.594 984.364 417.457C984.441 418.32 984.807 419.131 985.403 419.76C985.999 420.389 986.791 420.798 987.648 420.921C988.506 421.043 989.381 420.873 990.13 420.437C990.687 420.11 991.226 419.752 991.743 419.365C994.296 417.299 996.582 414.924 998.55 412.296C995.803 418.086 993.022 424.864 996.181 430.62C996.338 430.937 996.584 431.201 996.889 431.381C997.194 431.56 997.544 431.648 997.897 431.632C998.893 431.53 999.185 430.594 999.348 429.771C999.863 427.12 999.992 424.323 1001.3 421.964C1004.32 416.491 1011.77 415.959 1017.44 413.291C1024.25 410.134 1028.91 403.339 1030.79 396.081C1031.45 393.965 1031.56 391.717 1031.12 389.544C1029.86 384.663 1023.84 383.539 1019.96 385.898C1015.22 388.909 1012.46 390.805 1006.47 390.994Z" fill="#FBBEBE"/>
<path opacity="0.1" d="M1000.45 294.97C1006.45 304.244 1016.88 309.468 1025.83 315.98C1028.01 317.4 1029.91 319.209 1031.44 321.316C1033.7 324.799 1034.02 329.226 1033.55 333.326C1032.97 338.74 1031.23 343.947 1029.5 349.112L1025.75 360.307C1023.37 367.41 1020.92 374.66 1016.39 380.631C1015.24 382.149 1013.89 383.77 1013.94 385.675C1014.04 386.775 1014.42 387.832 1015.04 388.746C1016.49 391.107 1018.39 393.153 1020.65 394.763C1022.9 396.372 1025.46 397.512 1028.16 398.114C1029.78 398.526 1031.48 398.526 1033.1 398.114C1035.41 397.428 1037.16 395.541 1038.77 393.756C1046.5 385.238 1054.22 376.599 1059.8 366.604C1065.25 356.85 1068.51 346.015 1071.52 335.282C1072.75 331.331 1073.61 327.273 1074.09 323.16C1074.73 315.439 1072.7 307.718 1069.39 300.743C1066.07 293.769 1061.52 287.455 1056.82 281.321C1052.39 275.296 1047.47 269.649 1042.1 264.437C1032.76 255.713 1021.34 250.582 1008.84 255.532C1000.02 259.033 996.713 266.333 995.923 275.684C995.255 282.436 996.845 289.219 1000.45 294.97V294.97Z" fill="black"/>
<path d="M1003.57 292.619C1009.58 301.893 1020.02 307.118 1028.95 313.629C1031.13 315.063 1033.02 316.883 1034.54 318.999C1036.8 322.483 1037.11 326.901 1036.65 331.01C1036.06 336.423 1034.32 341.631 1032.59 346.795L1028.84 357.948C1026.46 365.051 1024.01 372.292 1019.48 378.271C1018.33 379.79 1016.99 381.403 1017.04 383.316C1017.13 384.415 1017.51 385.47 1018.14 386.379C1019.58 388.74 1021.49 390.788 1023.74 392.399C1025.99 394.009 1028.55 395.151 1031.25 395.755C1032.87 396.167 1034.57 396.167 1036.2 395.755C1038.51 395.078 1040.25 393.182 1041.87 391.406C1049.59 382.878 1057.32 374.248 1062.9 364.253C1068.35 354.499 1071.61 343.664 1074.61 332.923C1075.85 328.976 1076.72 324.92 1077.19 320.81C1077.82 313.089 1075.8 305.368 1072.49 298.384C1069.19 291.401 1064.62 285.095 1059.93 278.962C1055.48 272.968 1050.55 267.352 1045.17 262.173C1035.84 253.456 1024.42 248.318 1011.92 253.276C1003.09 256.776 999.794 264.068 998.996 273.428C998.366 280.154 999.974 286.9 1003.57 292.619V292.619Z" fill="#00B0FF"/>
<path d="M1193.36 600.337C1193.37 602.575 1193.14 604.806 1192.68 606.995C1192.59 607.407 1192.5 607.853 1192.4 608.204C1189.96 617.976 1183.09 625.122 1174.88 625.577C1174.61 625.577 1174.33 625.577 1174.02 625.577C1165.35 625.577 1158.01 618.096 1155.59 607.793C1155.52 607.518 1155.46 607.244 1155.4 606.935C1154.94 604.746 1154.71 602.514 1154.71 600.277C1154.71 586.319 1163.36 575.012 1174.02 575.012C1184.69 575.012 1193.36 586.405 1193.36 600.337Z" fill="#3F3D56"/>
<path opacity="0.1" d="M1193.36 600.337C1193.37 602.575 1193.14 604.806 1192.68 606.995C1192.59 607.407 1192.5 607.853 1192.4 608.204C1192.11 608.204 1191.83 608.204 1191.54 608.204C1189.42 608.09 1187.3 607.803 1185.23 607.346C1183.38 607.915 1181.5 608.346 1179.6 608.633C1178.13 608.853 1176.66 608.991 1175.18 609.045H1173.69C1171.92 609.045 1170.16 608.928 1168.4 608.693C1165.57 608.315 1162.78 607.625 1160.1 606.634C1158.63 607.123 1157.14 607.524 1155.62 607.835C1155.55 607.561 1155.49 607.286 1155.43 606.978C1154.97 604.789 1154.74 602.557 1154.75 600.32C1154.75 586.362 1163.39 575.055 1174.06 575.055C1184.73 575.055 1193.36 586.405 1193.36 600.337Z" fill="black"/>
<path d="M1234.56 553.273C1234.57 547.131 1233.13 541.074 1230.36 535.592L1207.64 542.653L1227.58 530.934C1224.24 526.106 1219.85 522.091 1214.75 519.184C1209.64 516.277 1203.95 514.552 1198.09 514.136C1197.16 512.722 1196.14 511.369 1195.03 510.087L1162.41 520.236L1189.17 504.511C1184.05 500.585 1178.04 497.98 1171.68 496.928C1165.31 495.875 1158.78 496.407 1152.67 498.475C1146.56 500.544 1141.06 504.086 1136.64 508.789C1132.23 513.491 1129.04 519.208 1127.37 525.435L1155.3 557.58L1125 535.669C1117.32 541.112 1111.85 549.13 1109.6 558.263C1107.34 567.396 1108.44 577.036 1112.7 585.426C1116.95 593.816 1124.09 600.398 1132.79 603.973C1141.5 607.548 1151.2 607.877 1160.13 604.901C1168.2 607.869 1177.03 608.113 1185.26 605.596C1191 606.858 1196.94 606.819 1202.66 605.481C1208.38 604.142 1213.73 601.54 1218.31 597.864C1222.89 594.188 1226.58 589.533 1229.13 584.241C1231.67 578.948 1232.99 573.154 1233 567.283C1233 566.425 1233 565.567 1232.91 564.709C1234.03 561 1234.58 557.146 1234.56 553.273V553.273Z" fill="#00B0FF"/>
<path opacity="0.1" d="M1233.88 560.548C1221.89 558.276 1209.59 558.119 1197.54 560.085C1183.9 562.341 1169.96 567.3 1156.63 563.68C1148.8 561.552 1142.03 556.628 1134.39 553.891C1127.01 551.318 1119.06 550.843 1111.43 552.518C1108.52 559.473 1107.67 567.118 1109 574.54C1110.32 581.961 1113.75 588.845 1118.88 594.369C1124.01 599.893 1130.63 603.824 1137.93 605.692C1145.24 607.56 1152.93 607.285 1160.09 604.902C1168.16 607.869 1176.99 608.113 1185.22 605.596C1190.95 606.858 1196.9 606.819 1202.62 605.481C1208.34 604.142 1213.68 601.54 1218.26 597.864C1222.84 594.188 1226.54 589.533 1229.08 584.241C1231.63 578.948 1232.95 573.154 1232.96 567.283C1232.96 566.425 1232.96 565.567 1232.87 564.709C1233.28 563.342 1233.62 561.953 1233.88 560.548Z" fill="black"/>
<path d="M86.4307 262.377H75.3105L71.1621 286H60.6182L64.7666 262.377H51.6875V252.467H66.4951L69.376 236.104H56.0088V226.078H71.1621L75.3682 202.109H85.8545L81.6484 226.078H92.8262L97.0322 202.109H107.576L103.37 226.078H115.988V236.104H101.584L98.7031 252.467H111.609V262.377H96.9746L92.8262 286H82.2822L86.4307 262.377ZM77.0391 252.467H88.1592L91.04 236.104H79.8623L77.0391 252.467ZM143.068 256.442V286H125.783V202.109H158.51C164.809 202.109 170.34 203.262 175.104 205.566C179.905 207.871 183.592 211.155 186.166 215.419C188.74 219.644 190.026 224.465 190.026 229.881C190.026 238.101 187.203 244.592 181.557 249.355C175.949 254.08 168.17 256.442 158.222 256.442H143.068ZM143.068 242.441H158.51C163.081 242.441 166.557 241.366 168.938 239.215C171.358 237.064 172.568 233.991 172.568 229.996C172.568 225.886 171.358 222.563 168.938 220.028C166.519 217.493 163.177 216.187 158.913 216.11H143.068V242.441ZM239.059 268.715H208.752L202.99 286H184.61L215.839 202.109H231.856L263.258 286H244.878L239.059 268.715ZM213.419 254.714H234.392L223.848 223.312L213.419 254.714ZM325.83 216.11H288.379V232.358H301.861C311.733 232.358 319.55 234.759 325.312 239.561C331.112 244.324 334.012 250.757 334.012 258.862C334.012 267.006 331.131 273.555 325.369 278.51C319.646 283.426 312.021 285.923 302.495 286H270.921V202.109H325.83V216.11ZM288.379 246.302V272.114H302.149C306.567 272.114 310.081 270.904 312.693 268.484C315.344 266.064 316.669 262.819 316.669 258.747C316.669 254.944 315.401 251.948 312.866 249.759C310.369 247.531 306.932 246.379 302.553 246.302H288.379ZM413.984 245.956C413.984 254.215 412.525 261.455 409.605 267.678C406.686 273.9 402.499 278.702 397.045 282.082C391.629 285.462 385.406 287.152 378.377 287.152C371.424 287.152 365.221 285.481 359.767 282.14C354.312 278.798 350.087 274.035 347.091 267.851C344.095 261.628 342.577 254.483 342.539 246.417V242.269C342.539 234.01 344.018 226.75 346.976 220.489C349.972 214.19 354.178 209.369 359.594 206.027C365.048 202.647 371.271 200.957 378.262 200.957C385.253 200.957 391.456 202.647 396.872 206.027C402.326 209.369 406.533 214.19 409.49 220.489C412.486 226.75 413.984 233.991 413.984 242.211V245.956ZM396.469 242.153C396.469 233.357 394.894 226.674 391.744 222.103C388.594 217.532 384.1 215.246 378.262 215.246C372.462 215.246 367.987 217.512 364.837 222.045C361.687 226.539 360.093 233.146 360.055 241.865V245.956C360.055 254.522 361.63 261.167 364.779 265.892C367.929 270.616 372.462 272.979 378.377 272.979C384.177 272.979 388.633 270.712 391.744 266.18C394.855 261.609 396.43 254.964 396.469 246.244V242.153ZM484.738 216.11H459.041V286H441.756V216.11H416.404V202.109H484.738V216.11ZM535.096 268.715H504.789L499.027 286H480.647L511.876 202.109H527.894L559.295 286H540.915L535.096 268.715ZM509.456 254.714H530.429L519.885 223.312L509.456 254.714ZM82.8584 389.718H72.8906V424H55.6055V340.109H72.8906V373.7H80.7842L101.296 340.109H122.384L96.5137 379.808L125.092 424H104.465L82.8584 389.718ZM159.144 389.718H149.176V424H131.891V340.109H149.176V373.7H157.069L177.581 340.109H198.669L172.799 379.808L201.377 424H180.75L159.144 389.718ZM225.346 394.442V424H208.061V340.109H240.787C247.087 340.109 252.618 341.262 257.381 343.566C262.182 345.871 265.87 349.155 268.443 353.419C271.017 357.644 272.304 362.465 272.304 367.881C272.304 376.101 269.48 382.592 263.834 387.355C258.226 392.08 250.448 394.442 240.499 394.442H225.346ZM225.346 380.441H240.787C245.358 380.441 248.834 379.366 251.216 377.215C253.636 375.064 254.846 371.991 254.846 367.996C254.846 363.886 253.636 360.563 251.216 358.028C248.796 355.493 245.454 354.187 241.19 354.11H225.346V380.441ZM334.53 340.109H351.873V424H334.53V368.284L300.939 424H283.654V340.109H300.939V395.94L334.53 340.109ZM428.273 354.11H402.576V424H385.291V354.11H359.939V340.109H428.273V354.11ZM79.5312 472.438H68.6875V499H59.625V472.438H48.9688V465.188H79.5312V472.438ZM84.6875 499V465.188H98.8125C103.417 465.188 106.948 466 109.406 467.625C111.865 469.25 113.094 471.583 113.094 474.625C113.094 476.188 112.573 477.594 111.531 478.844C110.51 480.073 109.01 481.021 107.031 481.688C109.448 482.146 111.344 483.052 112.719 484.406C114.115 485.74 114.812 487.385 114.812 489.344C114.812 492.49 113.625 494.885 111.25 496.531C108.896 498.177 105.469 499 100.969 499H84.6875ZM93.7188 484.969V491.781H101C104.188 491.781 105.781 490.667 105.781 488.438C105.781 486.167 104.26 485.01 101.219 484.969H93.7188ZM93.7188 478.906H99.3125C102.479 478.865 104.062 477.844 104.062 475.844C104.062 474.615 103.625 473.74 102.75 473.219C101.896 472.698 100.583 472.438 98.8125 472.438H93.7188V478.906ZM118.938 481.781C118.938 478.427 119.583 475.438 120.875 472.812C122.167 470.188 124.021 468.156 126.438 466.719C128.875 465.281 131.698 464.562 134.906 464.562C139.469 464.562 143.188 465.958 146.062 468.75C148.958 471.542 150.573 475.333 150.906 480.125L150.969 482.438C150.969 487.625 149.521 491.792 146.625 494.938C143.729 498.062 139.844 499.625 134.969 499.625C130.094 499.625 126.198 498.062 123.281 494.938C120.385 491.812 118.938 487.562 118.938 482.188V481.781ZM127.969 482.438C127.969 485.646 128.573 488.104 129.781 489.812C130.99 491.5 132.719 492.344 134.969 492.344C137.156 492.344 138.865 491.51 140.094 489.844C141.323 488.156 141.938 485.469 141.938 481.781C141.938 478.635 141.323 476.198 140.094 474.469C138.865 472.74 137.135 471.875 134.906 471.875C132.698 471.875 130.99 472.74 129.781 474.469C128.573 476.177 127.969 478.833 127.969 482.438ZM176.906 465.188H185.938V499H176.906V478.125L165.594 499H156.531V465.188H165.594V486.031L176.906 465.188ZM182.219 451.469C182.219 454.24 181.219 456.479 179.219 458.188C177.24 459.896 174.635 460.75 171.406 460.75C168.177 460.75 165.562 459.906 163.562 458.219C161.583 456.531 160.594 454.281 160.594 451.469H167C167 452.781 167.385 453.802 168.156 454.531C168.948 455.24 170.031 455.594 171.406 455.594C172.76 455.594 173.823 455.24 174.594 454.531C175.365 453.802 175.75 452.781 175.75 451.469H182.219ZM238.188 499H229.125V472.5H217.812V499H208.781V465.188H238.188V499ZM257.719 486.219L263.969 465.188H273.656L260.062 504.25L259.312 506.031C257.292 510.448 253.958 512.656 249.312 512.656C248 512.656 246.667 512.458 245.312 512.062V505.219L246.688 505.25C248.396 505.25 249.667 504.99 250.5 504.469C251.354 503.948 252.021 503.083 252.5 501.875L253.562 499.094L241.719 465.188H251.438L257.719 486.219ZM305.281 472.438H294.438V499H285.375V472.438H274.719V465.188H305.281V472.438ZM319.5 475.094H325.969C328.885 475.094 331.448 475.583 333.656 476.562C335.865 477.542 337.552 478.948 338.719 480.781C339.906 482.594 340.5 484.708 340.5 487.125C340.5 490.688 339.177 493.562 336.531 495.75C333.906 497.917 330.323 499 325.781 499H310.438V465.188H319.5V475.094ZM319.5 482.344V491.781H325.906C327.698 491.781 329.073 491.365 330.031 490.531C330.99 489.698 331.469 488.562 331.469 487.125C331.469 485.667 331 484.51 330.062 483.656C329.125 482.781 327.74 482.344 325.906 482.344H319.5ZM374.781 486.531H371.156V499H362.125V465.188H371.156V477.906H374.375L381.75 465.188H393.156L382.094 481.281L394.188 499H382.156L374.781 486.531ZM426.156 486.219L432.406 465.188H442.094L428.5 504.25L427.75 506.031C425.729 510.448 422.396 512.656 417.75 512.656C416.438 512.656 415.104 512.458 413.75 512.062V505.219L415.125 505.25C416.833 505.25 418.104 504.99 418.938 504.469C419.792 503.948 420.458 503.083 420.938 501.875L422 499.094L410.156 465.188H419.875L426.156 486.219ZM459.281 492.344C460.948 492.344 462.302 491.885 463.344 490.969C464.385 490.052 464.927 488.833 464.969 487.312H473.438C473.417 489.604 472.792 491.708 471.562 493.625C470.333 495.521 468.646 497 466.5 498.062C464.375 499.104 462.021 499.625 459.438 499.625C454.604 499.625 450.792 498.094 448 495.031C445.208 491.948 443.812 487.698 443.812 482.281V481.688C443.812 476.479 445.198 472.323 447.969 469.219C450.74 466.115 454.542 464.562 459.375 464.562C463.604 464.562 466.99 465.771 469.531 468.188C472.094 470.583 473.396 473.781 473.438 477.781H464.969C464.927 476.031 464.385 474.615 463.344 473.531C462.302 472.427 460.927 471.875 459.219 471.875C457.115 471.875 455.521 472.646 454.438 474.188C453.375 475.708 452.844 478.188 452.844 481.625V482.562C452.844 486.042 453.375 488.542 454.438 490.062C455.5 491.583 457.115 492.344 459.281 492.344ZM508 499H498.938V472.5H487.625V499H478.594V465.188H508V499ZM530.469 499.625C525.51 499.625 521.469 498.104 518.344 495.062C515.24 492.021 513.688 487.969 513.688 482.906V482.031C513.688 478.635 514.344 475.604 515.656 472.938C516.969 470.25 518.823 468.188 521.219 466.75C523.635 465.292 526.385 464.562 529.469 464.562C534.094 464.562 537.729 466.021 540.375 468.938C543.042 471.854 544.375 475.99 544.375 481.344V485.031H522.844C523.135 487.24 524.01 489.01 525.469 490.344C526.948 491.677 528.812 492.344 531.062 492.344C534.542 492.344 537.26 491.083 539.219 488.562L543.656 493.531C542.302 495.448 540.469 496.948 538.156 498.031C535.844 499.094 533.281 499.625 530.469 499.625ZM529.438 471.875C527.646 471.875 526.188 472.479 525.062 473.688C523.958 474.896 523.25 476.625 522.938 478.875H535.5V478.156C535.458 476.156 534.917 474.615 533.875 473.531C532.833 472.427 531.354 471.875 529.438 471.875ZM562.406 475.281L568.094 465.188H577.75L568.125 481.75L578.156 499H568.469L562.438 488.375L556.438 499H546.719L556.75 481.75L547.156 465.188H556.844L562.406 475.281ZM594.719 486.219L600.969 465.188H610.656L597.062 504.25L596.312 506.031C594.292 510.448 590.958 512.656 586.312 512.656C585 512.656 583.667 512.458 582.312 512.062V505.219L583.688 505.25C585.396 505.25 586.667 504.99 587.5 504.469C588.354 503.948 589.021 503.083 589.5 501.875L590.562 499.094L578.719 465.188H588.438L594.719 486.219ZM80.7812 574H71.7188V561H60.5V574H51.4688V540.188H60.5V553.75H71.7188V540.188H80.7812V574ZM107.375 574C106.958 573.188 106.656 572.177 106.469 570.969C104.281 573.406 101.438 574.625 97.9375 574.625C94.625 574.625 91.875 573.667 89.6875 571.75C87.5208 569.833 86.4375 567.417 86.4375 564.5C86.4375 560.917 87.7604 558.167 90.4062 556.25C93.0729 554.333 96.9167 553.365 101.938 553.344H106.094V551.406C106.094 549.844 105.688 548.594 104.875 547.656C104.083 546.719 102.823 546.25 101.094 546.25C99.5729 546.25 98.375 546.615 97.5 547.344C96.6458 548.073 96.2188 549.073 96.2188 550.344H87.1875C87.1875 548.385 87.7917 546.573 89 544.906C90.2083 543.24 91.9167 541.938 94.125 541C96.3333 540.042 98.8125 539.562 101.562 539.562C105.729 539.562 109.031 540.615 111.469 542.719C113.927 544.802 115.156 547.74 115.156 551.531V566.188C115.177 569.396 115.625 571.823 116.5 573.469V574H107.375ZM99.9062 567.719C101.24 567.719 102.469 567.427 103.594 566.844C104.719 566.24 105.552 565.438 106.094 564.438V558.625H102.719C98.1979 558.625 95.7917 560.188 95.5 563.312L95.4688 563.844C95.4688 564.969 95.8646 565.896 96.6562 566.625C97.4479 567.354 98.5312 567.719 99.9062 567.719ZM150.594 574H141.562V563.375C139.875 563.688 138.302 563.844 136.844 563.844C131.74 563.844 127.896 562.76 125.312 560.594C122.729 558.427 121.417 555.26 121.375 551.094V540.188H130.406V551.094C130.427 553.052 130.906 554.458 131.844 555.312C132.781 556.146 134.448 556.562 136.844 556.562C138.344 556.562 139.917 556.385 141.562 556.031V540.188H150.594V574ZM177.906 540.188H186.938V574H177.906V553.125L166.594 574H157.531V540.188H166.594V561.031L177.906 540.188ZM223.156 574H214.094V561H202.875V574H193.844V540.188H202.875V553.75H214.094V540.188H223.156V574ZM249.75 574C249.333 573.188 249.031 572.177 248.844 570.969C246.656 573.406 243.812 574.625 240.312 574.625C237 574.625 234.25 573.667 232.062 571.75C229.896 569.833 228.812 567.417 228.812 564.5C228.812 560.917 230.135 558.167 232.781 556.25C235.448 554.333 239.292 553.365 244.312 553.344H248.469V551.406C248.469 549.844 248.062 548.594 247.25 547.656C246.458 546.719 245.198 546.25 243.469 546.25C241.948 546.25 240.75 546.615 239.875 547.344C239.021 548.073 238.594 549.073 238.594 550.344H229.562C229.562 548.385 230.167 546.573 231.375 544.906C232.583 543.24 234.292 541.938 236.5 541C238.708 540.042 241.188 539.562 243.938 539.562C248.104 539.562 251.406 540.615 253.844 542.719C256.302 544.802 257.531 547.74 257.531 551.531V566.188C257.552 569.396 258 571.823 258.875 573.469V574H249.75ZM242.281 567.719C243.615 567.719 244.844 567.427 245.969 566.844C247.094 566.24 247.927 565.438 248.469 564.438V558.625H245.094C240.573 558.625 238.167 560.188 237.875 563.312L237.844 563.844C237.844 564.969 238.24 565.896 239.031 566.625C239.823 567.354 240.906 567.719 242.281 567.719ZM280.031 574.625C275.073 574.625 271.031 573.104 267.906 570.062C264.802 567.021 263.25 562.969 263.25 557.906V557.031C263.25 553.635 263.906 550.604 265.219 547.938C266.531 545.25 268.385 543.188 270.781 541.75C273.198 540.292 275.948 539.562 279.031 539.562C283.656 539.562 287.292 541.021 289.938 543.938C292.604 546.854 293.938 550.99 293.938 556.344V560.031H272.406C272.698 562.24 273.573 564.01 275.031 565.344C276.51 566.677 278.375 567.344 280.625 567.344C284.104 567.344 286.823 566.083 288.781 563.562L293.219 568.531C291.865 570.448 290.031 571.948 287.719 573.031C285.406 574.094 282.844 574.625 280.031 574.625ZM279 546.875C277.208 546.875 275.75 547.479 274.625 548.688C273.521 549.896 272.812 551.625 272.5 553.875H285.062V553.156C285.021 551.156 284.479 549.615 283.438 548.531C282.396 547.427 280.917 546.875 279 546.875ZM326.781 547.438H315.938V574H306.875V547.438H296.219V540.188H326.781V547.438ZM343.406 567.344C345.073 567.344 346.427 566.885 347.469 565.969C348.51 565.052 349.052 563.833 349.094 562.312H357.562C357.542 564.604 356.917 566.708 355.688 568.625C354.458 570.521 352.771 572 350.625 573.062C348.5 574.104 346.146 574.625 343.562 574.625C338.729 574.625 334.917 573.094 332.125 570.031C329.333 566.948 327.938 562.698 327.938 557.281V556.688C327.938 551.479 329.323 547.323 332.094 544.219C334.865 541.115 338.667 539.562 343.5 539.562C347.729 539.562 351.115 540.771 353.656 543.188C356.219 545.583 357.521 548.781 357.562 552.781H349.094C349.052 551.031 348.51 549.615 347.469 548.531C346.427 547.427 345.052 546.875 343.344 546.875C341.24 546.875 339.646 547.646 338.562 549.188C337.5 550.708 336.969 553.188 336.969 556.625V557.562C336.969 561.042 337.5 563.542 338.562 565.062C339.625 566.583 341.24 567.344 343.406 567.344ZM390.906 540.188V574H381.906V562.312H376.188L369.688 574H360.531L367.906 560.781C365.885 559.844 364.323 558.573 363.219 556.969C362.135 555.365 361.594 553.542 361.594 551.5C361.594 548.229 362.854 545.552 365.375 543.469C367.917 541.365 371.312 540.271 375.562 540.188H390.906ZM375.719 556H381.906V547.438H376.031C374.427 547.438 373.125 547.865 372.125 548.719C371.125 549.552 370.625 550.573 370.625 551.781C370.625 552.99 371.104 553.99 372.062 554.781C373.021 555.573 374.24 555.979 375.719 556ZM432.219 550.156C432.219 548.969 431.823 548.052 431.031 547.406C430.26 546.74 429.156 546.406 427.719 546.406C426.24 546.406 425.031 546.719 424.094 547.344C423.177 547.948 422.719 548.812 422.719 549.938H413.688C413.688 546.875 414.958 544.385 417.5 542.469C420.042 540.552 423.292 539.594 427.25 539.594C431.604 539.594 435.021 540.448 437.5 542.156C440 543.865 441.25 546.292 441.25 549.438C441.25 550.938 440.792 552.323 439.875 553.594C438.979 554.844 437.708 555.844 436.062 556.594C439.917 557.948 441.844 560.562 441.844 564.438C441.844 567.542 440.51 570.021 437.844 571.875C435.198 573.708 431.667 574.625 427.25 574.625C423.146 574.625 419.771 573.667 417.125 571.75C414.479 569.833 413.156 567.25 413.156 564H422.188C422.188 565.146 422.698 566.073 423.719 566.781C424.74 567.49 426.073 567.844 427.719 567.844C429.323 567.844 430.573 567.469 431.469 566.719C432.365 565.969 432.812 564.99 432.812 563.781C432.812 562.302 432.385 561.25 431.531 560.625C430.677 559.979 429.396 559.656 427.688 559.656H422.781V553.781H428C430.812 553.698 432.219 552.49 432.219 550.156ZM447.812 566.719C449.854 564.552 451.24 562.406 451.969 560.281C452.698 558.156 453.104 555.146 453.188 551.25L453.438 540.188H478.312V566.719H483.188V584.156H474.156V574H454.125V584.156H444.906V566.719H447.812ZM458.469 566.719H469.312V547.656H462.281L462.219 551.719C462.031 557.927 460.781 562.927 458.469 566.719ZM503.344 574.625C498.385 574.625 494.344 573.104 491.219 570.062C488.115 567.021 486.562 562.969 486.562 557.906V557.031C486.562 553.635 487.219 550.604 488.531 547.938C489.844 545.25 491.698 543.188 494.094 541.75C496.51 540.292 499.26 539.562 502.344 539.562C506.969 539.562 510.604 541.021 513.25 543.938C515.917 546.854 517.25 550.99 517.25 556.344V560.031H495.719C496.01 562.24 496.885 564.01 498.344 565.344C499.823 566.677 501.688 567.344 503.938 567.344C507.417 567.344 510.135 566.083 512.094 563.562L516.531 568.531C515.177 570.448 513.344 571.948 511.031 573.031C508.719 574.094 506.156 574.625 503.344 574.625ZM502.312 546.875C500.521 546.875 499.062 547.479 497.938 548.688C496.833 549.896 496.125 551.625 495.812 553.875H508.375V553.156C508.333 551.156 507.792 549.615 506.75 548.531C505.708 547.427 504.229 546.875 502.312 546.875ZM536.469 567.344C538.135 567.344 539.49 566.885 540.531 565.969C541.573 565.052 542.115 563.833 542.156 562.312H550.625C550.604 564.604 549.979 566.708 548.75 568.625C547.521 570.521 545.833 572 543.688 573.062C541.562 574.104 539.208 574.625 536.625 574.625C531.792 574.625 527.979 573.094 525.188 570.031C522.396 566.948 521 562.698 521 557.281V556.688C521 551.479 522.385 547.323 525.156 544.219C527.927 541.115 531.729 539.562 536.562 539.562C540.792 539.562 544.177 540.771 546.719 543.188C549.281 545.583 550.583 548.781 550.625 552.781H542.156C542.115 551.031 541.573 549.615 540.531 548.531C539.49 547.427 538.115 546.875 536.406 546.875C534.302 546.875 532.708 547.646 531.625 549.188C530.562 550.708 530.031 553.188 530.031 556.625V557.562C530.031 561.042 530.562 563.542 531.625 565.062C532.688 566.583 534.302 567.344 536.469 567.344ZM565.438 550.094H571.906C574.823 550.094 577.385 550.583 579.594 551.562C581.802 552.542 583.49 553.948 584.656 555.781C585.844 557.594 586.438 559.708 586.438 562.125C586.438 565.688 585.115 568.562 582.469 570.75C579.844 572.917 576.26 574 571.719 574H556.375V540.188H565.438V550.094ZM565.438 557.344V566.781H571.844C573.635 566.781 575.01 566.365 575.969 565.531C576.927 564.698 577.406 563.562 577.406 562.125C577.406 560.667 576.938 559.51 576 558.656C575.062 557.781 573.677 557.344 571.844 557.344H565.438Z" fill="black"/>
</svg>
