<svg width="1440" height="820" viewBox="0 0 1440 820" fill="none" xmlns="http://www.w3.org/2000/svg">
<rect width="1440" height="820" fill="white"/>
<g clip-path="url(#clip0)">
<path d="M554 788.571H696.516" stroke="#3F3D56" stroke-miterlimit="10"/>
<path d="M1378.7 261.711H779.275C770.078 261.711 762.622 269.169 762.622 278.369V673.582C762.622 682.783 770.078 690.241 779.275 690.241H1378.7C1387.9 690.241 1395.36 682.783 1395.36 673.582V278.369C1395.36 269.169 1387.9 261.711 1378.7 261.711Z" fill="#F2F2F2"/>
<path d="M1359.39 234.66H759.959C750.761 234.66 743.305 242.118 743.305 251.318V646.531C743.305 655.731 750.761 663.189 759.959 663.189H1359.39C1368.58 663.189 1376.04 655.731 1376.04 646.531V251.318C1376.04 242.118 1368.58 234.66 1359.39 234.66Z" stroke="#3F3D56" stroke-miterlimit="10"/>
<path d="M743.305 275.744H1376.04" stroke="#3F3D56" stroke-miterlimit="10"/>
<path opacity="0.3" d="M1287.96 372.064H1127.58C1124.21 372.064 1121.49 374.791 1121.49 378.155V392.595C1121.49 395.959 1124.21 398.686 1127.58 398.686H1287.96C1291.32 398.686 1294.05 395.959 1294.05 392.595V378.155C1294.05 374.791 1291.32 372.064 1287.96 372.064Z" fill="#00B0FF"/>
<path opacity="0.3" d="M1321.01 445.919H1094.52C1091.16 445.919 1088.43 448.646 1088.43 452.01V461.297C1088.43 464.661 1091.16 467.388 1094.52 467.388H1321.01C1324.38 467.388 1327.1 464.661 1327.1 461.297V452.01C1327.1 448.646 1324.38 445.919 1321.01 445.919Z" fill="#00B0FF"/>
<path opacity="0.3" d="M1321.01 504.316H1094.52C1091.16 504.316 1088.43 507.043 1088.43 510.406V519.694C1088.43 523.058 1091.16 525.785 1094.52 525.785H1321.01C1324.38 525.785 1327.1 523.058 1327.1 519.694V510.406C1327.1 507.043 1324.38 504.316 1321.01 504.316Z" fill="#00B0FF"/>
<path opacity="0.3" d="M1321.01 562.712H1094.52C1091.16 562.712 1088.43 565.439 1088.43 568.803V578.091C1088.43 581.455 1091.16 584.182 1094.52 584.182H1321.01C1324.38 584.182 1327.1 581.455 1327.1 578.091V568.803C1327.1 565.439 1324.38 562.712 1321.01 562.712Z" fill="#00B0FF"/>
<path d="M1296.55 363.476H1136.16C1132.8 363.476 1130.07 366.203 1130.07 369.567V384.007C1130.07 387.371 1132.8 390.098 1136.16 390.098H1296.55C1299.91 390.098 1302.64 387.371 1302.64 384.007V369.567C1302.64 366.203 1299.91 363.476 1296.55 363.476Z" stroke="#3F3D56" stroke-miterlimit="10"/>
<path d="M1329.6 437.331H1103.11C1099.74 437.331 1097.02 440.058 1097.02 443.422V452.709C1097.02 456.073 1099.74 458.8 1103.11 458.8H1329.6C1332.96 458.8 1335.69 456.073 1335.69 452.709V443.422C1335.69 440.058 1332.96 437.331 1329.6 437.331Z" stroke="#3F3D56" stroke-miterlimit="10"/>
<path d="M1329.6 495.728H1103.11C1099.74 495.728 1097.02 498.455 1097.02 501.819V511.106C1097.02 514.47 1099.74 517.197 1103.11 517.197H1329.6C1332.96 517.197 1335.69 514.47 1335.69 511.106V501.819C1335.69 498.455 1332.96 495.728 1329.6 495.728Z" stroke="#3F3D56" stroke-miterlimit="10"/>
<path d="M1329.6 554.125H1103.11C1099.74 554.125 1097.02 556.852 1097.02 560.215V569.503C1097.02 572.867 1099.74 575.594 1103.11 575.594H1329.6C1332.96 575.594 1335.69 572.867 1335.69 569.503V560.215C1335.69 556.852 1332.96 554.125 1329.6 554.125Z" stroke="#3F3D56" stroke-miterlimit="10"/>
<path opacity="0.3" d="M791.383 273.305C798.495 273.305 804.261 267.537 804.261 260.423C804.261 253.309 798.495 247.541 791.383 247.541C784.271 247.541 778.505 253.309 778.505 260.423C778.505 267.537 784.271 273.305 791.383 273.305Z" fill="#00B0FF"/>
<path opacity="0.3" d="M827.441 273.305C834.553 273.305 840.319 267.537 840.319 260.423C840.319 253.309 834.553 247.541 827.441 247.541C820.329 247.541 814.563 253.309 814.563 260.423C814.563 267.537 820.329 273.305 827.441 273.305Z" fill="#00B0FF"/>
<path opacity="0.3" d="M863.499 273.305C870.611 273.305 876.377 267.537 876.377 260.423C876.377 253.309 870.611 247.541 863.499 247.541C856.387 247.541 850.621 253.309 850.621 260.423C850.621 267.537 856.387 273.305 863.499 273.305Z" fill="#00B0FF"/>
<path d="M796.534 268.152C803.646 268.152 809.412 262.385 809.412 255.27C809.412 248.156 803.646 242.389 796.534 242.389C789.422 242.389 783.656 248.156 783.656 255.27C783.656 262.385 789.422 268.152 796.534 268.152Z" stroke="#3F3D56" stroke-miterlimit="10"/>
<path d="M832.592 268.152C839.705 268.152 845.47 262.385 845.47 255.27C845.47 248.156 839.705 242.389 832.592 242.389C825.48 242.389 819.714 248.156 819.714 255.27C819.714 262.385 825.48 268.152 832.592 268.152Z" stroke="#3F3D56" stroke-miterlimit="10"/>
<path d="M868.65 268.152C875.763 268.152 881.528 262.385 881.528 255.27C881.528 248.156 875.763 242.389 868.65 242.389C861.538 242.389 855.772 248.156 855.772 255.27C855.772 262.385 861.538 268.152 868.65 268.152Z" stroke="#3F3D56" stroke-miterlimit="10"/>
<path d="M943.217 645.155C941.061 635.22 940.489 621.651 941.214 612.212C941.214 612.212 930.312 564.304 921.734 559.834L921.732 559.836C921.6 560.005 917.437 565.465 916.909 582.357C916.373 599.518 910.299 610.78 910.299 610.78C910.299 610.78 912.264 632.17 911.141 645.155L943.217 645.155Z" fill="#00B0FF"/>
<path d="M1022.52 340.289H824.669C821.989 340.289 819.335 340.817 816.859 341.843C814.383 342.869 812.133 344.373 810.238 346.268C808.343 348.164 806.84 350.415 805.814 352.891C804.789 355.368 804.261 358.023 804.261 360.704V624.74C804.261 627.421 804.789 630.076 805.814 632.553C806.84 635.029 808.343 637.28 810.238 639.176C812.133 641.071 814.383 642.575 816.859 643.601C819.335 644.627 821.989 645.155 824.669 645.155H894.086C891.767 635.537 888.886 620.516 891.804 610.072L891.803 610.065L891.805 610.069C891.941 609.582 892.086 609.101 892.248 608.635C894.253 601.857 894.921 594.753 894.215 587.72C895.504 581.711 895.504 575.496 894.215 569.487C892.071 559.477 890.57 549.645 890.57 549.645C890.57 549.645 889.388 536.417 890.42 528.309C890.443 528.131 890.469 527.962 890.494 527.789C890.13 527.706 889.925 527.658 889.925 527.658C889.925 527.658 892.964 513.894 894.036 505.135C894.289 503.067 894.622 500.446 894.983 497.651C893.993 497.486 893.019 497.239 892.07 496.912C882.42 493.515 879.382 462.769 879.382 462.769V453.027C879.382 453.027 876.165 438.1 887.424 431.486C898.265 425.117 902.594 423.374 902.9 423.254C902.982 423.195 903.063 423.141 903.147 423.076C904.372 422.114 905.342 420.865 905.971 419.44C905.986 419.194 905.99 418.951 905.982 418.708C905.799 415.216 903.368 412.04 901.062 409.268C899.095 406.905 897.128 404.541 895.161 402.177C894.487 401.473 893.969 400.635 893.641 399.717C893.517 399.21 893.463 398.689 893.481 398.168C893.479 397.975 893.48 397.782 893.484 397.59C893.516 395.827 893.564 394.065 893.628 392.304C893.683 390.764 894.071 388.823 895.577 388.506C896.361 388.342 897.398 388.629 897.813 387.943C897.952 387.661 897.987 387.338 897.913 387.032C897.908 387.055 897.907 387.079 897.9 387.101C897.895 387.073 897.89 387.044 897.885 387.016C897.575 385.782 897.388 384.52 897.326 383.249C897.31 382.675 897.392 382.103 897.568 381.557C898.441 379.002 901.447 377.954 904.103 377.472C906.759 376.99 909.741 376.575 911.408 374.451C911.854 373.746 912.338 373.066 912.857 372.413C913.622 371.717 914.562 371.243 915.575 371.041C918.873 370.207 922.355 370.516 925.454 371.918C926.739 372.505 928.029 373.295 929.439 373.205C930.902 373.112 932.153 372.082 933.598 371.831C935.933 371.426 938.164 373.176 939.315 375.248C940.045 376.566 940.411 378.055 940.373 379.561C940.401 381.061 939.86 382.516 938.859 383.633C937.854 384.699 936.355 385.431 935.938 386.836C935.768 387.407 935.807 388.023 935.657 388.6C935.638 388.672 935.608 388.74 935.583 388.809C935.611 388.845 935.641 388.879 935.668 388.915C937.425 391.231 938.603 393.935 939.104 396.799C939.604 399.664 939.412 402.606 938.544 405.381C937.676 408.156 936.156 410.684 934.113 412.752C932.07 414.82 929.562 416.37 926.798 417.271C926.791 417.452 926.784 417.633 926.785 417.815C926.733 418.942 926.924 420.067 927.345 421.113C927.765 422.16 928.406 423.104 929.223 423.882L945.146 430.414C945.146 430.414 954.732 429.251 958.191 443.561C958.746 445.94 958.945 448.387 958.783 450.824C958.658 452.982 958.951 456.78 961.408 461.696C965.34 469.562 964.446 487.616 956.404 489.404C948.787 491.097 945.824 490.386 945.532 490.306L945.515 490.622C945.64 494.01 946.846 523.229 951.222 526.764C952.432 527.742 952.201 528.403 951.208 528.848L951.21 528.85C951.21 528.85 951.218 529.038 951.237 529.376C951.368 531.513 952.044 539.651 954.974 544.282C958.37 549.644 958.014 580.571 958.014 580.571L960.335 598.805C960.335 598.805 958.906 610.067 960.335 612.032C961.147 613.147 962.13 630.413 962.829 645.155H1022.52C1027.94 645.155 1033.13 643.004 1036.95 639.176C1040.78 635.347 1042.93 630.155 1042.93 624.74V360.704C1042.93 358.023 1042.4 355.368 1041.38 352.891C1040.35 350.415 1038.85 348.164 1036.95 346.268C1035.06 344.373 1032.81 342.869 1030.33 341.843C1027.86 340.817 1025.2 340.289 1022.52 340.289V340.289Z" fill="#00B0FF"/>
<path d="M1001.92 317.102H804.065C792.793 317.102 783.656 326.242 783.656 337.517V601.553C783.656 612.828 792.793 621.968 804.065 621.968H1001.92C1013.19 621.968 1022.33 612.828 1022.33 601.553V337.517C1022.33 326.242 1013.19 317.102 1001.92 317.102Z" stroke="#3F3D56" stroke-miterlimit="10"/>
<path d="M640.56 428.209C640.56 428.209 632.555 425.841 630.838 428.418C629.121 430.994 633.179 449.67 633.179 449.67L650.818 450.743L644.662 435.193L640.56 428.209Z" fill="#2F2E41"/>
<path d="M578.849 581.578C578.849 581.578 594.899 616.824 582.539 615.717C570.179 614.61 565.382 581.578 565.382 581.578H578.849Z" fill="#A0616A"/>
<path d="M683.819 577.906C683.819 577.906 676.778 615.99 688.503 611.923C700.227 607.855 696.886 574.644 696.886 574.644L683.819 577.906Z" fill="#A0616A"/>
<path d="M637.145 419.372C637.145 419.372 636.961 437.087 643.787 438.01C650.612 438.932 639.913 448.344 639.913 448.344L627.737 450.742L610.211 449.451L602.463 439.486C602.463 439.486 616.115 433.027 610.211 412.913L637.145 419.372Z" fill="#A0616A"/>
<path opacity="0.1" d="M637.145 419.372C637.145 419.372 636.961 437.087 643.787 438.01C650.612 438.932 639.913 448.344 639.913 448.344L627.737 450.742L610.211 449.451L602.463 439.486C602.463 439.486 616.115 433.027 610.211 412.913L637.145 419.372Z" fill="black"/>
<path d="M668.508 569.214C668.508 569.214 677.178 587.852 670.352 646.35C670.352 646.35 672.382 667.018 670.721 670.893C669.061 674.768 655.409 727.36 655.409 727.36C655.409 727.36 637.884 731.236 635.485 719.61C635.485 719.61 637.884 703.002 637.699 700.418C637.515 697.835 641.573 669.601 641.573 669.601L633.272 614.979L626.999 664.25C626.999 664.25 626.999 678.459 624.97 681.596C622.941 684.733 624.97 747.844 624.97 747.844C624.97 747.844 630.689 757.44 622.018 757.624C613.348 757.809 605.599 757.44 604.861 751.35C604.123 745.26 603.755 739.171 601.91 735.48C600.065 731.789 597.667 689.531 598.22 674.768C598.774 660.005 586.044 584.161 590.103 576.226C594.161 568.291 668.508 569.214 668.508 569.214Z" fill="#2F2E41"/>
<path d="M627.737 426.015C639.963 426.015 649.875 416.101 649.875 403.871C649.875 391.641 639.963 381.726 627.737 381.726C615.511 381.726 605.599 391.641 605.599 403.871C605.599 416.101 615.511 426.015 627.737 426.015Z" fill="#A0616A"/>
<path d="M605.599 439.855C605.599 439.855 619.066 449.82 638.621 441.885C638.621 441.885 645.078 438.748 644.525 433.95C643.971 429.152 657.992 472.518 657.992 472.518L672.197 547.993L671.459 578.81C671.459 578.81 665.186 575.673 645.631 582.685C626.076 589.697 594.161 574.75 594.161 574.75L595.268 495.585L596.375 449.451L599.327 439.301C599.327 439.301 600.802 436.533 605.599 439.855Z" fill="#F2F2F2"/>
<path d="M637.761 427.467C637.761 427.467 641.02 426.938 644.156 431.92C647.292 436.902 654.671 440.04 654.671 440.04C654.671 440.04 672.566 441.147 675.149 450.743C677.731 460.338 684.188 473.44 687.324 497.614C690.461 521.789 696.733 560.356 697.655 563.494C698.578 566.631 696.364 576.226 698.947 579.179C701.53 582.132 680.683 582.132 680.683 582.132C680.683 582.132 678.838 567 677.547 567C676.256 567 676.625 577.149 677.916 584.53C679.207 591.912 668.507 584.53 668.507 584.53C668.507 584.53 660.206 550.761 652.273 520.312C644.34 489.864 639.728 473.071 641.204 466.243C642.68 459.416 646.739 439.855 643.787 438.01C640.835 436.164 637.761 427.467 637.761 427.467Z" fill="#2F2E41"/>
<path d="M611.157 427.451C611.157 427.451 606.337 430.075 594.161 438.748C581.985 447.421 573.684 454.064 573.684 454.064C573.684 454.064 568.887 457.755 565.935 479.715C562.984 501.674 556.342 558.511 558.925 565.708C561.508 572.905 562.43 577.149 561.508 581.393C560.586 585.638 580.878 585.453 581.247 584.53C581.616 583.608 580.694 566.815 581.616 566.446C582.539 566.077 587.52 576.411 588.442 585.084C589.365 593.757 600.065 600.585 602.463 600.585C604.861 600.585 617.221 550.576 617.406 516.437C617.59 482.298 613.347 453.511 610.211 449.451C607.075 445.391 611.157 427.451 611.157 427.451Z" fill="#2F2E41"/>
<path d="M643.602 729.021C643.602 729.021 645.078 724.962 650.244 726.253C655.409 727.545 658.914 722.932 658.914 722.932C658.914 722.932 661.681 722.563 659.837 726.069C657.992 729.575 656.516 731.974 656.516 731.974C656.516 731.974 667.585 757.255 660.39 763.345C653.195 769.435 644.894 765.744 644.894 765.744C644.894 765.744 636.776 760.023 637.145 744.891C637.145 744.891 636.776 740.094 632.349 732.343C627.921 724.593 624.601 712.782 629.951 710.568C635.301 708.353 636.678 708.271 636.678 708.271C636.678 708.271 634.174 719.725 640.641 723.727L643.602 729.021Z" fill="#3F3D56"/>
<path d="M609.289 757.624C609.289 757.624 604.861 749.32 612.241 748.397C619.62 747.475 627.553 746.921 627.184 750.796C626.815 754.672 625.892 760.577 625.892 760.577L627.184 764.821C627.184 764.821 627.553 775.34 628.844 776.631C630.135 777.923 637.146 788.995 622.203 788.995C607.26 788.995 602.832 787.334 604.123 783.828C605.415 780.322 605.784 762.976 605.784 762.976L609.289 757.624Z" fill="#3F3D56"/>
<path d="M620.727 386.155C620.727 386.155 631.058 388.923 636.408 390.031C641.758 391.138 641.204 388.001 641.204 388.001C641.204 388.001 648.214 388.923 647.845 388.185C647.476 387.447 650.797 383.572 646.923 379.143C643.049 374.714 644.156 371.392 644.156 371.392H640.835L639.913 370.101H634.747C634.747 370.101 630.873 368.624 620.727 370.101C610.58 371.577 596.744 371.946 595.637 378.036C594.53 384.125 588.811 391.691 590.841 395.198C592.87 398.704 604.492 413.097 605.599 419.187C606.706 425.277 611.874 426.63 611.688 422.816C611.503 419.003 606.337 405.716 610.765 405.162C615.192 404.609 622.756 393.352 620.727 386.155Z" fill="#2F2E41"/>
<path d="M1356.62 158.404C1352.96 158.611 1349.43 159.833 1346.43 161.934C1343.42 164.035 1341.06 166.932 1339.61 170.299C1335.36 180.582 1340.84 192.661 1349.06 200.159C1357.28 207.657 1367.84 211.943 1377.43 217.577C1390.32 225.144 1401.89 235.648 1408.34 249.132C1414.79 262.616 1415.48 279.318 1407.9 292.199C1400.86 304.156 1388.07 311.311 1375.87 317.911" stroke="#3F3D56" stroke-miterlimit="10"/>
<path d="M1367.45 166.599C1375.75 166.599 1382.48 163.331 1382.48 159.3C1382.48 155.268 1375.75 152 1367.45 152C1359.16 152 1352.43 155.268 1352.43 159.3C1352.43 163.331 1359.16 166.599 1367.45 166.599Z" fill="#00B0FF"/>
<path d="M1379.47 214.691C1387.77 214.691 1394.5 211.423 1394.5 207.391C1394.5 203.36 1387.77 200.091 1379.47 200.091C1371.18 200.091 1364.45 203.36 1364.45 207.391C1364.45 211.423 1371.18 214.691 1379.47 214.691Z" fill="#00B0FF"/>
<path d="M1352 222.42C1360.3 222.42 1367.03 219.152 1367.03 215.12C1367.03 211.089 1360.3 207.82 1352 207.82C1343.7 207.82 1336.98 211.089 1336.98 215.12C1336.98 219.152 1343.7 222.42 1352 222.42Z" fill="#00B0FF"/>
<path d="M1394.93 262.782C1403.23 262.782 1409.95 259.514 1409.95 255.483C1409.95 251.451 1403.23 248.183 1394.93 248.183C1386.63 248.183 1379.9 251.451 1379.9 255.483C1379.9 259.514 1386.63 262.782 1394.93 262.782Z" fill="#00B0FF"/>
<path d="M1424.98 262.782C1433.27 262.782 1440 259.514 1440 255.483C1440 251.451 1433.27 248.183 1424.98 248.183C1416.68 248.183 1409.95 251.451 1409.95 255.483C1409.95 259.514 1416.68 262.782 1424.98 262.782Z" fill="#00B0FF"/>
</g>
<path d="M96.8594 61.8805C96.8594 58.6924 95.611 56.1956 93.1143 54.3903C90.6175 52.5465 87.3141 51.6247 83.2041 51.6247C79.5166 51.6247 76.4437 52.5465 73.9854 54.3903C71.5654 56.1956 70.3555 58.5579 70.3555 61.4772H53.0703C53.0703 56.9447 54.3379 52.873 56.873 49.2624C59.4466 45.6133 63.0765 42.7708 67.7627 40.735C72.4873 38.6992 77.6344 37.6813 83.2041 37.6813C92.8838 37.6813 100.47 39.7555 105.963 43.904C111.456 48.0524 114.202 53.9294 114.202 61.5348C114.202 65.2607 113.069 68.7178 110.803 71.9059C108.575 75.0941 105.387 77.6484 101.238 79.569C105.848 81.1823 109.382 83.6406 111.84 86.944C114.298 90.209 115.527 94.2806 115.527 99.1588C115.527 106.687 112.57 112.68 106.654 117.135C100.777 121.553 92.9606 123.761 83.2041 123.761C77.0967 123.761 71.6038 122.724 66.7256 120.65C61.8473 118.537 58.1406 115.676 55.6055 112.065C53.1087 108.416 51.8604 104.191 51.8604 99.3893H69.2607C69.2607 102.385 70.5667 104.901 73.1787 106.937C75.7907 108.935 79.1325 109.933 83.2041 109.933C87.8135 109.933 91.4434 108.896 94.0938 106.822C96.7826 104.748 98.127 102.117 98.127 98.9284C98.127 94.5495 96.9362 91.4189 94.5547 89.5368C92.1732 87.6162 88.6969 86.6559 84.126 86.6559H73.8125V73.1159H84.4717C92.7301 73.0006 96.8594 69.2555 96.8594 61.8805ZM163.35 122.667C162.581 121.169 162.024 119.306 161.679 117.078C157.646 121.572 152.402 123.819 145.949 123.819C139.842 123.819 134.771 122.052 130.738 118.518C126.743 114.984 124.746 110.529 124.746 105.151C124.746 98.5443 127.185 93.4739 132.063 89.9401C136.98 86.4062 144.067 84.6201 153.324 84.5817H160.987V81.0094C160.987 78.1286 160.238 75.8239 158.74 74.0954C157.281 72.3669 154.957 71.5026 151.769 71.5026C148.965 71.5026 146.756 72.1748 145.143 73.5192C143.568 74.8636 142.78 76.7073 142.78 79.0504H126.129C126.129 75.4398 127.243 72.098 129.471 69.0251C131.699 65.9521 134.848 63.5514 138.92 61.8229C142.992 60.056 147.562 59.1725 152.633 59.1725C160.315 59.1725 166.403 61.1123 170.897 64.9919C175.43 68.833 177.696 74.249 177.696 81.2399V108.262C177.735 114.178 178.561 118.653 180.174 121.687V122.667H163.35ZM149.579 111.086C152.037 111.086 154.304 110.548 156.378 109.472C158.452 108.358 159.989 106.88 160.987 105.036V94.319H154.765C146.429 94.319 141.993 97.1999 141.455 102.962L141.397 103.941C141.397 106.015 142.127 107.725 143.587 109.069C145.047 110.413 147.044 111.086 149.579 111.086ZM244.705 122.667H227.996V73.8073H207.139V122.667H190.487V60.3249H244.705V122.667ZM254.846 90.9196C254.846 84.7353 256.036 79.2233 258.418 74.3835C260.799 69.5436 264.218 65.7985 268.674 63.1481C273.168 60.4977 278.373 59.1725 284.288 59.1725C292.7 59.1725 299.557 61.7461 304.857 66.8932C310.197 72.0404 313.174 79.0312 313.788 87.8659L313.903 92.1295C313.903 101.694 311.234 109.376 305.895 115.176C300.555 120.938 293.392 123.819 284.403 123.819C275.415 123.819 268.232 120.938 262.854 115.176C257.515 109.415 254.846 101.579 254.846 91.6686V90.9196ZM271.497 92.1295C271.497 98.0449 272.611 102.577 274.839 105.727C277.067 108.839 280.255 110.394 284.403 110.394C288.437 110.394 291.586 108.858 293.853 105.785C296.119 102.673 297.252 97.7184 297.252 90.9196C297.252 85.1195 296.119 80.6253 293.853 77.4372C291.586 74.249 288.398 72.6549 284.288 72.6549C280.216 72.6549 277.067 74.249 274.839 77.4372C272.611 80.5869 271.497 85.4844 271.497 92.1295ZM377.455 60.3249V122.667H360.804V73.8073H346.111L345.074 93.0514C344.421 103.307 342.405 110.778 339.024 115.465C335.644 120.151 330.612 122.551 323.929 122.667H318.282L318.109 109.127L320.184 108.954C323.18 108.723 325.369 106.956 326.752 103.653C328.135 100.35 328.999 94.7223 329.345 86.7711L330.497 60.3249H377.455ZM444.349 122.667H427.64V98.6979H406.955V122.667H390.304V60.3249H406.955V85.3307H427.64V60.3249H444.349V122.667ZM494.821 60.3249H511.473V122.667H494.821V84.1784L473.964 122.667H457.255V60.3249H473.964V98.7555L494.821 60.3249ZM579.519 110.394C582.591 110.394 585.088 109.549 587.009 107.859C588.929 106.169 589.928 103.922 590.005 101.118H605.619C605.581 105.343 604.428 109.223 602.162 112.757C599.896 116.252 596.785 118.979 592.828 120.938C588.91 122.859 584.57 123.819 579.807 123.819C570.895 123.819 563.866 120.996 558.719 115.349C553.572 109.664 550.998 101.828 550.998 91.8415V90.7467C550.998 81.1439 553.552 73.4808 558.661 67.7575C563.77 62.0342 570.78 59.1725 579.691 59.1725C587.489 59.1725 593.731 61.4004 598.417 65.8561C603.142 70.2734 605.542 76.1696 605.619 83.5446H590.005C589.928 80.318 588.929 77.706 587.009 75.7086C585.088 73.6728 582.553 72.6549 579.403 72.6549C575.524 72.6549 572.585 74.0762 570.588 76.9186C568.629 79.7226 567.649 84.2936 567.649 90.6315V92.36C567.649 98.7747 568.629 103.384 570.588 106.188C572.547 108.992 575.524 110.394 579.519 110.394ZM616.221 122.667V60.3249H642.264C650.753 60.3249 657.263 61.8229 661.796 64.819C666.328 67.8151 668.595 72.1172 668.595 77.7253C668.595 80.6061 667.634 83.1989 665.714 85.5036C663.832 87.7698 661.066 89.5176 657.417 90.7467C661.873 91.5918 665.368 93.2627 667.903 95.7594C670.477 98.2178 671.764 101.252 671.764 104.863C671.764 110.663 669.574 115.08 665.195 118.115C660.855 121.149 654.536 122.667 646.239 122.667H616.221ZM632.872 96.7965V109.357H646.297C652.174 109.357 655.112 107.302 655.112 103.192C655.112 99.0052 652.308 96.8734 646.7 96.7965H632.872ZM632.872 85.6188H643.186C649.024 85.542 651.943 83.6598 651.943 79.9723C651.943 77.706 651.137 76.0928 649.523 75.1325C647.949 74.1722 645.529 73.692 642.264 73.692H632.872V85.6188ZM679.369 90.9196C679.369 84.7353 680.56 79.2233 682.941 74.3835C685.323 69.5436 688.742 65.7985 693.197 63.1481C697.691 60.4977 702.896 59.1725 708.812 59.1725C717.224 59.1725 724.08 61.7461 729.381 66.8932C734.72 72.0404 737.697 79.0312 738.312 87.8659L738.427 92.1295C738.427 101.694 735.757 109.376 730.418 115.176C725.079 120.938 717.915 123.819 708.927 123.819C699.938 123.819 692.756 120.938 687.378 115.176C682.039 109.415 679.369 101.579 679.369 91.6686V90.9196ZM696.021 92.1295C696.021 98.0449 697.134 102.577 699.362 105.727C701.59 108.839 704.778 110.394 708.927 110.394C712.96 110.394 716.11 108.858 718.376 105.785C720.642 102.673 721.775 97.7184 721.775 90.9196C721.775 85.1195 720.642 80.6253 718.376 77.4372C716.11 74.249 712.922 72.6549 708.812 72.6549C704.74 72.6549 701.59 74.249 699.362 77.4372C697.134 80.5869 696.021 85.4844 696.021 92.1295ZM786.249 60.3249H802.9V122.667H786.249V84.1784L765.392 122.667H748.683V60.3249H765.392V98.7555L786.249 60.3249ZM796.044 35.0309C796.044 40.1396 794.2 44.2689 790.513 47.4186C786.864 50.5683 782.062 52.1432 776.108 52.1432C770.155 52.1432 765.334 50.5876 761.646 47.4762C757.997 44.3649 756.173 40.2165 756.173 35.0309H767.984C767.984 37.4508 768.695 39.333 770.116 40.6774C771.576 41.9834 773.573 42.6364 776.108 42.6364C778.605 42.6364 780.564 41.9834 781.985 40.6774C783.407 39.333 784.117 37.4508 784.117 35.0309H796.044ZM108.613 260.667H91.9043V211.807H71.0469V260.667H54.3955V198.325H108.613V260.667ZM177.466 230.072C177.466 239.675 175.276 247.376 170.897 253.176C166.557 258.938 160.68 261.819 153.267 261.819C146.967 261.819 141.878 259.63 137.998 255.251V284.635H121.347V198.325H136.788L137.364 204.432C141.397 199.592 146.66 197.173 153.151 197.173C160.834 197.173 166.807 200.015 171.07 205.7C175.334 211.385 177.466 219.221 177.466 229.208V230.072ZM160.814 228.862C160.814 223.062 159.777 218.587 157.703 215.437C155.667 212.287 152.69 210.713 148.772 210.713C143.549 210.713 139.957 212.71 137.998 216.705V242.229C140.034 246.339 143.664 248.394 148.888 248.394C156.839 248.394 160.814 241.883 160.814 228.862ZM185.244 228.92C185.244 222.735 186.435 217.223 188.816 212.383C191.198 207.544 194.617 203.798 199.072 201.148C203.566 198.498 208.771 197.173 214.687 197.173C223.099 197.173 229.955 199.746 235.256 204.893C240.595 210.04 243.572 217.031 244.187 225.866L244.302 230.13C244.302 239.694 241.632 247.376 236.293 253.176C230.954 258.938 223.79 261.819 214.802 261.819C205.813 261.819 198.631 258.938 193.253 253.176C187.914 247.415 185.244 239.579 185.244 229.669V228.92ZM201.896 230.13C201.896 236.045 203.009 240.577 205.237 243.727C207.465 246.839 210.653 248.394 214.802 248.394C218.835 248.394 221.985 246.858 224.251 243.785C226.517 240.673 227.65 235.718 227.65 228.92C227.65 223.119 226.517 218.625 224.251 215.437C221.985 212.249 218.797 210.655 214.687 210.655C210.615 210.655 207.465 212.249 205.237 215.437C203.009 218.587 201.896 223.484 201.896 230.13ZM252.08 229.957C252.08 219.931 254.116 211.961 258.188 206.046C262.298 200.13 267.944 197.173 275.127 197.173C277.931 197.173 280.485 197.729 282.79 198.843V172.167H299.441V198.901C301.823 197.749 304.454 197.173 307.335 197.173C314.556 197.173 320.203 200.13 324.274 206.046C328.384 211.923 330.439 220.296 330.439 231.167C330.439 240.577 328.384 248.048 324.274 253.58C320.164 259.073 314.556 261.819 307.45 261.819C304.493 261.819 301.823 261.281 299.441 260.206V284.635H282.79V260.263C280.485 261.3 277.893 261.819 275.012 261.819C268.29 261.819 262.893 259.303 258.821 254.271C254.75 249.239 252.522 242.344 252.138 233.587L252.08 229.957ZM313.73 229.957C313.73 223.734 312.789 218.971 310.907 215.668C309.025 212.326 306.375 210.655 302.956 210.655C301.881 210.655 300.709 210.789 299.441 211.058V248.106C300.517 248.337 301.727 248.452 303.071 248.452C309.601 248.452 313.135 243.497 313.673 233.587L313.73 229.957ZM268.731 231.167C268.731 242.652 272.246 248.394 279.275 248.394C280.735 248.394 281.907 248.298 282.79 248.106V211.058C281.522 210.789 280.389 210.655 279.391 210.655C275.972 210.655 273.341 212.287 271.497 215.552C269.653 218.779 268.731 223.984 268.731 231.167ZM378.319 198.325H394.971V260.667H378.319V222.178L357.462 260.667H340.753V198.325H357.462V236.756L378.319 198.325ZM461.922 198.325V260.667H445.271V211.807H430.578L429.541 231.051C428.888 241.307 426.871 248.778 423.491 253.465C420.111 258.151 415.079 260.551 408.396 260.667H402.749L402.576 247.127L404.65 246.954C407.646 246.723 409.836 244.956 411.219 241.653C412.602 238.35 413.466 232.722 413.812 224.771L414.964 198.325H461.922ZM492.574 216.59H504.501C509.879 216.59 514.603 217.492 518.675 219.298C522.746 221.103 525.858 223.696 528.009 227.076C530.198 230.418 531.293 234.316 531.293 238.772C531.293 245.34 528.854 250.641 523.976 254.674C519.136 258.669 512.529 260.667 504.155 260.667H475.865V198.325H492.574V216.59ZM492.574 229.957V247.357H504.386C507.689 247.357 510.224 246.589 511.991 245.052C513.758 243.516 514.642 241.423 514.642 238.772C514.642 236.083 513.777 233.951 512.049 232.377C510.32 230.763 507.766 229.957 504.386 229.957H492.574Z" fill="black"/>
<path d="M70.3535 323.301H78.8203V355H70.3535V335.43L59.748 355H51.252V323.301H59.748V342.842L70.3535 323.301ZM127.805 355H119.309V330.156H108.703V355H100.236V323.301H127.805V355ZM132.961 338.857C132.961 335.713 133.566 332.91 134.777 330.449C135.988 327.988 137.727 326.084 139.992 324.736C142.277 323.389 144.924 322.715 147.932 322.715C152.209 322.715 155.695 324.023 158.391 326.641C161.105 329.258 162.619 332.812 162.932 337.305L162.99 339.473C162.99 344.336 161.633 348.242 158.918 351.191C156.203 354.121 152.561 355.586 147.99 355.586C143.42 355.586 139.768 354.121 137.033 351.191C134.318 348.262 132.961 344.277 132.961 339.238V338.857ZM141.428 339.473C141.428 342.48 141.994 344.785 143.127 346.387C144.26 347.969 145.881 348.76 147.99 348.76C150.041 348.76 151.643 347.979 152.795 346.416C153.947 344.834 154.523 342.314 154.523 338.857C154.523 335.908 153.947 333.623 152.795 332.002C151.643 330.381 150.021 329.57 147.932 329.57C145.861 329.57 144.26 330.381 143.127 332.002C141.994 333.604 141.428 336.094 141.428 339.473ZM195.305 323.301V355H186.838V330.156H179.367L178.84 339.941C178.508 345.156 177.482 348.955 175.764 351.338C174.045 353.721 171.486 354.941 168.088 355H165.217L165.129 348.115L166.184 348.027C167.707 347.91 168.82 347.012 169.523 345.332C170.227 343.652 170.666 340.791 170.842 336.748L171.428 323.301H195.305ZM213.674 343.018L219.533 323.301H228.615L215.871 359.922L215.168 361.592C213.273 365.732 210.148 367.803 205.793 367.803C204.562 367.803 203.312 367.617 202.043 367.246V360.83L203.332 360.859C204.934 360.859 206.125 360.615 206.906 360.127C207.707 359.639 208.332 358.828 208.781 357.695L209.777 355.088L198.674 323.301H207.785L213.674 343.018ZM258.674 355H250.207V345.039C248.625 345.332 247.15 345.479 245.783 345.479C240.998 345.479 237.395 344.463 234.973 342.432C232.551 340.4 231.32 337.432 231.281 333.525V323.301H239.748V333.525C239.768 335.361 240.217 336.68 241.096 337.48C241.975 338.262 243.537 338.652 245.783 338.652C247.189 338.652 248.664 338.486 250.207 338.154V323.301H258.674V355ZM284.279 323.301H292.746V355H284.279V335.43L273.674 355H265.178V323.301H273.674V342.842L284.279 323.301ZM314.602 348.174C316.516 346.143 317.814 344.131 318.498 342.139C319.182 340.146 319.562 337.324 319.641 333.672L319.875 323.301H343.195V348.174H347.766V364.521H339.299V355H320.52V364.521H311.877V348.174H314.602ZM324.592 348.174H334.758V330.303H328.166L328.107 334.111C327.932 339.932 326.76 344.619 324.592 348.174ZM350.754 338.857C350.754 335.713 351.359 332.91 352.57 330.449C353.781 327.988 355.52 326.084 357.785 324.736C360.07 323.389 362.717 322.715 365.725 322.715C370.002 322.715 373.488 324.023 376.184 326.641C378.898 329.258 380.412 332.812 380.725 337.305L380.783 339.473C380.783 344.336 379.426 348.242 376.711 351.191C373.996 354.121 370.354 355.586 365.783 355.586C361.213 355.586 357.561 354.121 354.826 351.191C352.111 348.262 350.754 344.277 350.754 339.238V338.857ZM359.221 339.473C359.221 342.48 359.787 344.785 360.92 346.387C362.053 347.969 363.674 348.76 365.783 348.76C367.834 348.76 369.436 347.979 370.588 346.416C371.74 344.834 372.316 342.314 372.316 338.857C372.316 335.908 371.74 333.623 370.588 332.002C369.436 330.381 367.814 329.57 365.725 329.57C363.654 329.57 362.053 330.381 360.92 332.002C359.787 333.604 359.221 336.094 359.221 339.473ZM399.182 348.76C400.744 348.76 402.014 348.33 402.99 347.471C403.967 346.611 404.475 345.469 404.514 344.043H412.453C412.434 346.191 411.848 348.164 410.695 349.961C409.543 351.738 407.961 353.125 405.949 354.121C403.957 355.098 401.75 355.586 399.328 355.586C394.797 355.586 391.223 354.15 388.605 351.279C385.988 348.389 384.68 344.404 384.68 339.326V338.77C384.68 333.887 385.979 329.99 388.576 327.08C391.174 324.17 394.738 322.715 399.27 322.715C403.234 322.715 406.408 323.848 408.791 326.113C411.193 328.359 412.414 331.357 412.453 335.107H404.514C404.475 333.467 403.967 332.139 402.99 331.123C402.014 330.088 400.725 329.57 399.123 329.57C397.15 329.57 395.656 330.293 394.641 331.738C393.645 333.164 393.146 335.488 393.146 338.711V339.59C393.146 342.852 393.645 345.195 394.641 346.621C395.637 348.047 397.15 348.76 399.182 348.76ZM443.596 330.098H433.43V355H424.934V330.098H414.943V323.301H443.596V330.098ZM460.061 343.018L465.92 323.301H475.002L462.258 359.922L461.555 361.592C459.66 365.732 456.535 367.803 452.18 367.803C450.949 367.803 449.699 367.617 448.43 367.246V360.83L449.719 360.859C451.32 360.859 452.512 360.615 453.293 360.127C454.094 359.639 454.719 358.828 455.168 357.695L456.164 355.088L445.061 323.301H454.172L460.061 343.018ZM505.91 355H497.414V330.156H486.809V355H478.342V323.301H505.91V355ZM539.748 343.311H536.35V355H527.883V323.301H536.35V335.225H539.367L546.281 323.301H556.975L546.604 338.389L557.941 355H546.662L539.748 343.311ZM63.6738 413.311H60.2754V425H51.8086V393.301H60.2754V405.225H63.293L70.207 393.301H80.9004L70.5293 408.389L81.8672 425H70.5879L63.6738 413.311ZM82.043 408.857C82.043 405.713 82.6484 402.91 83.8594 400.449C85.0703 397.988 86.8086 396.084 89.0742 394.736C91.3594 393.389 94.0059 392.715 97.0137 392.715C101.291 392.715 104.777 394.023 107.473 396.641C110.188 399.258 111.701 402.812 112.014 407.305L112.072 409.473C112.072 414.336 110.715 418.242 108 421.191C105.285 424.121 101.643 425.586 97.0723 425.586C92.502 425.586 88.8496 424.121 86.1152 421.191C83.4004 418.262 82.043 414.277 82.043 409.238V408.857ZM90.5098 409.473C90.5098 412.48 91.0762 414.785 92.209 416.387C93.3418 417.969 94.9629 418.76 97.0723 418.76C99.123 418.76 100.725 417.979 101.877 416.416C103.029 414.834 103.605 412.314 103.605 408.857C103.605 405.908 103.029 403.623 101.877 402.002C100.725 400.381 99.1035 399.57 97.0137 399.57C94.9434 399.57 93.3418 400.381 92.209 402.002C91.0762 403.604 90.5098 406.094 90.5098 409.473ZM144.768 425H136.271V412.812H125.754V425H117.287V393.301H125.754V406.016H136.271V393.301H144.768V425ZM177.639 400.098H167.473V425H158.977V400.098H148.986V393.301H177.639V400.098ZM199.816 425C199.426 424.238 199.143 423.291 198.967 422.158C196.916 424.443 194.25 425.586 190.969 425.586C187.863 425.586 185.285 424.688 183.234 422.891C181.203 421.094 180.188 418.828 180.188 416.094C180.188 412.734 181.428 410.156 183.908 408.359C186.408 406.562 190.012 405.654 194.719 405.635H198.615V403.818C198.615 402.354 198.234 401.182 197.473 400.303C196.73 399.424 195.549 398.984 193.928 398.984C192.502 398.984 191.379 399.326 190.559 400.01C189.758 400.693 189.357 401.631 189.357 402.822H180.891C180.891 400.986 181.457 399.287 182.59 397.725C183.723 396.162 185.324 394.941 187.395 394.062C189.465 393.164 191.789 392.715 194.367 392.715C198.273 392.715 201.369 393.701 203.654 395.674C205.959 397.627 207.111 400.381 207.111 403.936V417.676C207.131 420.684 207.551 422.959 208.371 424.502V425H199.816ZM192.814 419.111C194.064 419.111 195.217 418.838 196.271 418.291C197.326 417.725 198.107 416.973 198.615 416.035V410.586H195.451C191.213 410.586 188.957 412.051 188.684 414.98L188.654 415.479C188.654 416.533 189.025 417.402 189.768 418.086C190.51 418.77 191.525 419.111 192.814 419.111ZM226.037 413.311H222.639V425H214.172V393.301H222.639V405.225H225.656L232.57 393.301H243.264L232.893 408.389L244.23 425H232.951L226.037 413.311ZM273.732 400.098H263.566V425H255.07V400.098H245.08V393.301H273.732V400.098ZM295.91 425C295.52 424.238 295.236 423.291 295.061 422.158C293.01 424.443 290.344 425.586 287.062 425.586C283.957 425.586 281.379 424.688 279.328 422.891C277.297 421.094 276.281 418.828 276.281 416.094C276.281 412.734 277.521 410.156 280.002 408.359C282.502 406.562 286.105 405.654 290.812 405.635H294.709V403.818C294.709 402.354 294.328 401.182 293.566 400.303C292.824 399.424 291.643 398.984 290.021 398.984C288.596 398.984 287.473 399.326 286.652 400.01C285.852 400.693 285.451 401.631 285.451 402.822H276.984C276.984 400.986 277.551 399.287 278.684 397.725C279.816 396.162 281.418 394.941 283.488 394.062C285.559 393.164 287.883 392.715 290.461 392.715C294.367 392.715 297.463 393.701 299.748 395.674C302.053 397.627 303.205 400.381 303.205 403.936V417.676C303.225 420.684 303.645 422.959 304.465 424.502V425H295.91ZM288.908 419.111C290.158 419.111 291.311 418.838 292.365 418.291C293.42 417.725 294.201 416.973 294.709 416.035V410.586H291.545C287.307 410.586 285.051 412.051 284.777 414.98L284.748 415.479C284.748 416.533 285.119 417.402 285.861 418.086C286.604 418.77 287.619 419.111 288.908 419.111ZM329.016 415.01L337.307 393.301H347.912V425H339.445V405.547L331.857 425H326.174L318.732 405.869V425H310.266V393.301H320.783L329.016 415.01ZM49.9336 478.857C49.9336 475.713 50.5391 472.91 51.75 470.449C52.9609 467.988 54.6992 466.084 56.9648 464.736C59.25 463.389 61.8965 462.715 64.9043 462.715C69.1816 462.715 72.668 464.023 75.3633 466.641C78.0781 469.258 79.5918 472.812 79.9043 477.305L79.9629 479.473C79.9629 484.336 78.6055 488.242 75.8906 491.191C73.1758 494.121 69.5332 495.586 64.9629 495.586C60.3926 495.586 56.7402 494.121 54.0059 491.191C51.291 488.262 49.9336 484.277 49.9336 479.238V478.857ZM58.4004 479.473C58.4004 482.48 58.9668 484.785 60.0996 486.387C61.2324 487.969 62.8535 488.76 64.9629 488.76C67.0137 488.76 68.6152 487.979 69.7676 486.416C70.9199 484.834 71.4961 482.314 71.4961 478.857C71.4961 475.908 70.9199 473.623 69.7676 472.002C68.6152 470.381 66.9941 469.57 64.9043 469.57C62.834 469.57 61.2324 470.381 60.0996 472.002C58.9668 473.604 58.4004 476.094 58.4004 479.473ZM113.713 479.443C113.713 484.326 112.6 488.242 110.373 491.191C108.166 494.121 105.178 495.586 101.408 495.586C98.2051 495.586 95.6172 494.473 93.6445 492.246V507.188H85.1777V463.301H93.0293L93.3223 466.406C95.373 463.945 98.0488 462.715 101.35 462.715C105.256 462.715 108.293 464.16 110.461 467.051C112.629 469.941 113.713 473.926 113.713 479.004V479.443ZM105.246 478.828C105.246 475.879 104.719 473.604 103.664 472.002C102.629 470.4 101.115 469.6 99.123 469.6C96.4668 469.6 94.6406 470.615 93.6445 472.646V485.625C94.6797 487.715 96.5254 488.76 99.1816 488.76C103.225 488.76 105.246 485.449 105.246 478.828ZM140.578 470.156H127.453V495H118.986V463.301H140.578V470.156ZM162.492 495C162.102 494.238 161.818 493.291 161.643 492.158C159.592 494.443 156.926 495.586 153.645 495.586C150.539 495.586 147.961 494.688 145.91 492.891C143.879 491.094 142.863 488.828 142.863 486.094C142.863 482.734 144.104 480.156 146.584 478.359C149.084 476.562 152.688 475.654 157.395 475.635H161.291V473.818C161.291 472.354 160.91 471.182 160.148 470.303C159.406 469.424 158.225 468.984 156.604 468.984C155.178 468.984 154.055 469.326 153.234 470.01C152.434 470.693 152.033 471.631 152.033 472.822H143.566C143.566 470.986 144.133 469.287 145.266 467.725C146.398 466.162 148 464.941 150.07 464.062C152.141 463.164 154.465 462.715 157.043 462.715C160.949 462.715 164.045 463.701 166.33 465.674C168.635 467.627 169.787 470.381 169.787 473.936V487.676C169.807 490.684 170.227 492.959 171.047 494.502V495H162.492ZM155.49 489.111C156.74 489.111 157.893 488.838 158.947 488.291C160.002 487.725 160.783 486.973 161.291 486.035V480.586H158.127C153.889 480.586 151.633 482.051 151.359 484.98L151.33 485.479C151.33 486.533 151.701 487.402 152.443 488.086C153.186 488.77 154.201 489.111 155.49 489.111ZM203.771 495H195.275V482.812H184.758V495H176.291V463.301H184.758V476.016H195.275V463.301H203.771V495ZM229.436 463.301H237.902V495H229.436V475.43L218.83 495H210.334V463.301H218.83V482.842L229.436 463.301ZM261.018 472.646C261.018 471.533 260.646 470.674 259.904 470.068C259.182 469.443 258.146 469.131 256.799 469.131C255.412 469.131 254.279 469.424 253.4 470.01C252.541 470.576 252.111 471.387 252.111 472.441H243.645C243.645 469.57 244.836 467.236 247.219 465.439C249.602 463.643 252.648 462.744 256.359 462.744C260.441 462.744 263.645 463.545 265.969 465.146C268.312 466.748 269.484 469.023 269.484 471.973C269.484 473.379 269.055 474.678 268.195 475.869C267.355 477.041 266.164 477.979 264.621 478.682C268.234 479.951 270.041 482.402 270.041 486.035C270.041 488.945 268.791 491.27 266.291 493.008C263.811 494.727 260.5 495.586 256.359 495.586C252.512 495.586 249.348 494.688 246.867 492.891C244.387 491.094 243.146 488.672 243.146 485.625H251.613C251.613 486.699 252.092 487.568 253.049 488.232C254.006 488.896 255.256 489.229 256.799 489.229C258.303 489.229 259.475 488.877 260.314 488.174C261.154 487.471 261.574 486.553 261.574 485.42C261.574 484.033 261.174 483.047 260.373 482.461C259.572 481.855 258.371 481.553 256.77 481.553H252.17V476.045H257.062C259.699 475.967 261.018 474.834 261.018 472.646ZM293.566 495C293.176 494.238 292.893 493.291 292.717 492.158C290.666 494.443 288 495.586 284.719 495.586C281.613 495.586 279.035 494.688 276.984 492.891C274.953 491.094 273.938 488.828 273.938 486.094C273.938 482.734 275.178 480.156 277.658 478.359C280.158 476.562 283.762 475.654 288.469 475.635H292.365V473.818C292.365 472.354 291.984 471.182 291.223 470.303C290.48 469.424 289.299 468.984 287.678 468.984C286.252 468.984 285.129 469.326 284.309 470.01C283.508 470.693 283.107 471.631 283.107 472.822H274.641C274.641 470.986 275.207 469.287 276.34 467.725C277.473 466.162 279.074 464.941 281.145 464.062C283.215 463.164 285.539 462.715 288.117 462.715C292.023 462.715 295.119 463.701 297.404 465.674C299.709 467.627 300.861 470.381 300.861 473.936V487.676C300.881 490.684 301.301 492.959 302.121 494.502V495H293.566ZM286.564 489.111C287.814 489.111 288.967 488.838 290.021 488.291C291.076 487.725 291.857 486.973 292.365 486.035V480.586H289.201C284.963 480.586 282.707 482.051 282.434 484.98L282.404 485.479C282.404 486.533 282.775 487.402 283.518 488.086C284.26 488.77 285.275 489.111 286.564 489.111ZM307.365 463.301H315.832V488.174H326.438V463.301H334.934V488.232H339.68L339.094 504.404H331.213V495H307.365V463.301ZM363.029 463.301H371.496V495H363.029V475.43L352.424 495H343.928V463.301H352.424V482.842L363.029 463.301ZM397.072 463.301H405.539V495H397.072V475.43L386.467 495H377.971V463.301H386.467V482.842L397.072 463.301ZM402.053 450.439C402.053 453.037 401.115 455.137 399.24 456.738C397.385 458.34 394.943 459.141 391.916 459.141C388.889 459.141 386.438 458.35 384.562 456.768C382.707 455.186 381.779 453.076 381.779 450.439H387.785C387.785 451.67 388.146 452.627 388.869 453.311C389.611 453.975 390.627 454.307 391.916 454.307C393.186 454.307 394.182 453.975 394.904 453.311C395.627 452.627 395.988 451.67 395.988 450.439H402.053ZM78.8203 565H70.3242V540.156H59.7188V565H51.252V533.301H78.8203V565ZM103.664 565C103.273 564.238 102.99 563.291 102.814 562.158C100.764 564.443 98.0977 565.586 94.8164 565.586C91.7109 565.586 89.1328 564.688 87.082 562.891C85.0508 561.094 84.0352 558.828 84.0352 556.094C84.0352 552.734 85.2754 550.156 87.7559 548.359C90.2559 546.562 93.8594 545.654 98.5664 545.635H102.463V543.818C102.463 542.354 102.082 541.182 101.32 540.303C100.578 539.424 99.3965 538.984 97.7754 538.984C96.3496 538.984 95.2266 539.326 94.4062 540.01C93.6055 540.693 93.2051 541.631 93.2051 542.822H84.7383C84.7383 540.986 85.3047 539.287 86.4375 537.725C87.5703 536.162 89.1719 534.941 91.2422 534.062C93.3125 533.164 95.6367 532.715 98.2148 532.715C102.121 532.715 105.217 533.701 107.502 535.674C109.807 537.627 110.959 540.381 110.959 543.936V557.676C110.979 560.684 111.398 562.959 112.219 564.502V565H103.664ZM96.6621 559.111C97.9121 559.111 99.0645 558.838 100.119 558.291C101.174 557.725 101.955 556.973 102.463 556.035V550.586H99.2988C95.0605 550.586 92.8047 552.051 92.5312 554.98L92.502 555.479C92.502 556.533 92.873 557.402 93.6152 558.086C94.3574 558.77 95.373 559.111 96.6621 559.111ZM145.998 549.443C145.998 554.326 144.885 558.242 142.658 561.191C140.451 564.121 137.463 565.586 133.693 565.586C130.49 565.586 127.902 564.473 125.93 562.246V577.188H117.463V533.301H125.314L125.607 536.406C127.658 533.945 130.334 532.715 133.635 532.715C137.541 532.715 140.578 534.16 142.746 537.051C144.914 539.941 145.998 543.926 145.998 549.004V549.443ZM137.531 548.828C137.531 545.879 137.004 543.604 135.949 542.002C134.914 540.4 133.4 539.6 131.408 539.6C128.752 539.6 126.926 540.615 125.93 542.646V555.625C126.965 557.715 128.811 558.76 131.467 558.76C135.51 558.76 137.531 555.449 137.531 548.828ZM176.35 540.098H166.184V565H157.688V540.098H147.697V533.301H176.35V540.098ZM208.107 565H199.611V552.812H189.094V565H180.627V533.301H189.094V546.016H199.611V533.301H208.107V565ZM229.26 565.586C224.611 565.586 220.822 564.16 217.893 561.309C214.982 558.457 213.527 554.658 213.527 549.912V549.092C213.527 545.908 214.143 543.066 215.373 540.566C216.604 538.047 218.342 536.113 220.588 534.766C222.854 533.398 225.432 532.715 228.322 532.715C232.658 532.715 236.066 534.082 238.547 536.816C241.047 539.551 242.297 543.428 242.297 548.447V551.904H222.111C222.385 553.975 223.205 555.635 224.572 556.885C225.959 558.135 227.707 558.76 229.816 558.76C233.078 558.76 235.627 557.578 237.463 555.215L241.623 559.873C240.354 561.67 238.635 563.076 236.467 564.092C234.299 565.088 231.896 565.586 229.26 565.586ZM228.293 539.57C226.613 539.57 225.246 540.137 224.191 541.27C223.156 542.402 222.492 544.023 222.199 546.133H233.977V545.459C233.938 543.584 233.43 542.139 232.453 541.123C231.477 540.088 230.09 539.57 228.293 539.57ZM224.279 525.01C224.279 526.045 223.898 526.924 223.137 527.646C222.375 528.35 221.398 528.701 220.207 528.701C218.996 528.701 218.02 528.34 217.277 527.617C216.535 526.895 216.164 526.025 216.164 525.01C216.164 523.994 216.535 523.125 217.277 522.402C218.02 521.66 218.996 521.289 220.207 521.289C221.418 521.289 222.395 521.66 223.137 522.402C223.898 523.125 224.279 523.994 224.279 525.01ZM230.432 525.01C230.432 523.955 230.822 523.076 231.604 522.373C232.404 521.65 233.371 521.289 234.504 521.289C235.656 521.289 236.613 521.65 237.375 522.373C238.156 523.096 238.547 523.975 238.547 525.01C238.547 526.025 238.176 526.904 237.434 527.646C236.691 528.369 235.715 528.73 234.504 528.73C233.293 528.73 232.307 528.369 231.545 527.646C230.803 526.904 230.432 526.025 230.432 525.01ZM275.666 549.443C275.666 554.326 274.553 558.242 272.326 561.191C270.119 564.121 267.131 565.586 263.361 565.586C260.158 565.586 257.57 564.473 255.598 562.246V577.188H247.131V533.301H254.982L255.275 536.406C257.326 533.945 260.002 532.715 263.303 532.715C267.209 532.715 270.246 534.16 272.414 537.051C274.582 539.941 275.666 543.926 275.666 549.004V549.443ZM267.199 548.828C267.199 545.879 266.672 543.604 265.617 542.002C264.582 540.4 263.068 539.6 261.076 539.6C258.42 539.6 256.594 540.615 255.598 542.646V555.625C256.633 557.715 258.479 558.76 261.135 558.76C265.178 558.76 267.199 555.449 267.199 548.828ZM279.621 548.857C279.621 545.713 280.227 542.91 281.438 540.449C282.648 537.988 284.387 536.084 286.652 534.736C288.938 533.389 291.584 532.715 294.592 532.715C298.869 532.715 302.355 534.023 305.051 536.641C307.766 539.258 309.279 542.812 309.592 547.305L309.65 549.473C309.65 554.336 308.293 558.242 305.578 561.191C302.863 564.121 299.221 565.586 294.65 565.586C290.08 565.586 286.428 564.121 283.693 561.191C280.979 558.262 279.621 554.277 279.621 549.238V548.857ZM288.088 549.473C288.088 552.48 288.654 554.785 289.787 556.387C290.92 557.969 292.541 558.76 294.65 558.76C296.701 558.76 298.303 557.979 299.455 556.416C300.607 554.834 301.184 552.314 301.184 548.857C301.184 545.908 300.607 543.623 299.455 542.002C298.303 540.381 296.682 539.57 294.592 539.57C292.521 539.57 290.92 540.381 289.787 542.002C288.654 543.604 288.088 546.094 288.088 549.473ZM315.422 565V533.301H328.664C332.98 533.301 336.291 534.062 338.596 535.586C340.9 537.109 342.053 539.297 342.053 542.148C342.053 543.613 341.564 544.932 340.588 546.104C339.631 547.256 338.225 548.145 336.369 548.77C338.635 549.199 340.412 550.049 341.701 551.318C343.01 552.568 343.664 554.111 343.664 555.947C343.664 558.896 342.551 561.143 340.324 562.686C338.117 564.229 334.904 565 330.686 565H315.422ZM323.889 551.846V558.232H330.715C333.703 558.232 335.197 557.188 335.197 555.098C335.197 552.969 333.771 551.885 330.92 551.846H323.889ZM323.889 546.162H329.133C332.102 546.123 333.586 545.166 333.586 543.291C333.586 542.139 333.176 541.318 332.355 540.83C331.555 540.342 330.324 540.098 328.664 540.098H323.889V546.162Z" fill="black"/>
<defs>
<clipPath id="clip0">
<rect width="886" height="637" fill="white" transform="translate(554 152)"/>
</clipPath>
</defs>
</svg>
