<svg width="1440" height="900" viewBox="0 0 1440 900" fill="none" xmlns="http://www.w3.org/2000/svg">
<rect width="1440" height="900" fill="white"/>
<g clip-path="url(#clip0)">
<path d="M1032.89 400.238C1031.67 378.649 1022.82 358.195 1007.93 342.523C993.031 326.851 973.055 316.98 951.561 314.67C930.067 312.359 908.452 317.76 890.568 329.908C872.685 342.057 859.696 360.164 853.917 381.001C852.812 380.961 851.708 380.917 850.593 380.917C830.886 380.921 811.71 387.307 795.933 399.12C780.157 410.933 768.628 427.539 763.072 446.452C750.013 440.713 735.42 439.467 721.578 442.911C707.736 446.355 695.427 454.294 686.578 465.485H971.116C1006.07 465.485 1034.38 436.522 1032.95 401.584C1032.93 401.136 1032.91 400.688 1032.89 400.238Z" fill="#E6E6E6"/>
<path d="M362.116 287.085C363.337 265.496 372.183 245.042 387.078 229.37C401.973 213.698 421.948 203.827 443.442 201.517C464.936 199.206 486.552 204.607 504.435 216.755C522.319 228.904 535.308 247.011 541.086 267.848C542.191 267.808 543.295 267.764 544.41 267.764C564.117 267.768 583.294 274.154 599.07 285.967C614.847 297.78 626.375 314.386 631.931 333.299C644.99 327.559 659.583 326.314 673.425 329.758C687.267 333.202 699.576 341.141 708.425 352.332H423.887C388.93 352.332 360.626 323.369 362.052 288.431C362.07 287.983 362.091 287.534 362.116 287.085Z" fill="#E6E6E6"/>
<path d="M770.343 377.105H546.214L434.149 571.262L546.214 765.419H770.343L882.408 571.262L770.343 377.105Z" fill="#00B0FF"/>
<path d="M564.975 732.915H751.583L844.887 571.262L751.583 409.609H564.975L471.671 571.262L564.975 732.915Z" fill="white"/>
<path d="M1440 764.058H362V766.779H1440V764.058Z" fill="#3F3D56"/>
<path d="M1208.96 271.766L1218.7 299.369L1202.47 331.843L1174.87 284.756L1208.96 271.766Z" fill="#A0616A"/>
<path d="M1290.93 605.438C1285.59 612.924 1244.41 656.244 1216.86 685.016C1209.22 692.989 1202.63 699.857 1198.15 704.517C1194.22 708.593 1191.92 710.98 1191.92 710.98L1179.47 684.935L1174.06 673.634L1174.14 673.537L1177.53 669.201L1209.88 627.797L1243.86 584.33L1216.26 529.124L1250.35 524.253L1273.01 525.584L1277.95 525.877C1277.95 525.877 1299.05 594.072 1290.93 605.438Z" fill="#2F2E41"/>
<path d="M1195.16 738.582C1193.05 740.693 1189.38 737.998 1185.41 733.387C1177.18 723.839 1167.57 706.108 1167.57 706.108L1156.2 681.753C1157.42 674.478 1168.56 673.553 1174.14 673.537C1176.04 673.537 1177.31 673.634 1177.31 673.634L1178.25 675.03L1198.15 704.517C1198.15 704.517 1201.65 732.088 1195.16 738.582Z" fill="#2F2E41"/>
<path opacity="0.2" d="M1198.15 704.517C1198.15 704.517 1201.65 732.088 1195.16 738.582C1193.05 740.693 1189.38 737.998 1185.41 733.387L1179.47 684.935L1178.25 675.03L1177.53 669.201L1209.88 627.797L1216.86 685.016C1209.22 692.989 1202.63 699.857 1198.15 704.517Z" fill="black"/>
<path opacity="0.2" d="M1220.63 537.86L1216.26 529.124L1250.35 524.252L1273.01 525.585L1273.08 525.876L1220.63 537.86Z" fill="black"/>
<path d="M1177.31 454.433H1165.94L1169.19 561.598L1191.92 746.702H1229.25L1213.02 613.556L1221.13 538.867L1277.95 525.876L1261.71 451.186L1177.31 454.433Z" fill="#2F2E41"/>
<path d="M1195.16 741.83C1195.16 741.83 1191.92 764.562 1193.54 766.186C1195.16 767.809 1196.78 769.433 1196.78 772.68C1196.78 775.928 1216.26 784.046 1226 777.552C1235.74 771.057 1229.25 761.314 1229.25 761.314L1219.51 741.83H1195.16Z" fill="#2F2E41"/>
<path d="M1188.67 292.062C1203.91 292.062 1216.26 279.704 1216.26 264.459C1216.26 249.215 1203.91 236.856 1188.67 236.856C1173.43 236.856 1161.07 249.215 1161.07 264.459C1161.07 279.704 1173.43 292.062 1188.67 292.062Z" fill="#A0616A"/>
<path d="M1204.9 308.3L1183.67 299.769L1170.81 459.304L1260.09 465.799L1229.25 301.805L1215.45 288.847L1204.9 308.3Z" fill="#E6E6E6"/>
<path d="M1180.85 294.95L1164.32 308.299L1133.48 324.537L1144.84 426.83L1146.46 485.284C1146.46 485.284 1125.36 537.243 1141.59 550.232C1157.83 563.222 1175.68 558.351 1172.44 530.748C1169.19 503.145 1162.7 483.66 1193.54 454.433C1224.38 425.206 1197.37 288.096 1180.85 294.95Z" fill="#2F2E41"/>
<path d="M1213.77 285.414L1234.12 298.557L1261.72 313.171L1282.82 546.985L1235.74 561.598C1235.74 561.598 1209.66 291.755 1213.77 285.414Z" fill="#2F2E41"/>
<path d="M1266.58 478.789C1266.58 478.789 1242.24 516.134 1260.09 516.134C1277.95 516.134 1282.82 485.284 1282.82 485.284L1266.58 478.789Z" fill="#A0616A"/>
<path d="M1165.94 478.789C1165.94 478.789 1190.29 516.134 1172.44 516.134C1154.58 516.134 1149.71 485.284 1149.71 485.284L1165.94 478.789Z" fill="#A0616A"/>
<path d="M1190.29 223.866L1182.18 218.995L1183.8 222.243L1177.31 220.619L1178.93 222.243L1170.81 220.619L1174.06 223.866C1174.06 223.866 1161.07 223.866 1159.45 236.856L1151.33 238.48L1154.58 243.351V248.222L1157.83 251.47V256.341L1161.07 264.459L1164.32 253.093C1164.32 253.093 1178.93 256.341 1185.42 243.351C1185.42 243.351 1187.05 248.222 1195.16 246.598L1208.15 269.33C1208.15 269.33 1209.77 259.253 1215.45 257.797C1221.13 256.341 1217.89 243.351 1217.89 243.351C1217.89 243.351 1213.02 238.48 1213.02 235.233C1213.02 231.985 1208.15 228.738 1204.9 228.738C1201.65 228.738 1193.54 222.243 1193.54 222.243L1190.29 223.866Z" fill="#2F2E41"/>
<path d="M1146.46 326.16L1138.91 321.678L1133.48 324.536C1133.48 324.536 1126.99 327.784 1125.36 339.15C1123.74 350.516 1107.51 420.335 1107.51 420.335C1107.51 420.335 1105.88 431.701 1114 451.186C1122.12 470.67 1152.96 504.768 1152.96 504.768L1182.18 480.413L1138.35 426.83L1149.71 382.99L1146.46 326.16Z" fill="#2F2E41"/>
<path d="M1248.73 313.171H1261.71L1282.82 392.732L1289.31 491.778L1258.47 480.412V408.97L1248.73 313.171Z" fill="#2F2E41"/>
<path d="M588.648 409.368H586.22V509.616H588.648V409.368Z" fill="#3F3D56"/>
<path d="M587.435 522.291C591.252 522.291 594.346 519.195 594.346 515.377C594.346 511.559 591.252 508.464 587.435 508.464C583.617 508.464 580.523 511.559 580.523 515.377C580.523 519.195 583.617 522.291 587.435 522.291Z" fill="#00B0FF"/>
<path d="M640.486 409.368H638.058V509.616H640.486V409.368Z" fill="#3F3D56"/>
<path d="M639.272 522.291C643.089 522.291 646.183 519.195 646.183 515.377C646.183 511.559 643.089 508.464 639.272 508.464C635.455 508.464 632.36 511.559 632.36 515.377C632.36 519.195 635.455 522.291 639.272 522.291Z" fill="#3F3D56"/>
<path d="M731.489 409.368H729.061V509.616H731.489V409.368Z" fill="#3F3D56"/>
<path d="M730.275 522.291C734.092 522.291 737.187 519.195 737.187 515.377C737.187 511.559 734.092 508.464 730.275 508.464C726.458 508.464 723.363 511.559 723.363 515.377C723.363 519.195 726.458 522.291 730.275 522.291Z" fill="#3F3D56"/>
<path d="M692.261 621.385C696.078 621.385 699.173 618.29 699.173 614.472C699.173 610.654 696.078 607.558 692.261 607.558C688.444 607.558 685.349 610.654 685.349 614.472C685.349 618.29 688.444 621.385 692.261 621.385Z" fill="#3F3D56"/>
<path d="M551.724 558.011C555.542 558.011 558.636 554.916 558.636 551.097C558.636 547.279 555.542 544.184 551.724 544.184C547.907 544.184 544.813 547.279 544.813 551.097C544.813 554.916 547.907 558.011 551.724 558.011Z" fill="#3F3D56"/>
<path d="M693.475 608.71H691.047V487.912H639.272V485.483H693.475V608.71Z" fill="#3F3D56"/>
<path d="M603.562 665.172C607.379 665.172 610.473 662.076 610.473 658.258C610.473 654.44 607.379 651.344 603.562 651.344C599.745 651.344 596.65 654.44 596.65 658.258C596.65 662.076 599.745 665.172 603.562 665.172Z" fill="#00B0FF"/>
<path d="M604.776 652.497H602.348V531.697H550.572V529.269H604.776V652.497Z" fill="#3F3D56"/>
<path d="M763.681 611.015C767.498 611.015 770.593 607.92 770.593 604.101C770.593 600.283 767.498 597.188 763.681 597.188C759.864 597.188 756.77 600.283 756.77 604.101C756.77 607.92 759.864 611.015 763.681 611.015Z" fill="#00B0FF"/>
<path d="M764.895 598.34H762.467V477.542H729.123V475.113H764.895V598.34Z" fill="#3F3D56"/>
<path d="M552.938 544.183H550.51V484.122H587.434V486.551H552.938V544.183Z" fill="#3F3D56"/>
<path d="M639.848 692.25C643.665 692.25 646.759 689.154 646.759 685.336C646.759 681.518 643.665 678.423 639.848 678.423C636.03 678.423 632.936 681.518 632.936 685.336C632.936 689.154 636.03 692.25 639.848 692.25Z" fill="#3F3D56"/>
<path d="M641.061 678.422H638.633V620.79H604.137V618.361H641.061V678.422Z" fill="#3F3D56"/>
<path d="M727.971 640.974C731.788 640.974 734.883 637.879 734.883 634.06C734.883 630.242 731.788 627.147 727.971 627.147C724.154 627.147 721.06 630.242 721.06 634.06C721.06 637.879 724.154 640.974 727.971 640.974Z" fill="#3F3D56"/>
<path d="M729.185 627.147H726.757V567.086H763.681V569.515H729.185V627.147Z" fill="#3F3D56"/>
</g>
<path d="M59.4307 261.377H48.3105L44.1621 285H33.6182L37.7666 261.377H24.6875V251.467H39.4951L42.376 235.104H29.0088V225.078H44.1621L48.3682 201.109H58.8545L54.6484 225.078H65.8262L70.0322 201.109H80.5762L76.3701 225.078H88.9883V235.104H74.584L71.7031 251.467H84.6094V261.377H69.9746L65.8262 285H55.2822L59.4307 261.377ZM50.0391 251.467H61.1592L64.04 235.104H52.8623L50.0391 251.467ZM126.151 250.718H116.184V285H98.8984V201.109H116.184V234.7H124.077L144.589 201.109H165.677L139.807 240.808L168.385 285H147.758L126.151 250.718ZM202.437 250.718H192.469V285H175.184V201.109H192.469V234.7H200.362L220.874 201.109H241.962L216.092 240.808L244.67 285H224.043L202.437 250.718ZM268.639 255.442V285H251.354V201.109H284.08C290.38 201.109 295.911 202.262 300.674 204.566C305.475 206.871 309.163 210.155 311.736 214.419C314.31 218.644 315.597 223.465 315.597 228.881C315.597 237.101 312.773 243.592 307.127 248.355C301.519 253.08 293.741 255.442 283.792 255.442H268.639ZM268.639 241.441H284.08C288.651 241.441 292.127 240.366 294.509 238.215C296.929 236.064 298.139 232.991 298.139 228.996C298.139 224.886 296.929 221.563 294.509 219.028C292.089 216.493 288.747 215.187 284.483 215.11H268.639V241.441ZM377.823 201.109H395.166V285H377.823V229.284L344.232 285H326.947V201.109H344.232V256.94L377.823 201.109ZM471.566 215.11H445.869V285H428.584V215.11H403.232V201.109H471.566V215.11ZM58.5088 368.033L74.2383 339.109H94.1162L69.6865 380.709L94.75 423H74.6416L58.5088 393.615L42.376 423H22.2676L47.3311 380.709L22.9014 339.109H42.7793L58.5088 368.033ZM138.539 423C137.771 421.502 137.214 419.639 136.868 417.411C132.835 421.905 127.592 424.152 121.139 424.152C115.031 424.152 109.961 422.385 105.928 418.852C101.933 415.318 99.9355 410.862 99.9355 405.484C99.9355 398.878 102.375 393.807 107.253 390.273C112.17 386.74 119.257 384.953 128.514 384.915H136.177V381.343C136.177 378.462 135.428 376.157 133.93 374.429C132.47 372.7 130.146 371.836 126.958 371.836C124.154 371.836 121.945 372.508 120.332 373.853C118.757 375.197 117.97 377.041 117.97 379.384H101.318C101.318 375.773 102.432 372.431 104.66 369.358C106.888 366.285 110.038 363.885 114.109 362.156C118.181 360.389 122.752 359.506 127.822 359.506C135.505 359.506 141.593 361.446 146.087 365.325C150.619 369.166 152.886 374.582 152.886 381.573V408.596C152.924 414.511 153.75 418.986 155.363 422.021V423H138.539ZM124.769 411.419C127.227 411.419 129.493 410.881 131.567 409.806C133.642 408.692 135.178 407.213 136.177 405.369V394.652H129.954C121.619 394.652 117.182 397.533 116.645 403.295L116.587 404.274C116.587 406.349 117.317 408.058 118.776 409.402C120.236 410.747 122.233 411.419 124.769 411.419ZM190.106 400.011H183.423V423H166.771V360.658H183.423V384.108H189.357L202.955 360.658H223.985L203.589 390.331L225.887 423H203.704L190.106 400.011ZM268.293 423C267.525 421.502 266.968 419.639 266.622 417.411C262.589 421.905 257.346 424.152 250.893 424.152C244.785 424.152 239.715 422.385 235.682 418.852C231.687 415.318 229.689 410.862 229.689 405.484C229.689 398.878 232.129 393.807 237.007 390.273C241.924 386.74 249.01 384.953 258.268 384.915H265.931V381.343C265.931 378.462 265.182 376.157 263.684 374.429C262.224 372.7 259.9 371.836 256.712 371.836C253.908 371.836 251.699 372.508 250.086 373.853C248.511 375.197 247.724 377.041 247.724 379.384H231.072C231.072 375.773 232.186 372.431 234.414 369.358C236.642 366.285 239.792 363.885 243.863 362.156C247.935 360.389 252.506 359.506 257.576 359.506C265.258 359.506 271.347 361.446 275.841 365.325C280.373 369.166 282.64 374.582 282.64 381.573V408.596C282.678 414.511 283.504 418.986 285.117 422.021V423H268.293ZM254.522 411.419C256.981 411.419 259.247 410.881 261.321 409.806C263.396 408.692 264.932 407.213 265.931 405.369V394.652H259.708C251.373 394.652 246.936 397.533 246.398 403.295L246.341 404.274C246.341 406.349 247.071 408.058 248.53 409.402C249.99 410.747 251.987 411.419 254.522 411.419ZM346.249 374.025H326.256V423H309.547V374.025H289.899V360.658H346.249V374.025ZM350.34 391.253C350.34 385.069 351.531 379.557 353.912 374.717C356.294 369.877 359.712 366.132 364.168 363.481C368.662 360.831 373.867 359.506 379.782 359.506C388.194 359.506 395.051 362.079 400.352 367.227C405.691 372.374 408.668 379.365 409.282 388.199L409.397 392.463C409.397 402.027 406.728 409.71 401.389 415.51C396.049 421.271 388.886 424.152 379.897 424.152C370.909 424.152 363.726 421.271 358.349 415.51C353.009 409.748 350.34 401.912 350.34 392.002V391.253ZM366.991 392.463C366.991 398.378 368.105 402.911 370.333 406.061C372.561 409.172 375.749 410.728 379.897 410.728C383.931 410.728 387.08 409.191 389.347 406.118C391.613 403.007 392.746 398.052 392.746 391.253C392.746 385.453 391.613 380.959 389.347 377.771C387.08 374.582 383.892 372.988 379.782 372.988C375.711 372.988 372.561 374.582 370.333 377.771C368.105 380.92 366.991 385.818 366.991 392.463ZM473.698 423H456.989V399.031H436.305V423H419.653V360.658H436.305V385.664H456.989V360.658H473.698V423ZM68.6602 507H58.1133V455.812H68.6602V507ZM76.2188 487.629C76.2188 483.855 76.9453 480.492 78.3984 477.539C79.8516 474.586 81.9375 472.301 84.6562 470.684C87.3984 469.066 90.5742 468.258 94.1836 468.258C99.3164 468.258 103.5 469.828 106.734 472.969C109.992 476.109 111.809 480.375 112.184 485.766L112.254 488.367C112.254 494.203 110.625 498.891 107.367 502.43C104.109 505.945 99.7383 507.703 94.2539 507.703C88.7695 507.703 84.3867 505.945 81.1055 502.43C77.8477 498.914 76.2188 494.133 76.2188 488.086V487.629ZM86.3789 488.367C86.3789 491.977 87.0586 494.742 88.418 496.664C89.7773 498.562 91.7227 499.512 94.2539 499.512C96.7148 499.512 98.6367 498.574 100.02 496.699C101.402 494.801 102.094 491.777 102.094 487.629C102.094 484.09 101.402 481.348 100.02 479.402C98.6367 477.457 96.6914 476.484 94.1836 476.484C91.6992 476.484 89.7773 477.457 88.418 479.402C87.0586 481.324 86.3789 484.312 86.3789 488.367ZM157.711 464.355H142.031V507H131.484V464.355H116.016V455.812H157.711V464.355Z" fill="black"/>
<defs>
<clipPath id="clip0">
<rect width="1078" height="579" fill="white" transform="translate(362 201)"/>
</clipPath>
</defs>
</svg>
