<svg width="1440" height="900" viewBox="0 0 1440 900" fill="none" xmlns="http://www.w3.org/2000/svg">
<g clip-path="url(#clip0)">
<rect width="1440" height="900" fill="white"/>
<g clip-path="url(#clip1)">
<path opacity="0.1" d="M894.48 213.75C823.11 225.81 751.84 220.64 683.28 213.12C614.72 205.6 546.33 195.78 474.93 198.74C429 200.64 377.85 209.74 345.78 236.19C314.91 261.63 310.1 295.96 310.04 326.95C309.96 350.26 311.98 374.38 328.5 392.95C339.98 405.83 357.65 415.06 370.96 426.95C417.27 468.25 403.19 533.28 372.8 588.57C358.54 614.51 341.1 640.02 331.39 666.57C321.68 693.12 320.39 721.57 337.77 743.22C354.99 764.69 388.3 776.79 423.03 783.06C493.57 795.8 572.16 787.89 648.2 777.17C816.49 753.36 983.04 716.24 1149.23 679.21C1210.72 665.5 1272.48 651.73 1331.72 631.97C1364.62 620.97 1398.12 607.28 1419.37 585.97C1446.37 558.97 1447.05 522.04 1421.03 499.97C1377.37 462.97 1278.55 471.18 1244.78 428.88C1226.2 405.59 1234.29 373.96 1249.08 346.02C1280.79 286.1 1342.08 226.9 1334.14 167.16C1328.66 126.16 1286.85 92.23 1230.81 83.39C1172.07 74.13 1096.63 91.69 1062.81 132.95C1028.04 175.46 957.5 203.07 894.48 213.75Z" fill="#00B0FF"/>
<path d="M953.43 440.24H670V505.87H953.43V440.24Z" fill="#565661"/>
<path opacity="0.1" d="M953.43 440.24H670V505.87H953.43V440.24Z" fill="black"/>
<path d="M703.91 508.03L705.9 683.24L678.64 752.06L676.53 508.03H703.91Z" fill="#BCBEC9"/>
<path d="M672.99 452.84L948.94 454.5V503.38H672.99V452.84Z" fill="#565661"/>
<path d="M925.33 508.03L948.94 511.36V749.4L925.33 676.59V508.03Z" fill="#BCBEC9"/>
<path d="M1090.9 442.87H957.91V725.47H1090.9V442.87Z" fill="#EFEFF0"/>
<path d="M1080.26 450.72H968.55V667.95H1080.26V450.72Z" fill="#565661"/>
<path opacity="0.1" d="M1080.26 450.72H968.55V667.95H1080.26V450.72Z" fill="black"/>
<path d="M1080.26 455.17H968.55V503.38H1080.26V455.17Z" fill="#565661"/>
<path d="M1080.26 508.03H968.55V610.43H1080.26V508.03Z" fill="#565661"/>
<path d="M1080.26 616.75H968.55V719.15H1080.26V616.75Z" fill="#565661"/>
<path opacity="0.1" d="M1080.26 616.75H968.55V719.15H1080.26V616.75Z" fill="black"/>
<path d="M973.21 743.87C977.186 743.87 980.41 739.751 980.41 734.67C980.41 729.589 977.186 725.47 973.21 725.47C969.234 725.47 966.01 729.589 966.01 734.67C966.01 739.751 969.234 743.87 973.21 743.87Z" fill="#565661"/>
<path d="M1073.06 744.31C1077.04 744.31 1080.26 740.191 1080.26 735.11C1080.26 730.029 1077.04 725.91 1073.06 725.91C1069.08 725.91 1065.86 730.029 1065.86 735.11C1065.86 740.191 1069.08 744.31 1073.06 744.31Z" fill="#565661"/>
<path d="M669 752.06H678.64L675.99 445.32H661.35L669 752.06Z" fill="#EFEFF0"/>
<path d="M948.94 442.87V749.4H957.91V445.32L948.94 442.87Z" fill="#EFEFF0"/>
<path d="M676.46 500.38V511.36H948.94V503.38L676.46 500.38Z" fill="#EFEFF0"/>
<path d="M694.93 422.26H1040.37L1090.57 438.88V448.52L659.69 445.2V435.39L694.93 422.26Z" fill="white"/>
<path d="M659.69 435.39L1090.57 438.88V448.52L659.69 445.2V435.39Z" fill="#BCBEC9"/>
<path d="M698.72 549.71L696.72 549.41C696.72 549.32 696.72 549.24 696.72 549.16C696.66 548.69 696.59 548.23 696.52 547.76C697.34 548.41 698.12 549.06 698.84 549.71H698.72Z" fill="url(#paint0_linear)"/>
<path d="M655.26 704.12C656.56 703.82 657.88 703.57 659.2 703.39C668.266 702.099 677.511 703.46 685.82 707.31C684.98 713.49 684.15 719.88 685.93 725.85C687.17 730.05 689.66 733.85 690.19 738.23C691.525 738.46 692.771 739.056 693.786 739.954C694.802 740.851 695.548 742.013 695.94 743.31C696.324 744.457 696.516 745.66 696.51 746.87C696.499 748.367 696.311 749.857 695.95 751.31C695.828 752.471 695.259 753.538 694.362 754.285C693.466 755.032 692.313 755.4 691.15 755.31C683.41 756.19 675.82 753.14 668.62 750.15L654.62 744.33C652.98 743.65 651.33 742.96 649.76 742.12C646.782 740.511 644.138 738.349 641.97 735.75C641.512 735.286 641.19 734.705 641.04 734.07C640.78 732.31 642.84 731.26 644.15 730.07C644.534 729.707 644.87 729.297 645.15 728.85C646.7 726.51 646.85 723.28 647.78 720.52C649.98 713.97 656.78 709.75 659.18 703.36C659.31 703.01 659.43 702.66 659.53 702.3" fill="#A26565"/>
<path opacity="0.1" d="M696.51 746.87C696.499 748.367 696.311 749.857 695.95 751.31C695.828 752.471 695.259 753.538 694.362 754.285C693.466 755.032 692.313 755.4 691.15 755.31C683.41 756.19 675.82 753.14 668.62 750.15L654.62 744.33C652.98 743.65 651.33 742.96 649.76 742.12C646.782 740.511 644.138 738.349 641.97 735.75C641.512 735.286 641.19 734.705 641.04 734.07C640.78 732.31 642.84 731.26 644.15 730.07C644.534 729.707 644.87 729.297 645.15 728.85C649.01 729.68 653.8 732.11 656.75 733.05C659.705 733.855 662.542 735.041 665.19 736.58C668.87 738.94 671.52 742.58 674.64 745.58C677.76 748.58 681.79 751.31 686.14 750.94C688.44 750.593 690.657 749.827 692.68 748.68L696.51 746.87Z" fill="black"/>
<path d="M680.12 604.76C680.38 605.667 680.357 606.632 680.053 607.526C679.749 608.42 679.179 609.199 678.42 609.76C677.11 610.57 675.42 610.46 674.12 611.34C672.51 612.47 672.28 614.71 672 616.65C671 623.32 667.69 629.37 664.86 635.5C662.03 641.63 659.64 648.32 660.68 654.98C661.39 659.5 663.61 664.32 661.53 668.39C661.02 669.39 660.26 670.28 659.68 671.25C656.83 676.01 658.45 682.04 658.34 687.58C658.382 688.195 658.246 688.809 657.95 689.35C657.513 689.861 656.975 690.276 656.37 690.57C655.355 691.316 654.521 692.282 653.93 693.395C653.34 694.509 653.008 695.741 652.96 697C652.876 699.518 653.179 702.034 653.86 704.46C653.97 705.439 654.403 706.354 655.09 707.06C655.886 707.586 656.826 707.852 657.78 707.82C664.063 708.329 670.225 709.828 676.04 712.26C679.83 713.84 683.51 715.82 687.54 716.58C687.93 716.701 688.34 716.741 688.746 716.698C689.152 716.655 689.544 716.53 689.9 716.33C690.407 715.873 690.757 715.267 690.9 714.6C692.45 709.5 694.02 704.24 693.49 698.94C693.26 696.66 692.65 694.43 692.49 692.15C691.79 683.15 697.88 675.03 699.81 666.15C700.68 662.15 700.68 658.01 701.3 653.97C702.98 642.9 709.08 632.97 711.43 622.02C711.757 619.979 712.266 617.971 712.95 616.02C714.7 611.78 718.75 608.34 718.84 603.75C718.896 602.74 718.63 601.739 718.08 600.89C717.137 599.855 715.885 599.154 714.51 598.89C709.077 597.395 703.547 596.279 697.96 595.55C695.399 595.047 692.786 594.866 690.18 595.01C686.796 595.408 683.544 596.556 680.66 598.37C676.8 600.75 679.28 601.32 680.12 604.76Z" fill="#454B69"/>
<path opacity="0.05" d="M680.12 604.76C680.38 605.667 680.357 606.632 680.053 607.526C679.749 608.42 679.179 609.199 678.42 609.76C677.11 610.57 675.42 610.46 674.12 611.34C672.51 612.47 672.28 614.71 672 616.65C671 623.32 667.69 629.37 664.86 635.5C662.03 641.63 659.64 648.32 660.68 654.98C661.39 659.5 663.61 664.32 661.53 668.39C661.02 669.39 660.26 670.28 659.68 671.25C656.83 676.01 658.45 682.04 658.34 687.58C658.382 688.195 658.246 688.809 657.95 689.35C657.513 689.861 656.975 690.276 656.37 690.57C655.355 691.316 654.521 692.282 653.93 693.395C653.34 694.509 653.008 695.741 652.96 697C652.876 699.518 653.179 702.034 653.86 704.46C653.97 705.439 654.403 706.354 655.09 707.06C655.886 707.586 656.826 707.852 657.78 707.82C664.063 708.329 670.225 709.828 676.04 712.26C679.83 713.84 683.51 715.82 687.54 716.58C687.93 716.701 688.34 716.741 688.746 716.698C689.152 716.655 689.544 716.53 689.9 716.33C690.407 715.873 690.757 715.267 690.9 714.6C692.45 709.5 694.02 704.24 693.49 698.94C693.26 696.66 692.65 694.43 692.49 692.15C691.79 683.15 697.88 675.03 699.81 666.15C700.68 662.15 700.68 658.01 701.3 653.97C702.98 642.9 709.08 632.97 711.43 622.02C711.757 619.979 712.266 617.971 712.95 616.02C714.7 611.78 718.75 608.34 718.84 603.75C718.896 602.74 718.63 601.739 718.08 600.89C717.137 599.855 715.885 599.154 714.51 598.89C709.077 597.395 703.547 596.279 697.96 595.55C695.399 595.047 692.786 594.866 690.18 595.01C686.796 595.408 683.544 596.556 680.66 598.37C676.8 600.75 679.28 601.32 680.12 604.76Z" fill="black"/>
<path d="M660.55 755.47H652.02L646.44 640.83L646.05 634.31L653.3 631.76L653.79 638.69L660.55 755.47Z" fill="#565661"/>
<path opacity="0.1" d="M653.79 638.69L646.44 640.83L646.05 634.31L653.3 631.76L653.79 638.69Z" fill="black"/>
<path d="M767.58 779.72L753.51 781.42L688.69 634.31L671.21 633.03L640.51 641.99L634.54 817.14H620.47L626.01 635.59L592.32 636.45L532.2 786.11H519.41L582.64 611.2L585.08 604.46L679.31 601.23L702.8 614.4L703.1 615.16L767.58 779.72Z" fill="#565661"/>
<path opacity="0.1" d="M703.1 615.16C682.85 621.26 661.83 627.92 661.83 627.92C661.83 627.92 642.66 634.61 634.54 627.92C633.516 627.121 632.372 626.49 631.15 626.05C632.204 626.803 633.341 627.43 634.54 627.92L582.64 611.19L585.07 604.46L679.31 601.23L702.8 614.4L703.1 615.16Z" fill="black"/>
<path d="M607.25 586.13L645.62 577.6C645.62 577.6 737.3 594.66 744.12 601.48C744.12 601.48 670.78 616.4 662.68 621.48C654.58 626.56 606.39 632.18 607.25 586.13Z" fill="white"/>
<path d="M590.75 490.24C587.75 499.75 579.56 508.32 569.59 508.73C568.865 508.815 568.13 508.683 567.48 508.35C566.23 507.57 566.2 505.74 566.71 504.35C567.22 502.96 568.11 501.71 568.25 500.25C568.28 499.952 568.26 499.651 568.19 499.36C567.93 498.17 566.96 497.11 565.82 497.36C566.596 496.739 567.113 495.851 567.27 494.869C567.428 493.887 567.214 492.882 566.67 492.05C566.217 491.539 565.809 490.99 565.45 490.41C564.62 488.71 565.91 486.8 566.45 484.98C567.56 480.98 564.74 476.98 564.51 472.81C564.31 469.08 566.2 465.57 566.67 461.87C567.42 455.87 564.44 450.12 564.09 444.13C563.85 439.95 564.88 435.81 566.03 431.78C567.03 428.18 568.16 424.54 568.23 420.78C568.23 418.05 567.76 415.35 567.63 412.63C567.423 410.143 567.874 407.646 568.94 405.39C569.632 404.063 570.811 403.056 572.23 402.58C575.51 401.48 577.66 403.19 578.14 406.3C578.94 411.59 578.48 416.99 579.53 422.3C580.501 427.266 581.972 432.12 583.92 436.79C585.69 441.01 587.84 445.09 589.2 449.46C590.224 453.062 590.956 456.741 591.39 460.46C592.73 470.45 593.78 480.73 590.75 490.24Z" fill="#00B0FF"/>
<path d="M818.51 732.28C817.245 734.063 815.617 735.559 813.734 736.669C811.85 737.778 809.753 738.478 807.58 738.72C803.24 739.26 798.73 738.17 794.52 739.36C793.868 739.467 793.253 739.734 792.729 740.138C792.206 740.541 791.79 741.067 791.52 741.67C791.416 742.483 791.352 743.301 791.33 744.12C790.84 746.79 787.33 747.39 784.6 747.37L773.34 747.3C771 747.3 768.41 747.17 766.73 745.55C765.931 744.665 765.481 743.521 765.462 742.329C765.444 741.137 765.859 739.979 766.63 739.07C766.979 738.656 767.408 738.316 767.89 738.07C767.187 737.837 766.562 737.414 766.085 736.847C765.609 736.281 765.299 735.593 765.19 734.86C764.985 733.39 765.056 731.894 765.4 730.45C765.4 726.27 766.4 719.27 769.34 716C772.95 711.93 779.21 706.67 784.66 705.58C786.5 705.227 788.398 705.31 790.2 705.822C792.003 706.335 793.66 707.262 795.04 708.53C797.62 710.93 799.5 714.69 803.04 715.11C804.97 715.35 806.83 714.44 808.74 714.11C810.911 713.831 813.115 714.229 815.05 715.252C816.985 716.274 818.557 717.87 819.55 719.82C820.035 720.809 820.372 721.863 820.55 722.95C821.078 726.206 820.349 729.541 818.51 732.28Z" fill="#A26565"/>
<path opacity="0.1" d="M818.51 732.28C817.245 734.063 815.617 735.559 813.734 736.669C811.85 737.778 809.753 738.478 807.58 738.72C803.24 739.26 798.73 738.17 794.52 739.36C793.868 739.467 793.253 739.734 792.729 740.138C792.206 740.541 791.79 741.067 791.52 741.67C791.416 742.483 791.352 743.301 791.33 744.12C790.84 746.79 787.33 747.39 784.6 747.37L773.34 747.3C771 747.3 768.41 747.17 766.73 745.55C765.931 744.665 765.481 743.521 765.462 742.329C765.444 741.137 765.859 739.979 766.63 739.07C773.13 738.8 779.52 739.07 786 737.73C788.63 737.2 791.22 736.5 793.88 736.13C799.64 735.31 805.77 736.01 811.06 733.57C815.47 731.57 818.63 727.5 820.5 722.96C821.04 726.207 820.329 729.537 818.51 732.28V732.28Z" fill="black"/>
<path d="M788.8 716.47C784.8 719.57 780.11 721.99 775.07 722.25C770.03 722.51 764.68 720.25 762.21 715.87C758.6 709.44 761.8 700.5 757.38 694.6C756 692.75 754.01 691.44 752.55 689.65C751.09 687.86 750.25 685.17 751.55 683.27C749.98 683.87 748.32 682.35 747.86 680.73C747.4 679.11 747.69 677.37 747.41 675.73C746.68 671.38 742.41 668.59 740.36 664.73C738.31 660.87 738.59 655.86 738.36 651.29C737.849 640.156 733.704 629.495 726.56 620.94C725.2 619.32 723.46 617.67 721.34 617.75C721.71 614.09 719.27 610.59 716.11 608.75C712.95 606.91 709.19 606.29 705.53 605.93C668.6 602.29 630.12 616.02 594.86 604.47C585.05 601.26 575.59 595.89 569.59 587.47C567.253 584.266 565.581 580.626 564.672 576.765C563.764 572.904 563.637 568.9 564.3 564.99V564.85C565.69 557.75 569.44 556 575.65 552.76C582.819 548.97 590.312 545.827 598.04 543.37C613.04 538.68 629.19 536.99 644.67 540.43C651.9 542.05 658.87 544.73 666.11 546.3C668.96 546.92 671.83 547.36 674.72 547.73C679.21 548.29 683.72 548.66 688.24 549.18C702.693 550.844 716.927 554.046 730.7 558.73C735.83 560.47 740.96 562.46 745.37 565.61C748.858 568.143 751.808 571.345 754.046 575.03C756.285 578.714 757.768 582.807 758.41 587.07C758.83 590.01 758.84 593.07 759.48 595.92C760.086 598.315 760.889 600.656 761.88 602.92C770.425 624.046 777.407 645.771 782.77 667.92C783.074 669.565 783.638 671.152 784.44 672.62C785.72 674.69 787.92 676.08 789.21 678.15C792.21 683.03 789.32 689.84 791.98 694.92C792.9 696.68 794.43 698.07 795.35 699.83C798.35 705.6 793.92 712.5 788.8 716.47Z" fill="#454B69"/>
<path opacity="0.1" d="M737.7 601.57C739.122 600.445 740.348 599.094 741.33 597.57C742.315 596.039 742.707 594.2 742.43 592.4C742.82 594.677 742.671 597.013 741.996 599.222C741.32 601.431 740.137 603.451 738.54 605.12C736.03 607.69 731.32 610.21 727.65 609.33C728.17 606.39 735.37 603.55 737.7 601.57Z" fill="black"/>
<path opacity="0.1" d="M675.22 551.73C674.918 552.802 674.354 553.782 673.579 554.581C672.804 555.381 671.842 555.975 670.78 556.31C668.648 556.962 666.415 557.223 664.19 557.08H662.19C635.95 556.5 609.43 550.68 583.8 556.23C580.711 556.867 577.681 557.76 574.74 558.9C570.994 560.377 567.486 562.398 564.33 564.9V564.76C565.72 557.66 569.47 555.91 575.68 552.67C582.843 548.912 590.325 545.8 598.04 543.37C613.04 538.68 629.19 536.99 644.67 540.43C651.9 542.05 658.87 544.73 666.11 546.3C668.96 546.92 671.83 547.36 674.72 547.73C675.281 548.984 675.455 550.377 675.22 551.73V551.73Z" fill="black"/>
<path d="M675.22 550.3C674.92 551.374 674.357 552.356 673.582 553.158C672.807 553.96 671.844 554.555 670.78 554.89C668.648 555.543 666.415 555.801 664.19 555.65H662.19C635.95 555.07 609.43 549.25 583.8 554.8C580.712 555.438 577.682 556.328 574.74 557.46C570.817 559.025 567.157 561.183 563.89 563.86C563.123 561.753 562.36 559.643 561.6 557.53C560.68 555.01 563.6 554.45 564.16 552.19C564.53 550.66 563.9 548.92 563.58 547.29C563.498 546.891 563.444 546.487 563.42 546.08C563.24 542.47 564.53 540.39 567.49 538.44C576.27 532.64 586.98 528.66 597 525.67C602.327 523.986 607.83 522.919 613.4 522.49C621.28 522.03 629.15 523.49 636.82 525.34C646.25 527.67 655.58 530.75 663.94 535.68C668.04 538.07 672.04 541.07 674.25 545.33C675.132 546.827 675.474 548.581 675.22 550.3Z" fill="#A26565"/>
<path opacity="0.1" d="M590.75 490.24C587.75 499.75 579.56 508.32 569.59 508.73C568.865 508.815 568.13 508.683 567.48 508.35C566.23 507.57 566.2 505.74 566.71 504.35C567.22 502.96 568.11 501.71 568.25 500.25C568.28 499.952 568.26 499.651 568.19 499.36C573.48 491.9 578.61 484.36 580.64 475.53C581.051 474.01 581.176 472.426 581.01 470.86C580.74 469.06 579.83 467.43 579.33 465.69C578.45 462.61 578.86 459.35 579.11 456.16C580.151 442.113 577.806 428.022 572.27 415.07C570.92 411.95 569.38 408.79 568.91 405.46C569.602 404.133 570.781 403.126 572.2 402.65C575.48 401.55 577.63 403.26 578.11 406.37C578.91 411.66 578.45 417.06 579.5 422.37C580.471 427.336 581.942 432.19 583.89 436.86C585.66 441.08 587.81 445.16 589.17 449.53C590.194 453.132 590.926 456.811 591.36 460.53C592.73 470.45 593.78 480.73 590.75 490.24Z" fill="black"/>
<path opacity="0.1" d="M675.22 550.3C674.92 551.374 674.357 552.356 673.582 553.158C672.807 553.96 671.844 554.555 670.78 554.89C668.648 555.543 666.415 555.801 664.19 555.65H662.19C653.648 549.977 643.379 547.498 633.19 548.65C629.93 549.04 626.67 549.8 623.41 549.5C616.82 548.9 611.48 544.16 605.61 541.13C598.93 537.832 591.418 536.605 584.036 537.606C576.654 538.607 569.74 541.792 564.18 546.75L563.61 547.25C563.528 546.851 563.474 546.447 563.45 546.04C563.27 542.43 564.56 540.35 567.52 538.4C576.3 532.6 587.01 528.62 597.03 525.63C602.357 523.946 607.86 522.879 613.43 522.45C621.31 521.99 629.18 523.45 636.85 525.3C646.28 527.63 655.61 530.71 663.97 535.64C668.04 538.07 672.04 541.07 674.25 545.33C675.132 546.827 675.474 548.581 675.22 550.3Z" fill="black"/>
<path d="M697.65 440.76L697.51 441.12C695.27 446.93 691.15 451.84 688.51 457.5C685.18 464.67 684.36 472.71 683.62 480.59C682.98 487.34 682.35 494.13 682.86 500.9C684.14 517.58 692.29 533.4 694.47 549.76C695.007 553.538 695.145 557.363 694.88 561.17C694.7 563.58 694.26 566.17 692.66 567.95C691.06 569.73 687.95 570.43 686.23 568.72C687 567.25 687.78 565.79 688.56 564.32C683.99 560.77 677.11 563.32 671.77 561.1C669.42 560.1 667.54 558.3 665.57 556.69C661.074 553.034 655.892 550.314 650.33 548.69C644.768 547.065 638.937 546.569 633.18 547.23C629.92 547.63 626.66 548.39 623.4 548.09C616.81 547.48 611.47 542.75 605.6 539.72C598.921 536.423 591.409 535.196 584.028 536.195C576.647 537.195 569.732 540.376 564.17 545.33C562.77 546.63 560.89 548.15 559.17 547.33C558.505 546.923 557.968 546.337 557.62 545.64C551.07 534.45 555.89 520.02 562.89 509.12C569.89 498.22 579.16 488.17 582.04 475.54C582.456 474.02 582.581 472.436 582.41 470.87C582.14 469.07 581.23 467.44 580.73 465.7C579.85 462.62 580.26 459.36 580.51 456.17C581.559 442.122 579.22 428.027 573.69 415.07C572.09 411.34 570.19 407.56 570.19 403.51C570.19 397.13 574.76 391.84 578.54 386.71C582.89 380.81 586.54 374.28 592.05 369.43C597.27 364.82 604.83 362 611.29 364.34C622.267 361.675 633.565 360.574 644.85 361.07C648.75 361.25 652.78 361.66 656.2 363.55C659.86 365.55 662.49 369.11 666.09 371.24C668.72 372.81 671.75 373.55 674.61 374.65C682.507 377.734 689.026 383.565 692.97 391.07C696.97 398.82 697.97 407.73 698.85 416.41C699.69 424.58 700.49 433.07 697.65 440.76Z" fill="#00B0FF"/>
<path opacity="0.1" d="M682.86 500.9C684.14 517.58 692.29 533.4 694.47 549.76C690.11 546.07 684.04 542.36 683.23 538.07C682.33 533.43 679.45 527.35 678.97 522.66C678.49 517.97 681.78 512.24 678.33 509.02C676.65 507.45 681.12 507.89 679.48 506.28C675.79 502.69 674.88 497.16 674.65 492.03C674.26 482.95 675.41 473.77 673.74 464.84C672.74 459.33 670.65 454.08 668.98 448.73C667.04 442.5 665.64 436.12 664.24 429.73C662.862 424.049 661.86 418.283 661.24 412.47C660.81 407.47 661.01 402.17 663.24 397.61C665.47 393.05 669.98 389.35 675.04 389.42C691.96 389.64 689.04 412.58 692.76 423.18C694.25 427.4 696.26 431.48 697.07 435.88C697.365 437.605 697.526 439.35 697.55 441.1C695.31 446.91 691.19 451.82 688.55 457.48C685.22 464.65 684.4 472.69 683.66 480.57C682.98 487.34 682.35 494.13 682.86 500.9Z" fill="black"/>
<path d="M693.86 422.92C695.35 427.14 697.36 431.22 698.17 435.62C699.52 442.99 697.43 450.82 699.7 457.96C700.291 459.484 700.785 461.044 701.18 462.63C701.57 464.9 701.12 467.22 701.12 469.53C701.12 473.25 702.29 476.85 703.33 480.42C706.847 492.552 709.175 504.997 710.28 517.58C710.445 520.961 710.978 524.314 711.87 527.58C712.29 528.687 712.65 529.815 712.95 530.96C713.219 532.488 713.282 534.045 713.14 535.59C712.87 540.49 712.32 545.41 712.87 550.29C713.42 555.17 715.2 560.12 718.87 563.39C715.59 564.1 712.12 564.81 708.92 563.76C704.42 562.29 701.72 557.76 699.43 553.64C696.53 548.38 685.51 543.64 684.37 537.73C683.48 533.1 680.6 527.02 680.12 522.32C679.64 517.62 682.92 511.91 679.47 508.69C677.8 507.12 682.27 507.55 680.62 505.95C676.94 502.36 676.03 496.83 675.8 491.69C675.41 482.62 676.55 473.44 674.89 464.51C673.89 459 671.8 453.75 670.13 448.39C668.19 442.17 666.79 435.79 665.39 429.39C664.008 423.71 663.006 417.944 662.39 412.13C661.96 407.13 662.15 401.82 664.39 397.26C666.63 392.7 671.14 389.01 676.19 389.07C693.04 389.37 690.14 412.32 693.86 422.92Z" fill="#00B0FF"/>
<path opacity="0.1" d="M645.64 426.83C647.22 428.68 649.25 430.71 651.64 430.35C651.459 430.638 651.172 430.843 650.841 430.921C650.51 431 650.161 430.945 649.87 430.77C649.296 430.39 648.837 429.861 648.54 429.24L645.12 423.47C644.67 422.72 641.57 418.35 640.81 420.87C640.51 421.94 644.87 425.93 645.64 426.83Z" fill="black"/>
<path opacity="0.1" d="M643.8 441.22C643.702 439.335 642.907 437.553 641.57 436.22C640.368 435.13 638.965 434.284 637.44 433.73C633.69 432.19 629.25 430.95 625.18 431.15C626.66 433.31 631.41 434.6 633.79 435.82C637.163 437.56 640.5 439.36 643.8 441.22Z" fill="black"/>
<path opacity="0.1" d="M654.45 482.18C653.76 487.3 649.57 491.18 645.33 494.18C641.09 497.18 636.33 499.76 633.56 504.1C631.64 507.1 630.78 510.58 629.15 513.71C627.35 517.16 624.66 520.06 622.51 523.3C620.36 526.54 618.68 530.41 619.34 534.25C619.349 534.427 619.395 534.6 619.474 534.758C619.553 534.916 619.664 535.056 619.8 535.17C620.006 535.257 620.231 535.29 620.453 535.265C620.676 535.241 620.888 535.16 621.07 535.03C625.43 532.75 627.15 527.54 628.98 523.03C630.901 518.478 633.064 514.031 635.46 509.71C636.54 507.71 637.73 505.53 639.74 504.42C641.116 503.847 642.525 503.356 643.96 502.95C645.995 502.017 647.78 500.615 649.17 498.86C654.629 492.348 657.479 484.042 657.17 475.55C657.11 473.76 657.01 465.14 654.32 467.8C651.63 470.46 654.91 478.7 654.45 482.18Z" fill="black"/>
<path d="M661.04 285.81C669.64 289.56 677.04 297.81 676.77 307.16C676.54 316.98 668.32 326.23 671.15 335.64C672.79 341.1 677.73 344.76 681.64 348.91C696.53 364.67 696.5 392.18 681.56 407.91C675.84 413.91 668.49 418.18 662.44 423.91C641.11 444.01 640.2 478.78 651.62 505.77C642.87 507.662 633.952 508.668 625 508.77C620.81 508.77 615.68 508.06 614.16 504.15C612.76 500.54 615.16 495.66 612.4 492.99C611.1 491.74 609.15 491.57 607.4 491.28C596.14 489.46 586.9 480.47 582.68 469.88C578.46 459.29 578.68 447.37 581.1 436.23C582.82 428.18 585.51 419.32 581.52 412.12C576.52 403.06 562.14 399.24 562.36 388.88C562.54 380.39 572.55 376.26 578.23 369.95C588.71 358.33 583.72 340.3 583.7 324.64C583.7 310.86 588.52 296.64 598.78 287.46C614.04 273.69 643.43 278.16 661.04 285.81Z" fill="#A26565"/>
<g opacity="0.1">
<path opacity="0.1" d="M583.16 401.85C578.77 393.93 567.24 390.01 564.56 382.22C563.219 384.038 562.466 386.222 562.4 388.48C562.18 398.84 576.54 402.66 581.56 411.73C583.208 414.941 583.902 418.557 583.56 422.15C585.14 415.19 586.53 407.93 583.16 401.85Z" fill="black"/>
<path opacity="0.1" d="M672.3 322.82C674.1 317.57 676.71 312.27 676.84 306.82C676.858 306.23 676.842 305.639 676.79 305.05C674.78 311.07 671.7 316.91 672.3 322.82Z" fill="black"/>
<path opacity="0.1" d="M584.88 350.79C588.32 339.92 585.35 326.44 585.34 314.38C585.34 312.92 585.4 311.45 585.51 309.99C584.325 314.651 583.727 319.441 583.73 324.25C583.75 332.86 585.26 342.2 584.88 350.79Z" fill="black"/>
<path opacity="0.1" d="M683.23 397.68C677.51 403.68 670.16 407.95 664.11 413.68C653.31 423.85 647.76 437.78 646.37 452.55C648.95 441.55 654.16 431.42 662.51 423.55C668.51 417.85 675.91 413.6 681.63 407.55C688.434 400.135 692.385 390.546 692.78 380.49C691.053 386.916 687.774 392.819 683.23 397.68V397.68Z" fill="black"/>
<path opacity="0.1" d="M626.67 498.51C622.48 498.51 617.35 497.79 615.83 493.88C614.43 490.28 616.83 485.4 614.07 482.72C612.77 481.47 610.81 481.3 609.07 481.01C597.82 479.2 588.58 470.2 584.36 459.62C581.25 451.8 580.58 443.27 581.36 434.85C581.28 435.18 581.21 435.51 581.14 435.85C578.76 446.99 578.51 458.92 582.72 469.51C586.93 480.1 596.18 489.09 607.43 490.9C609.21 491.19 611.17 491.37 612.43 492.61C615.22 495.29 612.79 500.17 614.19 503.77C615.71 507.68 620.84 508.45 625.03 508.4C633.982 508.297 642.9 507.292 651.65 505.4C650.416 502.483 649.338 499.502 648.42 496.47C641.238 497.746 633.964 498.429 626.67 498.51V498.51Z" fill="black"/>
</g>
<path opacity="0.1" d="M659.42 454.9C661.89 456.76 664.57 449.67 663.04 447.9C662.63 448.36 659.04 454.64 659.42 454.9Z" fill="black"/>
<path opacity="0.1" d="M669.95 583.24C672.86 582.24 675.95 581.24 677.85 578.84C679.42 576.91 680.71 569.25 677.39 572.92C674.57 576.07 673.24 580.22 669.95 583.24Z" fill="black"/>
<path opacity="0.1" d="M699.58 575.21C699.23 577.57 698.58 580.02 696.91 581.72C696.6 582.04 695.91 582.24 695.82 581.81C697.685 580.817 699.419 579.594 700.98 578.17C704.36 574.82 704.82 566.57 699.67 564.38C699.62 568 700.13 571.53 699.58 575.21Z" fill="black"/>
<path d="M735.15 560.34C735.15 560.34 706.77 549.19 696.51 550.34C686.25 551.49 708.13 567.66 708.13 567.66L721.21 576.48C721.21 576.48 729.21 573.48 729.74 573.25C730.27 573.02 735.15 560.34 735.15 560.34Z" fill="#454B69"/>
<path d="M539.88 440.72C539.88 440.72 561.2 428.36 589.34 443.72C617.48 459.08 622.17 549.47 622.17 549.47C622.17 549.47 610.66 641.56 655.04 621.07C655.04 621.07 736.04 595.92 744.15 601.46C744.15 601.46 751.83 601.46 736.48 604.87C721.13 608.28 661.83 627.07 661.83 627.07C661.83 627.07 642.66 633.77 634.54 627.07C626.42 620.37 603.41 627.93 600.42 581.87C598.441 552.844 594.883 523.948 589.76 495.31L581.85 471.86L539.88 440.72Z" fill="#565661"/>
<path d="M537.32 583.14C537.32 583.14 546.7 489.76 531.32 456.07C517.94 426.71 569.68 440.44 583.18 444.44C585.269 445.065 587.092 446.366 588.36 448.14C596.36 459.39 625.06 504.48 616.6 564.81C616.6 564.81 613.19 618.54 634.51 627.06L568.82 605.9C563.49 604.18 558.08 602.75 552.62 601.51C545.66 599.93 534.32 595.44 537.32 583.14Z" fill="white"/>
<path d="M1004.53 757.47H1013.06L1018.65 642.83L1019.03 636.31L1011.78 633.76L1011.3 640.69L1004.53 757.47Z" fill="#565661"/>
<path opacity="0.1" d="M1011.3 640.69L1018.65 642.83L1019.03 636.31L1011.78 633.76L1011.3 640.69Z" fill="black"/>
<path d="M933.31 713.2C933.1 714.77 932.697 716.309 932.11 717.78C931.504 719.702 930.202 721.328 928.46 722.34C927.29 722.823 926.036 723.071 924.77 723.07C920.06 723.35 915.08 723.28 911.03 720.88C909.305 719.768 907.723 718.448 906.32 716.95C897.219 707.908 888.946 698.068 881.6 687.55C880.37 685.78 879.1 683.69 879.65 681.55C889.166 678.91 898.202 674.776 906.42 669.3C907.554 668.43 908.825 667.754 910.18 667.3C912.5 666.804 914.889 666.716 917.24 667.04C919.51 667.41 919.61 667.48 920.48 670.04C921.92 674.37 921.68 679.04 923.3 683.37C924.328 685.763 925.58 688.053 927.04 690.21C931.22 697.2 934.43 705.45 933.31 713.2Z" fill="#A26565"/>
<path opacity="0.1" d="M933.31 713.2C933.1 714.77 932.697 716.309 932.11 717.78C931.504 719.702 930.202 721.328 928.46 722.34C927.29 722.823 926.036 723.071 924.77 723.07C920.06 723.35 915.08 723.28 911.03 720.88C909.305 719.768 907.723 718.448 906.32 716.95C897.219 707.908 888.946 698.068 881.6 687.55C880.37 685.78 879.1 683.69 879.65 681.55C882.754 680.69 885.812 679.668 888.81 678.49L888.96 678.6C892.03 680.79 894.26 683.93 896.43 687.01L903.43 696.86C904.678 698.795 906.151 700.574 907.82 702.16C909.889 703.82 912.173 705.193 914.61 706.24C917.9 707.83 921.19 709.42 924.61 710.7C926.82 711.59 930.56 711.94 933.31 713.2Z" fill="black"/>
<path d="M939.77 606.41C939.081 608.072 938.244 609.668 937.27 611.18C927.975 626.787 920.805 643.566 915.95 661.07C914.57 660.76 913.79 662.64 913.8 664.07C913.81 665.5 913.8 667.3 912.48 667.82C912.09 667.97 911.65 667.97 911.27 668.14C910.43 668.52 910.19 669.59 910.07 670.51L908.89 679.17C908.48 682.17 908.12 685.42 909.59 688.07C910.604 689.645 911.919 691.004 913.46 692.07L932.98 707.47C933.78 708.1 934.77 708.77 935.73 708.42C937.92 707.62 935.98 703.7 937.73 702.11C938.89 701.02 940.73 701.84 942.34 701.71C944.44 701.55 946.03 699.62 946.56 697.59C946.932 695.523 946.969 693.409 946.67 691.33C946.538 690.381 946.648 689.415 946.99 688.52C947.586 687.572 948.407 686.785 949.38 686.23C952.767 683.756 955.496 680.491 957.328 676.718C959.16 672.945 960.04 668.781 959.89 664.59C959.731 663.314 959.778 662.021 960.03 660.76C960.437 659.606 961.05 658.535 961.84 657.6C968.93 648.01 974.84 637.6 980.71 627.21C984.09 621.21 987.53 615.12 988.71 608.36C988.812 608.108 988.855 607.837 988.834 607.566C988.813 607.295 988.729 607.033 988.59 606.8C988.45 606.567 988.258 606.37 988.029 606.224C987.8 606.079 987.54 605.988 987.27 605.96C984.342 605.046 981.355 604.331 978.33 603.82C969.14 601.96 960.27 599.09 951.33 596.33C942.39 593.57 942.46 599.19 939.77 606.41Z" fill="#454B69"/>
<path d="M897.5 781.72L911.58 783.42L976.39 636.31L993.87 635.03L1024.58 643.99L1030.54 819.14H1044.61L1039.07 637.59L1072.76 638.45L1132.88 788.11H1145.67L1082.44 613.2L1080.01 606.46L985.77 603.23L962.28 616.4L961.98 617.16L897.5 781.72Z" fill="#565661"/>
<path opacity="0.1" d="M961.98 617.16C982.23 623.26 1003.25 629.92 1003.25 629.92C1003.25 629.92 1022.42 636.61 1030.54 629.92C1031.56 629.121 1032.71 628.49 1033.93 628.05C1032.88 628.803 1031.74 629.43 1030.54 629.92L1082.44 613.19L1080.04 606.46L985.8 603.23L962.31 616.4L961.98 617.16Z" fill="black"/>
<path d="M1057.83 588.13L1019.46 579.6C1019.46 579.6 927.78 596.66 920.96 603.48C920.96 603.48 994.3 618.4 1002.4 623.48C1010.5 628.56 1058.69 634.18 1057.83 588.13Z" fill="white"/>
<path d="M915.45 725.21C913.14 729.61 907.45 730.85 902.45 730.92C895.508 731.006 888.613 729.774 882.13 727.29C878.43 725.87 874.88 724.04 871.06 723C865.37 721.44 859.06 721.57 854.06 718.44C851.408 716.672 849.217 714.296 847.67 711.51C847.38 711.02 847.1 710.51 846.84 709.99C844.45 705.34 843.34 699.93 844.67 694.91C846 689.89 850.83 684.36 856.43 684.44C863.08 684.54 871.01 687.69 877.43 689.32C885.43 691.32 893.43 693.63 900.5 697.86C906.42 701.42 911.65 706.53 914.44 712.77C914.976 713.974 915.418 715.217 915.76 716.49C916.63 719.37 916.83 722.58 915.45 725.21Z" fill="#A26565"/>
<path opacity="0.1" d="M915.45 725.21C913.14 729.61 907.45 730.85 902.45 730.92C895.508 731.006 888.613 729.774 882.13 727.29C878.43 725.87 874.88 724.04 871.06 723C865.37 721.44 859.06 721.57 854.06 718.44C851.408 716.672 849.217 714.296 847.67 711.51C847.38 711.02 847.1 710.51 846.84 709.99C847.84 710.07 848.76 710.17 849.26 710.22C855.4 710.81 861.26 713.05 867.12 714.74C875.255 717.09 883.655 718.4 892.12 718.64C898.12 718.81 904.38 718.37 909.62 715.44C911.185 714.453 912.808 713.561 914.48 712.77C915.016 713.974 915.458 715.217 915.8 716.49C916.63 719.37 916.83 722.58 915.45 725.21Z" fill="black"/>
<path d="M958.42 535.07C945.42 532.94 932.18 532.42 919 531.9L902.88 531.26C901.734 531.127 900.572 531.268 899.49 531.67C898.558 532.269 897.672 532.938 896.84 533.67C895.22 534.77 893.15 534.89 891.2 535C877.367 535.762 863.609 537.547 850.04 540.34C843.04 541.77 835.77 543.64 830.51 548.47C824.95 553.58 822.51 561.37 822.32 568.91C822.13 576.45 824.11 583.86 826.2 591.1C828.861 599.816 830.331 608.851 830.57 617.96C830.476 620.487 830.573 623.018 830.86 625.53C831.325 627.929 832.032 630.274 832.97 632.53L840.33 652.18C840.98 653.9 841.62 655.61 842.33 657.29C843.04 658.97 843.72 660.29 844.33 661.87C845.23 664.03 845.94 666.27 846.65 668.5L851.55 683.89L852.19 685.89C853.96 691.43 855.77 697.07 859.11 701.83C862.45 706.59 867.62 710.43 873.43 710.72C875.305 710.65 877.182 710.7 879.05 710.87C880.642 711.259 882.188 711.819 883.66 712.54C888.023 714.352 892.706 715.267 897.43 715.23C901.78 715.23 906.61 714.02 908.97 710.36C910.27 708.36 910.61 705.9 910.97 703.54C911.6 698.8 912.21 693.85 910.6 689.35C909.6 686.66 907.92 684.35 906.76 681.7C905.14 678.09 904.61 674.1 903.56 670.29C901.288 662.089 896.664 654.734 890.26 649.13C887.986 640.125 886.315 630.978 885.26 621.75C885.113 619.707 884.707 617.69 884.05 615.75C882.88 612.75 880.51 610.32 879.52 607.26C878.59 604.42 878.87 601.14 877.18 598.69C891.25 602.56 905.18 601.69 919.79 601.46C924.469 601.475 929.144 601.208 933.79 600.66C935.956 600.263 938.149 600.029 940.35 599.96C944.87 599.96 949.11 601.96 953.26 603.72C964.99 608.72 977.35 612.65 990.09 613.19C1003.24 613.74 1016.24 610.65 1029.09 607.59C1034.74 606.24 1040.61 604.78 1045.09 601.07C1049.57 597.36 1052.09 590.67 1049.33 585.58C1047.23 581.75 1042.88 579.87 1038.82 578.27C1027.58 573.83 1016.28 569.5 1005.45 564.13C988.91 556.07 976.54 538.07 958.42 535.07Z" fill="#454B69"/>
<path d="M935.24 489.83C933.67 493.23 931.03 496.01 929.08 499.21C925.818 504.478 924.741 510.811 926.08 516.86C926.783 519.85 928.163 522.64 930.113 525.013C932.064 527.386 934.532 529.281 937.33 530.55C939.827 531.545 942.454 532.178 945.13 532.43C948.65 532.86 952.4 532.95 955.51 531.25C957.838 529.853 959.747 527.857 961.04 525.47C963.73 520.97 965.26 515.9 966.66 510.85C969.25 501.53 971.46 491.97 971.14 482.3C971.03 478.97 970.37 475.22 967.61 473.3C966.185 472.477 964.605 471.96 962.97 471.78L949.78 469.42C947.23 468.96 942.78 467.09 940.57 468.93C938.36 470.77 938.19 476.21 937.81 478.76C937.21 482.53 936.84 486.36 935.24 489.83Z" fill="#A1616A"/>
<path d="M1095.57 451.15L1092.12 480.07C1091.41 485.228 1091 490.424 1090.89 495.63C1090.89 498.53 1090.98 501.75 1089.06 503.92C1088.12 504.907 1086.93 505.623 1085.62 505.99C1081.43 507.29 1076.86 506.13 1072.86 504.34C1070.52 503.34 1068.13 501.89 1067.07 499.56C1066.45 497.945 1066.2 496.214 1066.32 494.49C1066.32 477.24 1067.95 459.25 1076.96 444.55C1077.73 443.108 1078.81 441.857 1080.13 440.89C1082.63 439.29 1085.9 439.74 1088.73 440.61C1090.47 441.14 1095.17 441.73 1096.28 443.28C1097.39 444.83 1095.81 449.16 1095.57 451.15Z" fill="#A1616A"/>
<path d="M1004.04 346.57C1023.92 346.57 1040.04 330.452 1040.04 310.57C1040.04 290.688 1023.92 274.57 1004.04 274.57C984.158 274.57 968.04 290.688 968.04 310.57C968.04 330.452 984.158 346.57 1004.04 346.57Z" fill="#A1616A"/>
<path d="M994.41 364.22C994.28 367.021 993.518 369.756 992.18 372.22C1010.56 369.42 1028.89 366.3 1047.18 362.86C1041.11 359.741 1036.53 354.349 1034.42 347.86C1033.43 344.381 1032.88 340.788 1032.8 337.17C1032.51 331.433 1032.62 325.682 1033.13 319.96C1026.73 320.63 1020.67 323.03 1014.57 325.09C1008.44 327.163 1002.2 328.908 995.88 330.32C992.83 331 989.76 331.58 986.68 332.12C983.08 332.76 981.35 332.75 983.85 335.91C990.56 344.35 995.35 352.93 994.41 364.22Z" fill="#A1616A"/>
<path d="M1005.47 359.41C1000.72 360.12 995.74 360.92 991.95 363.86C990.507 365.099 989.135 366.418 987.84 367.81C980.31 375.12 969.68 378.06 960.54 383.22C959.049 383.957 957.728 384.996 956.66 386.27C955.66 387.66 955.15 389.43 954.1 390.81C952.88 392.41 950.95 393.41 950 395.18C949.05 396.95 949.26 398.83 949.16 400.71C948.93 404.84 947.37 408.76 946.16 412.71C940.61 431.62 943.65 452.71 935.25 470.57C935.636 471.599 936.227 472.539 936.987 473.333C937.746 474.127 938.659 474.759 939.67 475.19C941.784 475.951 943.99 476.426 946.23 476.6L964.84 478.91C967.5 479.24 970.32 479.55 972.75 478.44C970.527 484.568 968.955 490.913 968.06 497.37C967.608 501.317 966.906 505.231 965.96 509.09C963.4 517.89 956.96 525.22 949.33 530.23C948.369 530.733 947.558 531.482 946.98 532.4C945.98 534.4 947.46 536.64 948.51 538.6C951.56 544.28 951.14 551.1 951.1 557.54C951.06 563.98 951.71 571.05 956.21 575.67C958.87 578.4 962.51 579.88 966.05 581.29L995.16 592.92C999.964 594.966 1004.92 596.637 1009.98 597.92C1017.65 599.67 1025.62 599.6 1033.49 599.26C1038.69 599.04 1043.88 598.707 1049.07 598.26C1051.13 598.253 1053.16 597.72 1054.96 596.71C1056.51 595.488 1057.7 593.871 1058.41 592.03C1062.46 583.22 1063.82 572.94 1070.1 565.56C1074.41 560.49 1081.1 556.44 1081.59 549.81C1081.82 546.51 1080.35 543.3 1080.33 539.99C1080.33 535.92 1082.46 532.05 1082.33 527.99C1082.06 521.38 1075.83 516.34 1074.84 509.8C1072.32 493.22 1080.74 476.66 1085.91 460.71C1086.84 457.86 1088.04 454.71 1090.78 453.49C1093.52 452.27 1097.38 452.91 1098.36 450.21C1100.83 443.43 1101.42 435.48 1101.1 428.27C1100.92 424.1 1099.44 420.02 1099.61 415.84C1099.73 412.9 1100.67 410.04 1100.92 407.11C1101.3 402.68 1100.13 398.28 1098.92 394C1098.57 392.472 1098.05 390.989 1097.36 389.58C1096.62 388.302 1095.75 387.105 1094.76 386.01L1089.89 380.22C1087.61 377.51 1085.2 374.7 1081.89 373.33C1080.82 370.68 1077.4 368.85 1074.95 367.39C1072.48 365.989 1069.93 364.736 1067.31 363.64L1039.77 351.48C1038.74 350.962 1037.64 350.604 1036.5 350.42C1034.82 350.364 1033.16 350.707 1031.64 351.42C1023.24 354.75 1014.47 358.07 1005.47 359.41Z" fill="#00B0FF"/>
<path d="M976.3 316.83C975.24 313.1 972.53 309.88 972.12 306.02C971.75 302.59 973.26 299.27 974.12 295.93C974.98 292.59 974.95 288.51 972.3 286.29C971.86 285.91 971.3 285.57 971.14 285.01C970.82 284.01 971.83 283.1 972.14 282.09C972.71 280.09 970.24 277.88 971.14 275.96C971.65 274.91 972.93 274.54 974.05 274.21C978.33 272.94 982.67 270.12 983.6 265.75C986.95 267.15 990.52 264.52 993.09 261.97C995.66 259.42 998.82 256.51 1002.36 257.28L1001.57 258.89C1007.03 256.908 1013 256.841 1018.5 258.7H1016.82C1021.65 258.782 1026.33 260.365 1030.21 263.23C1029.78 263.23 1029.74 263.87 1029.91 264.23C1031.31 267.5 1034.91 269.23 1038.38 270.04C1040.47 270.54 1042.74 270.9 1044.27 272.4C1045.8 273.9 1045.83 277.03 1043.81 277.75C1047.93 279.354 1051.83 281.471 1055.42 284.05C1056.42 284.78 1057.55 285.77 1057.42 287.05C1057.28 287.693 1057.07 288.319 1056.8 288.92C1056.6 289.987 1056.67 291.088 1057.01 292.12L1058.12 296.7C1059.34 301.79 1060.3 307.92 1056.59 311.61C1057.98 314.205 1058.49 317.178 1058.06 320.089C1057.63 323 1056.27 325.693 1054.18 327.77C1054.47 328.663 1054.58 329.609 1054.48 330.545C1054.38 331.48 1054.09 332.384 1053.61 333.198C1053.14 334.011 1052.5 334.715 1051.74 335.264C1050.97 335.812 1050.1 336.193 1049.18 336.38C1050.41 338.3 1049.28 341.04 1047.34 342.24C1045.4 343.44 1042.96 343.45 1040.7 343.24C1038.44 343.03 1036.15 342.52 1033.89 342.86C1030.6 343.37 1027.38 345.61 1024.21 344.61C1023.03 344.105 1021.89 343.496 1020.82 342.79C1018.6 341.6 1016.02 341.33 1013.56 340.79C1009.37 339.889 1005.38 338.191 1001.83 335.79C999.474 334.374 997.596 332.284 996.44 329.79C994.24 324.23 997.94 316.94 994.05 312.41C991.77 309.77 987.25 309.73 984.7 311.99C983.43 313.12 983.26 315.5 981.94 316.35C980.099 316.816 978.194 316.978 976.3 316.83Z" fill="#464353"/>
<path opacity="0.1" d="M927.38 603.57C925.959 602.445 924.732 601.094 923.75 599.57C922.765 598.039 922.373 596.2 922.65 594.4C922.26 596.677 922.409 599.013 923.084 601.222C923.76 603.431 924.943 605.451 926.54 607.12C929.05 609.69 933.76 612.21 937.43 611.33C936.91 608.39 929.71 605.55 927.38 603.57Z" fill="black"/>
<path d="M1125.2 442.72C1125.2 442.72 1103.88 430.36 1075.74 445.72C1047.6 461.08 1042.91 551.47 1042.91 551.47C1042.91 551.47 1054.42 643.56 1010.04 623.07C1010.04 623.07 929.04 597.92 920.93 603.46C920.93 603.46 913.25 603.46 928.6 606.87C943.95 610.28 1003.25 629.07 1003.25 629.07C1003.25 629.07 1022.42 635.77 1030.54 629.07C1038.66 622.37 1061.67 629.93 1064.66 583.87C1066.64 554.844 1070.2 525.948 1075.32 497.31L1083.23 473.86L1125.2 442.72Z" fill="#565661"/>
<path d="M1127.76 585.14C1127.76 585.14 1118.38 491.76 1133.76 458.07C1147.14 428.71 1095.4 442.44 1081.9 446.44C1079.81 447.065 1077.99 448.366 1076.72 450.14C1068.72 461.39 1040.02 506.48 1048.48 566.81C1048.48 566.81 1051.89 620.54 1030.57 629.06L1096.26 607.9C1101.59 606.18 1107 604.75 1112.46 603.51C1119.42 601.93 1130.76 597.44 1127.76 585.14Z" fill="white"/>
<path opacity="0.1" d="M1299.97 766.72C1353.78 766.72 1397.41 759.713 1397.41 751.07C1397.41 742.427 1353.78 735.42 1299.97 735.42C1246.16 735.42 1202.53 742.427 1202.53 751.07C1202.53 759.713 1246.16 766.72 1299.97 766.72Z" fill="#00B0FF"/>
<path d="M1303.1 451.26H1296.83V592.43H1303.1V451.26Z" fill="#535461"/>
<path d="M1342.51 592L1342.12 598.36L1341.56 607.36L1341.33 611.1L1340.78 620.1L1340.54 623.84L1339.98 632.84L1333.66 734.91C1333.37 739.291 1331.43 743.398 1328.22 746.399C1325.02 749.399 1320.79 751.069 1316.4 751.07H1283.53C1279.13 751.068 1274.9 749.389 1271.7 746.375C1268.49 743.362 1266.56 739.24 1266.29 734.85L1259.95 632.77L1259.4 623.77L1259.17 620.03L1258.6 611.03L1258.37 607.29L1257.82 598.29L1257.42 591.93C1257.35 590.711 1257.53 589.491 1257.95 588.343C1258.37 587.196 1259.01 586.145 1259.85 585.255C1260.68 584.366 1261.69 583.656 1262.81 583.168C1263.93 582.681 1265.14 582.426 1266.36 582.42H1333.58C1334.81 582.427 1336.02 582.685 1337.14 583.177C1338.27 583.669 1339.28 584.386 1340.11 585.283C1340.95 586.18 1341.59 587.239 1342 588.394C1342.42 589.549 1342.59 590.776 1342.51 592V592Z" fill="#565661"/>
<path d="M1342.12 598.36L1341.56 607.33H1258.38L1257.82 598.36H1342.12Z" fill="#9D9CB5"/>
<path d="M1341.33 611.08L1340.78 620.06H1259.17L1258.61 611.08H1341.33Z" fill="#9D9CB5"/>
<path d="M1340.54 623.8L1339.98 632.77H1259.96L1259.4 623.8H1340.54Z" fill="#9D9CB5"/>
<path d="M1248.24 504.17C1284.76 530.59 1299.97 571.91 1299.97 571.91C1299.97 571.91 1255.97 570.4 1219.44 543.98C1182.91 517.56 1167.72 476.25 1167.72 476.25C1167.72 476.25 1211.73 477.76 1248.24 504.17Z" fill="#00B0FF"/>
<path d="M1167.72 476.25C1167.72 476.25 1213.39 501.6 1228.05 522.59C1242.71 543.58 1299.97 571.91 1299.97 571.91" stroke="#535461" stroke-width="2" stroke-miterlimit="10"/>
<path d="M1271.81 450.95C1291.69 465.32 1299.97 487.82 1299.97 487.82C1299.97 487.82 1275.97 486.99 1256.14 472.62C1236.31 458.25 1228.04 435.75 1228.04 435.75C1228.04 435.75 1251.94 436.57 1271.81 450.95Z" fill="#00B0FF"/>
<path d="M1228.04 435.75C1228.04 435.75 1252.9 449.55 1260.87 460.97C1268.84 472.39 1300.02 487.82 1300.02 487.82" stroke="#535461" stroke-width="2" stroke-miterlimit="10"/>
<path d="M1328.85 486.67C1306.02 511.76 1301.19 544.55 1301.19 544.55C1301.19 544.55 1333.38 536.65 1356.19 511.55C1379 486.45 1383.85 453.67 1383.85 453.67C1383.85 453.67 1351.68 461.58 1328.85 486.67Z" fill="#00B0FF"/>
<path d="M1383.87 453.68C1383.87 453.68 1354.13 479.4 1346.57 497.12C1339.01 514.84 1301.19 544.55 1301.19 544.55" stroke="#535461" stroke-width="2" stroke-miterlimit="10"/>
<path d="M866.98 426.27V428.55H799.37V426.7C801.224 426.005 802.979 425.07 804.59 423.92C807.461 421.864 809.801 419.153 811.415 416.013C813.029 412.872 813.87 409.391 813.87 405.86C813.871 404.015 813.639 402.177 813.18 400.39C812.362 397.174 810.835 394.182 808.71 391.633C806.585 389.084 803.917 387.043 800.9 385.66H866.52C863.503 387.043 860.835 389.084 858.71 391.633C856.585 394.182 855.058 397.174 854.24 400.39C853.784 402.177 853.556 404.015 853.56 405.86C853.558 409.391 854.398 412.871 856.01 416.012C857.622 419.153 859.96 421.864 862.83 423.92C864.128 424.846 865.519 425.633 866.98 426.27V426.27Z" fill="#DFE6F5"/>
<path opacity="0.1" d="M866.52 385.66C863.503 387.043 860.835 389.084 858.71 391.633C856.585 394.182 855.058 397.174 854.24 400.39H813.18C812.362 397.174 810.835 394.182 808.71 391.633C806.585 389.084 803.917 387.043 800.9 385.66H866.52Z" fill="black"/>
<path d="M721.96 374.01V386.85C721.96 393.93 727.14 399.68 733.54 399.68H932.45C938.85 399.68 944.04 393.93 944.04 386.85V374.01H721.96Z" fill="#DFE6F5"/>
<path opacity="0.1" d="M866.98 426.27V428.55H799.37V426.7C801.224 426.005 802.979 425.07 804.59 423.92H862.83C864.128 424.846 865.519 425.633 866.98 426.27V426.27Z" fill="black"/>
<path d="M885.93 424.63H780.42C778.548 424.63 777.03 426.146 777.03 428.015C777.03 429.884 778.548 431.4 780.42 431.4H885.93C887.802 431.4 889.32 429.884 889.32 428.015C889.32 426.146 887.802 424.63 885.93 424.63Z" fill="#DFE6F5"/>
<path d="M944.04 233.38C944.04 231.858 943.74 230.352 943.158 228.946C942.575 227.541 941.721 226.264 940.645 225.188C939.568 224.113 938.291 223.26 936.885 222.679C935.478 222.097 933.972 221.799 932.45 221.8H733.54C732.019 221.799 730.513 222.097 729.107 222.679C727.701 223.26 726.424 224.113 725.349 225.189C724.273 226.264 723.42 227.541 722.839 228.947C722.257 230.353 721.959 231.859 721.96 233.38V376.51H944.04V233.38Z" fill="#474157"/>
<path d="M937.98 238.55V361.55C937.981 362.299 937.835 363.042 937.549 363.734C937.263 364.427 936.843 365.057 936.314 365.587C935.785 366.117 935.156 366.538 934.464 366.825C933.771 367.112 933.029 367.26 932.28 367.26H733.72C732.971 367.26 732.229 367.112 731.536 366.825C730.844 366.538 730.215 366.117 729.686 365.587C729.157 365.057 728.737 364.427 728.451 363.734C728.165 363.042 728.019 362.299 728.02 361.55V238.55C728.015 237.549 728.277 236.565 728.78 235.7C729.281 234.833 730.001 234.113 730.868 233.613C731.735 233.112 732.719 232.849 733.72 232.85H932.28C933.792 232.85 935.242 233.451 936.311 234.52C937.379 235.588 937.98 237.038 937.98 238.55V238.55Z" fill="#4C4C78"/>
<path d="M833 229.99C834.475 229.99 835.67 228.795 835.67 227.32C835.67 225.845 834.475 224.65 833 224.65C831.525 224.65 830.33 225.845 830.33 227.32C830.33 228.795 831.525 229.99 833 229.99Z" fill="white"/>
<path d="M833 393.97C836.64 393.97 839.59 391.02 839.59 387.38C839.59 383.74 836.64 380.79 833 380.79C829.36 380.79 826.41 383.74 826.41 387.38C826.41 391.02 829.36 393.97 833 393.97Z" fill="white"/>
<path d="M937.98 238.55H728.04C728.04 237.038 728.641 235.588 729.71 234.52C730.778 233.451 732.228 232.85 733.74 232.85H932.28C933.792 232.85 935.242 233.451 936.311 234.52C937.379 235.588 937.98 237.038 937.98 238.55Z" fill="#C8CAD7"/>
<path d="M733.72 237.13C734.51 237.13 735.15 236.49 735.15 235.7C735.15 234.91 734.51 234.27 733.72 234.27C732.93 234.27 732.29 234.91 732.29 235.7C732.29 236.49 732.93 237.13 733.72 237.13Z" fill="#EDEDF4"/>
<path d="M738 237.13C738.79 237.13 739.43 236.49 739.43 235.7C739.43 234.91 738.79 234.27 738 234.27C737.21 234.27 736.57 234.91 736.57 235.7C736.57 236.49 737.21 237.13 738 237.13Z" fill="#EDEDF4"/>
<path d="M742.28 237.13C743.07 237.13 743.71 236.49 743.71 235.7C743.71 234.91 743.07 234.27 742.28 234.27C741.49 234.27 740.85 234.91 740.85 235.7C740.85 236.49 741.49 237.13 742.28 237.13Z" fill="#EDEDF4"/>
</g>
<path d="M85.4307 264.377H74.3105L70.1621 288H59.6182L63.7666 264.377H50.6875V254.467H65.4951L68.376 238.104H55.0088V228.078H70.1621L74.3682 204.109H84.8545L80.6484 228.078H91.8262L96.0322 204.109H106.576L102.37 228.078H114.988V238.104H100.584L97.7031 254.467H110.609V264.377H95.9746L91.8262 288H81.2822L85.4307 264.377ZM76.0391 254.467H87.1592L90.04 238.104H78.8623L76.0391 254.467ZM152.151 253.718H142.184V288H124.898V204.109H142.184V237.7H150.077L170.589 204.109H191.677L165.807 243.808L194.385 288H173.758L152.151 253.718ZM228.437 253.718H218.469V288H201.184V204.109H218.469V237.7H226.362L246.874 204.109H267.962L242.092 243.808L270.67 288H250.043L228.437 253.718ZM294.639 258.442V288H277.354V204.109H310.08C316.38 204.109 321.911 205.262 326.674 207.566C331.475 209.871 335.163 213.155 337.736 217.419C340.31 221.644 341.597 226.465 341.597 231.881C341.597 240.101 338.773 246.592 333.127 251.355C327.519 256.08 319.741 258.442 309.792 258.442H294.639ZM294.639 244.441H310.08C314.651 244.441 318.127 243.366 320.509 241.215C322.929 239.064 324.139 235.991 324.139 231.996C324.139 227.886 322.929 224.563 320.509 222.028C318.089 219.493 314.747 218.187 310.483 218.11H294.639V244.441ZM403.823 204.109H421.166V288H403.823V232.284L370.232 288H352.947V204.109H370.232V259.94L403.823 204.109ZM497.566 218.11H471.869V288H454.584V218.11H429.232V204.109H497.566V218.11ZM84.5088 371.033L100.238 342.109H120.116L95.6865 383.709L120.75 426H100.642L84.5088 396.615L68.376 426H48.2676L73.3311 383.709L48.9014 342.109H68.7793L84.5088 371.033ZM164.539 426C163.771 424.502 163.214 422.639 162.868 420.411C158.835 424.905 153.592 427.152 147.139 427.152C141.031 427.152 135.961 425.385 131.928 421.852C127.933 418.318 125.936 413.862 125.936 408.484C125.936 401.878 128.375 396.807 133.253 393.273C138.17 389.74 145.257 387.953 154.514 387.915H162.177V384.343C162.177 381.462 161.428 379.157 159.93 377.429C158.47 375.7 156.146 374.836 152.958 374.836C150.154 374.836 147.945 375.508 146.332 376.853C144.757 378.197 143.97 380.041 143.97 382.384H127.318C127.318 378.773 128.432 375.431 130.66 372.358C132.888 369.285 136.038 366.885 140.109 365.156C144.181 363.389 148.752 362.506 153.822 362.506C161.505 362.506 167.593 364.446 172.087 368.325C176.619 372.166 178.886 377.582 178.886 384.573V411.596C178.924 417.511 179.75 421.986 181.363 425.021V426H164.539ZM150.769 414.419C153.227 414.419 155.493 413.881 157.567 412.806C159.642 411.692 161.178 410.213 162.177 408.369V397.652H155.954C147.619 397.652 143.182 400.533 142.645 406.295L142.587 407.274C142.587 409.349 143.317 411.058 144.776 412.402C146.236 413.747 148.233 414.419 150.769 414.419ZM216.106 403.011H209.423V426H192.771V363.658H209.423V387.108H215.357L228.955 363.658H249.985L229.589 393.331L251.887 426H229.704L216.106 403.011ZM294.293 426C293.525 424.502 292.968 422.639 292.622 420.411C288.589 424.905 283.346 427.152 276.893 427.152C270.785 427.152 265.715 425.385 261.682 421.852C257.687 418.318 255.689 413.862 255.689 408.484C255.689 401.878 258.129 396.807 263.007 393.273C267.924 389.74 275.01 387.953 284.268 387.915H291.931V384.343C291.931 381.462 291.182 379.157 289.684 377.429C288.224 375.7 285.9 374.836 282.712 374.836C279.908 374.836 277.699 375.508 276.086 376.853C274.511 378.197 273.724 380.041 273.724 382.384H257.072C257.072 378.773 258.186 375.431 260.414 372.358C262.642 369.285 265.792 366.885 269.863 365.156C273.935 363.389 278.506 362.506 283.576 362.506C291.258 362.506 297.347 364.446 301.841 368.325C306.373 372.166 308.64 377.582 308.64 384.573V411.596C308.678 417.511 309.504 421.986 311.117 425.021V426H294.293ZM280.522 414.419C282.981 414.419 285.247 413.881 287.321 412.806C289.396 411.692 290.932 410.213 291.931 408.369V397.652H285.708C277.373 397.652 272.936 400.533 272.398 406.295L272.341 407.274C272.341 409.349 273.071 411.058 274.53 412.402C275.99 413.747 277.987 414.419 280.522 414.419ZM372.249 377.025H352.256V426H335.547V377.025H315.899V363.658H372.249V377.025ZM376.34 394.253C376.34 388.069 377.531 382.557 379.912 377.717C382.294 372.877 385.712 369.132 390.168 366.481C394.662 363.831 399.867 362.506 405.782 362.506C414.194 362.506 421.051 365.079 426.352 370.227C431.691 375.374 434.668 382.365 435.282 391.199L435.397 395.463C435.397 405.027 432.728 412.71 427.389 418.51C422.049 424.271 414.886 427.152 405.897 427.152C396.909 427.152 389.726 424.271 384.349 418.51C379.009 412.748 376.34 404.912 376.34 395.002V394.253ZM392.991 395.463C392.991 401.378 394.105 405.911 396.333 409.061C398.561 412.172 401.749 413.728 405.897 413.728C409.931 413.728 413.08 412.191 415.347 409.118C417.613 406.007 418.746 401.052 418.746 394.253C418.746 388.453 417.613 383.959 415.347 380.771C413.08 377.582 409.892 375.988 405.782 375.988C401.711 375.988 398.561 377.582 396.333 380.771C394.105 383.92 392.991 388.818 392.991 395.463ZM499.698 426H482.989V402.031H462.305V426H445.653V363.658H462.305V388.664H482.989V363.658H499.698V426ZM80.9062 484.406C80.9062 489.615 79.7188 493.792 77.3438 496.938C74.9896 500.062 71.8021 501.625 67.7812 501.625C64.3646 501.625 61.6042 500.438 59.5 498.062V514H50.4688V467.188H58.8438L59.1562 470.5C61.3438 467.875 64.1979 466.562 67.7188 466.562C71.8854 466.562 75.125 468.104 77.4375 471.188C79.75 474.271 80.9062 478.521 80.9062 483.938V484.406ZM71.875 483.75C71.875 480.604 71.3125 478.177 70.1875 476.469C69.0833 474.76 67.4688 473.906 65.3438 473.906C62.5104 473.906 60.5625 474.99 59.5 477.156V491C60.6042 493.229 62.5729 494.344 65.4062 494.344C69.7188 494.344 71.875 490.812 71.875 483.75ZM105.531 475.656C104.302 475.49 103.219 475.406 102.281 475.406C98.8646 475.406 96.625 476.562 95.5625 478.875V501H86.5312V467.188H95.0625L95.3125 471.219C97.125 468.115 99.6354 466.562 102.844 466.562C103.844 466.562 104.781 466.698 105.656 466.969L105.531 475.656ZM107.375 483.781C107.375 480.427 108.021 477.438 109.312 474.812C110.604 472.188 112.458 470.156 114.875 468.719C117.312 467.281 120.135 466.562 123.344 466.562C127.906 466.562 131.625 467.958 134.5 470.75C137.396 473.542 139.01 477.333 139.344 482.125L139.406 484.438C139.406 489.625 137.958 493.792 135.062 496.938C132.167 500.062 128.281 501.625 123.406 501.625C118.531 501.625 114.635 500.062 111.719 496.938C108.823 493.812 107.375 489.562 107.375 484.188V483.781ZM116.406 484.438C116.406 487.646 117.01 490.104 118.219 491.812C119.427 493.5 121.156 494.344 123.406 494.344C125.594 494.344 127.302 493.51 128.531 491.844C129.76 490.156 130.375 487.469 130.375 483.781C130.375 480.635 129.76 478.198 128.531 476.469C127.302 474.74 125.573 473.875 123.344 473.875C121.135 473.875 119.427 474.74 118.219 476.469C117.01 478.177 116.406 480.833 116.406 484.438ZM143.656 483.844C143.656 478.656 144.885 474.479 147.344 471.312C149.823 468.146 153.156 466.562 157.344 466.562C161.052 466.562 163.938 467.833 166 470.375L166.375 467.188H174.562V499.875C174.562 502.833 173.885 505.406 172.531 507.594C171.198 509.781 169.312 511.448 166.875 512.594C164.438 513.74 161.583 514.312 158.312 514.312C155.833 514.312 153.417 513.812 151.062 512.812C148.708 511.833 146.927 510.562 145.719 509L149.719 503.5C151.969 506.021 154.698 507.281 157.906 507.281C160.302 507.281 162.167 506.635 163.5 505.344C164.833 504.073 165.5 502.26 165.5 499.906V498.094C163.417 500.448 160.677 501.625 157.281 501.625C153.219 501.625 149.927 500.042 147.406 496.875C144.906 493.688 143.656 489.469 143.656 484.219V483.844ZM152.688 484.5C152.688 487.562 153.302 489.969 154.531 491.719C155.76 493.448 157.448 494.312 159.594 494.312C162.344 494.312 164.312 493.281 165.5 491.219V477C164.292 474.938 162.344 473.906 159.656 473.906C157.49 473.906 155.781 474.792 154.531 476.562C153.302 478.333 152.688 480.979 152.688 484.5ZM200.531 475.656C199.302 475.49 198.219 475.406 197.281 475.406C193.865 475.406 191.625 476.562 190.562 478.875V501H181.531V467.188H190.062L190.312 471.219C192.125 468.115 194.635 466.562 197.844 466.562C198.844 466.562 199.781 466.698 200.656 466.969L200.531 475.656ZM223.562 501C223.146 500.188 222.844 499.177 222.656 497.969C220.469 500.406 217.625 501.625 214.125 501.625C210.812 501.625 208.062 500.667 205.875 498.75C203.708 496.833 202.625 494.417 202.625 491.5C202.625 487.917 203.948 485.167 206.594 483.25C209.26 481.333 213.104 480.365 218.125 480.344H222.281V478.406C222.281 476.844 221.875 475.594 221.062 474.656C220.271 473.719 219.01 473.25 217.281 473.25C215.76 473.25 214.562 473.615 213.688 474.344C212.833 475.073 212.406 476.073 212.406 477.344H203.375C203.375 475.385 203.979 473.573 205.188 471.906C206.396 470.24 208.104 468.938 210.312 468C212.521 467.042 215 466.562 217.75 466.562C221.917 466.562 225.219 467.615 227.656 469.719C230.115 471.802 231.344 474.74 231.344 478.531V493.188C231.365 496.396 231.812 498.823 232.688 500.469V501H223.562ZM216.094 494.719C217.427 494.719 218.656 494.427 219.781 493.844C220.906 493.24 221.74 492.438 222.281 491.438V485.625H218.906C214.385 485.625 211.979 487.188 211.688 490.312L211.656 490.844C211.656 491.969 212.052 492.896 212.844 493.625C213.635 494.354 214.719 494.719 216.094 494.719ZM246.75 467.188L247.031 470.969C249.427 468.031 252.667 466.562 256.75 466.562C261.104 466.562 264.094 468.281 265.719 471.719C268.094 468.281 271.479 466.562 275.875 466.562C279.542 466.562 282.271 467.635 284.062 469.781C285.854 471.906 286.75 475.115 286.75 479.406V501H277.688V479.438C277.688 477.521 277.312 476.125 276.562 475.25C275.812 474.354 274.49 473.906 272.594 473.906C269.885 473.906 268.01 475.198 266.969 477.781L267 501H257.969V479.469C257.969 477.51 257.583 476.094 256.812 475.219C256.042 474.344 254.729 473.906 252.875 473.906C250.312 473.906 248.458 474.969 247.312 477.094V501H238.281V467.188H246.75ZM302.188 467.188L302.469 470.969C304.865 468.031 308.104 466.562 312.188 466.562C316.542 466.562 319.531 468.281 321.156 471.719C323.531 468.281 326.917 466.562 331.312 466.562C334.979 466.562 337.708 467.635 339.5 469.781C341.292 471.906 342.188 475.115 342.188 479.406V501H333.125V479.438C333.125 477.521 332.75 476.125 332 475.25C331.25 474.354 329.927 473.906 328.031 473.906C325.323 473.906 323.448 475.198 322.406 477.781L322.438 501H313.406V479.469C313.406 477.51 313.021 476.094 312.25 475.219C311.479 474.344 310.167 473.906 308.312 473.906C305.75 473.906 303.896 474.969 302.75 477.094V501H293.719V467.188H302.188ZM358.688 501H349.625V467.188H358.688V501ZM349.094 458.438C349.094 457.083 349.542 455.969 350.438 455.094C351.354 454.219 352.594 453.781 354.156 453.781C355.698 453.781 356.927 454.219 357.844 455.094C358.76 455.969 359.219 457.083 359.219 458.438C359.219 459.812 358.75 460.938 357.812 461.812C356.896 462.688 355.677 463.125 354.156 463.125C352.635 463.125 351.406 462.688 350.469 461.812C349.552 460.938 349.094 459.812 349.094 458.438ZM374.469 467.188L374.75 471.094C377.167 468.073 380.406 466.562 384.469 466.562C388.052 466.562 390.719 467.615 392.469 469.719C394.219 471.823 395.115 474.969 395.156 479.156V501H386.125V479.375C386.125 477.458 385.708 476.073 384.875 475.219C384.042 474.344 382.656 473.906 380.719 473.906C378.177 473.906 376.271 474.99 375 477.156V501H365.969V467.188H374.469ZM400.719 483.844C400.719 478.656 401.948 474.479 404.406 471.312C406.885 468.146 410.219 466.562 414.406 466.562C418.115 466.562 421 467.833 423.062 470.375L423.438 467.188H431.625V499.875C431.625 502.833 430.948 505.406 429.594 507.594C428.26 509.781 426.375 511.448 423.938 512.594C421.5 513.74 418.646 514.312 415.375 514.312C412.896 514.312 410.479 513.812 408.125 512.812C405.771 511.833 403.99 510.562 402.781 509L406.781 503.5C409.031 506.021 411.76 507.281 414.969 507.281C417.365 507.281 419.229 506.635 420.562 505.344C421.896 504.073 422.562 502.26 422.562 499.906V498.094C420.479 500.448 417.74 501.625 414.344 501.625C410.281 501.625 406.99 500.042 404.469 496.875C401.969 493.688 400.719 489.469 400.719 484.219V483.844ZM409.75 484.5C409.75 487.562 410.365 489.969 411.594 491.719C412.823 493.448 414.51 494.312 416.656 494.312C419.406 494.312 421.375 493.281 422.562 491.219V477C421.354 474.938 419.406 473.906 416.719 473.906C414.552 473.906 412.844 474.792 411.594 476.562C410.365 478.333 409.75 480.979 409.75 484.5Z" fill="black"/>
</g>
<defs>
<linearGradient id="paint0_linear" x1="696.45" y1="548.74" x2="698.77" y2="548.74" gradientUnits="userSpaceOnUse">
<stop stop-color="#808080" stop-opacity="0.25"/>
<stop offset="0.54" stop-color="#808080" stop-opacity="0.12"/>
<stop offset="1" stop-color="#808080" stop-opacity="0.1"/>
</linearGradient>
<clipPath id="clip0">
<rect width="1440" height="900" fill="white"/>
</clipPath>
<clipPath id="clip1">
<rect width="1130.08" height="738.14" fill="white" transform="translate(310 81)"/>
</clipPath>
</defs>
</svg>
