<svg width="1440" height="683" viewBox="0 0 1440 683" fill="none" xmlns="http://www.w3.org/2000/svg">
<g clip-path="url(#clip0)">
<rect width="1440" height="683" fill="white"/>
<path d="M1207 132H232V654H1207V132Z" fill="#E2E2E2"/>
<path d="M1179 201H260V619H1179V201Z" fill="white"/>
<path d="M1206.58 132H232V173.422H1206.58V132Z" fill="#00B0FF"/>
<path d="M262.768 112.492C267.358 112.492 271.079 108.77 271.079 104.177C271.079 99.5852 267.358 95.8625 262.768 95.8625C258.178 95.8625 254.457 99.5852 254.457 104.177C254.457 108.77 258.178 112.492 262.768 112.492Z" fill="white"/>
<path d="M291.896 112.492C296.486 112.492 300.207 108.77 300.207 104.177C300.207 99.5852 296.486 95.8625 291.896 95.8625C287.306 95.8625 283.585 99.5852 283.585 104.177C283.585 108.77 287.306 112.492 291.896 112.492Z" fill="white"/>
<path d="M321.024 112.492C325.614 112.492 329.335 108.77 329.335 104.177C329.335 99.5852 325.614 95.8625 321.024 95.8625C316.434 95.8625 312.713 99.5852 312.713 104.177C312.713 108.77 316.434 112.492 321.024 112.492Z" fill="white"/>
<path d="M819.284 272.065H621.355V445.014H819.284V272.065Z" fill="#E2E2E2"/>
<path d="M689.718 284.774L695.794 309.088L693.19 344.691L716.625 362.926L724.436 302.141L720.097 287.38L689.718 284.774Z" fill="#FFB8B8"/>
<path d="M711.416 339.481L715.756 316.035L724.436 299.536L746.135 387.24L696.661 394.187L683.642 323.851L694.744 304.889L702.737 319.508L711.416 339.481Z" fill="white"/>
<path d="M767.243 445.013H684.934L685.378 438.473L704.466 426.319H730.508L766.966 441.951L767.243 445.013Z" fill="#2F2E41"/>
<path d="M706.209 297.8C717.714 297.8 727.04 288.469 727.04 276.959C727.04 265.45 717.714 256.119 706.209 256.119C694.704 256.119 685.378 265.45 685.378 276.959C685.378 288.469 694.704 297.8 706.209 297.8Z" fill="#FFB8B8"/>
<path d="M785.195 377.691L765.234 361.186L767.229 404.354L767.423 408.498L767.672 413.972L768.226 425.917L769.113 445.014H725.66L722.695 435.868L721.518 445.014H681.777C681.5 440.219 681.347 434.44 681.597 428.606C681.75 423.253 682.432 417.929 683.633 412.711C684.379 409.163 685.861 405.811 687.982 402.871L680.17 375.086L676.693 392.45L652.397 394.182C652.397 394.182 652.411 393.739 652.452 392.907V392.894C652.799 384.343 655.361 335.951 668.022 326.458L693.8 301.111C693.8 301.111 693.814 302.954 694.063 306.059V306.073C694.257 308.706 694.617 312.239 695.269 316.328V316.369C696.723 325.585 699.604 337.572 705.339 348.16C707.458 352.068 709.176 355.394 710.575 358.221C716.628 370.485 716.628 373.354 716.628 373.354L719.135 343.462L719.149 343.351L719.163 343.24L722.501 303.218L723 297.245V297.231C723 297.231 762.63 303.883 774.778 322.12C784.544 336.755 802.704 360.382 809.463 369.099C809.546 369.196 809.616 369.293 809.699 369.39L810.71 370.707C810.904 370.956 811.084 371.178 811.236 371.386C811.403 371.594 811.541 371.76 811.652 371.912L812.095 372.481L785.195 377.691Z" fill="#00B0FF"/>
<path d="M718.36 388.977C719.798 388.977 720.964 387.811 720.964 386.372C720.964 384.933 719.798 383.767 718.36 383.767C716.922 383.767 715.756 384.933 715.756 386.372C715.756 387.811 716.922 388.977 718.36 388.977Z" fill="#2F2E41"/>
<path d="M721.832 412.423C723.27 412.423 724.436 411.256 724.436 409.818C724.436 408.379 723.27 407.213 721.832 407.213C720.394 407.213 719.228 408.379 719.228 409.818C719.228 411.256 720.394 412.423 721.832 412.423Z" fill="#2F2E41"/>
<path d="M774.778 419.37L766.967 427.185L761.759 413.291L767.419 408.504L774.778 419.37Z" fill="#FFB8B8"/>
<path d="M675.83 422.843L683.642 430.658L685.378 413.291L680.17 411.554L675.83 422.843Z" fill="#FFB8B8"/>
<path d="M681.906 260.921C681.906 260.921 675.83 253.21 681.906 249.354V251.282C681.906 251.282 694.925 236.824 702.737 240.68L709.681 238.752V240.68L714.021 238.752L713.153 241.643H719.228L716.624 243.571C716.624 243.571 736.588 242.607 724.436 257.065C724.436 257.065 730.212 265.734 724.72 270.556C724.72 270.556 720.096 259.957 714.021 262.849C712.375 263.703 710.518 264.067 708.671 263.896C706.825 263.725 705.066 263.027 703.605 261.885C703.605 261.885 691.453 260.921 693.189 266.704C694.925 272.487 694.057 274.415 694.057 274.415C694.057 274.415 689.718 277.307 690.586 279.235C691.454 281.162 691.454 286.946 691.454 286.946C691.454 286.946 687.114 280.198 685.378 281.162C683.642 282.126 674.094 272.487 681.906 260.921Z" fill="#2F2E41"/>
<path d="M655.867 390.714L652.395 392.939V395.056C652.593 398.779 653.792 402.379 655.867 405.476C659.339 410.686 678.434 428.053 678.434 428.053L683.642 409.818L676.698 392.451L672.358 387.24L655.867 390.714Z" fill="#00B0FF"/>
<path d="M799.949 368.137L809.473 369.103L812.101 372.478C812.101 372.478 813.836 380.294 810.365 384.635C806.893 388.977 776.514 424.58 776.514 424.58L763.495 408.949L786.062 381.162L785.194 377.689L799.949 368.137Z" fill="#00B0FF"/>
<path d="M1119.03 270.366H919.164V445.012H1119.03V270.366Z" fill="#E2E2E2"/>
<path d="M1042.65 308.33L997.517 309.198L991.441 267.517H1042.65V308.33Z" fill="#2F2E41"/>
<path d="M1064.78 314.843C1064.78 314.843 1080.41 314.843 1082.14 331.341C1083.88 347.84 1077.8 390.389 1077.8 390.389L1072.6 445.096H1060.36L1061.31 403.415L1064.78 343.498L1054.37 332.21L1064.78 314.843Z" fill="#A0616A"/>
<path d="M1000.56 314.843C1000.56 314.843 985.8 311.369 971.913 331.341C971.913 331.341 936.326 357.392 947.609 366.944C958.893 376.496 989.272 382.574 989.272 382.574C989.272 382.574 977.988 406.02 984.932 406.888C991.876 407.757 1002.29 381.706 999.687 377.364C997.083 373.022 987.536 370.417 987.536 370.417L964.969 359.129C964.969 359.129 993.924 334.243 995.504 344.949L1004.03 340.893L1000.56 314.843Z" fill="#A0616A"/>
<path d="M1032.67 285.318C1034.5 291.547 1037.72 297.282 1042.08 302.093C1046.44 306.905 1051.82 310.669 1057.84 313.106L1035.27 332.21L1008.37 314.843C1008.37 314.843 1017.91 308.764 1015.31 295.739L1032.67 285.318Z" fill="#A0616A"/>
<path d="M1015.31 299.212C1026.82 299.212 1036.14 289.882 1036.14 278.372C1036.14 266.862 1026.82 257.531 1015.31 257.531C1003.81 257.531 994.48 266.862 994.48 278.372C994.48 289.882 1003.81 299.212 1015.31 299.212Z" fill="#A0616A"/>
<path d="M997.084 313.106L1012.93 309.999C1012.93 309.999 1017.91 321.789 1034.41 320.053C1050.9 318.316 1053.8 311.19 1053.8 311.19L1069.12 314.843C1069.12 314.843 1060.44 324.394 1064.78 343.498C1064.78 343.498 1066.52 374.759 1056.97 386.048L1056.11 403.415C1056.11 403.415 1067.39 432.939 1061.31 445.096H976.252C976.252 445.096 979.724 401.678 995.348 390.389L998.819 382.574C998.819 382.574 991.876 352.182 995.348 346.972C995.348 346.972 997.952 313.974 997.084 313.106Z" fill="#00B0FF"/>
<path d="M1054.91 297.954C1050.19 295.356 1047.98 289.525 1047.83 284.13C1047.67 278.736 1048.98 273.396 1049.08 268C1049.13 266.896 1049.04 265.79 1048.8 264.711C1048.41 263.371 1047.8 262.106 1046.99 260.966C1040.84 251.539 1030.16 244.908 1018.9 244.804C1017.27 244.783 1015.65 245.08 1014.14 245.678C1012.98 246.145 1012.6 246.088 1012.37 247.518C1009.71 246.637 1006.81 246.729 1004.21 247.777C1001.63 248.827 999.22 250.262 997.068 252.032C995.789 252.983 994.582 254.029 993.458 255.159C987.508 261.326 986.138 270.83 987.861 279.226C988.422 281.956 985.733 284.591 983.508 286.267C981.283 287.944 978.714 289.484 977.621 292.047C976.571 294.513 977.148 297.333 976.936 300.005C976.699 302.531 975.76 304.94 974.227 306.961C972.693 308.981 970.625 310.533 968.257 311.44C968.74 312.019 969.371 312.457 970.082 312.707C970.793 312.957 971.558 313.01 972.297 312.862C973.839 312.537 975.282 311.849 976.506 310.857C981.111 307.443 984.406 302.552 985.841 297C986.494 299.974 986.241 303.041 986.217 306.085C986.274 309.483 985.649 312.857 984.378 316.008C983.085 319.174 980.717 321.783 977.691 323.374C980.609 324.804 983.826 323.768 986.299 321.659C988.669 319.408 990.382 316.553 991.252 313.402C992.912 308.371 993.585 303.068 993.234 297.782C995.949 302.355 996.941 307.747 996.032 312.987C995.082 318.329 992.294 323.171 988.151 326.672C995.375 326.611 1002.48 324.821 1008.87 321.452C1010.52 320.704 1011.97 319.583 1013.12 318.178C1015.18 315.324 1014.69 311.431 1014.11 307.96C1013.66 305.216 1017.08 301.248 1015.12 299.278C1014.61 298.765 1013.94 298.445 1013.22 298.373C1006.12 297.358 999.728 293.276 996.65 286.788C995.319 284.121 994.59 281.194 994.514 278.214C994.515 275.083 995.221 271.992 996.58 269.172C997.938 266.351 999.915 263.873 1002.36 261.922C1004.81 259.97 1007.67 258.596 1010.72 257.9C1013.77 257.204 1016.94 257.205 1019.99 257.903C1023.04 258.6 1025.89 259.977 1028.34 261.93C1030.79 263.883 1032.76 266.362 1034.12 269.184C1035.47 272.005 1036.18 275.096 1036.18 278.227C1036.18 281.358 1035.47 284.449 1034.11 287.269C1033.89 291.47 1033.19 295.632 1032.04 299.678C1030.55 304.852 1028.03 310.131 1023.38 312.83C1025.01 313.528 1026.76 313.898 1028.53 313.921C1034.37 314.565 1040.51 314.423 1045.8 311.856C1051.09 309.289 1055.29 303.822 1054.91 297.954Z" fill="#2F2E41"/>
<path d="M1040.05 273.596C1024.43 267.334 1009.04 265.999 994.046 273.596V260.975C994.046 259.896 994.258 258.827 994.671 257.83C995.084 256.832 995.689 255.926 996.452 255.163C997.215 254.4 998.121 253.794 999.118 253.381C1000.11 252.968 1001.18 252.755 1002.26 252.755H1033.56C1035.28 252.755 1036.93 253.439 1038.15 254.657C1039.36 255.875 1040.05 257.527 1040.05 259.249V273.596Z" fill="#2F2E41"/>
<path d="M1036.14 281.411C1037.94 281.411 1039.4 279.078 1039.4 276.201C1039.4 273.323 1037.94 270.991 1036.14 270.991C1034.34 270.991 1032.89 273.323 1032.89 276.201C1032.89 279.078 1034.34 281.411 1036.14 281.411Z" fill="#A0616A"/>
<path d="M533.155 271.538H334.616V445.014H533.155V271.538Z" fill="#E2E2E2"/>
<path d="M448.12 313.335L405.591 312.467V253.419L448.12 257.761V313.335Z" fill="#2F2E41"/>
<path d="M487.07 445.014H395.163C395.759 441.672 396.783 438.421 398.21 435.341C400.814 430.56 404.07 420.138 406.674 410.909C408.184 405.56 409.472 400.612 410.289 397.411C410.885 395.069 411.231 393.656 411.231 393.656L456.361 375.418C456.361 375.418 457.635 377.733 459.685 381.627C459.712 381.685 459.745 381.741 459.782 381.793C461.236 384.551 463.065 388.098 465.087 392.159H465.101C472.498 406.904 482.596 428.55 487.07 445.014Z" fill="#2F2E41"/>
<path d="M414.27 288.153L408.194 318.546L429.026 320.283C429.026 320.283 432.497 293.363 433.365 292.495C434.233 291.627 414.27 288.153 414.27 288.153Z" fill="#FFB8B8"/>
<path d="M427.724 298.139C439.228 298.139 448.555 288.809 448.555 277.299C448.555 265.789 439.228 256.458 427.724 256.458C416.219 256.458 406.893 265.789 406.893 277.299C406.893 288.809 416.219 298.139 427.724 298.139Z" fill="#FFB8B8"/>
<path d="M408.194 309.862C408.194 309.862 428.158 314.204 429.026 313.336C429.894 312.467 453.329 316.809 455.065 324.624C456.8 332.439 452.461 362.832 452.461 362.832C452.461 362.832 462.008 367.174 461.14 368.91C460.272 370.647 466.348 372.384 464.612 374.989C462.876 377.594 431.629 422.748 416.874 421.88C402.119 421.012 375.212 322.888 375.212 322.888C375.212 322.888 376.08 310.731 387.363 310.731C398.647 310.731 408.194 309.862 408.194 309.862Z" fill="#00B0FF"/>
<path d="M465.046 379.765C465.046 379.765 452.879 382.52 455.057 388.089C457.234 393.658 470.254 391.922 470.254 391.922L465.046 379.765Z" fill="#FFB8B8"/>
<path d="M427.078 445.014H395.163C395.066 445.513 394.955 446.025 394.844 446.538C393.309 445.904 391.724 445.394 390.107 445.014C389.747 444.931 389.539 444.889 389.539 444.889C389.539 444.889 382.585 418.836 373.041 386.713C364.578 358.207 373.18 329.008 375.23 322.785V322.772C375.493 321.995 375.646 321.58 375.646 321.58L383.458 315.51L410.289 397.411L417.312 418.836C417.312 418.836 417.534 420.028 417.908 421.871C419.044 427.359 421.648 438.597 424.252 440.552C425.55 441.781 426.521 443.315 427.078 445.014V445.014Z" fill="#00B0FF"/>
<path d="M443.347 321.585L454.179 322.71L478.933 353.714C478.933 353.714 488.481 362.398 482.405 365.871C476.33 369.344 473.726 376.291 473.726 376.291C473.726 376.291 481.537 393.658 470.254 396.263C470.254 396.263 462.442 378.896 459.838 377.16C457.234 375.423 463.31 368.476 463.31 368.476L443.347 355.451L443.347 321.585Z" fill="#00B0FF"/>
<path d="M427.724 243.433C427.724 243.433 403.421 239.091 399.081 260.8C398.041 265.841 397.353 270.948 397.024 276.084C396.341 288.664 392.894 300.938 386.929 312.033L425.988 323.322C425.988 323.322 415.572 306.823 417.308 299.876C417.63 298.134 417.606 296.345 417.237 294.612C413.188 292.115 410.115 288.307 408.529 283.821C406.943 279.335 406.94 274.44 408.52 269.952C410.1 265.464 413.169 261.652 417.215 259.15C421.261 256.649 426.042 255.608 430.761 256.202C435.48 256.796 439.854 258.988 443.156 262.413C446.457 265.839 448.487 270.292 448.907 275.032C449.328 279.772 448.114 284.513 445.467 288.467C442.821 292.421 438.901 295.35 434.36 296.766C431.456 303.088 429.875 309.927 433.799 314.638C438.758 320.701 444.612 325.972 451.159 330.269C451.159 330.269 446.819 309.428 453.763 297.271C460.706 285.114 453.763 245.17 427.724 243.433Z" fill="#2F2E41"/>
<path d="M449.308 271.282L408.584 273.672L407.463 254.583L442.907 253.308L449.308 271.282Z" fill="#2F2E41"/>
<path d="M342.773 516.577C346.598 516.577 349.699 513.475 349.699 509.648C349.699 505.821 346.598 502.719 342.773 502.719C338.948 502.719 335.847 505.821 335.847 509.648C335.847 513.475 338.948 516.577 342.773 516.577Z" fill="#E2E2E2"/>
<path d="M342.773 555.38C346.598 555.38 349.699 552.277 349.699 548.451C349.699 544.624 346.598 541.522 342.773 541.522C338.948 541.522 335.847 544.624 335.847 548.451C335.847 552.277 338.948 555.38 342.773 555.38Z" fill="#E2E2E2"/>
<path d="M342.773 594.182C346.598 594.182 349.699 591.08 349.699 587.253C349.699 583.426 346.598 580.324 342.773 580.324C338.948 580.324 335.847 583.426 335.847 587.253C335.847 591.08 338.948 594.182 342.773 594.182Z" fill="#E2E2E2"/>
<path d="M503.455 504.105H371.862V515.191H503.455V504.105Z" fill="#E2E2E2"/>
<path d="M503.455 542.907H371.862V553.994H503.455V542.907Z" fill="#E2E2E2"/>
<path d="M503.455 581.71H371.862V592.796H503.455V581.71Z" fill="#E2E2E2"/>
<path d="M643.442 516.577C647.267 516.577 650.368 513.475 650.368 509.648C650.368 505.821 647.267 502.719 643.442 502.719C639.617 502.719 636.516 505.821 636.516 509.648C636.516 513.475 639.617 516.577 643.442 516.577Z" fill="#E2E2E2"/>
<path d="M643.442 555.38C647.267 555.38 650.368 552.277 650.368 548.451C650.368 544.624 647.267 541.522 643.442 541.522C639.617 541.522 636.516 544.624 636.516 548.451C636.516 552.277 639.617 555.38 643.442 555.38Z" fill="#E2E2E2"/>
<path d="M643.442 594.182C647.267 594.182 650.368 591.08 650.368 587.253C650.368 583.426 647.267 580.324 643.442 580.324C639.617 580.324 636.516 583.426 636.516 587.253C636.516 591.08 639.617 594.182 643.442 594.182Z" fill="#E2E2E2"/>
<path d="M804.123 504.105H672.531V515.191H804.123V504.105Z" fill="#E2E2E2"/>
<path d="M804.123 542.907H672.531V553.994H804.123V542.907Z" fill="#E2E2E2"/>
<path d="M804.123 581.71H672.531V592.796H804.123V581.71Z" fill="#E2E2E2"/>
<path d="M942.222 516.577C946.047 516.577 949.147 513.475 949.147 509.648C949.147 505.821 946.047 502.719 942.222 502.719C938.396 502.719 935.296 505.821 935.296 509.648C935.296 513.475 938.396 516.577 942.222 516.577Z" fill="#E2E2E2"/>
<path d="M942.222 555.38C946.047 555.38 949.147 552.277 949.147 548.451C949.147 544.624 946.047 541.522 942.222 541.522C938.396 541.522 935.296 544.624 935.296 548.451C935.296 552.277 938.396 555.38 942.222 555.38Z" fill="#E2E2E2"/>
<path d="M942.222 594.182C946.047 594.182 949.147 591.08 949.147 587.253C949.147 583.426 946.047 580.324 942.222 580.324C938.396 580.324 935.296 583.426 935.296 587.253C935.296 591.08 938.396 594.182 942.222 594.182Z" fill="#E2E2E2"/>
<path d="M1102.9 504.105H971.311V515.191H1102.9V504.105Z" fill="#E2E2E2"/>
<path d="M1102.9 542.907H971.311V553.994H1102.9V542.907Z" fill="#E2E2E2"/>
<path d="M1102.9 581.71H971.311V592.796H1102.9V581.71Z" fill="#E2E2E2"/>
<path d="M298.672 61.7123C298.141 69.056 295.422 74.8373 290.516 79.056C285.641 83.2748 279.203 85.3842 271.203 85.3842C262.453 85.3842 255.562 82.4467 250.531 76.5717C245.531 70.6654 243.031 62.5717 243.031 52.2904V48.1185C243.031 41.556 244.188 35.7748 246.5 30.7748C248.812 25.7748 252.109 21.9467 256.391 19.2904C260.703 16.6029 265.703 15.2592 271.391 15.2592C279.266 15.2592 285.609 17.3685 290.422 21.5873C295.234 25.806 298.016 31.7279 298.766 39.3529H284.703C284.359 34.9467 283.125 31.7592 281 29.7904C278.906 27.7904 275.703 26.7904 271.391 26.7904C266.703 26.7904 263.188 28.4779 260.844 31.8529C258.531 35.1967 257.344 40.3998 257.281 47.4623V52.6185C257.281 59.9935 258.391 65.3842 260.609 68.7904C262.859 72.1967 266.391 73.8998 271.203 73.8998C275.547 73.8998 278.781 72.9154 280.906 70.9467C283.062 68.9467 284.297 65.8685 284.609 61.7123H298.672ZM305 59.4623C305 51.306 306.656 44.8217 309.969 40.0092C313.312 35.1967 317.906 32.7904 323.75 32.7904C326.031 32.7904 328.109 33.2435 329.984 34.1498V12.4467H343.531V34.1967C345.469 33.2592 347.609 32.7904 349.953 32.7904C355.828 32.7904 360.422 35.1967 363.734 40.0092C367.078 44.7904 368.75 51.6029 368.75 60.4467C368.75 68.1029 367.078 74.181 363.734 78.681C360.391 83.1498 355.828 85.3842 350.047 85.3842C347.641 85.3842 345.469 84.9467 343.531 84.0717V103.947H329.984V84.1185C328.109 84.9623 326 85.3842 323.656 85.3842C318.188 85.3842 313.797 83.3373 310.484 79.2435C307.172 75.1498 305.359 69.5404 305.047 62.4154L305 59.4623ZM355.156 59.4623C355.156 54.3998 354.391 50.5248 352.859 47.8373C351.328 45.1185 349.172 43.7592 346.391 43.7592C345.516 43.7592 344.562 43.8685 343.531 44.0873V74.2279C344.406 74.4154 345.391 74.5092 346.484 74.5092C351.797 74.5092 354.672 70.4779 355.109 62.4154L355.156 59.4623ZM318.547 60.4467C318.547 69.7904 321.406 74.4623 327.125 74.4623C328.312 74.4623 329.266 74.3842 329.984 74.2279V44.0873C328.953 43.8685 328.031 43.7592 327.219 43.7592C324.438 43.7592 322.297 45.0873 320.797 47.7435C319.297 50.3685 318.547 54.6029 318.547 60.4467ZM375.031 58.6185C375.031 53.5873 376 49.1029 377.938 45.1654C379.875 41.2279 382.656 38.181 386.281 36.0248C389.938 33.8685 394.172 32.7904 398.984 32.7904C405.828 32.7904 411.406 34.8842 415.719 39.0717C420.062 43.2592 422.484 48.9467 422.984 56.1342L423.078 59.6029C423.078 67.3842 420.906 73.6342 416.562 78.3529C412.219 83.0404 406.391 85.3842 399.078 85.3842C391.766 85.3842 385.922 83.0404 381.547 78.3529C377.203 73.6654 375.031 67.2904 375.031 59.2279V58.6185ZM388.578 59.6029C388.578 64.4154 389.484 68.1029 391.297 70.6654C393.109 73.1967 395.703 74.4623 399.078 74.4623C402.359 74.4623 404.922 73.2123 406.766 70.7123C408.609 68.181 409.531 64.1498 409.531 58.6185C409.531 53.8998 408.609 50.2435 406.766 47.6498C404.922 45.056 402.328 43.7592 398.984 43.7592C395.672 43.7592 393.109 45.056 391.297 47.6498C389.484 50.2123 388.578 54.1967 388.578 59.6029ZM477.078 59.556C477.078 67.3685 475.297 73.6342 471.734 78.3529C468.203 83.0404 463.422 85.3842 457.391 85.3842C452.266 85.3842 448.125 83.6029 444.969 80.0404V103.947H431.422V33.7279H443.984L444.453 38.6967C447.734 34.7592 452.016 32.7904 457.297 32.7904C463.547 32.7904 468.406 35.1029 471.875 39.7279C475.344 44.3529 477.078 50.7279 477.078 58.8529V59.556ZM463.531 58.5717C463.531 53.8529 462.688 50.2123 461 47.6498C459.344 45.0873 456.922 43.806 453.734 43.806C449.484 43.806 446.562 45.431 444.969 48.681V69.4467C446.625 72.7904 449.578 74.4623 453.828 74.4623C460.297 74.4623 463.531 69.1654 463.531 58.5717ZM516.406 68.4623L529.672 33.7279H546.641V84.4467H533.094V53.3217L520.953 84.4467H511.859L499.953 53.8373V84.4467H486.406V33.7279H503.234L516.406 68.4623ZM589.016 33.7279H602.562V84.4467H589.016V53.1342L572.047 84.4467H558.453V33.7279H572.047V64.9935L589.016 33.7279ZM658.578 59.556C658.578 67.3685 656.797 73.6342 653.234 78.3529C649.703 83.0404 644.922 85.3842 638.891 85.3842C633.766 85.3842 629.625 83.6029 626.469 80.0404V103.947H612.922V33.7279H625.484L625.953 38.6967C629.234 34.7592 633.516 32.7904 638.797 32.7904C645.047 32.7904 649.906 35.1029 653.375 39.7279C656.844 44.3529 658.578 50.7279 658.578 58.8529V59.556ZM645.031 58.5717C645.031 53.8529 644.188 50.2123 642.5 47.6498C640.844 45.0873 638.422 43.806 635.234 43.806C630.984 43.806 628.062 45.431 626.469 48.681V69.4467C628.125 72.7904 631.078 74.4623 635.328 74.4623C641.797 74.4623 645.031 69.1654 645.031 58.5717ZM685.391 65.2748L694.766 33.7279H709.297L688.906 92.3217L687.781 94.9935C684.75 101.619 679.75 104.931 672.781 104.931C670.812 104.931 668.812 104.634 666.781 104.04V93.7748L668.844 93.8217C671.406 93.8217 673.312 93.431 674.562 92.6498C675.844 91.8685 676.844 90.5717 677.562 88.7592L679.156 84.5873L661.391 33.7279H675.969L685.391 65.2748ZM745.203 33.7279H758.75V84.4467H745.203V53.1342L728.234 84.4467H714.641V33.7279H728.234V64.9935L745.203 33.7279ZM753.172 13.1498C753.172 17.306 751.672 20.6654 748.672 23.2279C745.703 25.7904 741.797 27.0717 736.953 27.0717C732.109 27.0717 728.188 25.806 725.188 23.2748C722.219 20.7435 720.734 17.3685 720.734 13.1498H730.344C730.344 15.1185 730.922 16.6498 732.078 17.7435C733.266 18.806 734.891 19.3373 736.953 19.3373C738.984 19.3373 740.578 18.806 741.734 17.7435C742.891 16.6498 743.469 15.1185 743.469 13.1498H753.172ZM812.891 65.7435H807.453V84.4467H793.906V33.7279H807.453V52.806H812.281L823.344 33.7279H840.453L823.859 57.8685L842 84.4467H823.953L812.891 65.7435ZM842.281 58.6185C842.281 53.5873 843.25 49.1029 845.188 45.1654C847.125 41.2279 849.906 38.181 853.531 36.0248C857.188 33.8685 861.422 32.7904 866.234 32.7904C873.078 32.7904 878.656 34.8842 882.969 39.0717C887.312 43.2592 889.734 48.9467 890.234 56.1342L890.328 59.6029C890.328 67.3842 888.156 73.6342 883.812 78.3529C879.469 83.0404 873.641 85.3842 866.328 85.3842C859.016 85.3842 853.172 83.0404 848.797 78.3529C844.453 73.6654 842.281 67.2904 842.281 59.2279V58.6185ZM855.828 59.6029C855.828 64.4154 856.734 68.1029 858.547 70.6654C860.359 73.1967 862.953 74.4623 866.328 74.4623C869.609 74.4623 872.172 73.2123 874.016 70.7123C875.859 68.181 876.781 64.1498 876.781 58.6185C876.781 53.8998 875.859 50.2435 874.016 47.6498C872.172 45.056 869.578 43.7592 866.234 43.7592C862.922 43.7592 860.359 45.056 858.547 47.6498C856.734 50.2123 855.828 54.1967 855.828 59.6029ZM929.562 68.4623L942.828 33.7279H959.797V84.4467H946.25V53.3217L934.109 84.4467H925.016L913.109 53.8373V84.4467H899.562V33.7279H916.391L929.562 68.4623ZM1001 84.4467C1000.38 83.2279 999.922 81.7123 999.641 79.8998C996.359 83.556 992.094 85.3842 986.844 85.3842C981.875 85.3842 977.75 83.9467 974.469 81.0717C971.219 78.1967 969.594 74.5717 969.594 70.1967C969.594 64.8217 971.578 60.6967 975.547 57.8217C979.547 54.9467 985.312 53.4935 992.844 53.4623H999.078V50.556C999.078 48.2123 998.469 46.3373 997.25 44.931C996.062 43.5248 994.172 42.8217 991.578 42.8217C989.297 42.8217 987.5 43.3685 986.188 44.4623C984.906 45.556 984.266 47.056 984.266 48.9623H970.719C970.719 46.0248 971.625 43.306 973.438 40.806C975.25 38.306 977.812 36.3529 981.125 34.9467C984.438 33.5092 988.156 32.7904 992.281 32.7904C998.531 32.7904 1003.48 34.3685 1007.14 37.5248C1010.83 40.6498 1012.67 45.056 1012.67 50.7435V72.7279C1012.7 77.5404 1013.38 81.181 1014.69 83.6498V84.4467H1001ZM989.797 75.0248C991.797 75.0248 993.641 74.5873 995.328 73.7123C997.016 72.806 998.266 71.6029 999.078 70.1029V61.3842H994.016C987.234 61.3842 983.625 63.7279 983.188 68.4154L983.141 69.2123C983.141 70.8998 983.734 72.2904 984.922 73.3842C986.109 74.4779 987.734 75.0248 989.797 75.0248ZM1067.05 84.4467H1053.45V64.9467H1036.62V84.4467H1023.08V33.7279H1036.62V54.0717H1053.45V33.7279H1067.05V84.4467ZM1078.25 73.5248C1081.31 70.2748 1083.39 67.056 1084.48 63.8685C1085.58 60.681 1086.19 56.1654 1086.31 50.3217L1086.69 33.7279H1124V73.5248H1131.31V99.681H1117.77V84.4467H1087.72V99.681H1073.89V73.5248H1078.25ZM1094.23 73.5248H1110.5V44.931H1099.95L1099.86 51.0248C1099.58 60.3373 1097.7 67.8373 1094.23 73.5248ZM1157.14 65.2748L1166.52 33.7279H1181.05L1160.66 92.3217L1159.53 94.9935C1156.5 101.619 1151.5 104.931 1144.53 104.931C1142.56 104.931 1140.56 104.634 1138.53 104.04V93.7748L1140.59 93.8217C1143.16 93.8217 1145.06 93.431 1146.31 92.6498C1147.59 91.8685 1148.59 90.5717 1149.31 88.7592L1150.91 84.5873L1133.14 33.7279H1147.72L1157.14 65.2748Z" fill="black"/>
</g>
<defs>
<clipPath id="clip0">
<rect width="1440" height="683" fill="white"/>
</clipPath>
</defs>
</svg>
